<?xml version="1.0" encoding="UTF-8" standalone="no"?>
<!-- Created with Inkscape (http://www.inkscape.org/) -->

<svg
   xmlns:dc="http://purl.org/dc/elements/1.1/"
   xmlns:cc="http://creativecommons.org/ns#"
   xmlns:rdf="http://www.w3.org/1999/02/22-rdf-syntax-ns#"
   xmlns:svg="http://www.w3.org/2000/svg"
   xmlns="http://www.w3.org/2000/svg"
   xmlns:sodipodi="http://sodipodi.sourceforge.net/DTD/sodipodi-0.dtd"
   xmlns:inkscape="http://www.inkscape.org/namespaces/inkscape"
   width="230.3372"
   height="46.236252"
   id="svg2"
   version="1.1"
   inkscape:version="0.47 r22583"
   sodipodi:docname="新建文档 1">
  <defs
     id="defs4">
    <inkscape:perspective
       sodipodi:type="inkscape:persp3d"
       inkscape:vp_x="0 : 526.18109 : 1"
       inkscape:vp_y="0 : 1000 : 0"
       inkscape:vp_z="744.09448 : 526.18109 : 1"
       inkscape:persp3d-origin="372.04724 : 350.78739 : 1"
       id="perspective10" />
    <clipPath
       id="clipPath2832"
       clipPathUnits="userSpaceOnUse">
      <path
         id="path2834"
         d="m 0,824.945 595.2,0 0,-764.02 -595.2,0 0,764.02 z" />
    </clipPath>
    <inkscape:perspective
       id="perspective2824"
       inkscape:persp3d-origin="0.5 : 0.33333333 : 1"
       inkscape:vp_z="1 : 0.5 : 1"
       inkscape:vp_y="0 : 1000 : 0"
       inkscape:vp_x="0 : 0.5 : 1"
       sodipodi:type="inkscape:persp3d" />
    <inkscape:perspective
       id="perspective3036"
       inkscape:persp3d-origin="0.5 : 0.33333333 : 1"
       inkscape:vp_z="1 : 0.5 : 1"
       inkscape:vp_y="0 : 1000 : 0"
       inkscape:vp_x="0 : 0.5 : 1"
       sodipodi:type="inkscape:persp3d" />
  </defs>
  <sodipodi:namedview
     id="base"
     pagecolor="#ffffff"
     bordercolor="#666666"
     borderopacity="1.0"
     inkscape:pageopacity="0.0"
     inkscape:pageshadow="2"
     inkscape:zoom="4.4459724"
     inkscape:cx="132.70438"
     inkscape:cy="22.2575"
     inkscape:document-units="px"
     inkscape:current-layer="svg2"
     showgrid="false"
     inkscape:window-width="1280"
     inkscape:window-height="725"
     inkscape:window-x="-9"
     inkscape:window-y="-9"
     inkscape:window-maximized="1" />
  <metadata
     id="metadata7">
    <rdf:RDF>
      <cc:Work
         rdf:about="">
        <dc:format>image/svg+xml</dc:format>
        <dc:type
           rdf:resource="http://purl.org/dc/dcmitype/StillImage" />
        <dc:title></dc:title>
      </cc:Work>
    </rdf:RDF>
  </metadata>
  <g
     id="main"
     transform="translate(-35.867054,-202.66915)">
    <path
       d="m 64.040804,203.22415 0,14.01375 c -0.04625,0.48875 -0.4325,0.87625 -0.92,0.925 l 0,0.004 -2.675,0 c -0.5675,0 -1.02875,0.45875 -1.02875,1.02625 l 0,7.1875 c 0,-0.54125 0.42,-0.98375 0.95375,-1.02125 l 5.1175,0 c 0.0325,0.002 0.0625,0.004 0.09375,0.004 0.03375,0 0.065,-0.001 0.0975,-0.004 0.34875,-0.0312 0.64375,-0.2425 0.805,-0.53875 0.0025,-0.005 0.0037,-0.01 0.0075,-0.0163 0.02375,-0.0437 0.04375,-0.0913 0.06125,-0.14 0.0088,-0.0288 0.01875,-0.0588 0.025,-0.09 0.0062,-0.0225 0.01125,-0.0438 0.015,-0.0675 0.0087,-0.0525 0.01375,-0.10375 0.01625,-0.1575 l 0,-14.71125 c 6.06625,2.88375 10.26125,9.0675 10.26125,16.23 0,9.05 -6.6925,16.5375 -15.39875,17.78375 l 0,-10.0825 4.01625,0 c 0.0325,0.004 0.0625,0.006 0.09375,0.006 0.03375,0 0.065,-0.002 0.0975,-0.006 0.52,-0.0475 0.93,-0.48375 0.93,-1.01875 l 0,-7.2 c 0,0.5675 -0.45875,1.0275 -1.0275,1.0275 l -5.13625,0 c -0.5675,0 -1.02875,0.46 -1.02875,1.02625 l 0,6.15875 -1.0275,0 0,-6.15875 c 0,-0.56625 -0.45875,-1.02625 -1.02625,-1.02625 l -5.13875,0 c -0.56625,0 -1.02625,-0.46 -1.02625,-1.0275 l 0,7.2 c 0.0037,0.535 0.41125,0.97125 0.9325,1.01875 0.03,0.004 0.06125,0.006 0.09375,0.006 0.03125,0 0.06375,-0.002 0.09625,-0.006 l 4.015,0 0,10.0825 c -8.70625,-1.24625 -15.3975,-8.73375 -15.3975,-17.78375 0,-7.1625 4.195,-13.34625 10.26,-16.23 l 0,14.7025 c 0,0.004 0.0012,0.004 0.0012,0.009 0.0025,0.0537 0.0063,0.105 0.0125,0.1575 0.0063,0.0237 0.01125,0.045 0.0175,0.0675 0.0063,0.0312 0.01625,0.0613 0.025,0.09 0.0175,0.0487 0.04,0.0962 0.06125,0.14 0.0025,0.006 0.005,0.0113 0.0075,0.0163 0.16125,0.29625 0.45625,0.5075 0.8075,0.53875 0.03,0.002 0.06125,0.004 0.09375,0.004 0.03125,0 0.06375,-0.001 0.09625,-0.004 l 5.11625,0 c 0.5325,0.0375 0.9525,0.48 0.9525,1.02125 l 0,-7.1875 c 0,-0.5675 -0.45875,-1.02625 -1.02625,-1.02625 l -2.6725,0 -0.0037,-0.004 c -0.4875,-0.0488 -0.875,-0.43625 -0.92,-0.925 l 0,-13.9775 c -10.25625,2.36625 -17.9,11.5525 -17.9,22.5275 0,12.73875 10.30875,23.07125 23.0375,23.11625 l 0.08,10e-4 c 12.76875,0 23.1175,-10.35125 23.1175,-23.1175 0,-11.03 -7.72375,-20.25625 -18.06125,-22.56375 m -3.115,-0.47375 c -0.64,-0.0538 -1.28625,-0.0813 -1.94125,-0.0813 l -0.08,0 c -0.625,0.002 -1.245,0.03 -1.85875,0.0813 -0.23875,0.02 -0.4725,0.0437 -0.71,0.0712 l 0,13.1325 c 0,0.64875 0.5325,1.18125 1.18,1.18125 l 2.775,0 c 0.65125,0 1.1825,-0.5325 1.1825,-1.18125 l 0,-13.1525 c -0.1825,-0.0187 -0.365,-0.035 -0.5475,-0.0512"
       style="fill:#008a7d;fill-opacity:1;fill-rule:nonzero;stroke:none"
       id="logo" />
    <path
       id="zhong"
       style="fill:#000000;fill-opacity:1;fill-rule:nonzero;stroke:none"
       d="m 111.5508,218.4804 -5.1025,0 0,-5.79637 5.1025,0 0,5.79637 z m -9.185,0 -4.793746,0 0,-5.79637 4.793746,0 0,5.79637 z m 13.83125,-5.54875 c 0.305,-0.28875 0.46625,-0.525 0.47375,-0.70375 0.006,-0.325 -0.54625,-0.8325 -1.65875,-1.52375 l -1.12875,-0.69375 c -0.46625,-0.29875 -0.8025,-0.43375 -1,-0.40625 -0.19625,0.0213 -0.43625,0.22625 -0.725,0.60625 -0.27625,0.37 -0.605,0.7975 -0.97625,1.28125 l -4.73375,0 -0.0138,-3.86625 0.60625,-0.41875 c 0.2175,-0.15375 0.345,-0.315 0.39625,-0.48125 0.0512,-0.16625 0.0187,-0.35 -0.1,-0.5475 -0.115,-0.19625 -0.82875,-0.43625 -2.14375,-0.73 -1.30875,-0.2875 -2.05375,-0.44125 -2.23375,-0.45875 -0.35125,-0.0263 -0.57375,0.007 -0.68125,0.10875 -0.1,0.0962 -0.14625,0.32 -0.12875,0.66 l 0.21625,3.05 0,2.68375 -4.301246,0 -3.45125,-1.7875 c -0.4525,-0.2325 -0.73625,-0.325 -0.85625,-0.28125 -0.12375,0.04 -0.22125,0.11 -0.29,0.2025 l 0.14625,2.1675 0,6.84125 -0.16125,2.8075 c 0,0.25375 0.04625,0.45875 0.14875,0.6125 0.09625,0.15375 0.60625,0.215 1.52625,0.175 0.9225,-0.04 1.5575,-0.22375 1.91125,-0.55 0.35875,-0.32875 0.53375,-0.635 0.53375,-0.92 l 0,-1.085 4.811246,0 0.0112,4.61125 -0.245,4.3025 c 0.0362,0.24125 0.12,0.4425 0.2525,0.6125 0.13,0.16625 0.47875,0.27125 1.045,0.31 0.615,0.0538 1.18625,-0.004 1.7,-0.17 0.5175,-0.16625 0.86875,-0.35 1.05375,-0.54625 0.18375,-0.19625 0.32,-0.415 0.4225,-0.665 l -0.175,-3.67875 0,-4.77625 5.1025,0 0,0.985 c 0,0.5475 0.0563,0.905 0.17,1.08125 0.11,0.17375 0.3925,0.2875 0.84125,0.34125 0.30375,0.0438 0.78125,-0.005 1.435,-0.14 0.65125,-0.13625 1.07,-0.29 1.2625,-0.45125 0.19375,-0.1625 0.34375,-0.36375 0.44375,-0.6 l -0.1675,-2.60125 0,-4.715" />
    <path
       d="m 141.29955,225.27415 -14.19625,0 0.0262,-17.01375 14.17,0 0,17.01375 z m 4.67,-17.53 c 0,-0.15375 -0.2725,-0.45625 -0.81375,-0.8975 -0.5425,-0.44625 -1.23375,-0.8625 -2.07875,-1.2425 -0.3075,-0.13 -0.5375,-0.17875 -0.69375,-0.145 -0.15625,0.0362 -0.34875,0.19375 -0.57375,0.4775 -0.225,0.28 -0.51,0.65625 -0.85875,1.125 l -13.525,0 -3.02875,-1.49625 c -0.44125,-0.21375 -0.705,-0.2975 -0.79625,-0.25 -0.0875,0.0437 -0.165,0.115 -0.22875,0.21 l 0.15125,3.7275 0.0125,15.0575 -0.15125,3.8925 c 0.0662,0.18875 0.1475,0.3275 0.2525,0.41125 0.10125,0.0875 0.31875,0.14 0.65375,0.16625 1.2175,0.105 1.995,0.0125 2.33125,-0.275 0.32875,-0.285 0.495,-0.54375 0.495,-0.775 l 0,-1.2625 14.16625,0 -0.0112,1.22375 c -0.009,0.42 0.0687,0.7125 0.23,0.88375 0.15875,0.17375 0.50625,0.28375 1.02875,0.33625 0.52625,0.0475 1.04,-0.01 1.54875,-0.175 0.50625,-0.16625 0.8325,-0.3325 0.97,-0.49875 0.13875,-0.16625 0.23625,-0.425 0.29,-0.77375 l -0.1475,-3.27125 0.0238,-15.49125 c 0.4975,-0.45125 0.74875,-0.77 0.75375,-0.9575 m -17.1925,14.68125 -1.5825,-0.14 0.28,0.3525 0.6575,0.9125 1.55,-0.0538 11.13125,0.0975 c 0.35,-0.0937 0.56,-0.5475 0.335,-0.945 -0.0538,-0.14 -0.24,-0.37375 -0.56125,-0.705 -0.3875,-0.39375 -0.795,-0.76 -1.22875,-1.09375 -0.23375,-0.17 -0.4025,-0.24875 -0.5175,-0.2325 -0.1125,0.0188 -0.22375,0.0888 -0.33125,0.21125 -0.105,0.12625 -0.29375,0.3575 -0.5675,0.70875 -0.265,0.345 -0.51625,0.65 -0.7375,0.9275 l -2.06,0 0,-5.66375 0.12625,0.001 c -0.0113,0.0188 -0.0163,0.0413 -0.0225,0.0637 -0.0137,0.145 0.0375,0.27125 0.1675,0.385 l 0.46875,0.38125 c 0.28125,0.27375 0.4575,0.655 0.545,1.15 0.085,0.49 0.15375,0.8225 0.205,0.99375 0.0463,0.16875 0.1875,0.335 0.42,0.4975 0.23625,0.17875 0.6225,0.26125 1.16125,0.24875 0.5375,-0.0137 0.955,-0.275 1.25,-0.7875 0.1475,-0.2575 0.19875,-0.5725 0.16375,-0.9525 -0.0362,-0.38125 -0.28,-0.79125 -0.73,-1.23875 -0.33875,-0.33875 -0.9325,-0.57875 -1.7775,-0.72375 l 2.95625,0.0312 c 0.27125,-0.0788 0.4725,-0.4225 0.39,-0.7475 -0.015,-0.0712 -0.055,-0.15125 -0.1225,-0.23875 -0.1075,-0.1525 -0.63625,-0.6 -1.58,-1.33 -0.34,-0.2575 -0.62,-0.3675 -0.835,-0.32875 -0.2125,0.04 -0.7,0.53 -1.4525,1.47875 l -1.34875,0 0.015,-3.79125 c 0.0275,-0.0238 0.0537,-0.0475 0.08,-0.075 l 5.2775,0.05 c 0.35125,-0.0925 0.56,-0.54125 0.34375,-0.9375 -0.0538,-0.1275 -0.17875,-0.295 -0.37375,-0.50375 -0.3225,-0.34 -0.89125,-0.8125 -1.71875,-1.41625 -0.27625,-0.19625 -0.48375,-0.28375 -0.61125,-0.2625 -0.13,0.0225 -0.30625,0.16125 -0.51875,0.42875 -0.2175,0.2625 -0.55875,0.7475 -1.0275,1.4475 l -7.10625,0 -2.0225,-0.13875 0.61625,0.7925 0.39375,0.54625 1.54625,-0.055 1.84625,0.0175 0,3.8975 -2.275,-0.0137 -1.885,-0.165 0.72625,0.9225 0.0337,-0.001 0.25875,0.3775 1.46125,-0.0537 1.68,0.0162 0.0162,5.6975 -1.185,-0.006"
       style="fill:#000000;fill-opacity:1;fill-rule:nonzero;stroke:none"
       id="guo" />
    <path
       d="m 165.7083,210.83665 c 0.0588,0.33 0.15625,0.76875 0.29,1.32125 0.16625,0.67875 0.38375,1.425 0.64,2.24375 0.26125,0.8125 0.76625,1.91875 1.52625,3.31 1.12,-1.35125 1.85625,-2.34375 2.205,-2.9875 l 0.295,-0.5375 c 0.2625,-0.47625 0.46375,-0.73 0.6025,-0.76125 0.13875,-0.03 0.3125,0.004 0.51875,0.0962 0.14375,0.0788 0.37,0.255 0.68,0.525 0.30875,0.27625 0.7,0.565 1.16875,0.86625 0.475,0.30125 0.83375,0.59875 1.07,0.8925 0.2475,0.2875 0.3275,0.5075 0.2475,0.65125 -0.1175,0.1875 -0.60875,0.26625 -1.4675,0.24375 -1.85375,0.735 -3.4225,1.32625 -4.71875,1.78125 0.29125,0.45125 0.66375,0.975 1.1225,1.57375 0.455,0.59875 1.2175,1.29125 2.28875,2.0775 1.06625,0.78375 2.07875,1.3525 3.03125,1.70125 l 0.725,0.27125 0.825,0.15375 c 0.13125,0.0888 0.205,0.2 0.22,0.34125 0.0113,0.14 -0.035,0.24 -0.135,0.30625 -0.105,0.0662 -0.33125,0.1525 -0.68125,0.2625 l -0.56375,0.19125 c -0.29,0.105 -0.505,0.1975 -0.65125,0.27625 -0.15375,0.0825 -0.355,0.23125 -0.60875,0.45375 -0.25625,0.225 -0.44875,0.42125 -0.57875,0.59125 -0.13,0.17125 -0.26375,0.4325 -0.3925,0.78875 -0.12875,0.35375 -0.2475,0.54625 -0.34625,0.5675 -0.1075,0.0263 -0.3025,-0.0613 -0.59125,-0.2675 l -0.68375,-0.4625 c -0.30875,-0.20125 -0.69875,-0.52125 -1.18625,-0.95375 -0.48125,-0.43 -0.91625,-0.85625 -1.29125,-1.28125 -0.37875,-0.425 -0.86,-1.11125 -1.44375,-2.07 -0.58375,-0.9575 -1.09875,-2.08875 -1.55,-3.40125 -0.44625,-1.3125 -0.75625,-2.54625 -0.93125,-3.70125 -0.1775,-1.15875 -0.29,-2.07625 -0.345,-2.74875 -0.0563,-0.67375 -0.0975,-1.265 -0.135,-1.7675 -0.11875,0.33125 -0.26125,0.7175 -0.43625,1.14875 -0.1775,0.4375 -0.7575,1.48375 -1.74625,3.14 0.5375,0.2675 0.81375,0.5075 0.825,0.7275 0.015,0.2175 -0.29,0.48875 -0.9175,0.81375 l 0,6.93 c 0.6275,-0.31 1.77,-0.86875 3.435,-1.69125 l 0.44,-0.21875 c 0.32625,-0.1625 0.56125,-0.18875 0.7175,-0.0737 0.15125,0.10875 0.2025,0.24375 0.15125,0.40625 -0.045,0.16625 -0.12,0.2925 -0.21875,0.38375 l -0.245,0.2325 -4.8325,4.7025 -1.28125,1.2675 c -0.27625,0.1975 -0.48375,0.275 -0.62,0.23125 -0.115,-0.0263 -0.25875,-0.19125 -0.4275,-0.49875 l -0.69125,-1.15375 c -0.1775,-0.315 -0.35,-0.665 -0.51,-1.05 -0.16125,-0.38375 -0.235,-0.63375 -0.215,-0.7425 0.0175,-0.17125 0.1275,-0.325 0.335,-0.46375 0.20625,-0.13625 0.3125,-0.2375 0.3125,-0.30625 l 0,-5.0475 c -1.375,1.085 -2.62125,1.9725 -3.7375,2.66375 -1.1175,0.69 -1.83375,1.12 -2.15,1.28125 l -0.51125,0.27125 c -0.15125,0.0825 -0.3175,0.12625 -0.49625,0.12125 -0.18,-0.002 -0.35125,-0.0725 -0.505,-0.205 -0.15625,-0.135 0.0362,-0.415 0.58375,-0.83875 l 0.4025,-0.31125 c 0.36875,-0.28 0.71,-0.55125 1.0175,-0.805 0.3125,-0.2575 0.9925,-0.98375 2.05125,-2.1775 1.05125,-1.19875 1.8325,-2.1475 2.33375,-2.8525 0.50125,-0.70375 1.0525,-1.62125 1.65125,-2.755 0.5975,-1.1325 0.97875,-1.945 1.15,-2.44 l 0.45125,-1.2375 -3.70125,0 c 0.0525,0.35625 0.0925,0.72 0.1175,1.08875 0.0312,0.45 -0.0962,0.955 -0.38,1.50875 -0.28875,0.555 -0.82875,0.94 -1.62,1.16 -0.79125,0.21875 -1.40625,0.0912 -1.8425,-0.38125 -0.44125,-0.46875 -0.65125,-0.94 -0.635,-1.40875 0.01,-0.4925 0.225,-0.95625 0.6475,-1.38125 l 1.09,-0.95 c 0.20625,-0.23875 0.38625,-0.57125 0.53875,-1.00125 l 0.12375,-0.345 0.0362,-0.77 c 0.0387,-0.1275 0.12,-0.2225 0.255,-0.28875 0.1275,-0.0613 0.29125,-0.0175 0.485,0.13625 0.0563,0.0525 0.1425,0.165 0.2575,0.345 l 0.35,0.53875 0.25625,0.55375 4.45125,0 c 0.0625,-0.22125 0.12875,-0.455 0.1975,-0.70625 0.0975,-0.36875 0.22,-1.09375 0.36375,-2.17875 l 0.12,-0.92375 c 0.0563,-0.4675 0.11375,-0.73 0.1825,-0.7875 0.0662,-0.0563 0.3375,-0.0213 0.8125,0.0962 0.0987,0.0362 0.60875,0.13625 1.52125,0.30625 0.91625,0.17125 1.6025,0.3675 2.0475,0.58625 0.45,0.215 0.665,0.43375 0.64875,0.6475 -0.02,0.17 -0.3175,0.46375 -0.90125,0.88375 -0.35125,0.8125 -0.6575,1.50375 -0.92,2.07625 l 4.57875,0 c 0.425,-0.515 0.71875,-0.8425 0.8825,-0.9875 0.1925,-0.17125 0.37625,-0.27125 0.54625,-0.2975 0.17,-0.0225 0.4475,0.0925 0.8225,0.34625 1.2925,0.9125 2.0875,1.52625 2.38375,1.82875 0.2975,0.3 0.44125,0.585 0.43125,0.8525 -0.0288,0.51125 -0.37375,0.79 -1.035,0.84375 l -1.1725,-0.04 c -0.96125,-0.009 -1.84875,0.32875 -2.65125,1.0025 l -0.69,0.57625 c -0.36875,0.315 -0.62125,0.4125 -0.755,0.2925 -0.13375,-0.1175 -0.13625,-0.31875 -0.0125,-0.6025 l 0.32,-0.7675 c 0.13,-0.3125 0.36875,-0.92875 0.7275,-1.8525"
       style="fill:#000000;fill-opacity:1;fill-rule:nonzero;stroke:none"
       id="nong" />
    <path
       id="ye"
       style="fill:#000000;fill-opacity:1;fill-rule:nonzero;stroke:none"
       d="m 183.8058,212.6554 -0.30625,-0.59875 c -0.0787,-0.13125 -0.11875,-0.285 -0.12625,-0.455 -0.01,-0.17 0.0563,-0.27875 0.205,-0.33875 0.145,-0.06 0.275,-0.05 0.38875,0.015 0.115,0.0738 0.2675,0.21 0.45375,0.40625 l 0.50125,0.56 c 0.75125,0.85375 1.355,1.5925 1.80375,2.2175 0.455,0.62 1.00125,1.52875 1.64,2.7225 0.6425,1.19875 0.91875,2.415 0.835,3.65 -0.06,0.76 -0.30625,1.41875 -0.73625,1.97125 -0.4325,0.5525 -0.95,0.855 -1.55125,0.905 -0.6025,0.0463 -1.10125,-0.11 -1.49375,-0.47625 -0.39,-0.365 -0.62,-0.77625 -0.68125,-1.245 -0.0688,-0.46125 -0.0362,-1.095 0.085,-1.89875 0.12375,-0.7975 0.18875,-1.4725 0.19375,-2.0225 0.004,-0.54625 -0.0563,-1.2225 -0.185,-2.02625 -0.0937,-0.5475 -0.17625,-0.9475 -0.24875,-1.19375 -0.0738,-0.25 -0.205,-0.645 -0.39625,-1.185 -0.19375,-0.53875 -0.32,-0.87625 -0.38125,-1.0075 m -1.99625,14.45 0.0588,0.005 7.6125,0.0737 0,-17.74 -0.205,-3.5225 c 0.0362,-0.0687 0.0825,-0.12375 0.13875,-0.17125 0.0613,-0.0413 0.24625,-0.025 0.55125,0.0612 l 1.15625,0.22 1.1925,0.3025 c 0.92625,0.22 1.425,0.4925 1.4825,0.805 0.0437,0.2775 -0.2375,0.6375 -0.845,1.085 l 0.015,18.99375 1.525,0.015 0,-17.8625 -0.1925,-3.475 c 0.09,-0.16625 0.31,-0.2325 0.6525,-0.19875 0.7,0.085 1.53,0.25875 2.49125,0.53 0.96,0.26875 1.46875,0.54875 1.53,0.8425 0.0513,0.3225 -0.28,0.68375 -1.00125,1.07875 l 0.0125,14.1425 c 0.3275,-0.8325 0.66125,-1.7675 1.0025,-2.815 0.34,-1.04625 0.60625,-1.9175 0.79875,-2.61875 0.1925,-0.70125 0.385,-1.4825 0.58375,-2.34375 0.195,-0.86875 0.33875,-1.52625 0.43625,-1.98 l 0.17875,-0.935 0.11375,-0.71125 c 0.15,-0.19 0.4725,-0.1475 0.975,0.125 l 1.28,0.59875 1.4475,0.82 c 0.84375,0.4825 1.19875,0.90375 1.0625,1.26875 -0.0662,0.18375 -0.38625,0.39625 -0.9625,0.63375 -0.39875,0.73125 -0.8175,1.47125 -1.245,2.21375 -0.4325,0.74 -1.01,1.63 -1.73625,2.6675 -0.72625,1.0375 -2.03375,2.84375 -3.92,5.41375 l 0,2.62875 2.27,0 c 0.65375,-0.79875 1.16875,-1.4575 1.54,-1.975 0.3725,-0.5175 0.67375,-0.79 0.91125,-0.82 0.23625,-0.03 0.56875,0.1025 1.005,0.39125 0.315,0.23375 0.6575,0.51375 1.02375,0.84625 l 0.88375,0.83625 c 0.29375,0.27625 0.46375,0.555 0.505,0.835 0.095,0.39375 -0.0312,0.80875 -0.35875,0.9 l -21.425,-0.0962 -1.6125,0.0513 -0.635,-0.77875" />
    <path
       id="yin"
       style="fill:#000000;fill-opacity:1;fill-rule:nonzero;stroke:none"
       d="m 225.6283,212.1704 4.97013,0 0,3.17388 -4.97013,0 0,-3.17388 z m 0.0125,12.05 -0.0125,-7.68125 1.87125,0 0.0675,0.82625 c 0.0913,1.14625 0.165,1.9375 0.23125,2.385 0.0637,0.42625 0.16875,0.94625 0.315,1.56 l 0.0137,0.065 c 0.15625,0.64 0.3225,1.2825 0.495,1.9225 -0.7025,0.22 -2.0325,0.635 -2.98125,0.9225 m -0.0125,-16.05 4.97013,0 0,2.805 -4.97013,0 0,-2.805 z m 10.72,17.4225 -0.725,-0.30625 c -1.42625,-0.59 -2.4375,-1.19875 -3.03,-1.82 -0.59375,-0.62625 -1.08875,-1.19 -1.49625,-1.6925 1.23,-0.51125 2.0425,-0.91375 2.43875,-1.1975 0.395,-0.29 0.74375,-0.555 1.05125,-0.8 0.88,-0.14125 1.33875,-0.32875 1.37,-0.57875 0.02,-0.12625 -0.0775,-0.2925 -0.2925,-0.4925 -0.2175,-0.2025 -0.5575,-0.4025 -1.02625,-0.605 -0.46625,-0.19625 -0.88625,-0.37875 -1.26375,-0.55 -0.37625,-0.16625 -0.6625,-0.24125 -0.85,-0.225 -0.14375,0.0188 -0.23625,0.0588 -0.28125,0.12 l -0.11,0.34375 -0.16,0.46 c -0.0613,0.16125 -0.2175,0.45625 -0.455,0.87125 -0.24625,0.42 -0.44625,0.72 -0.6075,0.90875 -0.16125,0.18875 -0.3375,0.3725 -0.515,0.55125 l -0.68625,-1.40875 c -0.11125,-0.19125 -0.345,-1.07 -0.69625,-2.6325 l 1.585,0 0,0.11 c 0,0.3325 0.27875,0.5325 0.83625,0.60375 0.2625,0.0387 0.61625,0.0437 1.07,0.005 0.4575,-0.0413 0.79625,-0.1225 1.02625,-0.25875 0.22375,-0.13125 0.41,-0.34625 0.54125,-0.6425 l -0.11875,-2.735 0,-4.995 c 0.52875,-0.47625 0.785,-0.8125 0.76875,-1.00125 -0.02,-0.10875 -0.15625,-0.265 -0.415,-0.47 -0.25375,-0.2075 -0.855,-0.59625 -1.7975,-1.17 -0.4175,-0.24375 -0.73,-0.3575 -0.9275,-0.3375 -0.1975,0.0238 -0.42,0.20375 -0.6675,0.54375 -0.20125,0.2775 -0.395,0.54125 -0.5825,0.785 l -4.705,0 -1.9775,-0.99125 c -0.665,-0.3225 -1.0475,-0.45875 -1.1425,-0.405 -0.1025,0.0475 -0.175,0.10875 -0.23125,0.1775 l 0.11875,2.77875 0,9.21375 c -0.22375,-0.3225 -0.5775,-0.7075 -1.05875,-1.155 -0.48875,-0.44125 -0.81625,-0.655 -0.98375,-0.63375 -0.17125,0.0225 -0.32125,0.105 -0.4525,0.25 -0.13125,0.14875 -0.29,0.3275 -0.47375,0.55125 -0.1825,0.2225 -0.43875,0.51125 -0.77125,0.87 l -0.405,0 0,-2.715 c 0.1975,-0.14625 0.36875,-0.31625 0.51,-0.5125 l 2.52,0 c 0.27125,0 0.4325,-0.065 0.48375,-0.1975 0.0538,-0.13125 0.0113,-0.305 -0.125,-0.52 -0.14375,-0.215 -0.4325,-0.53 -0.87875,-0.95 -0.44,-0.415 -0.74,-0.6325 -0.89625,-0.65 -0.1875,-0.009 -0.36875,0.065 -0.5425,0.21875 -0.175,0.1525 -0.35875,0.34875 -0.54625,0.59375 -0.1875,0.24625 -0.41,0.50625 -0.65625,0.7875 l -3.28875,0 -1.1725,-0.0388 c 0.70625,-0.8525 1.415,-1.7875 2.1275,-2.81 l 0.0362,-0.001 4.2575,0.0788 1.575,0.1075 c 0.3225,-0.0913 0.54625,-0.56125 0.31,-0.92375 l -0.0175,-0.0375 c -0.1,-0.22375 -0.515,-0.67375 -1.23,-1.36 -0.3225,-0.29 -0.56125,-0.425 -0.71625,-0.4025 -0.15375,0.0213 -0.35125,0.165 -0.6,0.4275 -0.23875,0.2625 -0.5975,0.685 -1.06625,1.25875 l -1.9225,-0.0462 c 0.3225,-0.48875 0.79375,-1.30875 1.41875,-2.46875 0.6525,-0.22625 0.97625,-0.44375 0.98625,-0.65 0,-0.3325 -0.74875,-0.735 -2.24875,-1.2075 l -1.08125,-0.3325 c -0.55375,-0.1975 -0.88625,-0.17875 -0.9975,0.0525 l -0.0775,0.53875 -0.145,0.73 c -0.085,0.385 -0.26375,1.0725 -0.545,2.065 -0.27625,0.9875 -0.58625,1.98875 -0.93125,3.00375 -0.345,1.01 -0.74125,1.9425 -1.17625,2.785 l -0.36875,0.69125 c -0.0425,0.0975 -0.0387,0.215 0.0125,0.35875 0.055,0.14375 0.15125,0.20125 0.29,0.1625 0.1425,-0.04 0.25375,-0.0962 0.33,-0.175 l 0.46125,-0.4725 0.8875,-0.92375 c 0.0362,-0.0337 0.0962,-0.095 0.17375,-0.1775 l 0.45875,0.58875 1.15875,-0.10375 0,3.2275 -1.98125,0 -1.55125,-0.095 -0.0838,-0.008 0,0.003 -0.005,0 0.48125,0.8575 0.007,0 0.0838,0.14375 1.60375,-0.0825 1.445,0.0175 -0.0138,5.63625 c -0.007,0.37625 -0.10375,0.66 -0.2875,0.85375 -0.18625,0.19125 -0.2775,0.28875 -0.2775,0.28875 -0.0737,0.1275 -0.0737,0.305 -0.007,0.5375 0.0687,0.23125 0.26875,0.64625 0.60625,1.255 0.33625,0.6075 0.6075,1.05375 0.8075,1.33875 0.2025,0.285 0.37875,0.44125 0.535,0.4675 0.115,0.0337 0.2075,0.03 0.27625,-0.005 0.0613,-0.0387 0.1725,-0.16625 0.32375,-0.38125 l 0.4475,-0.615 c 0.6125,-0.85375 1.10875,-1.53 1.49375,-2.03 0.38625,-0.49875 1.28,-1.48625 2.66625,-2.965 l 0.56625,-0.6025 c 0.11,-0.11875 0.15875,-0.24875 0.15125,-0.39875 -0.01,-0.145 -0.0863,-0.22375 -0.22875,-0.24125 -0.145,-0.0175 -0.255,-0.007 -0.3225,0.0275 l -0.89125,0.45875 -1.4825,0.7425 c -0.26125,0.13625 -0.63625,0.33375 -1.13,0.59125 l 0,-4.9175 2.23625,0.0263 1.58,0.13125 c 0.13625,-0.04 0.25625,-0.1475 0.32875,-0.285 l -0.0113,5.8375 c -0.009,0.34875 -0.0462,0.58625 -0.1075,0.6975 -0.0637,0.115 -0.15375,0.24625 -0.28375,0.38625 -0.12375,0.13875 -0.1975,0.24875 -0.2175,0.32875 -0.0675,0.22625 0.145,0.76 0.635,1.6 l 0.97125,1.53625 c 0.17875,0.2925 0.34,0.445 0.48625,0.4625 0.105,0.0175 0.18875,0.005 0.24,-0.0312 0.0538,-0.0387 0.15625,-0.14375 0.3125,-0.315 l 0.495,-0.5775 0.92875,-1 1.15875,-1.29125 1.08875,-1.14125 0.0225,-0.0225 0,0.001 c 0.1825,-0.1975 0.4425,-0.4925 0.7875,-0.8875 0.0362,0.0825 0.11,0.25375 0.215,0.51125 0.1125,0.2575 0.4475,0.8125 1.01875,1.68 0.56875,0.86 1.21125,1.56625 1.93375,2.11125 l 0.45625,0.3325 c 0.15625,0.1225 0.27625,0.19625 0.36375,0.23125 0.195,0.0962 0.34125,0.11875 0.44,0.07 0.0925,-0.0475 0.25625,-0.315 0.4975,-0.8 0.23625,-0.48375 0.5425,-0.8575 0.9125,-1.10625 0.37375,-0.255 0.6525,-0.4075 0.8425,-0.455 l 0.73,-0.1925 c 0.27625,-0.07 0.41,-0.1875 0.39625,-0.35375 -0.015,-0.16625 -0.1325,-0.3025 -0.35875,-0.4025" />
    <path
       d="m 242.37205,213.38665 c 0.165,-0.03 0.44,-0.145 0.81625,-0.35 l 0.565,-0.31 c 0.0438,-0.0225 0.3925,-0.24125 1.035,-0.6525 l 1.72375,-1.01 0.0338,-0.0225 2.1775,-1.47875 c 0.26875,-0.17875 0.69125,-0.455 1.265,-0.82125 0.64625,0.035 1.025,-0.0387 1.13,-0.2275 0.0662,-0.11375 0.0325,-0.2975 -0.0875,-0.56125 -0.1175,-0.25625 -0.555,-0.725 -1.3125,-1.40375 l -0.98,-0.8425 c -0.405,-0.3675 -0.68125,-0.52875 -0.8325,-0.485 -0.14625,0.0387 -0.28375,0.17375 -0.41,0.3925 l -0.20125,0.37125 -0.4825,0.7575 -0.26625,0.42875 -0.5025,0.805 c -0.345,0.52875 -0.79375,1.175 -1.355,1.9375 -0.56,0.765 -1.10375,1.40375 -1.62375,1.91625 l -0.56375,0.54875 c -0.31375,0.31 -0.4925,0.5175 -0.54,0.6225 -0.045,0.10875 -0.0275,0.205 0.0475,0.2975 0.0775,0.0875 0.19875,0.1175 0.36375,0.0875 m 23.72375,0.81875 c -0.1275,-0.28 -0.4775,-0.71 -1.05125,-1.2875 -0.81625,-0.81625 -1.3625,-1.24125 -1.64125,-1.26875 -0.285,-0.0162 -0.67375,0.285 -1.16,0.89625 -0.4825,0.6175 -0.87375,1.1375 -1.17125,1.56625 l -9.185,0 -1.50875,-0.12625 0.015,-0.0263 c 0.49125,-0.0337 0.77625,-0.16125 0.85,-0.385 0.0975,-0.31125 -0.355,-0.775 -1.355,-1.4 -1.00375,-0.62 -1.5775,-0.97375 -1.72875,-1.0625 -0.3375,-0.1525 -0.5525,-0.2 -0.655,-0.14 -0.105,0.0613 -0.1875,0.1575 -0.25125,0.29375 l -0.2025,0.4375 -0.48375,0.9475 -0.0212,0.0463 c -0.255,0.48 -0.515,0.9675 -0.78625,1.45875 -0.27625,0.5075 -0.80625,1.34 -1.5825,2.485 -0.77625,1.14875 -1.52625,2.10375 -2.24375,2.865 l -0.51,0.5375 c -0.1375,0.14 -0.2,0.2625 -0.2,0.38125 0,0.1125 0.0488,0.2275 0.15625,0.34375 0.0987,0.115 0.35375,0.0412 0.7575,-0.22125 l 0.76625,-0.50375 c 1.15875,-0.75125 1.99625,-1.32 2.5075,-1.71375 l 0,7.54375 -0.135,2.935 c 0.0787,0.1525 0.1975,0.2825 0.35,0.385 0.11875,0.0812 0.42375,0.115 0.92,0.10375 0.135,-0.002 0.2875,-0.01 0.45375,-0.0213 0.76375,-0.0475 1.265,-0.185 1.50875,-0.415 0.2425,-0.2325 0.4,-0.4775 0.46875,-0.74375 l -0.14625,-2.44875 0,-8.415 c 0.4125,-0.395 0.61,-0.66875 0.5975,-0.8225 -0.009,-0.1525 -0.13875,-0.30125 -0.3825,-0.4425 -0.24375,-0.13875 -0.46875,-0.27125 -0.67125,-0.3875 l 0.11875,-0.105 1.25,-1.24375 c 0.0563,-0.0525 0.15375,-0.12625 0.28625,-0.23125 l 0.22,0.26625 0.5475,0.75375 1.60375,-0.0825 5.585,0.0288 -0.0263,9.49125 c -0.01,0.32375 -0.0687,0.60625 -0.17875,0.85375 -0.115,0.23875 -0.53,0.32625 -1.2575,0.26125 -0.72125,-0.07 -1.13875,-0.11375 -1.25375,-0.1275 l -0.48625,-0.0387 c -0.3775,-0.0275 -0.65375,-0.009 -0.8275,0.0488 -0.175,0.0613 -0.26625,0.1775 -0.27125,0.3625 -0.005,0.17875 0.0538,0.30125 0.1825,0.3675 0.125,0.07 0.39125,0.14375 0.7975,0.22 l 0.72625,0.15125 c 0.225,0.0538 0.42125,0.17875 0.59125,0.385 0.17,0.205 0.2825,0.45125 0.335,0.73 l 0.0412,0.77 c 0.01,0.25 0.055,0.4125 0.13375,0.485 0.0825,0.08 0.22625,0.1325 0.4325,0.1575 0.39625,0.0575 1.15375,-0.025 2.28,-0.2525 1.1325,-0.22375 1.79875,-0.525 2.00875,-0.90125 0.2125,-0.375 0.3175,-0.8275 0.3175,-1.3475 l 0,-11.21 c 0.0663,-0.0637 0.1825,-0.19375 0.34875,-0.38375 l 2.3275,0.0112 1.57625,0.13 c 0.33,-0.0937 0.57,-0.57875 0.3125,-0.945 m -14.76,-6.26875 0.3875,0.485 0.3325,0.4575 1.605,-0.0838 8.52125,0.0637 1.5775,0.12875 c 0.3375,-0.095 0.58375,-0.55625 0.22875,-0.95125 -0.18,-0.22875 -0.4775,-0.5275 -0.895,-0.89625 l -1.06375,-0.98875 c -0.3225,-0.27125 -0.58625,-0.405 -0.78125,-0.40125 -0.19875,0.004 -0.4575,0.18375 -0.775,0.5375 -0.3125,0.345 -0.7575,0.9225 -1.34,1.74 l -5.5925,-0.009 -2.2125,-0.1425 0.0462,0.0637"
       style="fill:#000000;fill-opacity:1;fill-rule:nonzero;stroke:none"
       id="hang" />
    <path
       id="agricultural"
       style="fill:#000000;fill-opacity:1;fill-rule:nonzero;stroke:none"
       d="m 175.8908,246.6929 -6.245,0 c -0.0588,0.004 -0.1075,-0.008 -0.14625,-0.0337 -0.0375,-0.025 -0.0488,-0.0713 -0.035,-0.14125 0.007,-0.0375 0.0288,-0.0662 0.0588,-0.0888 0.0325,-0.02 0.0662,-0.0337 0.10125,-0.04 l 0.10125,-0.0137 c 0.04,-0.003 0.1,-0.0238 0.185,-0.0638 0.0863,-0.0387 0.17,-0.0887 0.25,-0.15375 0.0825,-0.0637 0.13875,-0.15125 0.1725,-0.25875 0.035,-0.10625 0.0525,-0.23125 0.0575,-0.37375 l 0,-4.5 c 0,-0.0588 -0.0125,-0.1625 -0.0325,-0.31125 -0.0213,-0.14875 -0.0588,-0.2575 -0.11,-0.325 -0.0525,-0.065 -0.13,-0.12875 -0.23625,-0.19625 -0.1075,-0.065 -0.18375,-0.1 -0.2275,-0.10375 l -0.14875,-0.01 c -0.0362,0 -0.0737,-0.015 -0.11,-0.0437 -0.0375,-0.0325 -0.0488,-0.0713 -0.0387,-0.1225 0.0125,-0.0488 0.0337,-0.085 0.0687,-0.11 0.0362,-0.0238 0.08,-0.0362 0.13125,-0.0362 l 3.06125,0.005 c 0.0513,0.004 0.095,0.0175 0.12,0.0375 0.0288,0.0238 0.0437,0.0563 0.0462,0.0988 0.001,0.045 -0.0125,0.0837 -0.0362,0.11375 -0.0275,0.0325 -0.0588,0.05 -0.1,0.0525 l -0.1425,0.015 c -0.0875,0.0113 -0.175,0.04 -0.25875,0.0875 -0.0825,0.0475 -0.15625,0.1175 -0.22375,0.2075 -0.0662,0.09 -0.1125,0.19 -0.135,0.3 -0.025,0.11 -0.035,0.2125 -0.035,0.30625 l 0,4.6825 c -0.004,0.11625 -0.004,0.2 0,0.24625 0.004,0.0462 0.0262,0.1 0.0675,0.1575 0.0387,0.0575 0.0925,0.10625 0.16125,0.14125 0.065,0.0375 0.14625,0.055 0.23875,0.055 l 1.07125,0 c 0.0712,0 0.17875,-0.005 0.3225,-0.02 0.14625,-0.015 0.29625,-0.0488 0.44625,-0.1 0.15,-0.0525 0.30875,-0.1425 0.47875,-0.2725 0.16625,-0.13 0.30125,-0.25375 0.40625,-0.37 0.1025,-0.11875 0.2,-0.25 0.29125,-0.39875 0.095,-0.1475 0.1675,-0.27625 0.21,-0.38375 l 0.075,-0.185 c 0.0337,-0.0838 0.06,-0.1425 0.0813,-0.18125 0.0237,-0.0362 0.0675,-0.0525 0.13125,-0.0475 0.06,0.006 0.1,0.0275 0.1175,0.0613 0.0187,0.04 0.0212,0.12125 0.0112,0.25 m -12.0963,-0.4352 0.95,-2.375 0.03,0.07 0.98,2.305 -1.96,0 z m 5.21,2.24125 c -0.0362,-0.0175 -0.0763,-0.0312 -0.12,-0.0425 l -0.0875,-0.015 c -0.0625,-0.01 -0.13625,-0.04 -0.215,-0.0887 -0.08,-0.0488 -0.14625,-0.1075 -0.19625,-0.17125 -0.0525,-0.065 -0.12125,-0.16375 -0.20875,-0.3 -0.09,-0.135 -0.14375,-0.225 -0.16625,-0.275 l -2.49,-5.45 c -0.0712,-0.1475 -0.13,-0.24875 -0.17625,-0.3075 -0.0463,-0.0588 -0.11625,-0.0863 -0.20625,-0.0813 -0.0937,0.005 -0.1625,0.0462 -0.21125,0.125 -0.0475,0.0762 -0.095,0.18 -0.145,0.3125 l -0.008,0.02 -2.10625,5.38125 c -0.0238,0.0625 -0.0588,0.13125 -0.10125,0.20375 -0.0475,0.0738 -0.0987,0.14875 -0.16125,0.22625 -0.0613,0.0762 -0.1275,0.1425 -0.1925,0.19625 -0.0637,0.0525 -0.14625,0.1 -0.24375,0.14125 -0.0963,0.0438 -0.17,0.0637 -0.215,0.0675 l -0.11125,0.015 c -0.07,0.0112 -0.12375,0.02 -0.1675,0.035 -0.04,0.0163 -0.0613,0.055 -0.0613,0.12 0,0.0637 0.0238,0.105 0.07,0.1225 0.0463,0.0162 0.13625,0.0263 0.27,0.0263 l 1.97,0 c 0.10125,0 0.18,-0.008 0.23375,-0.025 0.0538,-0.0163 0.085,-0.0538 0.0925,-0.11375 0,-0.04 -0.015,-0.0762 -0.0512,-0.1125 -0.0388,-0.035 -0.0775,-0.0525 -0.115,-0.0525 l -0.1075,0 c -0.0562,0 -0.11625,-0.006 -0.18875,-0.0213 -0.07,-0.0112 -0.1425,-0.0387 -0.2125,-0.0875 -0.0688,-0.0462 -0.11375,-0.1175 -0.13625,-0.2125 -0.0238,-0.0937 -0.0112,-0.215 0.04,-0.36375 l 0.35625,-1.08875 2.23875,0 0.46875,1.07375 c 0.0175,0.0487 0.03,0.1225 0.0362,0.22125 0.009,0.0962 -0.0113,0.18375 -0.0588,0.26125 -0.0463,0.0762 -0.10625,0.13 -0.185,0.1575 -0.0775,0.0263 -0.14625,0.0412 -0.205,0.045 l -0.17625,0.015 c -0.0588,0.006 -0.105,0.02 -0.14125,0.0425 -0.0362,0.0238 -0.0563,0.0588 -0.0613,0.1025 -0.007,0.07 0.0113,0.115 0.0538,0.1325 0.04,0.0162 0.11375,0.0263 0.2175,0.0263 l 3.06125,0 c 0.0563,0 0.0975,-0.02 0.135,-0.0563 0.0337,-0.04 0.0513,-0.0775 0.0463,-0.11875 -0.005,-0.0375 -0.0275,-0.0662 -0.0613,-0.0863 m -10.91065,-3.7662 c -0.15125,0.08 -0.305,0.13375 -0.45875,0.1625 l -0.0513,0.009 c -0.1725,0.0238 -0.34375,0.0362 -0.5125,0.0362 l -0.53,0 0,-2.12125 c 0,-0.165 0.01,-0.27875 0.0312,-0.3425 0.02,-0.0625 0.0687,-0.1175 0.14375,-0.165 0.0788,-0.0437 0.205,-0.0687 0.38625,-0.0712 l 0.355,-0.005 c 0.0575,0 0.11625,0.002 0.1775,0.01 0.0775,0.007 0.15875,0.0213 0.24375,0.0387 0.15125,0.0312 0.28875,0.085 0.405,0.16375 0.12,0.0762 0.215,0.17375 0.28875,0.2875 0.0737,0.11625 0.12375,0.29125 0.14875,0.5225 0.0187,0.2075 0.0125,0.4075 -0.02,0.5975 -0.0312,0.18875 -0.0975,0.36 -0.2025,0.51375 -0.10375,0.15375 -0.23625,0.2725 -0.405,0.36375 m 3.125,2.105 c -0.03,-0.0812 -0.0725,-0.125 -0.1275,-0.135 -0.055,-0.01 -0.10875,0.004 -0.15875,0.0375 -0.0475,0.0375 -0.08,0.0712 -0.0937,0.1075 -0.015,0.035 -0.0475,0.11375 -0.0962,0.23375 -0.0487,0.12 -0.1025,0.235 -0.165,0.34125 -0.0613,0.1075 -0.13,0.1825 -0.20875,0.22 -0.0775,0.0387 -0.14625,0.0575 -0.2025,0.0575 -0.1075,0.004 -0.1925,-0.0275 -0.26125,-0.0937 -0.07,-0.0662 -0.1075,-0.18375 -0.1075,-0.35375 -0.002,-0.17125 -0.007,-0.38375 -0.0188,-0.6375 -0.01,-0.25625 -0.0375,-0.45625 -0.08,-0.6025 -0.0425,-0.14375 -0.115,-0.27125 -0.21375,-0.38375 -0.1025,-0.11375 -0.22375,-0.19875 -0.365,-0.25875 -0.14125,-0.0588 -0.2675,-0.10125 -0.38,-0.125 -0.11,-0.0238 -0.245,-0.0487 -0.40125,-0.075 l 0.51,-0.12 c 0.145,-0.0288 0.3175,-0.0825 0.52875,-0.15875 0.21,-0.0763 0.39625,-0.17125 0.555,-0.27875 0.16125,-0.10625 0.2925,-0.2475 0.4,-0.42 0.14125,-0.24125 0.2025,-0.4925 0.18375,-0.75625 -0.015,-0.265 -0.0725,-0.4925 -0.16625,-0.68375 -0.095,-0.19 -0.2025,-0.34125 -0.3275,-0.45125 -0.1225,-0.1125 -0.27875,-0.21 -0.46375,-0.29375 -0.18625,-0.0825 -0.36625,-0.1325 -0.535,-0.14875 -0.17375,-0.0163 -0.3425,-0.025 -0.51375,-0.0288 l -4.2375,0 c -0.0537,0 -0.0975,0.0112 -0.13375,0.0362 -0.0337,0.025 -0.055,0.0563 -0.0613,0.0937 -0.0175,0.0538 -0.005,0.0987 0.0325,0.13375 0.0387,0.0325 0.0725,0.0488 0.0987,0.0488 l 0.16,0.0137 c 0.0775,0.0113 0.15625,0.0413 0.23375,0.0888 0.0787,0.0475 0.1475,0.11875 0.21125,0.2175 0.065,0.095 0.10625,0.20375 0.12625,0.32375 0.0187,0.12125 0.03,0.22 0.0337,0.29875 l 0,4.50375 c 0,0.0975 -0.02,0.22 -0.0625,0.36875 -0.0375,0.15125 -0.0888,0.24875 -0.1525,0.295 -0.0613,0.0475 -0.14375,0.0888 -0.2425,0.12875 -0.10125,0.0375 -0.1725,0.06 -0.20625,0.0625 l -0.10125,0.009 c -0.0337,0.004 -0.07,0.0175 -0.10125,0.04 -0.03,0.025 -0.0513,0.055 -0.0563,0.09 -0.0125,0.0613 0.002,0.10625 0.0375,0.1325 0.0375,0.0275 0.0825,0.0413 0.13625,0.0413 l 3.08,0.005 c 0.0513,0.004 0.095,-0.006 0.13,-0.0325 0.0338,-0.0225 0.05,-0.06 0.0488,-0.11 -0.001,-0.0512 -0.0225,-0.0875 -0.0637,-0.11625 -0.0362,-0.0262 -0.0813,-0.045 -0.125,-0.05 l -0.1175,-0.009 c -0.0525,-0.003 -0.12875,-0.0288 -0.22625,-0.0725 -0.0975,-0.0462 -0.17625,-0.10625 -0.235,-0.17875 -0.06,-0.075 -0.10625,-0.17375 -0.13375,-0.29875 -0.0288,-0.12625 -0.0412,-0.23125 -0.0412,-0.32 l 0,-2.24 0.5025,0 c 0.24375,0 0.43125,0.0137 0.55625,0.0475 l 0.035,0.007 c 0.1125,0.03 0.2075,0.0787 0.2825,0.14125 0.0838,0.0688 0.1475,0.16125 0.18875,0.27625 0.0437,0.115 0.0662,0.26625 0.0775,0.4525 0.0125,0.1875 0.0225,0.35375 0.03,0.50125 l 0.015,0.4925 c 0.009,0.24125 0.0263,0.4375 0.055,0.5875 0.0325,0.15125 0.0937,0.30625 0.18875,0.47 0.095,0.1625 0.23375,0.28375 0.4125,0.3625 0.1775,0.0825 0.39,0.1225 0.635,0.12625 0.185,0.006 0.35875,-0.009 0.51625,-0.0488 0.16,-0.0412 0.30375,-0.10625 0.43875,-0.20125 0.135,-0.0925 0.24875,-0.2125 0.34875,-0.36125 0.0975,-0.1475 0.17,-0.305 0.22125,-0.4725 0.0513,-0.16625 0.105,-0.35375 0.16125,-0.56 0.0375,-0.135 0.0387,-0.24125 0.0125,-0.3175 m -12.2224,-0.12965 c -0.002,0.26375 0.009,0.47375 0.0375,0.6325 0.0275,0.15625 0.095,0.3075 0.2025,0.45 0.10875,0.1425 0.27875,0.2575 0.50625,0.34375 0.2275,0.0875 0.47125,0.13375 0.73,0.14125 0.205,0.01 0.41,-0.007 0.615,-0.0512 0.2075,-0.0438 0.4125,-0.125 0.61625,-0.24375 0.2075,-0.11875 0.3575,-0.2525 0.45375,-0.3975 0.0975,-0.145 0.1625,-0.3125 0.19875,-0.49625 0.0362,-0.185 0.0538,-0.37125 0.0538,-0.56125 l 0,-3.58125 c -0.002,-0.0975 -0.0175,-0.19875 -0.0413,-0.30625 -0.0237,-0.10875 -0.0675,-0.195 -0.12875,-0.25875 -0.0588,-0.0637 -0.14,-0.115 -0.2425,-0.15375 -0.10125,-0.0388 -0.175,-0.0613 -0.22875,-0.0688 l -0.1975,-0.0137 c -0.03,0 -0.0613,-0.015 -0.10125,-0.045 -0.0388,-0.0312 -0.0525,-0.075 -0.0425,-0.1325 0.009,-0.0512 0.0312,-0.085 0.0687,-0.10375 0.04,-0.0188 0.10125,-0.0263 0.18125,-0.0263 l 1.9925,0 c 0.0488,0 0.0925,0.0125 0.1325,0.0375 0.0362,0.0263 0.0563,0.065 0.0625,0.11375 0.005,0.0513 -0.01,0.0875 -0.0412,0.1125 -0.0312,0.0275 -0.065,0.0412 -0.1,0.0437 l -0.16125,0.0137 c -0.08,0.0113 -0.1675,0.0413 -0.26,0.09 -0.09,0.05 -0.165,0.1125 -0.22,0.18375 -0.0538,0.0737 -0.10125,0.16625 -0.135,0.285 -0.035,0.11625 -0.0513,0.2175 -0.0475,0.30625 l 0,3.50375 c 0,0.14375 -0.004,0.29875 -0.0137,0.45875 -0.007,0.16375 -0.0513,0.3325 -0.125,0.5125 -0.075,0.1775 -0.18,0.34 -0.31875,0.4875 -0.1375,0.14875 -0.3025,0.27625 -0.49125,0.38375 -0.19,0.10875 -0.3825,0.18875 -0.58625,0.24125 -0.2025,0.0538 -0.41125,0.0925 -0.62375,0.1125 -0.21375,0.0225 -0.41125,0.035 -0.59125,0.035 -0.16875,0 -0.36625,-0.01 -0.59875,-0.03 -0.23125,-0.0175 -0.5,-0.0688 -0.8025,-0.1475 -0.3025,-0.0813 -0.5525,-0.21625 -0.7475,-0.40375 -0.195,-0.18875 -0.325,-0.33875 -0.38375,-0.45125 -0.0575,-0.11625 -0.0975,-0.21375 -0.11375,-0.30125 -0.0213,-0.085 -0.04,-0.1825 -0.0563,-0.2975 -0.015,-0.115 -0.0225,-0.22375 -0.0163,-0.325 l 0,-3.715 c 0,-0.1225 -0.0137,-0.24 -0.035,-0.36 -0.02,-0.11625 -0.0787,-0.22 -0.17625,-0.31 -0.0975,-0.0875 -0.2025,-0.15125 -0.31,-0.1875 -0.1125,-0.0375 -0.2,-0.06 -0.27125,-0.0713 l -0.16,-0.0137 c -0.0362,0 -0.0687,-0.0125 -0.10625,-0.04 -0.035,-0.0275 -0.0512,-0.0662 -0.0512,-0.12125 0,-0.0525 0.0175,-0.0913 0.0538,-0.115 0.0375,-0.025 0.085,-0.0362 0.14125,-0.0362 l 3.3475,0.005 c 0.0613,0.002 0.1025,0.0138 0.1375,0.0362 0.0287,0.0213 0.0475,0.0563 0.0487,0.105 0.002,0.0512 -0.01,0.09 -0.0375,0.12125 -0.0275,0.03 -0.055,0.045 -0.0875,0.045 l -0.15875,0.0137 c -0.0825,0.0113 -0.1725,0.0363 -0.2775,0.0738 -0.10625,0.0387 -0.20125,0.1025 -0.28125,0.19125 -0.0812,0.0925 -0.13625,0.19375 -0.16625,0.30375 -0.0312,0.1125 -0.045,0.22125 -0.045,0.325 m -9.2175,-1.21615 6.3325,0 0,2.11625 c 0,0.0875 -0.009,0.15375 -0.0312,0.20125 -0.02,0.0488 -0.0613,0.08 -0.1225,0.0937 -0.0625,0.0125 -0.11125,-0.002 -0.14625,-0.0412 -0.035,-0.0412 -0.0612,-0.0875 -0.075,-0.14375 l -0.0525,-0.1925 c -0.0288,-0.0888 -0.0775,-0.215 -0.15,-0.37875 -0.07,-0.16125 -0.15375,-0.3225 -0.2525,-0.4825 -0.0988,-0.15625 -0.22875,-0.3 -0.3925,-0.425 -0.16125,-0.125 -0.32125,-0.215 -0.48125,-0.27125 -0.15875,-0.0588 -0.2825,-0.085 -0.37125,-0.085 l -0.25375,0.004 0,5.2825 c 0,0.11875 0.015,0.235 0.0462,0.35 0.03,0.115 0.09,0.2125 0.18125,0.29875 0.0888,0.085 0.21,0.15375 0.36,0.205 0.15,0.0525 0.27125,0.0775 0.3625,0.0775 l 0.13875,0.004 c 0.035,0.004 0.0763,0.0162 0.1175,0.04 0.0387,0.0225 0.0637,0.06 0.0662,0.1125 0.002,0.0525 -0.02,0.0937 -0.0613,0.1225 -0.0412,0.0288 -0.0837,0.0425 -0.1175,0.0388 l -3.77,-0.005 c -0.055,0 -0.10375,-0.0125 -0.14375,-0.0363 -0.0387,-0.025 -0.0562,-0.0637 -0.0487,-0.1175 0,-0.0413 0.0187,-0.075 0.0537,-0.1 0.0363,-0.0225 0.07,-0.0387 0.1075,-0.045 l 0.14125,-0.0137 c 0.0563,-0.003 0.125,-0.015 0.205,-0.0338 0.08,-0.02 0.17375,-0.0475 0.27625,-0.0887 0.105,-0.0363 0.195,-0.095 0.27125,-0.17125 0.0775,-0.0775 0.13375,-0.1825 0.1725,-0.31625 0.0375,-0.13375 0.0613,-0.25125 0.0637,-0.35375 l 0,-5.25 -0.24,-0.004 c -0.0812,0 -0.18,0.0162 -0.29875,0.0512 -0.11875,0.0362 -0.25375,0.0962 -0.41,0.17625 -0.15625,0.0825 -0.2825,0.17 -0.37625,0.26125 -0.0925,0.0913 -0.19,0.2175 -0.29125,0.38 -0.0975,0.16375 -0.1675,0.2925 -0.21625,0.3925 l -0.18,0.44375 -0.0525,0.13 c -0.0288,0.0713 -0.0538,0.12 -0.0775,0.14375 -0.0225,0.0275 -0.0588,0.0387 -0.1025,0.0362 -0.0613,0 -0.105,-0.0312 -0.1375,-0.0888 -0.03,-0.0588 -0.0438,-0.1275 -0.0438,-0.20125 m -0.4048,4.80985 -6.245,0 c -0.0588,0.004 -0.1075,-0.008 -0.14625,-0.0337 -0.035,-0.025 -0.0488,-0.0713 -0.035,-0.14125 0.007,-0.0375 0.0275,-0.0662 0.0575,-0.0888 0.0337,-0.02 0.0675,-0.0337 0.1025,-0.04 l 0.10125,-0.0137 c 0.04,-0.003 0.0987,-0.0238 0.18375,-0.0638 0.085,-0.0387 0.17125,-0.0887 0.25125,-0.15375 0.0813,-0.0637 0.13875,-0.15125 0.17375,-0.25875 0.0325,-0.10625 0.0512,-0.23125 0.0562,-0.37375 l 0,-4.5 c 0,-0.0588 -0.01,-0.1625 -0.035,-0.31125 -0.0187,-0.14875 -0.0562,-0.2575 -0.1075,-0.325 -0.05,-0.065 -0.12875,-0.12875 -0.23625,-0.19625 -0.105,-0.065 -0.18375,-0.1 -0.22875,-0.10375 l -0.1475,-0.01 c -0.0362,0 -0.0737,-0.015 -0.11,-0.0437 -0.0362,-0.0325 -0.05,-0.0713 -0.0387,-0.1225 0.0112,-0.0488 0.0337,-0.085 0.0687,-0.11 0.035,-0.0238 0.08,-0.0362 0.13375,-0.0362 l 3.05875,0.005 c 0.0513,0.004 0.0937,0.0175 0.1225,0.0375 0.0263,0.0238 0.0412,0.0563 0.0425,0.0988 0.004,0.045 -0.009,0.0837 -0.0362,0.11375 -0.0263,0.0325 -0.0575,0.05 -0.0987,0.0525 l -0.1425,0.015 c -0.0875,0.0113 -0.175,0.04 -0.25875,0.0875 -0.0825,0.0475 -0.15625,0.1175 -0.22375,0.2075 -0.0675,0.09 -0.1125,0.19 -0.1375,0.3 -0.0225,0.11 -0.0337,0.2125 -0.0337,0.30625 l 0,4.6825 c -0.002,0.11625 -0.002,0.2 0,0.24625 0.005,0.0462 0.0263,0.1 0.0675,0.1575 0.04,0.0575 0.0937,0.10625 0.1625,0.14125 0.065,0.0375 0.14625,0.055 0.2375,0.055 l 1.0725,0 c 0.0712,0 0.18125,-0.005 0.32375,-0.02 0.145,-0.015 0.295,-0.0488 0.44375,-0.1 0.15125,-0.0525 0.31125,-0.1425 0.48,-0.2725 0.16625,-0.13 0.30375,-0.25375 0.405,-0.37 0.10125,-0.11875 0.20125,-0.25 0.29375,-0.39875 0.095,-0.1475 0.16375,-0.27625 0.21,-0.38375 l 0.075,-0.185 c 0.0312,-0.0838 0.0588,-0.1425 0.0813,-0.18125 0.025,-0.0362 0.0687,-0.0525 0.13,-0.0475 0.0588,0.006 0.1,0.0275 0.11875,0.0613 0.015,0.04 0.0187,0.12125 0.01,0.25 m -11.69265,0.0148 c -0.005,0.26375 0.007,0.47375 0.0362,0.6325 0.0275,0.15625 0.095,0.3075 0.2025,0.45 0.11,0.1425 0.27875,0.2575 0.5075,0.34375 0.2275,0.0875 0.47,0.13375 0.73,0.14125 0.20375,0.01 0.41125,-0.007 0.61375,-0.0512 0.2075,-0.0438 0.41125,-0.125 0.6175,-0.24375 0.205,-0.11875 0.35625,-0.2525 0.45375,-0.3975 0.0975,-0.145 0.1625,-0.3125 0.19875,-0.49625 0.0362,-0.185 0.0525,-0.37125 0.0525,-0.56125 l 0,-3.58125 c -0.001,-0.0975 -0.0163,-0.19875 -0.0412,-0.30625 -0.0238,-0.10875 -0.0675,-0.195 -0.12875,-0.25875 -0.0588,-0.0637 -0.14,-0.115 -0.24125,-0.15375 -0.10125,-0.0388 -0.17625,-0.0613 -0.23,-0.0688 l -0.19625,-0.0137 c -0.0288,0 -0.0625,-0.015 -0.10125,-0.045 -0.04,-0.0312 -0.0538,-0.075 -0.0425,-0.1325 0.007,-0.0512 0.0325,-0.085 0.0687,-0.10375 0.0412,-0.0188 0.1,-0.0263 0.18125,-0.0263 l 1.99125,0 c 0.0488,0 0.0937,0.0125 0.1325,0.0375 0.035,0.0263 0.0562,0.065 0.0613,0.11375 0.005,0.0513 -0.006,0.0875 -0.0413,0.1125 -0.0312,0.0275 -0.0625,0.0412 -0.1,0.0437 l -0.1575,0.0137 c -0.0825,0.0113 -0.17,0.0413 -0.26125,0.09 -0.0925,0.05 -0.165,0.1125 -0.22,0.18375 -0.055,0.0737 -0.1,0.16625 -0.13625,0.285 -0.0337,0.11625 -0.0512,0.2175 -0.0475,0.30625 l 0,3.50375 c 0,0.14375 -0.004,0.29875 -0.0138,0.45875 -0.007,0.16375 -0.0487,0.3325 -0.1225,0.5125 -0.0762,0.1775 -0.1825,0.34 -0.31875,0.4875 -0.14,0.14875 -0.305,0.27625 -0.49375,0.38375 -0.19,0.10875 -0.3825,0.18875 -0.58625,0.24125 -0.2,0.0538 -0.41,0.0925 -0.6225,0.1125 -0.21375,0.0225 -0.4125,0.035 -0.5925,0.035 -0.16875,0 -0.36625,-0.01 -0.59625,-0.03 -0.23375,-0.0175 -0.5025,-0.0688 -0.8025,-0.1475 -0.305,-0.0813 -0.555,-0.21625 -0.75,-0.40375 -0.195,-0.18875 -0.325,-0.33875 -0.38375,-0.45125 -0.055,-0.11625 -0.0975,-0.21375 -0.11375,-0.30125 -0.02,-0.085 -0.04,-0.1825 -0.0537,-0.2975 -0.0188,-0.115 -0.025,-0.22375 -0.02,-0.325 l 0,-3.715 c 0,-0.1225 -0.01,-0.24 -0.0312,-0.36 -0.02,-0.11625 -0.0812,-0.22 -0.18,-0.31 -0.095,-0.0875 -0.19875,-0.15125 -0.30875,-0.1875 -0.11,-0.0375 -0.2,-0.06 -0.27375,-0.0713 l -0.15625,-0.0137 c -0.0362,0 -0.0687,-0.0125 -0.1075,-0.04 -0.035,-0.0275 -0.0513,-0.0662 -0.0513,-0.12125 0,-0.0525 0.0175,-0.0913 0.0538,-0.115 0.04,-0.025 0.0862,-0.0362 0.14125,-0.0362 l 3.35,0.005 c 0.0587,0.002 0.1,0.0138 0.135,0.0362 0.0288,0.0213 0.0487,0.0563 0.0513,0.105 0,0.0512 -0.0125,0.09 -0.0388,0.12125 -0.0275,0.03 -0.0562,0.045 -0.0888,0.045 l -0.15875,0.0137 c -0.08,0.0113 -0.1725,0.0363 -0.2775,0.0738 -0.1075,0.0387 -0.19875,0.1025 -0.28125,0.19125 -0.08,0.0925 -0.13625,0.19375 -0.16625,0.30375 -0.0288,0.1125 -0.0437,0.22125 -0.0437,0.325 m -3.09625,-0.9399 0.0913,1.74375 c 0.002,0.07 -0.002,0.13625 -0.0138,0.19375 -0.01,0.0575 -0.03,0.0987 -0.0537,0.12125 -0.0238,0.0238 -0.0613,0.04 -0.11625,0.0462 -0.055,0.006 -0.0962,-0.007 -0.12375,-0.0462 -0.0288,-0.035 -0.0538,-0.0888 -0.07,-0.1575 l -0.0375,-0.12875 c -0.0337,-0.1125 -0.0988,-0.2525 -0.185,-0.42125 -0.09,-0.17 -0.18625,-0.31125 -0.29375,-0.43125 -0.105,-0.11875 -0.22875,-0.22375 -0.36875,-0.32 -0.13875,-0.0913 -0.305,-0.1725 -0.5,-0.24375 -0.1925,-0.07 -0.4125,-0.10875 -0.65875,-0.1125 -0.26875,-0.002 -0.50125,0.0425 -0.69875,0.13125 -0.1975,0.09 -0.35375,0.21 -0.47625,0.36 -0.11875,0.14875 -0.215,0.3125 -0.2875,0.48875 -0.0725,0.1775 -0.1375,0.3725 -0.18875,0.59 -0.055,0.2175 -0.0925,0.4225 -0.10875,0.6175 -0.02,0.19875 -0.03,0.425 -0.025,0.685 0,0.1825 0.002,0.385 0.01,0.60875 0.007,0.225 0.0262,0.44 0.0575,0.645 0.03,0.205 0.0813,0.4075 0.155,0.605 0.07,0.19875 0.17,0.37375 0.295,0.52875 0.1275,0.1525 0.28375,0.285 0.46375,0.3925 0.18625,0.1075 0.36,0.18 0.52,0.2175 0.16375,0.0362 0.3475,0.0462 0.555,0.0262 0.21,-0.02 0.3975,-0.0637 0.55875,-0.1325 0.16125,-0.0687 0.31375,-0.16 0.45625,-0.27 0.13875,-0.1125 0.27625,-0.2425 0.40625,-0.39375 0.1325,-0.15125 0.24375,-0.295 0.33125,-0.435 0.0925,-0.14125 0.17375,-0.22875 0.24375,-0.265 0.0713,-0.0362 0.13,-0.0412 0.1775,-0.01 0.0463,0.0288 0.0737,0.08 0.08,0.15125 0.006,0.0712 -0.0225,0.16375 -0.0837,0.275 -0.1075,0.20125 -0.2125,0.3775 -0.3125,0.52125 -0.0975,0.14375 -0.24125,0.305 -0.4225,0.48375 -0.18125,0.17375 -0.37125,0.3075 -0.56625,0.3975 -0.1975,0.09 -0.41875,0.15625 -0.66375,0.195 -0.24125,0.04 -0.48,0.0588 -0.71,0.0563 -0.27625,0 -0.55625,-0.0288 -0.84375,-0.0838 -0.2825,-0.0563 -0.55,-0.145 -0.795,-0.26375 -0.2475,-0.11875 -0.48375,-0.2975 -0.71125,-0.53 -0.22875,-0.23625 -0.4025,-0.4625 -0.5225,-0.685 -0.11625,-0.2225 -0.2025,-0.44 -0.26125,-0.65625 -0.0575,-0.2175 -0.095,-0.42875 -0.11625,-0.6325 -0.0225,-0.205 -0.0312,-0.40125 -0.0312,-0.59125 0,-0.18875 0.0162,-0.425 0.0525,-0.70375 0.035,-0.2775 0.0887,-0.52 0.15625,-0.7225 0.0687,-0.2025 0.16125,-0.40125 0.27875,-0.595 0.1175,-0.195 0.23375,-0.36125 0.3525,-0.4975 0.11875,-0.1375 0.2625,-0.2625 0.42625,-0.38125 0.1675,-0.12 0.34125,-0.22375 0.525,-0.31375 0.1825,-0.0913 0.38125,-0.1625 0.5975,-0.215 0.21625,-0.0525 0.46375,-0.0863 0.7375,-0.0987 0.2375,-0.006 0.4525,0.005 0.63625,0.0312 0.18875,0.0275 0.37375,0.0737 0.5525,0.13625 0.18375,0.0625 0.3425,0.13 0.47875,0.20625 0.14,0.075 0.24625,0.12 0.325,0.13625 0.0775,0.0137 0.14625,0 0.20625,-0.0425 0.035,-0.0238 0.0613,-0.0575 0.0812,-0.10625 0.015,-0.0475 0.0325,-0.1025 0.0475,-0.16375 0.0138,-0.0613 0.0363,-0.1125 0.0625,-0.15125 0.03,-0.0412 0.0713,-0.0625 0.125,-0.0637 0.0538,-0.002 0.1,0.015 0.13625,0.045 0.0212,0.0275 0.0362,0.0637 0.0463,0.10875 0.01,0.0463 0.0175,0.0863 0.0212,0.12 m -7.0726,5.46875 c 0.006,0.13125 0.0212,0.24875 0.04,0.35125 0.0188,0.1 0.065,0.19125 0.1375,0.27 0.07,0.0775 0.15875,0.135 0.265,0.17625 0.10875,0.0375 0.20125,0.06 0.28125,0.0663 l 0.1425,0.0137 c 0.0487,0.006 0.085,0.0162 0.10875,0.0263 0.0213,0.0112 0.0375,0.05 0.0425,0.1125 0.004,0.065 -0.008,0.11 -0.0425,0.13125 -0.0337,0.0237 -0.0825,0.0337 -0.14625,0.0337 l -3.255,0 c -0.0575,0 -0.10375,-0.01 -0.1425,-0.0362 -0.035,-0.0238 -0.0475,-0.0713 -0.0325,-0.1375 0.004,-0.0387 0.0263,-0.0675 0.0563,-0.09 0.0337,-0.0187 0.0687,-0.0337 0.10125,-0.04 l 0.11875,-0.0137 c 0.055,-0.006 0.12875,-0.0288 0.2225,-0.065 0.0975,-0.0375 0.17875,-0.0912 0.25375,-0.16 0.075,-0.0687 0.13375,-0.175 0.17125,-0.315 0.0425,-0.14125 0.0637,-0.2675 0.0663,-0.375 l 0,-4.435 c 0,-0.0837 -0.009,-0.19 -0.025,-0.31875 -0.0175,-0.12875 -0.0613,-0.23625 -0.1375,-0.325 -0.075,-0.0875 -0.16875,-0.15625 -0.27625,-0.20375 -0.11125,-0.045 -0.2025,-0.075 -0.27,-0.0888 l -0.10625,-0.015 c -0.0375,-0.002 -0.07,-0.015 -0.10375,-0.0425 -0.035,-0.025 -0.045,-0.0638 -0.035,-0.115 0.01,-0.0513 0.0325,-0.0888 0.07,-0.1125 0.035,-0.025 0.0775,-0.0375 0.1325,-0.0375 l 3.1575,0.005 c 0.055,0.004 0.1,0.02 0.13125,0.0425 0.035,0.0275 0.0487,0.065 0.0463,0.1175 -0.009,0.0375 -0.0263,0.0713 -0.0575,0.0987 -0.0288,0.0275 -0.0613,0.0413 -0.10375,0.0438 l -0.12375,0.015 c -0.09,0.0138 -0.18125,0.0488 -0.27,0.10375 -0.0912,0.0562 -0.17,0.1275 -0.235,0.21375 -0.065,0.0837 -0.11,0.17625 -0.14125,0.26875 -0.0262,0.095 -0.0412,0.20125 -0.0412,0.31625 m -5.9402,1.6737 c -0.15375,0.08 -0.30625,0.13375 -0.45875,0.1625 l -0.0512,0.009 c -0.17375,0.0238 -0.3425,0.0362 -0.5125,0.0362 l -0.5325,0 0,-2.12125 c 0,-0.165 0.0125,-0.27875 0.035,-0.3425 0.0188,-0.0625 0.0675,-0.1175 0.1425,-0.165 0.0763,-0.0437 0.205,-0.0687 0.38625,-0.0712 l 0.35625,-0.005 c 0.0563,0 0.115,0.002 0.17625,0.01 0.0775,0.007 0.15625,0.0213 0.24125,0.0387 0.15375,0.0312 0.28875,0.085 0.40625,0.16375 0.11875,0.0762 0.21625,0.17375 0.29,0.2875 0.075,0.11625 0.12375,0.29125 0.14875,0.5225 0.0175,0.2075 0.01,0.4075 -0.0225,0.5975 -0.0288,0.18875 -0.0975,0.36 -0.2,0.51375 -0.1025,0.15375 -0.23875,0.2725 -0.405,0.36375 m 3.1225,2.105 c -0.0287,-0.0812 -0.0687,-0.125 -0.125,-0.135 -0.055,-0.01 -0.11,0.004 -0.15875,0.0375 -0.0475,0.0375 -0.08,0.0712 -0.095,0.1075 -0.0162,0.035 -0.0487,0.11375 -0.0937,0.23375 -0.0487,0.12 -0.10625,0.235 -0.16625,0.34125 -0.0613,0.1075 -0.1325,0.1825 -0.21125,0.22 -0.0775,0.0387 -0.14375,0.0575 -0.19875,0.0575 -0.1075,0.004 -0.19625,-0.0275 -0.26375,-0.0937 -0.0687,-0.0662 -0.10625,-0.18375 -0.10625,-0.35375 -10e-4,-0.17125 -0.01,-0.38375 -0.02,-0.6375 -0.01,-0.25625 -0.0362,-0.45625 -0.0787,-0.6025 -0.0425,-0.14375 -0.11375,-0.27125 -0.215,-0.38375 -0.10125,-0.11375 -0.22125,-0.19875 -0.36375,-0.25875 -0.1425,-0.0588 -0.2675,-0.10125 -0.38125,-0.125 -0.11,-0.0238 -0.245,-0.0487 -0.40125,-0.075 l 0.51125,-0.12 c 0.14375,-0.0288 0.3175,-0.0825 0.5275,-0.15875 0.21125,-0.0763 0.395,-0.17125 0.55625,-0.27875 0.16,-0.10625 0.29375,-0.2475 0.3975,-0.42 0.14125,-0.24125 0.2025,-0.4925 0.18625,-0.75625 -0.0175,-0.265 -0.0725,-0.4925 -0.16625,-0.68375 -0.095,-0.19 -0.2025,-0.34125 -0.32625,-0.45125 -0.12375,-0.1125 -0.28,-0.21 -0.465,-0.29375 -0.185,-0.0825 -0.365,-0.1325 -0.5375,-0.14875 -0.17125,-0.0163 -0.34125,-0.025 -0.5125,-0.0288 l -4.23625,0 c -0.0525,0 -0.0975,0.0112 -0.13375,0.0362 -0.0325,0.025 -0.055,0.0563 -0.0637,0.0937 -0.0112,0.0538 -0.001,0.0987 0.035,0.13375 0.0362,0.0325 0.0712,0.0488 0.1,0.0488 l 0.16,0.0137 c 0.0763,0.0113 0.15625,0.0413 0.2325,0.0888 0.0763,0.0475 0.1475,0.11875 0.21125,0.2175 0.0637,0.095 0.10625,0.20375 0.12375,0.32375 0.0212,0.12125 0.0325,0.22 0.0375,0.29875 l 0,4.50375 c 0,0.0975 -0.0212,0.22 -0.0613,0.36875 -0.0425,0.15125 -0.0913,0.24875 -0.15625,0.295 -0.0625,0.0475 -0.1425,0.0888 -0.24125,0.12875 -0.10125,0.0375 -0.17125,0.06 -0.205,0.0625 l -0.10125,0.009 c -0.0375,0.004 -0.0713,0.0175 -0.10375,0.04 -0.0312,0.025 -0.0487,0.055 -0.0575,0.09 -0.0113,0.0613 0.005,0.10625 0.0412,0.1325 0.0363,0.0275 0.0825,0.0413 0.13375,0.0413 l 3.08,0.005 c 0.0512,0.004 0.0962,-0.006 0.13,-0.0325 0.0325,-0.0225 0.0513,-0.06 0.0475,-0.11 -10e-4,-0.0512 -0.0225,-0.0875 -0.0613,-0.11625 -0.0362,-0.0262 -0.0812,-0.045 -0.1275,-0.05 l -0.11625,-0.009 c -0.0525,-0.003 -0.1275,-0.0288 -0.225,-0.0725 -0.0975,-0.0462 -0.17625,-0.10625 -0.2375,-0.17875 -0.0587,-0.075 -0.105,-0.17375 -0.13375,-0.29875 -0.0263,-0.12625 -0.0413,-0.23125 -0.0413,-0.32 l 0,-2.24 0.50375,0 c 0.245,0 0.4325,0.0137 0.56,0.0475 l 0.0325,0.007 c 0.11375,0.03 0.2075,0.0787 0.28125,0.14125 0.0863,0.0688 0.1475,0.16125 0.18875,0.27625 0.0438,0.115 0.07,0.26625 0.08,0.4525 0.0113,0.1875 0.02,0.35375 0.0288,0.50125 l 0.015,0.4925 c 0.006,0.24125 0.0275,0.4375 0.0538,0.5875 0.0325,0.15125 0.095,0.30625 0.18875,0.47 0.0975,0.1625 0.2325,0.28375 0.41125,0.3625 0.18125,0.0825 0.39,0.1225 0.6375,0.12625 0.185,0.006 0.35875,-0.009 0.515,-0.0488 0.15875,-0.0412 0.305,-0.10625 0.43875,-0.20125 0.13625,-0.0925 0.25,-0.2125 0.3475,-0.36125 0.10125,-0.1475 0.1725,-0.305 0.225,-0.4725 0.0487,-0.16625 0.10375,-0.35375 0.16,-0.56 0.0387,-0.135 0.0412,-0.24125 0.01,-0.3175 m -19.893846,-0.57965 0.95,-2.375 0.02875,0.07 0.98125,2.305 -1.96,0 z m 5.209996,2.24125 c -0.0375,-0.0175 -0.0763,-0.0312 -0.12,-0.0425 l -0.0875,-0.015 c -0.0625,-0.01 -0.13625,-0.04 -0.214996,-0.0887 -0.08,-0.0488 -0.145,-0.1075 -0.1975,-0.17125 -0.0525,-0.065 -0.12,-0.16375 -0.20875,-0.3 -0.08875,-0.135 -0.14375,-0.225 -0.165,-0.275 l -2.49125,-5.45 c -0.07125,-0.1475 -0.13,-0.24875 -0.17625,-0.3075 -0.045,-0.0588 -0.11375,-0.0863 -0.2075,-0.0813 -0.09125,0.005 -0.16,0.0462 -0.20875,0.125 -0.04875,0.0762 -0.095,0.18 -0.14625,0.3125 l -0.0075,0.0188 -2.105,5.3825 c -0.02375,0.0625 -0.06,0.13125 -0.10125,0.20375 -0.04625,0.0738 -0.09875,0.14875 -0.16,0.22625 -0.06375,0.0762 -0.12875,0.1425 -0.19375,0.19625 -0.06375,0.0525 -0.1475,0.1 -0.2425,0.14125 -0.0975,0.0438 -0.17125,0.0637 -0.215,0.0675 l -0.1125,0.015 c -0.07,0.0112 -0.1275,0.02 -0.1675,0.035 -0.04125,0.0163 -0.06125,0.055 -0.06125,0.12 0,0.0637 0.02375,0.105 0.06875,0.1225 0.0475,0.0162 0.1375,0.0263 0.2725,0.0263 l 1.9675,0 c 0.10375,0 0.18125,-0.008 0.23625,-0.025 0.0525,-0.0163 0.0825,-0.0538 0.09125,-0.11375 0,-0.04 -0.015,-0.0762 -0.05125,-0.1125 -0.03625,-0.035 -0.07625,-0.0525 -0.115,-0.0525 l -0.10625,0 c -0.05625,0 -0.12,-0.006 -0.19,-0.0213 -0.07375,-0.0112 -0.14,-0.0387 -0.21125,-0.0875 -0.06875,-0.0462 -0.11625,-0.1175 -0.1375,-0.2125 -0.025,-0.0937 -0.01125,-0.215 0.04,-0.36375 l 0.35625,-1.08875 2.23875,0 0.46875,1.07375 c 0.01625,0.0487 0.03125,0.1225 0.03625,0.22125 0.0063,0.0962 -0.01125,0.18375 -0.05875,0.26125 -0.045,0.0762 -0.1075,0.13 -0.185,0.1575 -0.075,0.0263 -0.1475,0.0412 -0.20875,0.045 l -0.1725,0.015 c -0.05625,0.006 -0.10375,0.02 -0.14125,0.0425 -0.03625,0.0238 -0.0575,0.0588 -0.06125,0.1025 -0.0062,0.07 0.01,0.115 0.0525,0.1325 0.0425,0.0162 0.11375,0.0263 0.21875,0.0263 l 3.061246,0 c 0.0563,0 0.0987,-0.02 0.13625,-0.0563 0.035,-0.04 0.05,-0.0775 0.0438,-0.11875 -0.004,-0.0375 -0.0288,-0.0662 -0.06,-0.0863 m 7.25745,-2.8125 c 0.045,0.0175 0.0775,0.055 0.09,0.1125 0.015,0.0563 0.002,0.0975 -0.0312,0.1225 -0.0362,0.0263 -0.0662,0.0412 -0.0962,0.0437 l -0.105,0.0175 c -0.0575,0.0137 -0.11625,0.045 -0.175,0.0925 -0.06,0.0487 -0.11,0.1 -0.1475,0.1525 -0.0362,0.055 -0.0687,0.13375 -0.0962,0.24625 -0.0325,0.11 -0.045,0.185 -0.0487,0.22375 l -0.1975,1.82125 c -0.0112,0.09 -0.035,0.15875 -0.0737,0.2 -0.0375,0.0438 -0.0962,0.07 -0.17625,0.0775 -0.0762,0.007 -0.14875,-0.0213 -0.2175,-0.0888 -0.0188,-0.02 -0.05,-0.0625 -0.0825,-0.12875 -0.0362,-0.065 -0.08,-0.13375 -0.13125,-0.20875 -0.05,-0.0737 -0.105,-0.14 -0.16375,-0.19625 -0.055,-0.0563 -0.115,-0.085 -0.17125,-0.0913 -0.0587,-0.005 -0.13125,0.0213 -0.22,0.08 l -0.27125,0.19875 c -0.13125,0.0913 -0.33875,0.19125 -0.625,0.29625 -0.29,0.1075 -0.65125,0.15625 -1.09125,0.15 -0.41,-0.004 -0.8075,-0.0787 -1.19375,-0.22875 -0.38625,-0.14875 -0.71375,-0.37625 -0.98625,-0.68 -0.27,-0.3075 -0.45875,-0.60875 -0.56125,-0.9075 -0.105,-0.29875 -0.1675,-0.585 -0.1875,-0.86125 -0.0225,-0.2725 -0.0325,-0.52375 -0.0325,-0.74875 0,-0.24125 0.015,-0.4825 0.0437,-0.725 0.0325,-0.2425 0.0863,-0.47625 0.165,-0.7 0.08,-0.2225 0.175,-0.425 0.28625,-0.60375 0.10875,-0.18125 0.2325,-0.3475 0.37125,-0.49875 0.1375,-0.15375 0.27875,-0.2825 0.42125,-0.3875 0.14375,-0.1075 0.31,-0.20625 0.4975,-0.29625 0.185,-0.0925 0.395,-0.1675 0.63,-0.225 0.23375,-0.0575 0.5125,-0.0888 0.835,-0.0962 0.2025,0 0.38125,0.0112 0.535,0.0362 0.15375,0.0237 0.31,0.0662 0.4725,0.125 0.16375,0.0588 0.32125,0.13375 0.47625,0.22125 0.1525,0.0888 0.27625,0.145 0.36875,0.16375 0.0913,0.0225 0.16625,0.0125 0.2225,-0.0263 0.03,-0.0225 0.0588,-0.0625 0.08,-0.12 0.02,-0.0575 0.0387,-0.12 0.05,-0.185 0.0112,-0.0662 0.0337,-0.11875 0.0613,-0.16125 0.03,-0.04 0.07,-0.06 0.125,-0.0637 0.055,-0.002 0.1,0.0125 0.135,0.0425 0.02,0.0275 0.04,0.0637 0.0513,0.11125 0.0112,0.0488 0.02,0.0863 0.02,0.1175 l 0,1.7425 c 0,0.1 -0.008,0.17 -0.0187,0.205 -0.009,0.0375 -0.025,0.0712 -0.05,0.1025 -0.0225,0.03 -0.0612,0.0475 -0.1075,0.0538 -0.0513,0.007 -0.0925,-0.0112 -0.13125,-0.0512 -0.0362,-0.0413 -0.06,-0.0925 -0.0712,-0.15125 l -0.0312,-0.14375 c -0.025,-0.1025 -0.0725,-0.215 -0.13875,-0.34 -0.0662,-0.12125 -0.15625,-0.24375 -0.26875,-0.36125 -0.10875,-0.11625 -0.2475,-0.22875 -0.405,-0.335 -0.15625,-0.10625 -0.34375,-0.19875 -0.56,-0.28 -0.21625,-0.0775 -0.4275,-0.11875 -0.635,-0.115 -0.2425,0.005 -0.475,0.0738 -0.7025,0.20125 -0.22625,0.12625 -0.4075,0.31 -0.5425,0.55375 -0.13125,0.24125 -0.23125,0.4825 -0.29875,0.72 -0.065,0.2375 -0.10875,0.4525 -0.12875,0.645 -0.0225,0.1925 -0.0325,0.4175 -0.0288,0.67 0,0.1525 0.005,0.355 0.0125,0.61 0.008,0.255 0.02,0.4775 0.0438,0.6625 0.025,0.18625 0.0662,0.39625 0.12875,0.625 0.0637,0.23 0.15,0.415 0.2575,0.5575 0.10875,0.14125 0.285,0.25625 0.5225,0.34875 0.23375,0.0913 0.4875,0.13625 0.75125,0.1325 0.32125,0 0.5825,-0.0588 0.78125,-0.17375 0.1975,-0.115 0.3425,-0.25875 0.4325,-0.425 0.085,-0.17125 0.12875,-0.35125 0.12875,-0.545 l 0,-0.23875 c 0,-0.0712 -0.0187,-0.16875 -0.065,-0.29 -0.045,-0.1225 -0.0975,-0.21375 -0.15375,-0.275 -0.0588,-0.06 -0.13,-0.11 -0.21,-0.14625 -0.0813,-0.0388 -0.1425,-0.06 -0.18125,-0.0713 l -0.18,-0.0325 c -0.05,-0.006 -0.0887,-0.0212 -0.11125,-0.045 -0.0237,-0.0263 -0.0375,-0.0575 -0.0325,-0.1 0,-0.055 0.0213,-0.095 0.0625,-0.1225 0.0388,-0.0275 0.085,-0.0425 0.13875,-0.0425 l 2.77875,0 c 0.0613,0 0.1125,0.01 0.15875,0.0312"
       inkscape:label="" />
    <path
       id="bank"
       style="fill:#000000;fill-opacity:1;fill-rule:nonzero;stroke:none"
       d="m 190.91375,244.61525 0,-0.425 0.97875,0 -0.97875,-2.305 0,-1.72875 0.008,-0.0188 c 0.0487,-0.1325 0.0987,-0.23625 0.14375,-0.3125 0.0488,-0.0788 0.12,-0.12 0.2125,-0.125 0.09,-0.005 0.16,0.0225 0.205,0.0813 0.0488,0.0587 0.105,0.16 0.17625,0.3075 l 2.49,5.45 c 0.0212,0.05 0.075,0.14 0.16625,0.275 0.0888,0.13625 0.15625,0.235 0.20875,0.3 0.05,0.0637 0.11625,0.1225 0.195,0.17125 0.0813,0.0487 0.15375,0.0787 0.21625,0.0887 l 0.09,0.015 c 0.0425,0.0112 0.08,0.025 0.1175,0.0425 0.0337,0.02 0.055,0.0488 0.06,0.0863 0.006,0.0412 -0.01,0.0788 -0.0438,0.11875 -0.0362,0.0362 -0.08,0.0563 -0.13375,0.0563 l -3.06375,0 c -0.1025,0 -0.17625,-0.01 -0.2175,-0.0263 -0.0412,-0.0175 -0.0613,-0.0625 -0.0538,-0.1325 0.005,-0.0438 0.0238,-0.0788 0.0613,-0.1025 0.0362,-0.0225 0.085,-0.0362 0.14125,-0.0425 l 0.17625,-0.015 c 0.0588,-0.004 0.12875,-0.0187 0.2075,-0.045 0.0775,-0.0275 0.13875,-0.08 0.1825,-0.1575 0.0487,-0.0775 0.0687,-0.165 0.0613,-0.26125 -0.008,-0.0988 -0.0213,-0.1725 -0.0388,-0.22125 l -0.46625,-1.07375 -1.10125,0 z M 201.69,246.1765 c 0.002,0.1775 -0.02,0.31625 -0.07,0.41875 -0.05,0.1 -0.11125,0.155 -0.18875,0.16625 -0.0775,0.009 -0.15125,-0.015 -0.23,-0.0687 -0.045,-0.0225 -0.1,-0.075 -0.175,-0.15625 -0.0725,-0.0813 -0.1275,-0.1475 -0.16125,-0.195 l -3.875,-5.08625 0,4.4175 c -0.002,0.12 0.015,0.22375 0.0563,0.31 0.0387,0.085 0.1125,0.15875 0.2125,0.22125 0.105,0.0637 0.205,0.105 0.3075,0.1275 0.1025,0.0225 0.18875,0.0362 0.2675,0.0438 l 0.15,0.0137 c 0.0362,0.006 0.0825,0.0175 0.13125,0.0337 0.05,0.0175 0.0762,0.0575 0.0775,0.12375 0.004,0.0662 -0.0187,0.1075 -0.06,0.12625 -0.045,0.02 -0.0975,0.0288 -0.16625,0.025 l -2.3675,-0.005 c -0.0538,0 -0.105,-0.015 -0.14625,-0.0463 -0.045,-0.03 -0.0538,-0.0775 -0.035,-0.14125 0.0125,-0.0325 0.035,-0.0563 0.0675,-0.0763 0.0325,-0.0212 0.0725,-0.0337 0.12,-0.04 l 0.1325,-0.0137 c 0.0487,-0.003 0.12,-0.0175 0.2125,-0.0388 0.0913,-0.0237 0.18375,-0.06 0.27125,-0.11125 0.0863,-0.0525 0.15625,-0.13 0.2,-0.23625 0.0462,-0.105 0.0712,-0.20625 0.0712,-0.2975 l 0,-4.52625 c 0,-0.11 -0.01,-0.22875 -0.0288,-0.355 -0.015,-0.12875 -0.0538,-0.24 -0.11125,-0.3425 -0.0562,-0.10125 -0.12375,-0.17625 -0.21,-0.225 -0.0875,-0.0512 -0.17,-0.0875 -0.25625,-0.10875 -0.08,-0.0238 -0.14875,-0.0375 -0.2025,-0.045 l -0.1425,-0.015 c -0.0288,0 -0.0625,-0.01 -0.095,-0.0312 -0.0375,-0.02 -0.0475,-0.0637 -0.045,-0.13125 0.007,-0.0625 0.0337,-0.1 0.075,-0.11625 0.0438,-0.015 0.115,-0.025 0.2125,-0.0288 l 2.07625,-0.01 3.405,4.4025 0,-3.36 c 0,-0.0813 -0.0225,-0.1725 -0.06,-0.27375 -0.0388,-0.10125 -0.0937,-0.185 -0.17,-0.25 -0.0762,-0.0675 -0.16375,-0.1125 -0.2625,-0.1375 -0.0962,-0.025 -0.18125,-0.0412 -0.2575,-0.0488 l -0.26625,-0.015 c -0.045,0 -0.085,-0.0125 -0.12125,-0.0387 -0.035,-0.0288 -0.0462,-0.0688 -0.0375,-0.12375 0.007,-0.045 0.035,-0.0788 0.0775,-0.10375 0.045,-0.0237 0.0962,-0.0362 0.15625,-0.0362 l 2.3425,0 c 0.0538,0 0.0975,0.0138 0.13375,0.0413 0.0337,0.0275 0.0512,0.0687 0.0512,0.1225 -0.002,0.0388 -0.0162,0.07 -0.0387,0.0963 -0.0213,0.0262 -0.0563,0.04 -0.0975,0.0425 l -0.1975,0.015 c -0.0713,0.008 -0.16125,0.0288 -0.27375,0.0675 -0.11,0.04 -0.195,0.0912 -0.25375,0.155 -0.0588,0.0625 -0.1075,0.15 -0.14625,0.25875 -0.0387,0.10625 -0.0588,0.19 -0.0588,0.25375 l 0,5.3525 z m 3.77125,-3.21375 1.9125,-1.9775 c 0.0462,-0.0488 0.0925,-0.115 0.14375,-0.2 0.0537,-0.0863 0.095,-0.17125 0.13125,-0.25875 0.0387,-0.085 0.0475,-0.16125 0.0275,-0.225 -0.0275,-0.0613 -0.0713,-0.11 -0.13625,-0.1475 -0.0662,-0.0375 -0.13,-0.0575 -0.18875,-0.065 l -0.16625,-0.015 c -0.07,-0.002 -0.12125,-0.0112 -0.155,-0.0263 -0.035,-0.0125 -0.0525,-0.0513 -0.055,-0.11625 -0.002,-0.065 0.025,-0.10625 0.0725,-0.12875 0.05,-0.0212 0.10875,-0.0325 0.17125,-0.0325 l 2.71875,0 c 0.0463,0.004 0.0925,0.0138 0.13375,0.0275 0.0463,0.0163 0.0688,0.0513 0.0713,0.11 0,0.0587 -0.02,0.0987 -0.0613,0.125 -0.045,0.0287 -0.0888,0.0412 -0.13375,0.0412 l -0.0837,0 c -0.0725,0 -0.18625,0.0225 -0.34125,0.0637 -0.15625,0.04 -0.2875,0.085 -0.39125,0.12875 -0.1025,0.0463 -0.23625,0.11875 -0.4,0.2225 -0.16125,0.1025 -0.27375,0.18625 -0.335,0.25 l -1.1725,1.24875 1.8175,3.1325 c 0.0213,0.0488 0.1,0.16125 0.23125,0.3375 l 0.175,0.24625 c 0.075,0.1025 0.14125,0.185 0.20125,0.24625 0.0563,0.06 0.1275,0.1225 0.2025,0.18875 0.0788,0.0637 0.15625,0.11625 0.23,0.16125 0.0725,0.0438 0.14125,0.0662 0.205,0.0737 l 0.13375,0.015 c 0.0288,0.006 0.065,0.0162 0.1075,0.03 0.045,0.015 0.075,0.0538 0.0838,0.11625 0.0112,0.0625 -0.0125,0.105 -0.0688,0.12625 -0.0575,0.02 -0.13625,0.03 -0.24375,0.03 l -3.06,0 c -0.0538,0 -0.0975,-0.0113 -0.13375,-0.0363 -0.0337,-0.0225 -0.0462,-0.065 -0.0387,-0.12125 0.005,-0.065 0.0362,-0.11 0.095,-0.13 l 0.105,-0.015 0.085,-0.015 c 0.0438,-0.007 0.1,-0.0225 0.16375,-0.0512 0.0637,-0.0263 0.105,-0.0738 0.13,-0.14 0.0187,-0.0662 0.0187,-0.14125 -0.008,-0.23 -0.025,-0.0888 -0.0462,-0.155 -0.0687,-0.20125 l -1.53125,-2.63 -0.57625,0.56375 0,1.80625 c 0,0.0975 0.0112,0.20125 0.0387,0.3125 0.0263,0.11 0.0712,0.205 0.13,0.28625 0.0613,0.08 0.14,0.14625 0.24,0.1975 0.0987,0.0512 0.1775,0.0787 0.23625,0.0862 l 0.1075,0.015 c 0.04,0.006 0.0775,0.025 0.10875,0.055 0.035,0.03 0.0525,0.0662 0.0525,0.1075 -0.005,0.065 -0.0275,0.10375 -0.0687,0.11875 -0.04,0.015 -0.0975,0.0213 -0.17125,0.0213 l -3.01125,0 c -0.06,0 -0.10875,-0.0113 -0.1475,-0.0375 -0.0387,-0.0275 -0.0512,-0.0712 -0.0312,-0.13625 0.005,-0.0337 0.0263,-0.0625 0.0613,-0.0863 0.0362,-0.0225 0.07,-0.0362 0.1025,-0.0425 l 0.13,-0.015 c 0.0588,-0.004 0.11875,-0.02 0.18375,-0.0525 0.0675,-0.0337 0.1425,-0.09 0.2225,-0.17625 0.085,-0.0863 0.1425,-0.17625 0.17375,-0.2725 0.0337,-0.095 0.05,-0.2125 0.0538,-0.34875 l 0,-4.5 c 0,-0.0875 -0.01,-0.19 -0.0263,-0.30625 -0.0175,-0.11625 -0.0588,-0.2225 -0.1225,-0.31125 -0.0687,-0.0937 -0.14875,-0.1675 -0.24375,-0.2225 -0.0962,-0.0562 -0.17625,-0.0875 -0.24625,-0.095 l -0.1825,-0.01 c -0.0413,0 -0.0775,-0.015 -0.11375,-0.0412 -0.0337,-0.03 -0.0462,-0.0687 -0.0362,-0.1175 0.01,-0.05 0.0337,-0.0875 0.0675,-0.11125 0.035,-0.0225 0.0825,-0.0337 0.135,-0.0337 l 3.1225,0.005 c 0.055,0.004 0.1,0.0138 0.12625,0.035 0.0275,0.025 0.0438,0.0587 0.0438,0.105 -0.005,0.0662 -0.0213,0.10625 -0.0525,0.1225 -0.0312,0.0187 -0.065,0.0288 -0.1075,0.0312 l -0.15875,0.015 c -0.0913,0.0113 -0.17375,0.0388 -0.25875,0.0875 -0.0837,0.0475 -0.15625,0.12 -0.215,0.21 -0.0588,0.0937 -0.1,0.19 -0.1175,0.2925 -0.0175,0.10125 -0.025,0.205 -0.025,0.31125 l 0,1.9725 z m -14.5475,-2.80625 0,1.72875 -0.03,-0.07 -0.95125,2.375 0.98125,0 0,0.425 -1.14,0 -0.35625,1.08875 c -0.05,0.14875 -0.0625,0.27 -0.04,0.36375 0.0225,0.095 0.0687,0.16625 0.1375,0.2125 0.07,0.0488 0.14125,0.0763 0.2125,0.0875 0.0688,0.015 0.1325,0.0213 0.18875,0.0213 l 0.10625,0 c 0.0387,0 0.075,0.0175 0.115,0.0525 0.0363,0.0362 0.0538,0.0725 0.0513,0.1125 -0.007,0.06 -0.0387,0.0975 -0.0913,0.11375 -0.0538,0.0175 -0.13125,0.025 -0.23375,0.025 l -1.97,0 c -0.135,0 -0.225,-0.01 -0.26875,-0.0263 -0.0488,-0.0175 -0.0725,-0.0588 -0.0725,-0.1225 0,-0.065 0.0212,-0.10375 0.0613,-0.12 0.0412,-0.015 0.0962,-0.0238 0.1675,-0.035 l 0.1125,-0.015 c 0.0462,-0.004 0.1175,-0.0237 0.215,-0.0675 0.0975,-0.0412 0.1775,-0.0888 0.24375,-0.14125 0.065,-0.0538 0.12875,-0.12 0.1925,-0.19625 0.0613,-0.0775 0.1125,-0.1525 0.15875,-0.22625 0.0437,-0.0725 0.0787,-0.14125 0.1025,-0.20375 l 2.1075,-5.3825 z m -6.4825,6.53625 0,-0.43625 c 0.15625,-0.004 0.3,-0.0238 0.4325,-0.0588 0.1575,-0.04 0.3,-0.12 0.425,-0.24 0.12625,-0.12 0.21,-0.25125 0.24875,-0.395 0.04,-0.1425 0.0675,-0.30375 0.0763,-0.48125 0.0112,-0.17875 0.0162,-0.31875 0.0162,-0.4175 -0.007,-0.19375 -0.0437,-0.375 -0.10875,-0.545 -0.0637,-0.17 -0.16875,-0.3125 -0.31375,-0.42375 -0.14125,-0.11 -0.3125,-0.1975 -0.51,-0.255 -0.08,-0.0225 -0.17125,-0.0413 -0.26625,-0.0563 l 0,-0.52375 c 0.18375,-0.0475 0.35375,-0.1225 0.51125,-0.225 0.1625,-0.1025 0.29,-0.23875 0.3825,-0.40375 0.095,-0.165 0.14125,-0.37875 0.14625,-0.63625 0.002,-0.26125 -0.0187,-0.47375 -0.075,-0.64625 -0.0738,-0.21625 -0.17375,-0.3725 -0.3025,-0.47375 -0.13125,-0.0987 -0.27,-0.16875 -0.4175,-0.20875 -0.0838,-0.0225 -0.165,-0.0387 -0.245,-0.0488 l 0,-0.45125 0.2975,0 c 0.26,0.004 0.50125,0.0175 0.73,0.0375 0.2275,0.0238 0.43125,0.0625 0.60875,0.11875 0.175,0.0588 0.33875,0.14 0.48875,0.24875 0.15125,0.11 0.2725,0.23625 0.365,0.37625 0.0937,0.14125 0.15875,0.315 0.20625,0.52 0.0412,0.205 0.04,0.41875 -0.01,0.64375 -0.045,0.1875 -0.115,0.3425 -0.2075,0.46875 -0.0925,0.125 -0.20625,0.23875 -0.3425,0.3375 -0.13375,0.1 -0.3225,0.195 -0.55625,0.28875 -0.23625,0.0913 -0.4175,0.14375 -0.55,0.16125 l -0.665,0.11 c 0.3225,0.0362 0.5925,0.0725 0.8075,0.10875 0.2175,0.0375 0.43625,0.0975 0.65625,0.18375 0.22,0.085 0.4025,0.1875 0.5475,0.30625 0.14375,0.12 0.26625,0.28125 0.37,0.49 0.10125,0.2075 0.15625,0.44375 0.16,0.7075 0.006,0.26375 -0.055,0.5225 -0.18125,0.77625 -0.0825,0.1575 -0.19,0.3025 -0.3275,0.4325 -0.13375,0.12875 -0.32,0.2475 -0.55375,0.35125 -0.235,0.10125 -0.465,0.17 -0.6975,0.20625 -0.22875,0.0337 -0.46375,0.0525 -0.69875,0.0525 l -0.4475,0 z m 0,-6.92625 0,0.45125 c -0.0637,-0.009 -0.12625,-0.0112 -0.19125,-0.0112 l -0.5,0 c -0.0675,0 -0.1425,0.009 -0.22375,0.0288 -0.0813,0.0188 -0.1375,0.045 -0.17125,0.0762 -0.0325,0.0338 -0.0613,0.0838 -0.08,0.15375 -0.0225,0.0675 -0.035,0.15625 -0.035,0.26125 l 0,2.20125 0.70875,0 c 0.12875,0 0.29,-0.0212 0.48,-0.065 l 0.0125,-0.002 0,0.52375 c -0.14,-0.02 -0.2925,-0.0312 -0.4625,-0.0312 l -0.73875,0 0,2.48625 c 0,0.11875 0.0125,0.205 0.035,0.2575 0.0187,0.0525 0.0625,0.095 0.125,0.12125 0.0637,0.0288 0.17,0.04 0.31375,0.04 l 0.6425,0 c 0.0275,0 0.0575,0 0.085,-0.001 l 0,0.43625 -3.5675,0 c -0.0575,0.004 -0.105,-0.008 -0.15,-0.0362 -0.0425,-0.0275 -0.0563,-0.0725 -0.0425,-0.13625 0.006,-0.04 0.0275,-0.0662 0.0637,-0.0863 0.035,-0.015 0.09,-0.0312 0.165,-0.045 0.075,-0.0112 0.1525,-0.0325 0.23375,-0.055 0.0825,-0.025 0.165,-0.0687 0.25125,-0.135 0.0875,-0.065 0.15125,-0.15 0.1925,-0.24875 0.0412,-0.1 0.0587,-0.23625 0.0587,-0.40875 l 0,-4.65125 c 0,-0.10375 -0.0125,-0.20375 -0.0387,-0.30125 -0.0312,-0.0987 -0.0712,-0.18 -0.1275,-0.24875 -0.0538,-0.0662 -0.125,-0.1225 -0.215,-0.16625 -0.0888,-0.0437 -0.1775,-0.0712 -0.265,-0.08 -0.0863,-0.01 -0.1525,-0.0275 -0.19375,-0.0513 -0.0413,-0.0225 -0.0563,-0.0637 -0.0438,-0.12 0.01,-0.0563 0.0312,-0.095 0.0687,-0.12 0.0337,-0.0238 0.0788,-0.0362 0.13125,-0.0362 l 3.47875,0 z"
       inkscape:label="" />
    <path
       id="of"
       style="fill:#000000;fill-opacity:1;fill-rule:nonzero;stroke:none"
       d="m 218.4884,246.75665 0,-0.4275 c 0.0275,0.001 0.0562,0.002 0.0837,0.002 0.0975,0.002 0.2025,-0.005 0.3075,-0.0238 0.10875,-0.02 0.23375,-0.0613 0.38,-0.1275 0.14625,-0.0662 0.27875,-0.17375 0.39625,-0.3175 0.1175,-0.14625 0.21,-0.3375 0.28125,-0.56375 0.07,-0.2325 0.11875,-0.42375 0.145,-0.57625 0.0225,-0.155 0.045,-0.40875 0.0625,-0.7625 0.0187,-0.35375 0.0263,-0.58875 0.0288,-0.705 0.002,-0.12 -0.002,-0.29625 -0.0138,-0.53375 -0.0175,-0.3175 -0.035,-0.58125 -0.055,-0.7875 -0.0187,-0.205 -0.0487,-0.4025 -0.0875,-0.59 -0.0388,-0.19125 -0.095,-0.36125 -0.17,-0.5125 -0.0737,-0.15 -0.17875,-0.28 -0.31375,-0.38625 -0.13375,-0.11 -0.295,-0.1875 -0.47875,-0.23875 -0.1875,-0.0525 -0.36125,-0.0775 -0.52,-0.0775 l -0.0462,0.001 0,-0.42 0.035,-0.001 c 0.26125,0.004 0.51625,0.0288 0.76625,0.0775 0.25125,0.0487 0.48375,0.115 0.695,0.205 0.2125,0.0875 0.41,0.1975 0.59125,0.32375 0.18375,0.13 0.34625,0.27625 0.48875,0.4425 0.1425,0.16625 0.27375,0.36 0.3875,0.58375 0.1175,0.22125 0.205,0.46375 0.26625,0.7225 0.0613,0.2575 0.1,0.49375 0.1175,0.70875 0.0162,0.21375 0.0225,0.40625 0.0225,0.58 -0.004,0.24 -0.02,0.46375 -0.0488,0.67125 -0.03,0.2075 -0.0788,0.41 -0.1425,0.60625 -0.0625,0.195 -0.15625,0.4 -0.2775,0.6125 -0.1225,0.2125 -0.27375,0.4075 -0.455,0.585 -0.1775,0.1775 -0.35125,0.315 -0.51,0.40875 -0.16,0.0925 -0.35375,0.185 -0.5875,0.2775 -0.23,0.0937 -0.39125,0.15 -0.4825,0.1675 -0.09,0.0163 -0.24125,0.035 -0.45,0.0488 -0.21125,0.0162 -0.34,0.0263 -0.39125,0.0263 l -0.025,0 z m 6.1873,-1.2776 c 0.002,0.1525 0.0187,0.28375 0.0437,0.385 0.0263,0.10375 0.0775,0.1925 0.155,0.27 0.0737,0.0762 0.16125,0.13375 0.2525,0.17375 0.095,0.0388 0.16875,0.06 0.22125,0.0675 l 0.1125,0.0137 c 0.0275,0.006 0.0588,0.0225 0.0937,0.045 0.0312,0.0238 0.0512,0.0588 0.0588,0.1025 0.004,0.0437 -0.009,0.08 -0.0375,0.115 -0.0312,0.03 -0.065,0.045 -0.105,0.0413 l -3.2175,-0.005 c -0.0563,0 -0.105,-0.0138 -0.14375,-0.0413 -0.0388,-0.0288 -0.0475,-0.0712 -0.0325,-0.1325 0.002,-0.015 0.0212,-0.04 0.0525,-0.0712 0.0337,-0.0337 0.06,-0.05 0.0825,-0.0538 l 0.16,-0.0137 c 0.0475,-0.003 0.11375,-0.0188 0.195,-0.0438 0.0838,-0.025 0.1725,-0.075 0.26125,-0.145 0.0912,-0.0712 0.155,-0.17 0.19625,-0.2975 0.0375,-0.125 0.0575,-0.25875 0.0613,-0.3975 l 0,-4.50875 c 0,-0.0662 -0.01,-0.16625 -0.0312,-0.30375 -0.02,-0.13625 -0.0662,-0.24125 -0.14,-0.31625 -0.0712,-0.0762 -0.15875,-0.1375 -0.25625,-0.185 -0.0975,-0.045 -0.18125,-0.075 -0.2575,-0.0888 l -0.12,-0.02 c -0.0425,-0.002 -0.0775,-0.0163 -0.11375,-0.0388 -0.0337,-0.025 -0.045,-0.0625 -0.0337,-0.1175 0.0125,-0.0525 0.0375,-0.09 0.0788,-0.115 0.0362,-0.0238 0.08,-0.0362 0.12625,-0.0362 l 5.97375,0 -0.006,1.875 c -0.002,0.0613 -0.0125,0.1125 -0.0325,0.15125 -0.0138,0.04 -0.0488,0.0662 -0.0925,0.0812 -0.0488,0.0113 -0.0925,0.009 -0.13,-0.0125 -0.0425,-0.0225 -0.0725,-0.06 -0.09,-0.11375 l -0.0675,-0.1975 c -0.04,-0.10125 -0.0925,-0.21875 -0.15875,-0.3475 -0.0637,-0.1275 -0.14875,-0.25875 -0.255,-0.39 -0.10125,-0.13125 -0.23625,-0.2475 -0.3975,-0.35 -0.15875,-0.1 -0.3275,-0.17375 -0.495,-0.215 -0.16875,-0.0437 -0.30625,-0.0662 -0.41,-0.0662 l -1.16125,0 c -0.0588,0.002 -0.11,0.0125 -0.155,0.025 -0.0463,0.0112 -0.0875,0.0362 -0.1225,0.0725 -0.035,0.035 -0.0538,0.0662 -0.0588,0.0975 -0.004,0.03 -0.004,0.09 -0.004,0.17625 l 0,2.35625 0.72,0 c 0.0775,0 0.15875,-0.015 0.23875,-0.0412 0.0838,-0.0312 0.16125,-0.0687 0.2325,-0.115 0.0725,-0.0475 0.14875,-0.12125 0.22625,-0.2275 0.0825,-0.1025 0.1425,-0.19125 0.18125,-0.2625 0.0425,-0.0713 0.0775,-0.14625 0.10875,-0.23 0.0263,-0.085 0.0538,-0.15 0.075,-0.19875 0.0212,-0.0488 0.06,-0.0775 0.11625,-0.0913 0.0588,-0.0137 0.1025,0 0.13875,0.035 0.0362,0.0375 0.0538,0.0975 0.0538,0.17625 l 0,2.3925 c 0,0.0488 -0.0138,0.0875 -0.0438,0.1225 -0.0263,0.0325 -0.07,0.0513 -0.13125,0.0525 -0.0613,0.001 -0.11,-0.0238 -0.15,-0.075 -0.02,-0.0188 -0.0475,-0.0775 -0.0775,-0.1775 -0.0288,-0.1 -0.0838,-0.215 -0.16125,-0.345 -0.0775,-0.12875 -0.16375,-0.24 -0.25125,-0.32625 -0.0888,-0.09 -0.19125,-0.155 -0.3,-0.19875 -0.11125,-0.0437 -0.195,-0.065 -0.26125,-0.065 l -0.715,0 0,2.15 z m -6.18695,-5.7688 0,0.42 c -0.15625,0.007 -0.3075,0.0362 -0.4525,0.0875 -0.16,0.0563 -0.30125,0.135 -0.42875,0.23875 -0.12875,0.10125 -0.24875,0.25625 -0.3625,0.4625 -0.11375,0.205 -0.19625,0.4275 -0.2475,0.66375 -0.0563,0.23875 -0.095,0.4975 -0.125,0.77625 -0.0263,0.28125 -0.0463,0.55375 -0.0563,0.82 -0.0112,0.26625 -0.015,0.46125 -0.0112,0.58375 0,0.16625 0.009,0.35125 0.0275,0.5575 0.0212,0.2025 0.0525,0.41 0.0962,0.62125 0.0437,0.21125 0.0962,0.37125 0.155,0.48125 0.0625,0.11 0.125,0.2125 0.19,0.30625 0.0675,0.0888 0.16125,0.1825 0.2775,0.28 0.1225,0.095 0.28125,0.17375 0.48,0.23375 0.1625,0.05 0.31625,0.0775 0.4575,0.0863 l 0,0.4275 c -0.11,0.002 -0.25875,-0.01 -0.44375,-0.0325 -0.20125,-0.0238 -0.38625,-0.0588 -0.5525,-0.10625 -0.1675,-0.0475 -0.37,-0.1275 -0.6025,-0.2475 -0.23375,-0.12 -0.4375,-0.24875 -0.61125,-0.39 -0.175,-0.1425 -0.33625,-0.3175 -0.485,-0.52375 -0.1525,-0.2075 -0.26875,-0.40625 -0.34875,-0.6 -0.0862,-0.1925 -0.14625,-0.38 -0.19,-0.56375 -0.0375,-0.1825 -0.0662,-0.34 -0.0812,-0.4725 -0.015,-0.13 -0.0238,-0.275 -0.0263,-0.43 0,-0.105 0.001,-0.2325 0.002,-0.3825 0.004,-0.14875 0.0187,-0.3225 0.0525,-0.51875 0.0325,-0.19625 0.0862,-0.39375 0.15125,-0.59125 0.0662,-0.2 0.15875,-0.39625 0.26875,-0.59375 0.1125,-0.19625 0.235,-0.36375 0.36875,-0.50125 0.135,-0.1375 0.27875,-0.265 0.43,-0.37875 0.14875,-0.1125 0.3025,-0.21375 0.46125,-0.29875 0.15625,-0.085 0.34,-0.16125 0.5525,-0.23 0.21125,-0.0687 0.39375,-0.11875 0.55,-0.145 0.15,-0.0263 0.31625,-0.04 0.50375,-0.04"
       inkscape:label="" />
    <path
       id="china"
       style="fill:#000000;fill-opacity:1;fill-rule:nonzero;stroke:none"
       d="m 261.56715,244.6154 0,-0.425 0.98125,0 -0.98125,-2.305 0,-1.72875 0.007,-0.0188 c 0.05,-0.1325 0.1,-0.23625 0.14625,-0.3125 0.0487,-0.0788 0.1175,-0.12 0.21,-0.125 0.0925,-0.005 0.16125,0.0225 0.2075,0.0813 0.0462,0.0587 0.105,0.16 0.17625,0.3075 l 2.49,5.45 c 0.0225,0.05 0.0763,0.14 0.16625,0.275 0.0863,0.13625 0.15625,0.235 0.21,0.3 0.0488,0.0637 0.115,0.1225 0.19375,0.17125 0.08,0.0487 0.1525,0.0787 0.21625,0.0887 l 0.0875,0.015 c 0.045,0.0112 0.0838,0.025 0.11875,0.0425 0.035,0.02 0.0562,0.0488 0.0625,0.0863 0.005,0.0412 -0.0125,0.0788 -0.0462,0.11875 -0.0375,0.0362 -0.08,0.0563 -0.135,0.0563 l -3.06125,0 c -0.105,0 -0.17625,-0.01 -0.2175,-0.0263 -0.0412,-0.0175 -0.0612,-0.0625 -0.0537,-0.1325 0.005,-0.0438 0.0225,-0.0788 0.0587,-0.1025 0.0388,-0.0225 0.0863,-0.0362 0.14375,-0.0425 l 0.175,-0.015 c 0.06,-0.004 0.12875,-0.0187 0.20625,-0.045 0.0788,-0.0275 0.13875,-0.08 0.185,-0.1575 0.0475,-0.0775 0.0662,-0.165 0.0587,-0.26125 -0.006,-0.0988 -0.0175,-0.1725 -0.0362,-0.22125 l -0.46875,-1.07375 m -1.1008,-4.45875 0,1.72875 -0.0275,-0.07 -0.95125,2.375 0.97875,0 0,0.425 -1.1375,0 -0.35625,1.08875 c -0.0513,0.14875 -0.0638,0.27 -0.0387,0.36375 0.0212,0.095 0.0675,0.16625 0.13625,0.2125 0.0688,0.0488 0.13875,0.0763 0.21,0.0875 0.0725,0.015 0.13375,0.0213 0.19,0.0213 l 0.10625,0 c 0.0412,0 0.0775,0.0175 0.11625,0.0525 0.0362,0.0362 0.0538,0.0725 0.05,0.1125 -0.006,0.06 -0.0375,0.0975 -0.0913,0.11375 -0.0537,0.0175 -0.1325,0.025 -0.2325,0.025 l -1.97,0 c -0.13375,0 -0.22625,-0.01 -0.27125,-0.0263 -0.0462,-0.0175 -0.07,-0.0588 -0.07,-0.1225 0,-0.065 0.0213,-0.10375 0.0625,-0.12 0.0412,-0.015 0.0962,-0.0238 0.165,-0.035 l 0.11375,-0.015 c 0.0437,-0.004 0.1175,-0.0237 0.215,-0.0675 0.0975,-0.0412 0.1775,-0.0888 0.24375,-0.14125 0.0637,-0.0538 0.13,-0.12 0.19125,-0.19625 0.0625,-0.0775 0.115,-0.1525 0.16,-0.22625 0.045,-0.0725 0.0775,-0.14125 0.10375,-0.20375 l 2.10375,-5.3825 z m -22.85145,-0.11385 0.09,1.7425 c 0.005,0.0712 -0.002,0.1375 -0.015,0.19375 -0.01,0.0575 -0.0288,0.1 -0.0512,0.1225 -0.0238,0.0238 -0.0625,0.0387 -0.115,0.045 -0.0575,0.007 -0.0987,-0.007 -0.12625,-0.045 -0.03,-0.035 -0.0538,-0.0888 -0.07,-0.1575 l -0.0387,-0.12875 c -0.0325,-0.1125 -0.0963,-0.25375 -0.1825,-0.42125 -0.09,-0.17 -0.1875,-0.31125 -0.295,-0.43125 -0.105,-0.12 -0.2275,-0.225 -0.36875,-0.32 -0.13875,-0.0913 -0.305,-0.17375 -0.4975,-0.24375 -0.1925,-0.0712 -0.415,-0.10875 -0.66125,-0.1125 -0.27125,-0.002 -0.50125,0.0412 -0.70125,0.13 -0.195,0.0913 -0.35125,0.21 -0.475,0.36125 -0.1175,0.14875 -0.215,0.3125 -0.28625,0.4875 -0.0738,0.17875 -0.1375,0.37375 -0.18875,0.59125 -0.055,0.2175 -0.09,0.4225 -0.10875,0.6175 -0.02,0.1975 -0.03,0.425 -0.0263,0.685 0,0.18125 0.004,0.38375 0.0113,0.60875 0.007,0.225 0.025,0.44 0.0562,0.645 0.0312,0.205 0.08,0.4075 0.155,0.605 0.0713,0.1975 0.17125,0.37375 0.29625,0.52875 0.125,0.1525 0.28125,0.285 0.46375,0.39125 0.185,0.1075 0.35875,0.18125 0.52,0.2175 0.16375,0.0375 0.34875,0.0463 0.555,0.0275 0.21125,-0.02 0.39625,-0.0637 0.56,-0.13375 0.15875,-0.0675 0.3125,-0.16 0.4525,-0.26875 0.14125,-0.1125 0.27875,-0.2425 0.40875,-0.39375 0.13125,-0.15125 0.24375,-0.295 0.33375,-0.43625 0.0875,-0.14 0.17125,-0.2275 0.24,-0.26375 0.0725,-0.0375 0.13,-0.0425 0.1775,-0.01 0.0487,0.0288 0.075,0.08 0.08,0.15125 0.007,0.07 -0.0187,0.16375 -0.0825,0.275 -0.11,0.20125 -0.215,0.37625 -0.3125,0.52125 -0.0975,0.14375 -0.24,0.305 -0.42,0.4825 -0.18375,0.175 -0.37375,0.3075 -0.57125,0.39875 -0.195,0.09 -0.415,0.15625 -0.66125,0.195 -0.2425,0.04 -0.47875,0.0588 -0.71125,0.0563 -0.275,0 -0.55625,-0.03 -0.8425,-0.085 -0.2825,-0.0563 -0.54875,-0.145 -0.795,-0.26375 -0.2475,-0.1175 -0.48375,-0.29625 -0.71375,-0.52875 -0.22625,-0.23625 -0.4,-0.4625 -0.52,-0.685 -0.11625,-0.2225 -0.205,-0.44125 -0.26375,-0.6575 -0.0538,-0.21625 -0.0925,-0.4275 -0.11375,-0.63125 -0.0225,-0.20625 -0.0325,-0.4025 -0.0325,-0.59125 0,-0.19 0.0175,-0.425 0.0538,-0.705 0.035,-0.27625 0.0862,-0.52 0.155,-0.7225 0.07,-0.20125 0.1625,-0.4 0.28,-0.59375 0.11625,-0.19625 0.23375,-0.36125 0.35375,-0.49875 0.1175,-0.13625 0.26125,-0.2625 0.425,-0.38 0.16625,-0.12 0.34125,-0.22375 0.525,-0.31375 0.1825,-0.0925 0.38,-0.1625 0.5975,-0.215 0.215,-0.0525 0.4625,-0.0875 0.7375,-0.0987 0.2375,-0.006 0.45,0.004 0.6375,0.0312 0.1875,0.0263 0.37375,0.0737 0.55125,0.135 0.18375,0.0625 0.3425,0.13125 0.47875,0.20625 0.13875,0.0762 0.24625,0.12125 0.325,0.1375 0.0762,0.0137 0.14625,0 0.2075,-0.0425 0.0325,-0.0238 0.0613,-0.0575 0.0788,-0.10625 0.0162,-0.0475 0.0337,-0.1025 0.0475,-0.16375 0.015,-0.0613 0.035,-0.1125 0.0613,-0.15125 0.0325,-0.0425 0.0738,-0.0625 0.12625,-0.0637 0.055,-0.002 0.1,0.015 0.13625,0.045 0.0237,0.0275 0.0362,0.0637 0.0462,0.10875 0.0138,0.0463 0.0188,0.085 0.0238,0.12 m 5.3823,2.64865 0,-1.67125 c 0,-0.0812 -0.009,-0.1775 -0.0325,-0.2925 -0.0187,-0.11375 -0.0613,-0.21625 -0.1225,-0.30625 -0.0637,-0.0888 -0.1425,-0.1625 -0.24,-0.22 -0.0975,-0.0588 -0.19,-0.0962 -0.2775,-0.1125 l -0.0925,-0.015 c -0.03,-0.002 -0.0637,-0.0175 -0.10125,-0.0438 -0.035,-0.0287 -0.0462,-0.0687 -0.0362,-0.11875 0.0113,-0.0513 0.0325,-0.0888 0.0688,-0.11125 0.0312,-0.0213 0.0775,-0.0337 0.13375,-0.0337 l 3.0475,0 c 0.0575,0.004 0.1,0.015 0.12875,0.0337 0.0275,0.02 0.0413,0.055 0.0438,0.10625 0.002,0.05 -0.01,0.09 -0.0312,0.11875 -0.0225,0.0275 -0.0563,0.0413 -0.1025,0.0463 l -0.1075,0.015 c -0.095,0.0113 -0.18625,0.0413 -0.2675,0.085 -0.0838,0.0462 -0.16,0.1125 -0.22875,0.205 -0.0687,0.0925 -0.11625,0.2 -0.1475,0.33 -0.0263,0.12625 -0.0413,0.24125 -0.0413,0.34375 l 0,4.46125 c 0,0.0962 0.009,0.2 0.0288,0.3125 0.0213,0.10875 0.0625,0.205 0.1275,0.2825 0.0675,0.0787 0.15,0.14125 0.255,0.18625 0.1,0.045 0.18625,0.0712 0.25375,0.0812 l 0.0888,0.015 c 0.0325,0.006 0.0675,0.0225 0.1075,0.0513 0.0387,0.025 0.0575,0.0637 0.0575,0.11375 -0.002,0.0475 -0.0263,0.0825 -0.0675,0.105 -0.0437,0.0225 -0.1025,0.0337 -0.17625,0.0337 l -3.01,0 c -0.0562,0 -0.105,-0.015 -0.14375,-0.0413 -0.04,-0.0275 -0.0538,-0.0712 -0.0375,-0.13375 0.006,-0.0375 0.0275,-0.0662 0.0562,-0.0888 0.0325,-0.0212 0.0688,-0.0337 0.10625,-0.04 l 0.0962,-0.015 c 0.0538,-0.007 0.125,-0.0262 0.21125,-0.0625 0.085,-0.035 0.16625,-0.0887 0.24125,-0.16125 0.075,-0.0687 0.12625,-0.16125 0.16,-0.27 0.03,-0.11 0.0475,-0.22875 0.0512,-0.355 l 0,-2.42875 -2.4375,0 0,2.42875 c 0,0.11 0.0138,0.215 0.0413,0.315 0.0262,0.1025 0.0737,0.19625 0.14625,0.28375 0.07,0.0863 0.15125,0.14875 0.23625,0.185 0.0913,0.0375 0.16875,0.0575 0.24,0.065 l 0.1075,0.015 c 0.03,0.006 0.06,0.025 0.0925,0.055 0.0312,0.03 0.0462,0.0675 0.0462,0.115 0.002,0.0438 -0.0125,0.0775 -0.0462,0.1 -0.0325,0.0225 -0.0775,0.0337 -0.1325,0.0337 l -3.05625,0 c -0.0513,0 -0.0975,-0.015 -0.13625,-0.0413 -0.0375,-0.0275 -0.0512,-0.0712 -0.04,-0.13375 0.007,-0.0337 0.0275,-0.0625 0.0575,-0.0863 0.0337,-0.0225 0.0675,-0.0362 0.0975,-0.0425 l 0.10625,-0.015 c 0.0425,-0.004 0.10125,-0.0225 0.1775,-0.06 0.0775,-0.0375 0.155,-0.0888 0.235,-0.1525 0.0825,-0.065 0.145,-0.155 0.18375,-0.275 0.0412,-0.1175 0.065,-0.23875 0.0662,-0.36125 l 0,-4.505 c 0,-0.0775 -0.01,-0.17625 -0.0325,-0.29625 -0.0188,-0.12125 -0.0662,-0.235 -0.13625,-0.34375 -0.0725,-0.10625 -0.14875,-0.17875 -0.235,-0.21875 -0.085,-0.0375 -0.16,-0.0613 -0.23375,-0.0725 l -0.115,-0.015 c -0.0413,-0.002 -0.0813,-0.0175 -0.1175,-0.0438 -0.0337,-0.0287 -0.0488,-0.0687 -0.0375,-0.11875 0.0112,-0.0513 0.035,-0.0888 0.0737,-0.1125 0.0362,-0.02 0.0775,-0.0325 0.1275,-0.0325 l 3.0375,0 c 0.0425,0.004 0.0825,0.0125 0.12125,0.0238 0.035,0.0125 0.055,0.0512 0.0575,0.115 0.002,0.0625 -0.0175,0.105 -0.0538,0.12625 -0.0375,0.0225 -0.0737,0.035 -0.1075,0.04 l -0.1075,0.015 c -0.0762,0.0113 -0.15875,0.0425 -0.245,0.0875 -0.0825,0.0463 -0.165,0.1225 -0.24625,0.22 -0.08,0.1 -0.12625,0.2 -0.14375,0.29875 -0.02,0.1 -0.0288,0.20125 -0.0288,0.30375 l 0,1.695 2.4375,0 z m 5.3375,2.82 c 0.006,0.13125 0.0213,0.24875 0.0387,0.35125 0.0225,0.1 0.0662,0.19 0.13875,0.27 0.0687,0.0762 0.1575,0.135 0.26625,0.175 0.10875,0.0388 0.20125,0.06 0.27875,0.0675 l 0.145,0.0137 c 0.0487,0.006 0.085,0.0162 0.1075,0.025 0.0213,0.0125 0.0362,0.05 0.0425,0.11375 0.005,0.065 -0.008,0.11 -0.0425,0.13125 -0.035,0.0225 -0.0837,0.0337 -0.14625,0.0337 l -3.255,0 c -0.0562,0 -0.10375,-0.0113 -0.1425,-0.0362 -0.0362,-0.0238 -0.0488,-0.0713 -0.0337,-0.13875 0.007,-0.0375 0.0275,-0.0662 0.0575,-0.0888 0.0325,-0.02 0.0675,-0.0337 0.10125,-0.04 l 0.1175,-0.0137 c 0.0562,-0.008 0.13,-0.0288 0.22625,-0.0663 0.0937,-0.0362 0.17875,-0.09 0.2525,-0.16 0.0725,-0.0675 0.13125,-0.17375 0.17,-0.315 0.0425,-0.14125 0.0637,-0.26625 0.0688,-0.37375 l 0,-4.435 c 0,-0.085 -0.0113,-0.19125 -0.0263,-0.31875 -0.0175,-0.13 -0.0637,-0.2375 -0.14,-0.32625 -0.0725,-0.0863 -0.1675,-0.155 -0.275,-0.2025 -0.11,-0.045 -0.20125,-0.075 -0.27125,-0.0888 l -0.105,-0.015 c -0.0375,-0.002 -0.0712,-0.0163 -0.10375,-0.0425 -0.0337,-0.0263 -0.045,-0.0638 -0.0337,-0.115 0.01,-0.0513 0.0337,-0.0888 0.0687,-0.11375 0.0337,-0.0238 0.0788,-0.0362 0.13125,-0.0362 l 3.16,0.005 c 0.0538,0.004 0.0975,0.0188 0.12875,0.0425 0.0375,0.0275 0.05,0.065 0.0475,0.1175 -0.007,0.0375 -0.025,0.07 -0.0563,0.0987 -0.03,0.0263 -0.0637,0.0413 -0.1025,0.0438 l -0.1275,0.015 c -0.09,0.0138 -0.17875,0.0488 -0.26875,0.10375 -0.09,0.0562 -0.16875,0.12625 -0.23375,0.21375 -0.0662,0.0837 -0.11125,0.175 -0.1425,0.26875 -0.0263,0.095 -0.0412,0.20125 -0.0412,0.315 l 0,4.52125 z m 7.515,0.665 c 0.002,0.1775 -0.02,0.31625 -0.0713,0.41875 -0.0487,0.1 -0.11,0.155 -0.1875,0.16625 -0.0788,0.009 -0.1525,-0.015 -0.2325,-0.0687 -0.0437,-0.0225 -0.1,-0.075 -0.1725,-0.15625 -0.0738,-0.0813 -0.1275,-0.1475 -0.1625,-0.195 l -3.875,-5.08625 0,4.4175 c -0.004,0.12 0.0137,0.22375 0.0563,0.31 0.04,0.085 0.11375,0.15875 0.21375,0.22125 0.1025,0.0637 0.205,0.105 0.3075,0.1275 0.1,0.0225 0.1875,0.0362 0.26625,0.0438 l 0.14875,0.0137 c 0.0375,0.006 0.085,0.0175 0.1325,0.0337 0.0513,0.0175 0.0775,0.0575 0.0775,0.12375 0.002,0.0662 -0.02,0.1075 -0.0613,0.12625 -0.0438,0.02 -0.0975,0.0288 -0.16375,0.025 l -2.3675,-0.005 c -0.0563,0 -0.1075,-0.015 -0.14875,-0.0463 -0.0438,-0.03 -0.0538,-0.0775 -0.0337,-0.14125 0.0112,-0.0325 0.0337,-0.0563 0.0675,-0.0763 0.0312,-0.0212 0.0725,-0.0337 0.12,-0.04 l 0.13125,-0.0137 c 0.05,-0.003 0.1225,-0.0175 0.2125,-0.0388 0.0925,-0.0237 0.18375,-0.06 0.27375,-0.11125 0.085,-0.0525 0.15625,-0.13 0.19875,-0.23625 0.0475,-0.105 0.07,-0.20625 0.07,-0.2975 l 0,-4.52625 c 0,-0.11 -0.007,-0.22875 -0.0275,-0.355 -0.015,-0.12875 -0.0538,-0.24 -0.11,-0.3425 -0.0575,-0.10125 -0.125,-0.17625 -0.21375,-0.225 -0.0838,-0.0512 -0.16875,-0.0875 -0.2525,-0.10875 -0.08,-0.0238 -0.15125,-0.0375 -0.2025,-0.045 l -0.1425,-0.015 c -0.0288,0 -0.0625,-0.01 -0.0962,-0.0312 -0.0375,-0.02 -0.0488,-0.0637 -0.0438,-0.13125 0.006,-0.0625 0.0337,-0.1 0.075,-0.11625 0.0412,-0.015 0.1125,-0.025 0.215,-0.0288 l 2.0725,-0.01 3.40625,4.4025 0,-3.36 c 0,-0.0813 -0.0225,-0.1725 -0.0587,-0.27375 -0.04,-0.10125 -0.0975,-0.185 -0.17375,-0.25 -0.0738,-0.0675 -0.1625,-0.1125 -0.25875,-0.1375 -0.1,-0.025 -0.1825,-0.0412 -0.25875,-0.0488 l -0.26625,-0.015 c -0.0462,0 -0.0862,-0.0125 -0.1225,-0.0387 -0.0337,-0.0288 -0.045,-0.0688 -0.0362,-0.12375 0.005,-0.045 0.0337,-0.0788 0.0763,-0.10375 0.0437,-0.0237 0.0975,-0.0362 0.15625,-0.0362 l 2.34125,0 c 0.055,0 0.0975,0.0138 0.13375,0.0413 0.0362,0.0275 0.0537,0.0687 0.0537,0.1225 -0.005,0.0388 -0.0162,0.07 -0.0387,0.0963 -0.0238,0.0262 -0.0575,0.04 -0.0987,0.0425 l -0.19875,0.015 c -0.0687,0.008 -0.16,0.0288 -0.27125,0.0675 -0.1125,0.04 -0.1975,0.0912 -0.25375,0.155 -0.0587,0.0625 -0.10875,0.15 -0.1475,0.25875 -0.0387,0.10625 -0.0575,0.19 -0.0575,0.25375 l 0,5.3525 z"
       inkscape:label="" />
  </g>
</svg>
