<?xml version="1.0" encoding="utf-8"?>
<!-- Generator: Adobe Illustrator 14.0.0, SVG Export Plug-In . SVG Version: 6.00 Build 43363)  -->
<!DOCTYPE svg PUBLIC "-//W3C//DTD SVG 1.1//EN" "http://www.w3.org/Graphics/SVG/1.1/DTD/svg11.dtd">
<svg version="1.1" id="Layer_1" xmlns="http://www.w3.org/2000/svg" xmlns:xlink="http://www.w3.org/1999/xlink" x="0px" y="0px"
	 width="200px" height="40px" viewBox="0 0 200 40" enable-background="new 0 0 200 40" xml:space="preserve">
<g>
	<path fill="#003C78" d="M77.003,25.49c-6.561-1.269-11.434-4.744-11.475-4.798c-0.036-0.052-0.587-0.313-0.501-0.675
		c0.253-1.056,1.784-3.238,1.945-3.541c0.158-0.305,0.045-0.84-0.317-0.912c-2.382-0.475-2.446-0.555-2.446-0.555
		c-0.672-0.055-0.713,0.276-0.713,0.276l0.041,1.693c-0.45,1.479-0.716,1.387-0.716,1.387s-1.929-1.441-2.062-1.56
		c-0.133-0.119-1.627-0.251-1.627-0.251s0.155-0.254,0.291-0.371c2.208-1.89,2.791-3.594,2.802-3.646
		c0.015-0.053-0.026-1.02-0.026-1.02l-0.751-0.99l1.957-0.529c0,0,1.141-0.34,1.361-0.092c0.376,0.426,0.516,2.391,0.516,2.391
		c0.672,1.441,2.82,2.004,2.959,2.043c0.138,0.04,3.788,1.098,3.788,1.098c0.91-0.715,0.77-1.685,0.77-1.685
		c0.217-0.536-1.78-1.373-2.536-1.549c-2.756-0.633-3.217-1.115-3.965-1.664C65.542,9.985,66.12,9.43,66.12,9.43
		s1.45-0.429,1.861-0.515c0.575-0.118,3.909-0.278,3.909-0.278c0.929,0.082,0.929-0.275,0.929-0.275L72.543,6.14
		c0.099-0.277-0.154-0.84-0.376-0.772c-4.07,1.19-6.643,1.406-6.643,1.406c-0.356,0.04-0.375-1.753-0.259-2.557
		c0.14-0.952-0.738-1.541-1.32-1.568c-0.583-0.025-1.507-0.608-1.507-0.608c-2.3,3.113,0.74,3.839,0.945,3.921
		c0.812,0.318,0.661,0.422,0.911,0.733c0.318,0.396-0.605,0.695-1.19,0.853c-5.392,1.468-7.335,1.515-7.909,1.489
		c-1.211-0.062-0.812,1.108-0.812,1.108s0.413,0.506,0.654,1.051c0.415,0.952,2.449,0.249,2.854,0.139
		c2.26-0.614,2.242-0.414,2.242-0.414c0.374,0.414-0.3,1.584-0.3,1.584c-1.467,1.942-3.528,3.074-3.944,3.232
		c-0.417,0.157-0.574,0.04-0.574,0.04c-0.219,0.534,0.396,1.378,0.651,1.406c0.179,0.02,2.064-0.039,2.064-0.039l0.258-0.099
		c0.219,0,0.159,0.317,0.159,0.317c0.117,1.387,0.965,1.743,1.444,1.862c1.587,0.397,2.026,1.189,2.026,1.189
		c-3.551,4.817-10.053,4.345-10.053,4.345c0.198,0.197,0.754,0.516,1.844,0.731c3.587,0.715,6.901-1.208,7.156-1.426
		c0.258-0.219,2.21-1.712,2.48-2.004c0.474-0.515,0.753-0.237,0.753-0.237s3.167,2.666,4.143,3.489
		c5.553,4.679,8.943,0.456,8.943,0.456L77.003,25.49"/>
	<path fill="#003C78" d="M96.044,9.491c0.614-1.05-0.312-2.271-0.872-2.618C93.188,5.645,92.95,4.99,92.95,4.99
		c-1.129,0.554-1.142,1.824-0.831,2.575C93.148,10.065,95.835,9.845,96.044,9.491"/>
	<path fill="#003C78" d="M106.77,13.118c-0.02,0.179-0.057,8.188-0.057,8.188c-0.084,0.218-1.689,0.298-1.689,0.298
		c-0.137,0.673,1.648,2.756,1.648,2.756s-0.025,0.145-0.617,0.16c-2.695,0.059-3.248-0.338-3.248-0.338
		c0.178-0.02,1.047-1.03,1.047-1.03v-2.499c1.449-0.516,1.924-1.25,1.924-1.25c0.238-1.367-0.236-1.447-0.236-1.447l-1.191,0.218
		c-0.553,0.041-0.477-0.277-0.477-0.277l-0.02-1.012c0-0.118,2.023-1.009,2.023-1.009s0.197-0.535,0.08-1.331
		c-0.117-0.791-2.063-0.099-2.063-0.099l-0.119-1.347c0,0,0.953-0.16,1.248-0.317c0.299-0.158,1.488-0.337,1.488-0.337
		C106.791,12.485,106.791,12.939,106.77,13.118 M101.873,24.024c-1.824-0.12-2.299-0.457-2.299-0.457
		c0.037-0.12,0.175-2.835,0.175-2.835c2.183-0.099,2.183,0.1,2.183,0.1C102.111,22.478,101.873,24.024,101.873,24.024
		 M99.353,15.695c0,0-0.514-1.367-0.117-1.586c0,0,0.614,0.158,2.32-0.454c0,0,0.256,0.553,0.18,1.188
		c-0.039,0.278-0.262,0.238-0.262,0.238s-1.227,0.438-1.584,0.754C99.685,16.018,99.472,16.29,99.353,15.695 M101.418,18.69
		c0,0-1.626,0.257-1.728,0.179c0,0-0.039-1.607-0.039-1.766c0,0,0.518,0.259,0.852,0.278c0.337,0.02,0.635,0.099,1.112-0.02
		c0,0,0.219-0.021,0.219,0.516C101.834,18.594,101.91,18.638,101.418,18.69 M108.316,24.163c0,0-0.258-0.159-0.1-0.517
		c0.158-0.355,0.34-1.229,0.277-1.388c0,0-0.473-5.532-0.059-8.149c0.174-1.079,0.336-2.895,0.494-3.013
		c0,0-0.295-0.973-2.695-0.853c-0.811,0.04-1.799,0.726-2.381,0.317c-0.395-0.277-0.314-0.536-0.018-0.852
		c0.297-0.318,3.607-3.848,4.322-3.987c0,0,0.771-1.031-0.934-2.002c-1.002-0.573-1.248-0.932-2.537-0.1
		c-0.746,0.485-2.875,2.38-4.263,2.619c-0.705,0.121-0.813-0.498-0.89-0.557l-0.281-0.196c0,0-1.207,1.108-1.088,2.695
		c0.059,0.806,2.175,0.09,2.775-0.398c0.442-0.357,3.192-2.02,2.64-0.534l-1.707,1.902l-1.348,0.357c0,0-0.733,0.297-0.121,0.933
		c0,0,1.053,0.694,0.954,0.992c0,0-0.156,0.416-1.586,1.09c-0.306,0.144-0.674,0.455-0.736,0.554
		c-0.013,0.027-0.023,0.045-0.028,0.055l-1.059-0.629l-0.795-0.019c0,0,0.278,1.922,0.257,2.161
		c-0.019,0.235-0.078,7.612,0.477,8.724l-2.716-0.218c0,0-4.026-4.226-1.014-10.034c0.379-0.729,0.895-1.624-0.495-2.238
		c-0.611-0.273-1.965-0.438-2.22-0.696c0,0-0.913-0.337-0.813,0.873l0.652,1.429c0,0-0.117,0.833-0.495,2.794
		c-0.081,0.427-0.516,2.954,1.667,6.484c0,0,0.397,0.674,0.277,0.912c-0.121,0.237-0.239,0.099-0.239,0.099L89.7,22.496
		c0,0-0.637-0.179-0.772,0.477c-0.103,0.475-0.598,2.082,0.275,2.259c0,0,5.295-1.148,13.246,0.974
		c1.41,0.378,3.488,0.752,7.533,0.633c0,0,5.154-0.712,5.154-3.767C115.137,23.071,114.045,22.2,108.316,24.163"/>
	<path fill="#003C78" d="M167.828,9.668c2.125-0.057,3.152-1.108,3.152-1.108s0.627-0.559,1.289-1.233
		c0.795-0.809,1.648-1.762,1.648-1.762l0.592-0.355V4.93c-0.969-1.029-2.654-1.465-2.654-1.465c-0.041-0.08-0.297,0.057-0.297,0.057
		c-0.535,1.071-2.131,2.611-2.537,2.976c-1.607,1.427-2.104,2.736-2.104,2.736S167.268,9.686,167.828,9.668"/>
	<path fill="#003C78" d="M174.709,10.266c0.201-0.398,0.021-0.654,0.021-0.654c-1.803-0.734-3.213-0.716-3.213-0.716l-0.615,0.199
		c-4.521,6.719-9.555,8.92-9.555,8.92c-0.178,0.219,0.357,1.508,0.357,1.508s0.299,0.138,0.73,0.159
		c1.646,0.079,5.254-2.797,5.254-2.797c0.537-0.038,0.756,0.774,0.756,0.774c-0.098,0.259-0.207,6.174-0.219,6.584
		c-0.039,1.367,0.533,2.278,1.051,2.278c0.516,0,1.469-0.873,1.469-0.873l-0.08-4.777c-0.08-0.277-0.635-5.53-0.635-5.53
		C173.559,12.326,174.51,10.661,174.709,10.266"/>
	<path fill="#003C78" d="M175.781,7.269c0.494,1.468,1.209,2.223,1.209,2.223c3.074,1.367,7.037-1.429,7.236-1.587
		c0.199-0.16,0.318-1.071,0.318-1.071c-0.119-0.198-1.033-0.912-1.033-0.912l-0.473-0.139c-3.393,0.537-7.299,0.458-7.299,0.458
		l-0.139,0.613C175.602,6.854,175.637,6.84,175.781,7.269"/>
	<path fill="#003C78" d="M187.043,10.006c0,0-5.256,1.189-6.662,1.27c-0.793,0.044-5.252,0.554-5.252,0.554
		s-1.926,0.198-2.043,2.003c-0.033,0.476-0.043,1.586,0.098,1.765c0,0,1.727-0.496,3.904-0.972c0.742-0.16,1.807-0.218,1.982-0.198
		c0,0,0.338,8.348,0.201,8.665c0,0,0.1,1.228-1.309,0.773c0,0-1.449-0.912-2.834-0.872c0,0-0.063,0.219,0.254,0.517
		c0.32,0.296,2.361,1.96,3.291,3.149c0.324,0.414,3.709,1.727,3.889-2.002c0.027-0.642-0.695-7.077-0.754-7.475
		c-0.061-0.396-0.18-2.915,0.018-3.033c0,0,5.492-0.733,6.564-1.963C188.744,11.78,188.352,10.642,187.043,10.006"/>
	<path fill="#003C78" d="M137.813,21.307c0,0-2.578,0.418-2.598,0.338s0.303-0.452,0.691-0.754c1.131-0.873,1.609-1.527,1.609-1.527
		c0.732-1.544-0.139-1.485-0.139-1.485c-0.736-0.259-1.219,0.42-1.367,0.634c-1.24,1.775-1.311,1.605-1.311,1.605
		c-0.197-1.011-0.057-3.171-0.057-3.171l1.881-1.033c0.555-0.177,0.676-1.327,0.295-1.564c-0.301-0.192-2.102,0.039-2.102,0.039
		s-0.236,0.119-0.334,0.02c-0.1-0.099,0.039-0.853,0.039-0.853l1.588-0.733c0.416-0.336,0.277-1.289,0.277-1.289
		c-0.318-0.415-1.191-0.556-1.191-0.556l-2.281,0.04c0,0-0.598,0.162-0.535-0.179c0.141-0.753,1.766-2.219,1.766-2.219
		c0.854,0.018,1.99,0.887,2.201,1.069c0.895,0.794,1.805,1.429,1.805,1.429c0.156-3.986-1.688-4.699-2.023-4.877
		c-0.336-0.181-0.316-0.518-0.316-0.518c0.992-0.674,0.91-0.892,0.91-0.892c-1.031-2.676-2.873-2.042-2.873-2.042
		c-0.02,0.1-1.109,2.247-1.486,2.934c-2.855,5.197-7.652,8.942-7.813,9.121c-0.156,0.179-1.844,0.992-1.844,0.992
		c0.852,2.061,2.838,1.73,3.232,1.645c1.268-0.278,4.4-4.32,4.4-4.32c0.098,0.236,0.607,0.246,0.854,0.295
		c0.891,0.179,1.604,0.259,1.604,0.259l0.08,1.13l-1.861,0.536c0,0-0.832,0.215-0.875,1.169c-0.084,1.936,1.35,1.369,1.35,1.369
		l1.564-0.478c0.102,0.08,0.238,2.479,0.238,2.479l-1.725-1.031c-0.971,0.535-1.01,1.466-1.01,1.466
		c0.436,1.29,1.268,1.332,1.646,1.509c0.295,0.139,0.264,0.477,0.037,0.593c-4.063,2.143-4.34,2.004-4.34,2.004l-0.279,0.713
		c-0.02,1.845,2.5,1.225,2.635,1.151c4.086-2.182,6.941-2.914,6.941-2.914c0.518,0.019,0.93-0.993,0.93-0.993l0.381-0.614
		C138.727,21.228,137.813,21.307,137.813,21.307"/>
	<path fill="#003C78" d="M142.906,21.863c-0.807,0.364-1.266,0.079-1.266,0.079s-0.77-1.429-0.504-3.78c0,0,0.17-0.081,0.328-0.055
		c0,0,1.576,0.265,3.609,1.429C145.074,19.536,145.262,20.805,142.906,21.863 M141.301,11.294L141.521,11l2.971-0.12
		c0,0,0.219,0.137,0.082,0.515c-0.141,0.375-0.537,1.843-1.744,1.803c0,0-1.607,0.298-1.646-0.218L141.301,11.294z M141.855,7.309
		c0.061-0.398,2.6-0.436,2.896-0.356c0.299,0.08,0.355,0.934,0.355,0.934c-0.258,1.267-0.477,1.129-0.477,1.129
		c-1.523,0.357-2.893,0.06-2.893,0.06C141.6,8.719,141.855,7.309,141.855,7.309 M149.549,19.323
		c-1.348-0.454-2.895-1.465-2.895-1.465c0.061-0.061,4.918-2.935,4.918-2.935c-1.191-1.447-2.697-2.26-2.697-2.26
		c-2.637,4.261-6.383,4.56-7.002,4.581c-0.609,0.017-0.713-0.013-0.729-0.537c-0.061-1.826,0.256-1.864,0.256-1.864
		s0.434-0.019,0.773,0.297c0.635,0.596,2.063,0.139,2.063,0.139l0.953-0.833c1.01-1.128,1.133-1.528,1.209-2.518
		c0.178-2.36,0.605-3.261,0.871-3.985c0.693-1.884,0.615-2.319,0.615-2.319c-0.119-2.063-2.15-1.401-2.4-1.307
		c-1.564,0.593-3.535,0.824-4.145,1.01c-1.623,0.496-1.406,0.813-1.406,0.813l-0.1,1.604c0,0-0.273,8.468-0.297,9.083
		c-0.236,6.543,0.258,9.774,0.258,9.774c-0.039,0.555,0.713,0.853,0.713,0.853c2.381-0.139,4.291-4.473,4.443-4.977
		c0.771-2.597,0.951-2.318,0.951-2.318c1.844,0.751,4.064,3.39,4.203,3.51c0.139,0.116,0.357,0.059,0.535-0.299
		c0.176-0.357,1.387-1.884,1.387-1.884C151.988,20.99,150.346,19.595,149.549,19.323"/>
	<path fill="#003C78" d="M42.512,31.875H44.4c0.749,0,1.213,0.165,1.213,0.708c0,0.524-0.517,0.737-1.164,0.737h-1.938V31.875
		 M40.932,37.312h3.337c1.612,0,2.04-0.228,2.492-0.591c0.416-0.337,0.681-0.831,0.681-1.354c0-0.651-0.252-1.291-1.221-1.592
		c0.337-0.137,0.975-0.401,0.975-1.349c0-0.68-0.495-1.681-2.429-1.681h-3.835V37.312z M42.512,34.421h2.1
		c0.588,0,1.181,0.22,1.181,0.797c0,0.672-0.459,0.966-1.26,0.966h-2.02V34.421z"/>
	<path fill="#003C78" d="M50.199,35.963h2.906l0.503,1.349h1.785l-2.769-6.566h-1.899l-2.806,6.566h1.732L50.199,35.963z
		 M51.647,32.229h0.021l0.976,2.604h-2.004L51.647,32.229z"/>
	<polygon fill="#003C78" points="61.253,30.745 62.791,30.745 62.791,37.312 61.143,37.312 57.938,32.63 57.917,32.63 
		57.917,37.312 56.378,37.312 56.378,30.745 58.113,30.745 61.23,35.318 61.253,35.318 	"/>
	<polygon fill="#003C78" points="66.142,37.312 64.491,37.312 64.491,30.745 66.142,30.745 66.142,33.415 69.148,30.745 
		71.276,30.745 68.061,33.434 71.46,37.312 69.346,37.312 66.909,34.429 66.142,35.09 	"/>
	<path fill="#003C78" d="M78.043,34.029c0,3.075,2.743,3.448,3.785,3.448c1.041,0,3.787-0.373,3.787-3.448
		c0-3.076-2.746-3.449-3.787-3.449C80.786,30.58,78.043,30.953,78.043,34.029 M79.694,34.029c0-1.837,1.247-2.295,2.134-2.295
		s2.136,0.458,2.136,2.295c0,1.835-1.25,2.291-2.136,2.291S79.694,35.864,79.694,34.029"/>
	<polygon fill="#003C78" points="88.573,37.312 86.925,37.312 86.925,30.745 92.535,30.745 92.535,31.902 88.573,31.902 
		88.573,33.388 92.041,33.388 92.041,34.545 88.573,34.545 	"/>
	<path fill="#003C78" d="M104.271,32.896c-0.131-0.394-0.383-1.132-1.742-1.132c-0.791,0-1.954,0.437-1.954,2.293
		c0,1.177,0.559,2.236,1.954,2.236c0.906,0,1.547-0.429,1.742-1.232h1.646c-0.33,1.423-1.447,2.417-3.422,2.417
		c-2.095,0-3.6-1.174-3.6-3.439c0-2.292,1.592-3.458,3.62-3.458c2.361,0,3.311,1.347,3.402,2.315H104.271"/>
	<path fill="#003C78" d="M106.818,34.029c0,3.075,2.742,3.448,3.785,3.448c1.041,0,3.783-0.373,3.783-3.448
		c0-3.076-2.742-3.449-3.783-3.449C109.561,30.58,106.818,30.953,106.818,34.029 M108.467,34.029c0-1.837,1.248-2.295,2.137-2.295
		c0.887,0,2.135,0.458,2.135,2.295c0,1.835-1.248,2.291-2.135,2.291C109.715,36.32,108.467,35.864,108.467,34.029"/>
	<polygon fill="#003C78" points="123.268,37.312 121.729,37.312 121.729,31.817 121.705,31.817 120.236,37.312 118.625,37.312 
		117.189,31.817 117.168,31.817 117.168,37.312 115.627,37.312 115.627,30.745 118.035,30.745 119.459,35.921 119.48,35.921 
		120.885,30.745 123.268,30.745 	"/>
	<polygon fill="#003C78" points="132.406,37.312 130.869,37.312 130.869,31.817 130.846,31.817 129.375,37.312 127.768,37.312 
		126.328,31.817 126.305,31.817 126.305,37.312 124.77,37.312 124.77,30.745 127.172,30.745 128.598,35.921 128.621,35.921 
		130.021,30.745 132.406,30.745 	"/>
	<path fill="#003C78" d="M140.293,35.013c0,1.727-1.25,2.465-3.242,2.465c-0.725,0-1.801-0.146-2.502-0.793
		c-0.43-0.399-0.596-0.93-0.615-1.589v-4.351h1.68v4.258c0,0.916,0.635,1.317,1.408,1.317c1.131,0,1.592-0.456,1.592-1.252v-4.323
		h1.68V35.013"/>
	<polygon fill="#003C78" points="146.703,30.745 148.242,30.745 148.242,37.312 146.592,37.312 143.391,32.63 143.367,32.63 
		143.367,37.312 141.828,37.312 141.828,30.745 143.563,30.745 146.68,35.318 146.703,35.318 	"/>
	<rect x="149.693" y="30.745" fill="#003C78" width="1.648" height="6.568"/>
	<path fill="#003C78" d="M157.898,32.896c-0.135-0.394-0.385-1.132-1.746-1.132c-0.789,0-1.951,0.437-1.951,2.293
		c0,1.177,0.559,2.236,1.951,2.236c0.91,0,1.549-0.429,1.746-1.232h1.645c-0.328,1.423-1.447,2.417-3.422,2.417
		c-2.096,0-3.6-1.174-3.6-3.439c0-2.292,1.59-3.458,3.621-3.458c2.361,0,3.313,1.347,3.4,2.315H157.898"/>
	<path fill="#003C78" d="M162.461,35.963h2.904l0.506,1.349h1.785l-2.771-6.566h-1.896l-2.807,6.566h1.73L162.461,35.963z
		 M163.908,32.229h0.023l0.973,2.604h-2.006L163.908,32.229z"/>
	<polygon fill="#003C78" points="171.08,37.312 169.428,37.312 169.428,31.902 167.051,31.902 167.051,30.745 173.461,30.745 
		173.461,31.902 171.08,31.902 	"/>
	<rect x="174.303" y="30.745" fill="#003C78" width="1.648" height="6.568"/>
	<path fill="#003C78" d="M177.133,34.029c0,3.075,2.74,3.448,3.783,3.448c1.041,0,3.785-0.373,3.785-3.448
		c0-3.076-2.744-3.449-3.785-3.449C179.873,30.58,177.133,30.953,177.133,34.029 M178.783,34.029c0-1.837,1.246-2.295,2.133-2.295
		c0.889,0,2.135,0.458,2.135,2.295c0,1.835-1.246,2.291-2.135,2.291C180.029,36.32,178.783,35.864,178.783,34.029"/>
	<polygon fill="#003C78" points="190.816,30.745 192.354,30.745 192.354,37.312 190.709,37.312 187.504,32.63 187.48,32.63 
		187.48,37.312 185.941,37.312 185.941,30.745 187.676,30.745 190.795,35.318 190.816,35.318 	"/>
	<path fill="#003C78" d="M195.111,35.289c0.014,0.364,0.23,1.059,1.666,1.059c0.775,0,1.643-0.155,1.643-0.85
		c0-0.512-0.592-0.648-1.42-0.813l-0.84-0.164c-1.271-0.248-2.504-0.483-2.504-1.928c0-0.73,0.471-2.014,3.027-2.014
		c2.412,0,3.057,1.312,3.07,2.113h-1.578c-0.049-0.291-0.18-0.985-1.613-0.985c-0.621,0-1.365,0.192-1.365,0.785
		c0,0.512,0.5,0.622,0.83,0.684l1.91,0.395c1.076,0.22,2.063,0.584,2.063,1.765c0,1.97-2.412,2.142-3.102,2.142
		c-2.871,0-3.365-1.374-3.365-2.188H195.111"/>
	<path fill="#003C78" d="M22.569,9.244c-2.238,0-4.324,0.65-6.079,1.776l-5.966,3.866V1.497L0,10.375v16.79
		c0,4.987,3.247,9.221,7.752,10.712l2.007,0.626c-4.113-2.05-6.93-6.203-6.93-10.995c0-6.824,5.707-12.356,12.746-12.356
		c6.569,0,11.975,4.822,12.666,11.015l-7.263-0.002c-0.632-2.426-2.838-4.22-5.463-4.22c-3.115,0-5.643,2.528-5.643,5.642
		c0,3.118,2.528,5.644,5.643,5.644c2.883,0,5.255-2.156,5.602-4.94l7.176-0.004c-0.162,2.494-1.084,4.789-2.547,6.666
		c0,0,4.446-5.208,5.973-7.564c1.383-2.138,2.137-4.346,2.137-6.857C33.856,14.297,28.804,9.244,22.569,9.244"/>
</g>
</svg>
