<?xml version="1.0" encoding="UTF-8" standalone="no"?>
<!-- Generator: Adobe Illustrator 14.0.0, SVG Export Plug-In . SVG Version: 6.00 Build 43363)  -->

<svg
   xmlns:dc="http://purl.org/dc/elements/1.1/"
   xmlns:cc="http://creativecommons.org/ns#"
   xmlns:rdf="http://www.w3.org/1999/02/22-rdf-syntax-ns#"
   xmlns:svg="http://www.w3.org/2000/svg"
   xmlns="http://www.w3.org/2000/svg"
   xmlns:xlink="http://www.w3.org/1999/xlink"
   xmlns:sodipodi="http://sodipodi.sourceforge.net/DTD/sodipodi-0.dtd"
   xmlns:inkscape="http://www.inkscape.org/namespaces/inkscape"
   version="1.1"
   id="Layer_1"
   x="0px"
   y="0px"
   width="200px"
   height="60px"
   viewBox="0 0 200 60"
   enable-background="new 0 0 200 60"
   xml:space="preserve"
   inkscape:version="0.48.4 r9939"
   sodipodi:docname="boc.svg"><metadata
     id="metadata35"><rdf:RDF><cc:Work
         rdf:about=""><dc:format>image/svg+xml</dc:format><dc:type
           rdf:resource="http://purl.org/dc/dcmitype/StillImage" /></cc:Work></rdf:RDF></metadata><defs
     id="defs33"><defs
       id="defs5"><rect
         height="56.641"
         width="200"
         y="1.68"
         x="0"
         id="SVGID_1_" /></defs><clipPath
       id="SVGID_2_"><use
         id="use9"
         overflow="visible"
         xlink:href="#SVGID_1_" /></clipPath><defs
       id="defs17"><rect
         id="SVGID_3_"
         x="0"
         y="1.6799999"
         width="200.218"
         height="56.640999" /></defs><clipPath
       id="SVGID_4_"><use
         xlink:href="#SVGID_3_"
         overflow="visible"
         id="use21"
         style="overflow:visible"
         x="0"
         y="0"
         width="200"
         height="60" /></clipPath></defs><sodipodi:namedview
     pagecolor="#ffffff"
     bordercolor="#666666"
     borderopacity="1"
     objecttolerance="10"
     gridtolerance="10"
     guidetolerance="10"
     inkscape:pageopacity="0"
     inkscape:pageshadow="2"
     inkscape:window-width="1280"
     inkscape:window-height="743"
     id="namedview31"
     showgrid="false"
     inkscape:zoom="4.4406306"
     inkscape:cx="115.59398"
     inkscape:cy="26.443358"
     inkscape:window-x="0"
     inkscape:window-y="0"
     inkscape:window-maximized="1"
     inkscape:current-layer="Layer_1" /><path
     style="fill:#b10a32;fill-rule:evenodd"
     d="M 28.3125 1.6875 C 12.6705 1.6875 -9.849108e-17 14.361 0 30 C 0 45.647 12.6705 58.3125 28.3125 58.3125 C 43.9555 58.3125 56.65625 45.646 56.65625 30 C 56.65625 14.362 43.9565 1.6875 28.3125 1.6875 z M 31.5625 8 C 42.3085 9.564 50.5625 18.821 50.5625 30 C 50.5625 41.178 42.33875 50.431 31.59375 52 L 31.5625 41.46875 L 35.71875 41.46875 C 39.19975 41.46875 41.78125 38.855 41.78125 35.375 L 41.78125 24.46875 C 41.78125 20.98975 39.01225 18.46875 35.53125 18.46875 L 31.5625 18.46875 L 31.5625 8 z M 24.96875 8.03125 L 24.96875 18.4375 L 20.34375 18.4375 C 16.86575 18.4375 14.75 20.98975 14.75 24.46875 L 14.75 35.375 C 14.75 38.854 17.61175 41.53125 21.09375 41.53125 L 24.96875 41.5625 L 24.96875 52 C 14.27775 50.389 6.09375 41.143 6.09375 30 C 6.09375 18.859 14.27675 9.64425 24.96875 8.03125 z M 21.5625 24.5625 L 34.9375 24.5625 C 34.9375 24.5625 35.16025 24.51925 35.40625 24.65625 C 35.61925 24.77125 35.75 25.21875 35.75 25.21875 L 35.75 34.90625 C 35.75 34.90625 35.617 35.18625 35.5 35.28125 C 35.395 35.37125 35.1875 35.4375 35.1875 35.4375 L 31.625 35.46875 L 21.5 35.46875 C 21.5 35.46875 21.18625 35.42525 21.03125 35.15625 C 20.87925 34.89325 20.90625 34.75 20.90625 34.75 L 20.90625 25.28125 C 20.90625 25.28125 20.91375 24.951 21.09375 24.75 C 21.26675 24.557 21.5625 24.5625 21.5625 24.5625 z "
     id="path3164" /><path
     style="fill-rule:evenodd"
     d="M 183.625 2.28125 C 183.37175 2.289875 183.07975 2.345 182.78125 2.5 C 181.79625 3.017 181.8825 3.4905 181.6875 3.6875 C 180.7615 4.6325 178.38875 8.17425 177.09375 9.65625 C 175.86075 11.06825 174.041 13.183 173.375 13.75 C 173.025 14.046 172.6795 14.4375 172.1875 14.8125 C 171.7985 15.1055 171.926 15.60975 171.75 15.96875 C 171.52 16.44775 171.994 16.696 172.25 16.875 C 172.524 17.071 172.67375 17.2195 172.96875 17.4375 C 173.21475 17.6155 173.58825 17.3885 173.90625 17.5625 C 174.25625 17.7555 174.449 18.09175 174.75 17.96875 C 175.058 17.84375 175.576 17.87325 176 18.15625 C 176.391 18.41525 175.7965 18.872 175.6875 19.125 C 175.5115 19.531 175.2965 19.89975 175.0625 20.09375 C 174.4825 20.57475 173.52375 21.55025 172.96875 22.15625 C 171.90075 23.31425 171.4845 23.87275 170.4375 24.84375 C 170.0055 25.24275 170.152 25.42075 170 25.84375 C 169.717 26.62075 170.4785 27.72 170.8125 28 C 171.3475 28.444 171.0705 28.26 171.6875 28.5 C 172.0475 28.644 172.2465 28.92675 172.5625 28.84375 C 172.7915 28.78575 173.09325 28.6415 173.40625 28.8125 C 173.55725 28.8955 173.79875 28.67675 173.84375 28.34375 C 173.89275 28.00475 174.05475 27.54675 174.34375 27.21875 C 174.60175 26.92475 175.19575 26.5665 175.71875 26.3125 C 176.18975 26.0845 177.0765 25.61225 177.3125 25.65625 C 177.7265 25.73725 177.484 26.8485 177.375 27.1875 C 177.241 27.6035 177.1505 27.98225 177.0625 28.53125 C 176.9525 29.18525 176.94925 30.678 177.15625 31 C 177.32925 31.271 177.6855 31.4095 177.9375 31.6875 C 178.1545 31.9295 178.59025 32.08425 178.90625 32.40625 C 179.12525 32.63025 179.361 32.9105 179.5 32.9375 C 180.016 33.0315 180.0765 32.87275 180.1875 32.46875 C 180.4095 31.66875 180.926 30.519 180.875 29.75 C 180.787 28.588 180.584 27.13275 180.125 26.46875 C 179.693 25.84375 178.39275 24.93525 177.96875 24.78125 C 177.51375 24.61825 177.50225 24.2715 177.78125 24.0625 C 178.28425 23.6825 179.60175 22.2495 179.96875 21.9375 C 180.44675 21.5245 180.66775 20.90825 180.96875 20.65625 C 181.55875 20.16125 181.75425 19.664 182.03125 19.5 C 182.37725 19.293 182.53275 18.8265 182.21875 18.3125 C 181.84375 17.6955 181.1775 17.23625 180.4375 16.90625 C 179.3205 16.40625 178.4825 16.53925 178.1875 16.28125 C 177.9045 16.03125 178.22625 15.80225 178.40625 15.65625 C 178.66325 15.44825 179.54475 14.57625 179.96875 14.28125 C 180.53075 13.89925 181.33025 13.6255 181.78125 13.3125 C 182.22925 13.0015 182.7575 12.71875 183.1875 12.59375 C 183.7695 12.42775 184.58425 12.45125 184.90625 12.03125 C 185.07625 11.80425 185.23 11.10375 185.5 10.84375 C 185.672 10.67575 185.96875 10.26775 185.96875 10.09375 C 185.97275 9.79375 186.31825 9.585 186.40625 9.375 C 186.53625 9.067 186.42975 8.4235 186.46875 8.0625 C 186.54075 7.3435 186.25375 6.7545 186.21875 6.4375 C 186.13675 5.7605 186.04325 5.3255 185.90625 5.0625 C 185.49225 4.2485 184.74375 2.444 184.34375 2.375 C 184.10325 2.3345 183.87825 2.272625 183.625 2.28125 z M 117.09375 2.34375 C 116.99667 2.3376406 116.90125 2.355 116.8125 2.375 C 116.5045 2.442 116.23475 2.497 115.96875 2.625 C 115.85775 2.684 115.236 2.65825 114.875 2.78125 C 114.69 2.84325 113.90975 2.86925 113.71875 2.90625 C 113.46675 2.95925 112.721 3.167 112.5 3.25 C 111.453 3.619 108.9145 4.62225 107.6875 6.15625 C 106.3075 7.88025 105.789 8.58025 105.875 8.78125 C 106.035 9.16425 106.34925 9.78925 106.40625 10.15625 C 106.42825 10.30425 106.801 10.4625 107 10.4375 C 107.622 10.3605 107.4805 10.35575 107.8125 10.21875 C 107.9615 10.15775 108.0445 9.9265 107.9375 9.5625 C 107.8765 9.3495 107.57 8.57875 107.875 7.96875 C 107.986 7.74575 108.105 7.25375 108.5 6.84375 C 108.867 6.46575 109.41425 5.792 109.90625 5.5 C 110.32225 5.256 111.6175 4.66225 112.8125 4.28125 C 114.1525 3.85025 115.6365 3.619 116.0625 3.625 C 116.6135 3.634 117.49425 3.581 118.15625 3.875 C 118.85925 4.181 120.5445 5.86475 121.1875 7.46875 C 121.6405 8.60275 122.38325 13.0455 122.40625 13.8125 C 122.42125 14.2605 122.53875 14.979 122.59375 15.375 C 122.62875 15.67 122.744 16.05025 122.625 16.28125 C 122.541 16.45025 122.8205 16.58825 122.8125 16.78125 C 122.7815 17.16325 122.64675 18.19975 122.71875 18.96875 C 122.78275 19.58275 122.7875 20.7755 122.6875 21.0625 C 122.6235 21.2575 122.855 21.46775 122.75 21.59375 C 122.642 21.71675 122.73475 22.09375 122.59375 22.46875 C 122.48875 22.76075 122.66225 22.9155 122.65625 23.0625 C 122.65625 23.2345 122.479 23.494 122.5 23.625 C 122.516 23.729 122.59 23.9325 122.5 24.1875 C 122.436 24.3795 122.443 24.4755 122.375 24.6875 C 122.264 25.0285 122.41825 25.91475 122.28125 26.46875 C 122.12625 27.10375 122.3025 27.13825 122.1875 27.53125 C 122.0525 27.99625 122.01 28.16125 121.875 28.53125 C 121.746 28.88925 121.1155 29.4745 120.8125 29.6875 C 120.5745 29.8475 120.2345 30.30275 120.0625 30.34375 C 119.8495 30.39475 119.85175 30.357 119.46875 30.5 C 119.36475 30.541 119.16425 30.32475 118.90625 30.34375 C 118.67225 30.36375 118.43175 30.305 118.21875 30.25 C 117.89975 30.159 117.78175 30 117.46875 30 C 117.18975 29.998 116.79275 29.69725 116.21875 29.65625 C 115.83575 29.62925 115.11125 29.41375 114.15625 29.46875 C 113.56025 29.50675 112.844 29.312 112.625 29.125 C 112.496 29.017 112.5825 28.817 112.8125 28.75 C 113.0915 28.666 113.43375 28.70775 113.84375 28.46875 C 113.98675 28.38775 114.44175 28.45675 114.59375 28.46875 C 114.88875 28.49375 115.14625 28.1775 115.78125 28.3125 C 116.20025 28.4015 116.5935 28.1085 117.3125 28.4375 C 117.7125 28.6175 117.885 28.56575 118.25 28.46875 C 118.572 28.39075 118.64875 27.98825 118.84375 27.78125 C 119.03475 27.57125 119.205 27.30175 119.375 26.71875 C 119.44 26.48375 119.69875 26.279 119.46875 25.875 C 119.29075 25.557 118.914 25.3395 118.75 25.4375 C 118.47 25.6055 117.7925 25.493 117.4375 25.625 C 117.1615 25.727 116.914 26.07275 116.75 26.09375 C 116.58 26.11075 115.44875 26.40025 115.09375 26.53125 C 114.64675 26.69625 114.236 26.818 114 26.875 C 113.817 26.929 113.57825 26.8275 113.40625 26.9375 C 113.14825 27.1025 113.17025 27.15875 113.03125 27.21875 C 112.83925 27.29875 112.36525 27.2185 112.03125 27.3125 C 111.72825 27.3925 111.6235 27.48025 111.4375 27.53125 C 111.2885 27.56925 111.05875 27.42825 110.71875 27.53125 C 110.32075 27.65025 110.174 27.83075 110 27.84375 C 109.727 27.86275 109.34775 27.85725 109.09375 27.90625 C 108.77175 27.96525 108.271 28.1905 108.125 28.0625 C 107.976 27.9335 108.1645 27.688 108.3125 27.625 C 108.5365 27.53 108.807 27.086 109 26.875 C 109.174 26.686 109.7655 26.34675 109.9375 26.21875 C 110.1055 26.09475 110.389 25.69875 110.625 25.46875 C 110.773 25.32275 111.59025 24.7335 111.78125 24.5625 C 112.03925 24.3325 112.285 24.0425 112.5 23.8125 C 112.646 23.6575 112.9255 23.5355 113.0625 23.4375 C 113.2285 23.3135 113.5825 22.813 113.8125 22.625 C 113.9435 22.518 114.20325 22.6865 114.28125 22.8125 C 114.38525 22.9825 115.23275 24.02175 115.59375 24.34375 C 115.94475 24.66575 116.41975 25.06075 116.96875 25.21875 C 117.11475 25.25775 117.1915 25.3355 117.4375 25.3125 C 117.6505 25.2955 117.6445 25.13525 117.6875 25.03125 C 117.7655 24.84025 118.66625 23.5585 118.78125 22.8125 C 118.87825 22.1995 119.40975 20.38525 119.34375 20.03125 C 119.30475 19.81725 119.2445 19.51475 119.1875 19.34375 C 119.1505 19.21575 118.9685 19.1785 118.9375 19.3125 C 118.9155 19.4175 119.06425 19.73125 119.03125 20.03125 C 119.00625 20.21925 118.58975 21.44125 118.34375 22.03125 C 118.16975 22.45325 117.766 23.32275 117.25 23.71875 C 117.135 23.81275 116.92175 23.91025 116.59375 23.90625 C 116.32075 23.90025 115.676 23.53025 115.375 23.28125 C 115.146 23.08625 114.76025 22.4175 114.65625 22.1875 C 114.59125 22.0435 114.72875 21.82175 114.84375 21.71875 C 115.05975 21.52975 116.4625 19.89125 116.9375 19.28125 C 117.2835 18.83625 118.0955 17.73275 118.4375 17.34375 C 118.6785 17.07375 118.56825 16.771 118.65625 16.625 C 118.75725 16.45 118.576 16.3915 118.625 16.3125 C 118.689 16.2085 118.67625 16.1305 118.65625 15.9375 C 118.63825 15.7455 118.4925 15.8035 118.4375 15.6875 C 118.3955 15.6025 118.44525 15.47575 118.40625 15.34375 C 118.36925 15.19375 118.189 15.19525 118.125 15.28125 C 118.016 15.42025 117.4905 16.06125 117.3125 16.40625 C 117.1385 16.74625 116.369 17.99675 116 18.46875 C 115.308 19.35075 114.48875 20.687 114.21875 20.875 C 114.06275 20.979 113.992 20.9345 113.875 20.8125 C 113.791 20.7275 113.83225 20.55 113.90625 20.375 C 113.99425 20.163 114.44175 19.61825 114.59375 19.40625 C 114.74575 19.19625 114.746 19.01625 114.75 18.78125 C 114.752 18.65325 114.656 18.3775 114.75 18.1875 C 114.885 17.9335 114.80475 18.1705 114.84375 17.8125 C 114.86675 17.5985 114.85925 17.45975 114.65625 17.21875 C 114.40625 16.91875 114.05625 16.7175 113.78125 16.4375 C 113.61325 16.2645 113.48975 15.9195 113.34375 15.8125 C 113.11375 15.6425 113.1215 15.77175 112.9375 15.46875 C 112.8335 15.30475 112.8635 15.3205 112.6875 15.0625 C 112.5795 14.9145 112.3885 14.909 112.3125 14.625 C 112.2775 14.471 112.07275 14.441 111.96875 14.25 C 111.76175 13.866 111.81425 13.566 111.90625 13.375 C 111.98825 13.193 111.986 13.22175 112.25 13.09375 C 112.336 13.04975 112.2655 12.82425 112.4375 12.65625 C 112.5885 12.50725 112.791 12.42575 112.875 12.21875 C 112.962 12.00675 113.12475 11.5235 113.34375 11.1875 C 113.56075 10.8495 113.38075 10.752 113.59375 10.5 C 113.80675 10.246 113.7855 10.30175 113.8125 10.21875 C 113.8575 10.09275 113.76775 10.12125 113.59375 10.03125 C 113.50875 9.98725 113.3305 9.48925 113.1875 9.40625 C 112.9355 9.25525 112.82775 9.295 112.59375 9.375 C 112.11175 9.546 110.969 10.00475 110.75 10.21875 C 110.619 10.34675 110.48825 10.3355 110.28125 10.3125 C 110.06725 10.2855 109.94525 10.023 109.90625 9.875 C 109.84925 9.665 109.754 9.388 109.625 9.125 C 109.52 8.911 109.1605 8.321 108.9375 8 C 108.7945 7.785 108.57775 7.55275 108.46875 7.59375 C 108.22075 7.69075 108.336 7.94425 108.375 8.03125 C 108.442 8.16725 108.74225 9.2655 108.78125 9.5625 C 108.84725 10.0765 109.0485 10.56125 109.0625 10.78125 C 109.0835 10.99425 109.1285 11.18825 108.9375 11.40625 C 108.8065 11.55225 108.17725 12.32175 107.90625 12.84375 C 107.69125 13.26775 108.0115 13.581 108.4375 13.5 C 108.8495 13.423 109.35575 12.893 109.59375 12.875 C 109.82375 12.857 109.85175 12.932 109.84375 13.125 C 109.84375 13.295 110.11475 13.4345 110.09375 13.5625 C 110.04675 13.7975 109.9555 13.90225 110.0625 14.03125 C 110.1565 14.14825 110.398 14.187 110.375 14.25 C 110.31 14.437 110.307 14.59825 110.25 14.78125 C 110.207 14.93025 109.7965 15.48 109.5625 15.625 C 109.3455 15.761 109.2775 16.0555 109.0625 16.3125 C 108.9515 16.4385 109.11725 16.61075 109.03125 16.71875 C 108.89425 16.88075 108.84725 16.80225 108.78125 16.90625 C 108.71525 17.01425 108.78325 17.05975 108.53125 17.59375 C 108.42225 17.82775 108.58425 17.86775 108.53125 18.09375 C 108.48625 18.28575 108.4705 18.87175 108.8125 18.84375 C 109.0505 18.82575 108.97875 18.531 109.21875 18.375 C 109.34975 18.289 109.67375 18.24025 109.84375 18.03125 C 110.00575 17.83625 110.13525 18.058 110.15625 18.125 C 110.21125 18.298 110.18175 18.36475 110.09375 18.46875 C 110.05075 18.51475 109.768 18.9225 109.5 19.0625 C 109.422 19.1025 109.256 19.39925 109.125 19.65625 C 109.088 19.72925 108.85375 19.8515 108.71875 20.0625 C 108.55875 20.3205 107.771 21.322 107.625 21.5 C 107.213 22.006 106.9455 22.8535 106.6875 23.1875 C 106.2845 23.7105 106.57775 24.11075 106.46875 24.46875 C 106.30475 25.00675 106.23625 24.9355 106.40625 25.0625 C 106.60125 25.2155 106.69325 25.1675 106.90625 25.0625 C 107.00325 25.0175 107.63675 24.79275 108.21875 24.46875 C 108.66775 24.21975 109.379 23.88375 109.875 23.59375 C 110.313 23.32775 111.105 22.81225 111.75 22.40625 C 112.111 22.18125 112.59975 21.54775 112.96875 21.34375 C 113.11675 21.25775 113.2405 21.2925 113.3125 21.4375 C 113.4375 21.6735 113.39025 21.83875 113.28125 21.96875 C 113.14425 22.12975 112.2555 23.03675 111.6875 23.59375 C 111.3415 23.92875 110.443 25.00525 110.125 25.28125 C 109.412 25.88725 107.99 27.231 107.625 27.5 C 107.324 27.725 107.03475 28.07825 106.59375 28.15625 C 106.25375 28.21525 105.2085 28.233 105.0625 28.125 C 104.8865 27.994 104.87525 28.0375 104.65625 28.3125 C 104.44325 28.5825 104.527 28.78225 104.25 28.78125 C 103.933 28.78025 103.98825 28.51575 103.90625 28.21875 C 103.82125 27.91875 103.92175 26.949 103.84375 26.375 C 103.72775 25.509 103.77575 25.9245 103.71875 25.4375 C 103.68775 25.1715 103.746 24.772 103.625 24.75 C 103.414 24.71 103.3985 25.4155 103.1875 25.4375 C 103.0195 25.4575 103.01175 25.063 102.96875 24.875 C 102.90775 24.597 102.8655 23.08075 102.9375 22.59375 C 103.0045 22.11175 102.92225 19.70325 103.03125 19.28125 C 103.11725 18.96825 102.88275 18.7315 102.96875 18.5625 C 103.05275 18.3945 103.033 18.12125 103.125 17.78125 C 103.197 17.49725 102.988 17.43875 103.125 17.21875 C 103.254 17.00775 103.07425 16.84025 103.15625 16.65625 C 103.22325 16.50825 103.05225 16.33925 103.15625 16.15625 C 103.26525 15.96725 103.2445 15.7955 103.3125 15.5625 C 103.3635 15.3875 103.28875 15.05 103.34375 14.875 C 103.41275 14.664 103.5415 14.40675 103.5625 14.21875 C 103.5895 14.02675 103.584 13.7035 103.625 13.4375 C 103.647 13.2885 103.77525 12.30825 103.90625 12.03125 C 104.01525 11.80825 104.1835 10.747 104.1875 10.5 C 104.1895 10.332 104.145 9.87325 104 9.78125 C 103.892 9.71825 103.6075 9.86425 103.5625 10.03125 C 103.4595 10.42725 103.018 10.89025 102.875 11.40625 C 102.745 11.89225 102.54475 13.263 102.21875 13.875 C 102.10075 14.096 101.969 15.8005 101.875 16.4375 C 101.785 17.0705 101.54525 18.72425 101.53125 18.90625 C 101.50625 19.22325 101.68775 19.31175 101.59375 19.46875 C 101.44275 19.72275 101.45075 19.85775 101.46875 20.21875 C 101.48575 20.57775 101.4905 20.803 101.4375 21 C 101.3715 21.253 101.36875 21.4305 101.34375 21.6875 C 101.32375 21.8825 101.55675 21.8705 101.46875 22.0625 C 101.27375 22.4885 101.39125 23.16 101.28125 23.5 C 101.12525 23.978 101.58125 24.04825 101.40625 24.40625 C 101.23125 24.76625 101.33325 24.5465 101.40625 25.4375 C 101.48125 26.3345 101.7345 28.1335 101.8125 28.8125 C 101.8535 29.1945 101.92175 30.4095 101.96875 30.9375 C 102.02575 31.5555 103.1215 32.54725 103.4375 32.65625 C 103.8775 32.81225 104.24225 32.642 104.65625 32.625 C 105.03925 32.609 105.03125 32.1685 104.90625 31.8125 C 104.80625 31.5155 104.266 31.30425 104.375 31.03125 C 104.482 30.75725 104.3515 30.89475 104.3125 30.59375 C 104.2755 30.29675 104.08825 30.51825 104.15625 30.15625 C 104.22025 29.79725 104.09025 29.879 104.15625 29.75 C 104.19925 29.669 104.201 29.4375 104.375 29.4375 C 104.568 29.4435 104.71525 29.3885 104.78125 29.5625 C 104.84525 29.7075 106.7875 29.88675 108.0625 29.96875 C 109.8475 30.08175 112.7965 30.35375 113.6875 30.84375 C 114.5935 31.34575 116.7385 32.09425 117.5625 32.90625 C 118.0255 33.35525 118.283 33.7995 118.5 33.8125 C 118.666 33.8255 120.12475 32.53475 120.46875 32.21875 C 120.88975 31.83575 122.86375 30.3805 123.34375 29.5625 C 123.60575 29.1185 123.67225 27.87325 123.78125 27.15625 C 123.87225 26.56325 123.9315 23.449 124.0625 22.125 C 124.1325 21.381 124.20875 16.51125 124.09375 14.65625 C 123.91475 11.76225 122.89825 8.22675 122.40625 6.96875 C 121.91025 5.70775 120.60925 3.47775 119.40625 2.84375 C 119.05625 2.66375 118.5645 2.3195 117.9375 2.4375 C 117.699 2.48175 117.38498 2.3620781 117.09375 2.34375 z M 81.9375 2.5625 C 81.725875 2.547 81.529 2.583 81.4375 2.6875 C 81.1625 3.0085 80.5625 3.73925 80.4375 4.40625 C 80.3025 5.14425 80.42275 5.17725 80.46875 5.65625 C 80.52675 6.22825 80.499 6.857 80.25 7.625 C 80.176 7.858 80.2375 8.1085 80.1875 8.6875 C 80.1735 8.8875 80.13925 9.57025 80.03125 9.90625 C 79.98725 10.03925 80.08025 10.686 80.03125 11 C 80.01025 11.168 79.88825 11.48575 79.90625 11.59375 C 79.91425 11.64375 80.096 11.77125 80 12.03125 C 79.847 12.44925 79.893 12.66275 79.875 12.71875 C 79.84 12.81175 78.85925 13.4665 78.40625 13.8125 C 77.95425 14.1585 77.237 14.68475 77 14.84375 C 76.705 15.03575 75.7365 15.67775 75.3125 15.96875 C 74.9115 16.24175 74.41975 16.65625 74.34375 16.65625 C 74.19675 16.65125 73.793 16.05425 73.625 15.90625 C 73.472 15.76825 72.75 15.0985 72.25 14.5625 C 71.753 14.0265 71.22675 13.046 70.96875 13.125 C 70.58375 13.244 70.4205 13.69175 70.3125 14.09375 C 70.2035 14.48875 70.233 16.522 70.75 17.5 C 71.134 18.222 71.955 21.983 74.25 23.5 C 75.652 24.426 77.46675 24.94475 77.71875 24.84375 C 78.02875 24.72175 77.94875 24.01275 77.96875 23.71875 C 77.98675 23.47675 78.277 23.239 78.5 23.25 C 78.684 23.262 79.006 23.4305 79 23.9375 C 78.991 24.7095 79.348 28.356 79.5 29.75 C 79.646 31.097 79.82925 31.63775 80.03125 32.84375 C 80.14625 33.56375 80.30925 35.54175 80.53125 36.09375 C 80.65525 36.40475 81.25175 37.0985 81.59375 37.0625 C 81.76175 37.0425 82.01475 36.7175 82.09375 36.5625 C 82.15775 36.4345 81.634 36.31775 81.5 36.09375 C 81.396 35.92475 81.29975 35.673 81.21875 35.375 C 81.14275 35.094 80.9205 35.12575 80.8125 34.71875 C 80.7045 34.31275 80.5665 33.555 80.5625 33.25 C 80.5455 32.64 80.5865 32.85925 80.5625 32.40625 C 80.5455 32.06925 80.31825 31.03325 80.28125 30.65625 C 80.23825 30.24925 80.2395 29.55575 80.3125 29.21875 C 80.3845 28.88275 80.45675 28.8095 80.59375 28.8125 C 80.76075 28.8125 80.84675 28.9765 80.84375 29.1875 C 80.84175 29.3555 81.01875 29.81825 80.96875 30.40625 C 80.91375 31.07525 80.97375 30.88175 80.96875 31.09375 C 80.96875 31.21475 81.0065 31.534 81.0625 32 C 81.1125 32.404 81.175 32.888 81.125 33.125 C 81.029 33.577 81.4195 33.839 81.4375 34.125 C 81.4615 34.494 81.24575 34.6505 81.46875 35.0625 C 81.73975 35.5565 81.81 35.35325 81.875 35.65625 C 81.913 35.84125 82.13925 35.87875 82.15625 35.96875 C 82.21825 36.30575 82.281 36.42225 82.5 36.40625 C 82.713 36.38925 82.9015 36.034 83.0625 35.75 C 83.1425 35.61 83.3895 35.806 83.5625 35.75 C 83.7075 35.701 83.67525 35.438 83.90625 35.375 C 84.11825 35.316 84.422 35.2605 84.5 35.0625 C 84.588 34.8485 84.7455 34.688 84.6875 33.875 C 84.6285 33.061 84.50125 32.86825 84.65625 31.40625 C 84.69525 31.03525 84.92525 30.49525 84.90625 30.28125 C 84.88525 30.05225 85.11375 29.878 85.09375 29.75 C 85.07875 29.649 85.25425 28.75425 85.28125 28.40625 C 85.29325 28.28225 85.549 27.99625 85.625 27.65625 C 85.715 27.25925 85.8645 26.12925 85.9375 25.90625 C 86.2615 24.87125 86.1655 25.27125 86.5625 24.28125 C 86.8255 23.62025 86.6295 22.818 87.0625 22 C 87.3065 21.541 87.15025 20.90425 87.53125 20.65625 C 87.85125 20.44725 88.14825 20.5565 88.65625 20.3125 C 89.20825 20.0425 89.0755 19.58175 89.3125 18.96875 C 89.4885 18.52975 89.975 18.2555 89.875 17.8125 C 89.752 17.2595 89.001 17.611 88.75 17.375 C 88.457 17.097 89.9355 15.64125 90.6875 14.65625 C 91.4675 13.64225 91.53975 13.296 91.96875 12.75 C 92.48975 12.092 92.7325 11.901 93.1875 10.875 C 93.7025 9.71 93.9345 8.68775 93.8125 8.34375 C 93.7475 8.15675 92.9635 8.1935 92.5625 8.1875 C 91.6535 8.1755 90.2795 8.12125 89.4375 8.28125 C 88.1695 8.51825 87.37675 9.203 86.96875 9.125 C 86.68575 9.07 86.77775 8.51175 86.71875 8.09375 C 86.68075 7.81975 86.48925 7.046 86.15625 6.625 C 85.71825 6.07 85.0415 5.2 84.6875 4.875 C 84.4665 4.676 83.80875 3.88525 83.46875 3.53125 C 83.11375 3.17025 82.74775 3.028 82.59375 2.875 C 82.38475 2.6725 82.149125 2.578 81.9375 2.5625 z M 142.96875 3.8125 C 142.71275 3.8715 141.142 6.35475 140.75 6.96875 C 140.312 7.64975 139.5915 9.162 139.4375 9.375 C 138.7655 10.302 137.37675 14.12825 137.09375 14.65625 C 136.64075 15.50425 136.027 16.8625 135.875 17.1875 C 135.625 17.7215 134.56025 19.997 134.15625 20.75 C 133.84725 21.319 133.23875 22.34625 133.09375 22.40625 C 132.90675 22.48525 132.6895 22.40575 132.5625 22.46875 C 132.3495 22.56775 132.22225 22.746 132.15625 23 C 132.05525 23.381 131.89075 24.1195 131.96875 24.4375 C 132.05975 24.7985 132.42725 25.1405 132.65625 25.3125 C 132.89325 25.4845 133.27375 25.526 133.46875 25.25 C 133.68175 24.953 133.5035 24.285 133.8125 23.5 C 134.0395 22.918 135.164 20.77425 135.625 19.78125 C 135.972 19.01825 136.96525 16.89975 137.15625 16.46875 C 137.61525 15.43275 139.1485 12.80975 139.5625 12.09375 C 140.1695 11.03875 140.92975 9.7735 141.59375 9.0625 C 141.95075 8.6815 142.56225 8.17675 142.90625 7.96875 C 143.32825 7.70975 144.0975 7.69475 144.4375 7.59375 C 144.8045 7.48375 145.076 7.212 145.25 7 C 145.47 6.725 145.434 6.23275 145.25 6.09375 C 145.081 5.96775 145.01175 5.778 144.84375 5.625 C 144.69975 5.492 144.53325 5.07575 144.40625 4.96875 C 144.25925 4.83975 144.23075 4.4385 143.96875 4.4375 C 143.77775 4.4335 143.71925 4.2735 143.53125 4.1875 C 143.26725 4.0675 143.14075 3.7705 142.96875 3.8125 z M 156.71875 5.03125 C 156.65648 5.0331406 156.567 5.0325 156.5 5.0625 C 156.182 5.2085 155.77 5.769 155.125 6.25 C 154.484 6.729 153.324 7.29175 152.125 8.46875 C 150.914 9.64175 151.42775 9.361 151.09375 9.5 C 150.94675 9.562 150.68525 9.2595 150.53125 9.1875 C 150.14625 9.0135 150.113 9.1445 150 9.3125 C 149.902 9.4665 150.01525 9.6455 149.90625 9.8125 C 149.63525 10.2315 148.2265 13.059 147.8125 14.875 C 147.4545 16.465 146.94575 19.833 146.71875 20.875 C 146.21875 23.143 146.3715 25.452 145.9375 26 C 145.3745 26.715 143.83975 28.27325 142.71875 29.28125 C 141.64275 30.24525 139.42975 31.358 139.21875 31.25 C 139.05775 31.165 139.06825 31.0025 139.15625 30.8125 C 139.24825 30.6125 139.54475 30.50575 139.71875 30.46875 C 139.94475 30.41275 140.1095 30.53425 140.3125 30.40625 C 140.4825 30.30525 140.3455 29.5245 140.5625 29.3125 C 140.9935 28.8915 143.11925 27.10025 143.65625 26.40625 C 144.20125 25.70725 145.23975 24.78925 145.09375 24.53125 C 144.81075 24.03125 144.3165 23.65925 144.0625 23.65625 C 143.8005 23.65625 143.2365 23.7125 142.9375 23.6875 C 142.5485 23.6595 141.77775 24.007 141.71875 23.75 C 141.61375 23.313 142.662 22.88575 142.75 22.71875 C 142.838 22.55475 142.8675 22.254 142.9375 22 C 143.0135 21.712 142.73425 21.0035 142.65625 20.8125 C 142.54725 20.5675 142.545 19.92775 142.375 19.96875 C 142.123 20.02675 142.32225 20.61475 142.15625 20.71875 C 141.91725 20.86075 141.45525 21.19675 141.28125 21.34375 C 141.14525 21.46175 141.109 21.65625 141 21.65625 C 140.79 21.64825 140.52775 21.691 140.59375 21.5 C 140.73675 21.082 140.52575 20.14275 140.71875 19.96875 C 140.95675 19.75975 140.98625 19.64125 141.15625 19.40625 C 141.29325 19.23025 141.412 19.1055 141.625 18.9375 C 141.963 18.6815 142.63325 18.55725 142.65625 18.28125 C 142.68025 18.02525 142.6875 17.44825 142.5625 17.40625 C 142.3225 17.32125 142.17725 17.14075 142.03125 16.96875 C 141.86725 16.78075 141.63825 16.22275 141.53125 16.09375 C 141.50425 16.06175 141.51975 15.86825 141.09375 15.90625 C 140.66775 15.94425 140.0405 16.41475 139.4375 16.84375 C 138.8395 17.26075 138.25175 17.61825 138.21875 18.03125 C 138.19575 18.30725 138.8125 19.0745 138.9375 19.3125 C 139.0395 19.4985 139.22625 19.75 138.90625 20 C 138.56825 20.259 137.48425 21.6795 137.15625 22.4375 C 137.05125 22.6885 137.03325 22.81775 137.03125 23.09375 C 137.02325 23.54075 137.45125 24.73575 137.65625 25.21875 C 137.73825 25.40875 137.9335 25.44775 138.0625 25.34375 C 138.2205 25.21675 138.49425 25.518 138.28125 25.75 C 137.98025 26.069 137.4395 26.3845 137.0625 26.6875 C 136.8285 26.8765 135.83175 27.88675 135.59375 28.09375 C 135.38075 28.28275 134.63475 28.688 134.34375 28.875 C 134.15275 28.998 133.97275 29.27675 134.09375 29.46875 C 134.23675 29.68375 134.434 30.344 134.75 30.5 C 135.012 30.626 135.35775 30.48525 135.59375 30.28125 C 135.91575 30.00825 136.55875 29.294 136.96875 28.875 C 136.96875 28.875 137.1855 28.96975 137.3125 28.84375 C 137.3125 28.84375 137.33975 28.5655 137.46875 28.3125 C 137.67575 27.9135 138.45925 27.17025 138.90625 26.90625 C 139.12225 26.77825 139.2535 27.0625 139.3125 27.1875 C 139.3685 27.3045 139.19875 27.505 139.21875 27.625 C 139.24075 27.783 139.3185 27.84475 139.3125 28.09375 C 139.3125 28.26175 139.178 28.41175 139.125 28.46875 C 138.822 28.85175 137.9515 28.88975 137.4375 28.96875 C 137.4375 28.96875 137.8615 29.25475 138.5625 29.21875 C 138.7665 29.20975 138.988 29.503 138.875 29.625 C 138.443 30.087 137.65425 31.00325 137.15625 31.28125 C 136.85525 31.44325 136.672 31.95475 136.75 32.46875 C 136.83 32.97875 136.99975 33.728 137.34375 33.625 C 137.89075 33.46 138.75425 33.15425 139.03125 33.03125 C 139.33325 32.89625 139.8715 32.56925 140.0625 32.53125 C 140.5915 32.43825 141.39875 32.22075 141.84375 31.84375 C 142.30375 31.46375 142.969 31.05425 143.25 30.78125 C 143.627 30.41825 143.64075 30.26225 143.96875 30.03125 C 144.72175 29.50625 144.97875 29.03125 145.21875 28.78125 C 145.36175 28.62325 145.54875 28.39775 145.84375 28.59375 C 146.05675 28.73475 145.77975 29.784 145.84375 30.125 C 145.93175 30.631 145.92375 31.4715 146.09375 31.8125 C 146.38875 32.3895 147.14625 33.06525 147.78125 33.15625 C 148.36325 33.24225 149.0465 33.50875 149.4375 33.34375 C 149.8225 33.17975 150.488 32.75225 151 32.40625 C 151.276 32.21925 151.73275 31.686 151.96875 31.5 C 152.28875 31.242 152.783 31.14075 153 30.84375 C 153.154 30.63575 153.908 29.8985 154.125 29.6875 C 154.311 29.5065 154.43 29.28575 154.5 29.21875 C 154.758 28.96475 154.746 28.869 155.125 28.875 C 155.365 28.878 156.9705 30.11525 157.8125 30.40625 C 158.7675 30.73725 159.8125 30.85625 160.8125 30.90625 C 161.9805 30.96225 165.23225 30.13925 165.28125 29.90625 C 165.32425 29.68525 165.002 29.7115 164.875 29.5625 C 164.685 29.3345 164.6445 29.257 164.4375 29.125 C 163.8845 28.779 162.188 28.42075 161.75 28.09375 C 161.615 27.99775 160.4455 27.9565 160.4375 27.8125 C 160.4155 27.5155 160.27125 27.584 160.15625 27.625 C 159.98225 27.686 159.85525 27.526 159.78125 27.5 C 158.95925 27.215 157.213 26.74725 157 26.53125 C 156.781 26.30425 156.78475 26.06875 156.84375 25.96875 C 157.12575 25.45975 157.66775 24.669 157.84375 24.375 C 158.20875 23.749 158.98875 22.7705 159.46875 22.4375 C 159.76975 22.2275 160.39825 21.90575 160.65625 21.71875 C 160.98425 21.47775 161.088 20.848 160.875 20.75 C 160.453 20.552 159.6585 20.79925 159.3125 21.15625 C 158.7035 21.78625 157.8085 22.61325 157.4375 22.78125 C 156.9885 22.98925 155.5685 23.6905 155.3125 23.6875 C 154.6115 23.6775 152.92975 23.6905 152.59375 23.6875 C 152.24575 23.6825 151.82025 23.78975 151.53125 23.84375 C 151.01725 23.94575 150.7205 23.76075 150.5625 23.71875 C 150.2285 23.62675 149.45075 23.6475 149.21875 23.6875 C 149.02675 23.7185 148.90975 24.05175 148.71875 24.09375 C 148.54875 24.12575 148.42425 23.95475 148.40625 23.71875 C 148.37525 23.30375 148.52775 22.59925 148.59375 22.28125 C 148.70175 21.78825 149.1325 20.587 149.1875 20.125 C 149.2365 19.74 149.164 19.1905 149.25 19.0625 C 149.324 18.9505 149.63825 18.7315 149.65625 18.5625 C 149.71425 18.1525 149.975 17.5595 150.125 17.4375 C 150.338 17.2595 150.55425 17.47 150.78125 17.375 C 150.93425 17.313 150.96275 17.01075 151.09375 16.96875 C 151.31075 16.89875 151.5175 16.67325 151.6875 16.78125 C 151.8905 16.91025 151.78275 17.27675 151.71875 17.34375 C 151.09575 18.03775 150.49175 19.4315 150.21875 19.8125 C 149.70175 20.5305 149.7925 20.27825 149.5625 20.90625 C 149.4145 21.32825 149.5485 22.56875 149.4375 22.96875 C 149.3735 23.19375 149.63325 23.21975 149.78125 23.09375 C 150.47325 22.52875 152.51525 21.498 153.03125 21.25 C 153.42425 21.057 154.1365 20.82575 154.3125 20.59375 C 154.5565 20.26975 154.59375 19.95625 154.46875 19.65625 C 154.07075 18.68825 153.479 18.32525 153.375 18.15625 C 153.291 18.01525 153.17975 17.69325 153.34375 17.53125 C 153.47475 17.40825 154.0955 16.0095 154.3125 15.5625 C 154.5275 15.1275 154.8805 14.3525 154.9375 14.1875 C 155.1215 13.6835 154.8045 13.55775 155.0625 13.09375 C 155.2365 12.78875 155.53525 11.0505 155.78125 10.3125 C 156.02925 9.5765 156.385 8.23275 156.5 7.96875 C 156.785 7.29875 157.039 6.85125 157.125 6.53125 C 157.268 6.02725 157.23 5.62075 157.125 5.34375 C 157.05225 5.142 156.90555 5.0255781 156.71875 5.03125 z M 155.6875 7.0625 C 155.7655 7.4235 155.4395 8.76325 155.0625 9.90625 C 154.6855 11.04825 154.61525 11.42975 154.28125 12.46875 C 154.13125 12.92775 153.82625 12.71925 153.65625 12.90625 C 153.45725 13.11525 153.8765 12.73425 153.0625 13.53125 C 152.5645 14.01525 151.533 14.65275 151.25 14.96875 C 151.098 15.13675 150.77875 15.03875 150.71875 14.71875 C 150.68175 14.50975 150.7015 14.33425 150.6875 13.90625 C 150.6665 13.54525 150.95925 13.09525 151.03125 12.90625 C 151.13825 12.61025 151.34375 12.007 151.34375 11.625 C 151.35375 10.902 152.11475 9.93575 152.71875 9.21875 C 153.31875 8.50475 155.6875 7.0625 155.6875 7.0625 z M 115.71875 8.59375 C 114.97075 8.62575 115.295 8.68225 115.125 8.65625 C 114.826 8.61125 114.53725 8.6235 114.40625 8.6875 C 114.26925 8.7545 114.16275 9.03225 114.09375 9.15625 C 114.00075 9.34825 114.22075 9.57275 114.21875 9.71875 C 114.21875 9.88075 114.19775 10.0335 114.21875 10.1875 C 114.23675 10.3365 114.21675 10.56975 114.34375 10.71875 C 114.46675 10.86675 114.25775 11.31925 114.34375 11.40625 C 114.56875 11.63725 114.86725 12.23375 114.90625 12.46875 C 114.93125 12.62075 115.127 12.57025 115.25 12.65625 C 115.387 12.74825 115.45525 12.89275 115.53125 12.96875 C 115.63425 13.07775 115.91625 12.872 116.28125 12.875 C 116.62125 12.88 116.82075 13.07275 117.09375 12.96875 C 117.32275 12.88475 117.27525 12.501 117.40625 12.375 C 117.54425 12.239 117.719 12.02125 118 11.78125 C 118.322 11.51125 118.328 11.003 118.375 10.75 C 118.43 10.435 118.3335 10.0275 118.1875 9.8125 C 118.0175 9.5645 117.44925 9.42475 116.65625 8.96875 C 116.31625 8.77275 116.10175 8.57675 115.71875 8.59375 z M 144.34375 9.1875 C 143.84805 9.186 143.242 9.292 143.125 9.53125 C 142.994 9.79525 143.0565 10.33575 143.0625 10.59375 C 143.0785 11.10475 143.2755 11.17875 143.3125 11.34375 C 143.3945 11.66475 143.029 12.48525 142.75 12.78125 C 142.602 12.93625 142.5995 13.19675 142.6875 13.21875 C 142.8245 13.25575 143.10725 13.168 143.28125 13 C 143.43725 12.845 143.889 12.46925 144.25 12.28125 C 144.533 12.14025 144.93975 11.9765 145.09375 11.9375 C 145.52175 11.8185 145.9535 11.8375 146.0625 11.5625 C 146.1445 11.3575 145.979 10.78625 145.875 10.53125 C 145.713 10.13525 145.20525 9.30575 144.78125 9.21875 C 144.665 9.1975 144.50898 9.188 144.34375 9.1875 z M 90.40625 10.15625 C 90.615375 10.137625 90.79375 10.14125 90.90625 10.28125 C 91.11325 10.53625 91.03975 10.73825 90.96875 11.03125 C 90.91575 11.26225 89.703 13.188 89.125 13.875 C 88.522 14.598 87.021 16.31725 86.875 16.40625 C 86.702 16.51025 86.57525 16.237 86.53125 15.875 C 86.49225 15.559 86.46025 15.31225 86.53125 15.15625 C 86.61725 14.96825 86.50675 14.83325 86.46875 14.65625 C 86.43075 14.46325 86.24325 13.774 86.28125 13.25 C 86.30725 12.869 86.37175 12.49725 86.34375 12.15625 C 86.32675 11.92625 87.17875 11.394 87.59375 11.125 C 87.97375 10.878 88.26975 10.547 88.59375 10.375 C 89.06275 10.127 89.478 10.20175 89.75 10.21875 C 89.961 10.23125 90.197125 10.174875 90.40625 10.15625 z M 197.40625 10.375 C 196.64425 10.324 194.47025 10.9335 192.90625 11.3125 C 191.99025 11.5355 189.303 12.89025 188.875 13.03125 C 188.315 13.22025 187.91175 13.16125 187.46875 13.15625 C 187.31575 13.15625 187.197 12.61375 186.75 12.84375 C 186.11 13.17075 186.06425 14.172 186.15625 14.5 C 186.25625 14.886 186.39825 15.75275 186.78125 15.96875 C 187.20225 16.20775 187.46075 15.7095 187.71875 15.4375 C 188.38475 14.7335 189.72475 14.083 190.46875 13.75 C 191.18775 13.435 193.03925 12.6775 193.53125 12.8125 C 193.73425 12.8685 193.94925 13.05025 194.03125 13.03125 C 194.26425 12.97625 194.90775 12.59075 195.21875 12.59375 C 195.49375 12.59675 195.5095 12.58775 195.9375 12.59375 C 196.2105 12.59675 196.469 12.48625 196.625 12.28125 C 196.756 12.11525 196.69175 11.65 196.84375 11.5 C 197.07975 11.269 197.1445 10.88075 197.4375 10.71875 C 197.6925 10.57175 197.66825 10.391 197.40625 10.375 z M 112.0625 10.6875 C 112.07812 10.7165 112.0645 10.8295 112.125 11 C 112.246 11.344 111.986 11.037 111.875 11.5 C 111.762 11.966 111.76975 11.8545 111.46875 12.0625 C 111.16975 12.2695 111.2065 12.0495 111.0625 11.8125 C 110.9155 11.5775 111.05075 11.74775 110.96875 11.34375 C 110.89075 10.93875 111.35425 11.07175 111.78125 10.84375 C 111.99625 10.72925 112.04688 10.6585 112.0625 10.6875 z M 198.96875 16.03125 C 198.75575 16.07225 198.164 16.05375 197.5 16.34375 C 197.33 16.42075 196.26925 16.522 195.78125 16.625 C 195.29125 16.733 191.9175 17.73775 190.6875 18.21875 C 189.4215 18.71675 187.7485 19.729 186.1875 20.5 C 184.6285 21.263 184.139 21.068 183.625 21.375 C 183.239 21.604 182.7615 22.1225 183.0625 22.6875 C 183.2715 23.0705 183.60775 22.99775 183.84375 23.21875 C 184.05675 23.41175 184.36175 22.91025 184.71875 22.78125 C 185.22975 22.59525 186.4825 21.832 187.1875 21.5 C 188.2025 21.023 188.7635 20.474 189.9375 20.125 C 190.1835 20.052 190.51525 20.05875 190.40625 20.34375 C 190.27325 20.67975 190.277 21.36975 190.25 21.84375 C 190.224 22.22575 190.4315 22.87175 190.3125 23.71875 C 190.1545 24.87775 190.203 25.1575 190.125 26.6875 C 190.097 27.2175 190.34525 28.4775 190.28125 29.5625 C 190.25225 30.0075 189.713 31.0765 189.375 31.1875 C 188.889 31.3495 188.54925 31.24325 187.90625 31.03125 C 187.63725 30.94125 186.504 30.67875 185.875 30.46875 C 185.471 30.33575 184.9965 30.2195 184.4375 29.8125 C 184.1445 29.5975 183.943 29.0315 183.5 29.1875 C 183.262 29.2685 183.326 29.514 183.375 29.625 C 183.707 30.415 185.90025 31.525 186.90625 32.25 C 187.47025 32.662 188.2815 33.23675 188.5625 33.96875 C 188.7285 34.39475 188.91975 35.20925 189.46875 35.65625 C 189.89075 36.00225 190.4885 35.99475 190.9375 35.84375 C 191.2365 35.73675 192.3515 34.61475 193.0625 33.84375 C 193.2575 33.63675 193.4435 32.7075 193.3125 32.1875 C 193.2185 31.8185 193.119 30.81875 193 30.09375 C 192.867 29.27575 192.367 26.32875 192.25 25.34375 C 192.113 24.21575 192.38475 22.1255 192.46875 21.6875 C 192.53475 21.3245 192.793 21.221 192.625 21 C 192.373 20.679 191.92925 20.4335 191.40625 19.9375 C 191.25225 19.7935 191.2855 19.5835 191.5625 19.4375 C 191.9515 19.2355 193.381 18.7205 194.25 18.5625 C 195.289 18.3725 196.758 18.00425 197.375 17.90625 C 197.612 17.86825 198.01125 18.1815 198.28125 18.0625 C 198.55925 17.9365 199.641 16.72525 200 16.53125 C 200.344 16.34425 200.2425 16.12675 199.9375 16.09375 C 199.6835 16.06775 199.26775 15.97525 198.96875 16.03125 z M 79.15625 16.25 C 79.26175 16.261875 79.356 16.37175 79.375 16.59375 C 79.419 17.12275 79.361 18.06625 79.375 18.40625 C 79.394 18.74225 79.30425 18.82175 79.28125 19.09375 C 79.26225 19.32675 79.357 19.44375 79.375 19.59375 C 79.397 19.73975 79.3525 19.7885 79.3125 20.0625 C 79.2915 20.2315 79.401 20.48825 79.25 20.78125 C 79.097 21.07425 78.28525 21.7315 78.03125 21.8125 C 77.77625 21.8945 77.94925 21.429 77.53125 21.125 C 77.11325 20.824 77.02975 20.38875 76.84375 20.09375 C 76.61475 19.72475 76.67725 19.54175 76.40625 19.21875 C 76.13525 18.89775 76.12525 18.57475 76.28125 18.21875 C 76.33425 18.08975 76.90025 17.80275 77.15625 17.59375 C 77.33425 17.45075 77.7655 17.17725 77.9375 17.03125 C 78.4265 16.61325 78.3645 16.68 78.8125 16.375 C 78.9175 16.3015 79.05075 16.238125 79.15625 16.25 z M 112.75 16.65625 C 112.79809 16.684375 112.85975 16.86625 113.09375 17.125 C 113.40675 17.467 113.21625 17.598 113.40625 17.875 C 113.59425 18.155 113.57925 17.9965 113.53125 18.3125 C 113.48625 18.6285 113.43825 18.55325 113.15625 18.78125 C 112.88325 19.01325 113.11475 18.93425 112.84375 18.65625 C 112.56875 18.37325 112.80325 17.95775 112.53125 17.71875 C 112.25625 17.48075 112.2455 17.47375 112.3125 17.09375 C 112.3825 16.71075 112.6235 16.8135 112.6875 16.6875 C 112.704 16.65525 112.73397 16.646875 112.75 16.65625 z M 111.625 17.71875 C 111.752 17.63575 111.98725 18.0325 112.15625 18.4375 C 112.31825 18.8425 112.2925 18.76975 112.4375 19.21875 C 112.5825 19.66575 112.5535 19.455 112.1875 19.875 C 111.8185 20.295 111.33475 20.2455 110.84375 20.6875 C 110.34975 21.1295 110.1385 20.9995 109.6875 21.3125 C 109.2385 21.6255 109.28925 21.49575 108.90625 21.34375 C 108.52525 21.18975 108.5535 21.09925 108.8125 20.78125 C 109.0705 20.46725 109.02775 20.63775 109.21875 20.46875 C 109.41375 20.30175 109.00475 20.26175 109.21875 20.09375 C 109.43575 19.92675 109.408 20.16125 109.75 19.78125 C 110.098 19.40025 109.994 19.357 110.125 19.125 C 110.254 18.892 110.384 18.6065 110.75 18.4375 C 111.117 18.2755 111.496 17.80475 111.625 17.71875 z M 153.15625 18.1875 C 153.22425 18.216125 153.28925 18.32175 153.34375 18.59375 C 153.40675 18.89075 153.4805 19.20225 153.3125 19.40625 C 153.0545 19.72325 151.5705 20.23675 151.3125 20.34375 C 151.1305 20.41475 151.073 20.491 151 20.125 C 150.896 19.655 151.44275 19.4005 151.46875 19.1875 C 151.51375 18.7995 151.64325 18.564 151.90625 18.375 C 152.22825 18.146 152.197 18.7495 152.5 18.6875 C 152.686 18.6535 152.84375 18.43025 152.96875 18.28125 C 153.02125 18.21875 153.08825 18.158875 153.15625 18.1875 z M 139.1875 22.1875 C 139.4215 22.1595 139.5035 22.49825 139.3125 22.78125 C 139.1855 22.96925 138.832 23.07475 138.75 22.96875 C 138.613 22.78975 138.7245 22.61475 138.9375 22.46875 C 139.1225 22.33675 139.0135 22.2045 139.1875 22.1875 z M 156.65625 24.21875 C 156.80742 24.230844 156.90925 24.4205 156.8125 24.59375 C 156.6715 24.84175 156.1685 25.44275 156.0625 25.71875 C 155.9945 25.87875 155.8125 25.9805 155.6875 25.9375 C 155.4375 25.8515 155.07975 25.6975 154.84375 25.5625 C 154.54875 25.3975 154.82375 24.86325 155.09375 24.90625 C 155.39475 24.95225 156.177 24.53325 156.5 24.28125 C 156.558 24.2365 156.60586 24.214719 156.65625 24.21875 z M 142.84375 24.59375 C 143.02375 24.57275 143.22525 24.74075 143.15625 24.96875 C 143.04325 25.32475 141.3925 26.9325 140.8125 27.5625 C 140.6895 27.6965 140.4535 27.20525 140.4375 26.90625 C 140.4235 26.56725 140.5 26.04575 140.5 25.71875 C 140.506 25.56875 141.2615 25.208 141.6875 25 C 142.1015 24.803 142.48275 24.63075 142.84375 24.59375 z M 148.3125 25.3125 C 148.49722 25.288561 149.01212 25.8275 149.34375 25.90625 C 149.75175 26.00325 150.21075 26.20975 150.71875 26.34375 C 151.41575 26.52675 152.1615 26.91425 152.6875 27.28125 C 153.0525 27.53525 153.5215 27.6355 153.9375 28.0625 C 154.0995 28.2235 154.03325 28.44775 153.90625 28.59375 C 153.75425 28.76475 153.68625 28.96625 153.40625 29.15625 C 152.68125 29.64525 150.2595 30.94775 149.9375 31.21875 C 149.5255 31.56575 148.72275 31.365 148.46875 31.125 C 148.24775 30.918 148.03375 30.58925 147.96875 30.15625 C 147.86875 29.47625 147.826 28.20675 147.875 27.59375 C 147.918 27.01175 147.918 26.137 148.25 25.375 C 148.26225 25.345625 148.28611 25.31592 148.3125 25.3125 z M 82.875 28.53125 C 83.002 28.53425 83.086 28.663 83.125 28.875 C 83.18 29.171 83.1475 29.15225 83.1875 29.40625 C 83.2265 29.65725 83.10825 29.7275 83.15625 29.9375 C 83.21825 30.1895 83.19875 30.33375 83.21875 30.59375 C 83.25575 31.03475 83.2755 31.44275 83.1875 31.71875 C 83.1005 31.98775 83.22175 32.06975 83.21875 32.34375 C 83.21375 32.59675 83.06025 32.995 83.03125 33.375 C 83.00425 33.69 83.3155 34.02725 83.3125 34.40625 C 83.3115 34.63525 83.212 34.61775 83 34.59375 C 82.767 34.57175 82.48525 34.442 82.40625 34.25 C 82.32125 34.056 82.0595 33.4205 82.0625 33.1875 C 82.0655 32.9325 82.1465 32.45325 82.1875 32.15625 C 82.2345 31.84225 82.15125 31.4885 82.15625 31.1875 C 82.15925 30.8305 82.59075 30.45675 82.59375 30.09375 C 82.59975 29.73575 82.52725 29.695 82.53125 29.25 C 82.53625 28.808 82.706 28.53125 82.875 28.53125 z M 87.1875 45.34375 L 86.9375 45.40625 C 86.9375 45.40625 82.78675 54.77525 82.59375 55.03125 C 82.39075 55.28625 81.8955 55.413 81.8125 55.5 C 81.7255 55.587 81.6875 55.78125 81.6875 55.78125 L 85.375 55.78125 C 85.375 55.78125 85.3935 55.55625 85.3125 55.53125 C 85.0785 55.46925 84.445 55.251 84.125 55 C 83.932 54.853 83.83225 54.343 83.90625 54.125 C 83.98925 53.9 84.37075 52.46825 84.71875 52.28125 C 84.99375 52.12925 85.87025 52.1665 86.53125 52.1875 C 87.25525 52.2085 88.062 52.14425 88.25 52.28125 C 88.465 52.42925 88.83375 53.2055 88.96875 53.5625 C 89.15975 54.0785 89.2375 54.52675 89.1875 54.71875 C 89.0845 55.14775 88.4835 55.433 88.3125 55.5 C 88.0375 55.607 88.1875 55.84375 88.1875 55.84375 L 92.4375 55.71875 C 92.4375 55.71875 92.527 55.512 92.375 55.5 C 92.121 55.478 91.74275 55.3245 91.59375 55.1875 C 91.44075 55.0445 91.254 54.6335 91 54.0625 L 87.1875 45.34375 z M 194.75 45.40625 L 194.5 45.46875 C 194.5 45.46875 190.34925 54.869 190.15625 55.125 C 189.94925 55.378 189.459 55.50875 189.375 55.59375 C 189.289 55.68275 189.25 55.875 189.25 55.875 L 192.90625 55.875 C 192.90625 55.875 192.92775 55.649 192.84375 55.625 C 192.61575 55.561 191.97825 55.34675 191.65625 55.09375 C 191.46725 54.94375 191.39275 54.43475 191.46875 54.21875 C 191.54875 53.99675 191.93725 52.558 192.28125 52.375 C 192.56125 52.227 193.43575 52.26025 194.09375 52.28125 C 194.81975 52.30125 195.59025 52.20975 195.78125 52.34375 C 195.99425 52.49375 196.367 53.29625 196.5 53.65625 C 196.691 54.16625 196.801 54.6215 196.75 54.8125 C 196.645 55.2375 195.9845 55.437 195.8125 55.5 C 195.5335 55.607 195.8125 55.8125 195.8125 55.8125 L 200 55.8125 C 200 55.8125 200.0895 55.60675 199.9375 55.59375 C 199.6815 55.57375 199.279 55.41525 199.125 55.28125 C 198.983 55.13725 198.8185 54.73225 198.5625 54.15625 L 194.75 45.40625 z M 152.5 45.53125 C 150.896 45.53125 149.617 46.062 148.625 47.125 C 147.686 48.138 147.21875 49.389 147.21875 50.875 C 147.22875 52.335 147.682 53.85675 148.5 54.59375 C 149.943 55.88875 150.9105 56 152.5625 56 C 153.2595 56 154.62125 55.4885 155.15625 55.0625 C 155.86925 54.4885 156.76175 53.57875 156.71875 53.34375 C 156.71875 53.34375 156.5855 53.04725 156.3125 53.28125 C 155.8435 53.72425 155.3205 54.25875 154.9375 54.46875 C 154.2635 54.84875 153.81825 55.0625 153.03125 55.0625 C 151.92325 55.0565 151.06225 54.6825 150.28125 53.9375 C 149.47225 53.1725 148.90625 51.608 148.90625 50.25 C 148.90625 49.1 149.215 48.00175 149.75 47.34375 C 150.375 46.56475 151.2285 46.0435 152.4375 46.0625 C 153.4995 46.0845 154.5075 46.68425 155.0625 47.28125 C 155.4315 47.67825 155.94925 48.446 156.15625 49.125 C 156.34425 49.403 156.5625 49.125 156.5625 49.125 L 156.34375 46.25 C 156.34375 46.271 156.26725 45.68 156.03125 46 C 155.97925 46.179 155.85975 46.484 155.71875 46.5 C 155.47875 46.52 155.041 46.278 154.5 46 C 153.969 45.724 153.057 45.53225 152.5 45.53125 z M 126.90625 45.5625 C 125.53125 45.5685 124.15975 45.94475 123.21875 46.84375 C 122.18575 47.84075 121.624 49.0595 121.625 50.6875 C 121.632 52.2525 121.9805 53.5785 122.9375 54.5625 C 123.8885 55.5335 125.2535 55.90625 126.6875 55.90625 C 128.0375 55.90225 129.3675 55.41025 130.3125 54.53125 C 131.3775 53.54725 131.9375 52.19125 131.9375 50.53125 C 131.9275 48.88925 131.395 47.6685 130.375 46.6875 C 129.424 45.7755 128.28525 45.5625 126.90625 45.5625 z M 93.0625 45.59375 C 92.7645 45.65875 93.03125 45.96875 93.03125 45.96875 C 93.37925 45.98475 93.719 46.0985 94 46.3125 C 94.277 46.5285 94.46875 47.31725 94.46875 47.90625 C 94.46875 48.63325 94.53125 53.59375 94.53125 53.59375 C 94.53125 54.40375 94.3805 54.5835 94.1875 54.8125 C 93.9875 55.0365 93.44525 55.388 93.15625 55.5 C 93.05325 55.537 93.15525 55.752 93.15625 55.75 L 97.03125 55.75 C 97.03125 55.75 96.983 55.4585 96.875 55.4375 C 96.632 55.3915 96.085 55.26325 95.875 55.15625 C 95.338 54.87525 95.1875 54.348 95.1875 53.5 C 95.1875 53.5 95.1875 48.5685 95.1875 48.3125 C 95.1875 48.0585 95.27875 47.807 95.46875 48 C 95.88675 48.413 102.78125 55.9375 102.78125 55.9375 L 103.0625 55.9375 L 103.0625 47.84375 C 103.0625 47.03375 103.19325 46.5895 103.40625 46.3125 C 103.58425 46.0785 103.96475 46.01325 104.34375 45.90625 C 104.34375 45.90625 104.51525 45.67825 104.28125 45.65625 C 104.28125 45.65625 100.90625 45.71425 100.90625 45.65625 C 100.71425 45.71925 100.702 45.90575 100.875 45.96875 C 101.096 46.05275 101.869 46.1275 102.25 46.5625 C 102.551 46.9045 102.46875 47.40575 102.46875 47.84375 C 102.46875 47.84375 102.49375 51.93675 102.46875 52.46875 C 102.46675 52.50175 102.43325 52.7965 102.40625 52.8125 C 102.26925 52.8815 102 52.5625 102 52.5625 L 95.71875 45.59375 C 95.71875 45.59375 93.1475 45.57575 93.0625 45.59375 z M 71.90625 45.625 C 71.90625 45.625 71.90175 45.855 71.96875 46 C 72.05375 46.188 72.57225 45.875 73.03125 46.375 C 73.26725 46.631 73.374 46.87125 73.375 47.28125 L 73.375 54.09375 C 73.371 54.66375 73.32825 54.785 73.15625 55 C 73.00125 55.191 72.60475 55.32575 72.09375 55.46875 L 72.09375 55.75 L 76.90625 55.75 C 77.76125 55.744 78.49675 55.6255 79.09375 55.4375 C 79.96775 55.1605 80.90625 54.12475 80.90625 52.46875 C 80.90625 50.87175 79.477 50.38625 78.625 50.15625 C 79.072 49.83625 80.1875 49.34275 80.1875 47.96875 C 80.1875 46.97975 79.52175 46.30525 78.96875 46.03125 C 78.23675 45.66225 77.44575 45.625 76.21875 45.625 L 71.90625 45.625 z M 106 45.625 C 105.553 45.75 106 46.03125 106 46.03125 C 106.589 46.07425 106.86725 46.23825 107.03125 46.40625 C 107.20325 46.56825 107.34375 46.973 107.34375 47.375 L 107.34375 53.875 C 107.34375 54.525 107.1835 54.805 107.0625 55 C 106.8265 55.359 106.29725 55.49075 106.28125 55.46875 C 105.96725 55.53575 106.126 55.751 106.125 55.75 L 110.34375 55.75 C 110.34375 55.75 110.57 55.55575 110.25 55.46875 C 110.25 55.48875 109.56425 55.399 109.28125 55.125 C 109.12125 54.959 108.96875 54.66175 108.96875 54.09375 C 108.96875 54.09375 108.98675 52.1665 108.96875 52.1875 C 108.98575 51.6105 109.914 50.937 110 51 C 110.17 51.195 112.4005 54.32275 113.1875 55.34375 C 113.1815 55.34375 113.4515 55.767 113.6875 55.75 C 114.0315 55.716 116.03125 55.8125 116.03125 55.8125 C 116.03125 55.8125 116.21475 55.46875 115.84375 55.46875 C 115.52275 55.46875 115.14625 55.1105 114.90625 54.9375 C 114.66025 54.7495 114.2445 54.00225 113.8125 53.40625 C 112.8065 52.01125 111.30425 50.24975 111.15625 49.84375 C 111.05925 49.58575 113.625 47.40625 113.625 47.40625 C 114.125 46.91125 114.721 46.48375 115 46.34375 C 115.289 46.19075 115.4495 46.1055 115.9375 46.0625 C 116.1295 45.9745 116 45.65625 116 45.65625 C 116 45.65625 112.5 45.67825 112.5 45.65625 C 112.203 45.76225 112.46875 45.9375 112.46875 45.9375 C 112.74575 46.0245 113.07275 46.0175 113.21875 46.1875 C 113.35375 46.3375 113.2945 46.77275 113.0625 47.09375 C 112.8865 47.33375 112.35325 47.856 111.28125 48.875 C 110.68525 49.444 110.02175 50.16825 109.59375 50.53125 C 109.48875 50.58925 109.34 50.8345 109.125 50.8125 C 109.084 50.8095 108.96875 50.628 108.96875 50.5 L 108.96875 47.28125 C 108.97075 46.72425 109.05675 46.39675 109.21875 46.21875 C 109.44775 45.96175 109.717 46.05725 110 45.90625 C 110.314 45.73825 109.96875 45.625 109.96875 45.625 C 109.96875 45.625 106.021 45.644 106 45.625 z M 140.53125 45.6875 C 139.97897 45.683984 138.869 45.768 137.75 45.75 C 136.299 45.732 133.2855 45.71475 133.3125 45.71875 C 133.0275 45.84275 133.4375 46.125 133.4375 46.125 C 133.9885 46.21 134.46525 46.29775 134.65625 46.59375 C 134.84825 46.89075 134.90625 47.1435 134.90625 47.6875 L 134.875 54.125 C 134.875 54.794 134.76175 55.08275 134.59375 55.21875 C 134.36075 55.40775 133.8125 55.5925 133.8125 55.5625 C 133.4965 55.7145 133.71775 55.84375 133.71875 55.84375 L 138.125 55.84375 C 138.125 55.84375 138.3355 55.55625 138.0625 55.53125 C 137.4785 55.48225 137.047 55.148 136.875 55 C 136.701 54.836 136.61875 54.4635 136.59375 54.1875 C 136.59375 54.1875 136.625 51.48975 136.625 51.46875 C 136.642 51.27275 136.66625 50.73725 137.15625 50.78125 C 137.18925 50.78425 138.46875 50.8125 138.46875 50.8125 C 138.85175 50.8125 139.1345 51.056 139.3125 51.25 C 139.5035 51.444 139.60575 51.657 139.71875 52.25 C 139.71875 52.25 139.86125 52.5495 140.03125 52.3125 C 140.03125 52.3125 140 49.268 140 49 C 140 48.571 139.65775 48.71325 139.59375 48.90625 C 139.47875 49.24725 139.254 49.516 139.125 49.75 C 139.035 49.895 138.72475 50.15625 138.46875 50.15625 C 138.46875 50.15625 136.95075 50.17675 136.71875 50.09375 C 136.61775 50.05575 136.59375 49.82625 136.59375 49.65625 L 136.59375 46.8125 C 136.60275 46.5965 136.695 46.443 136.75 46.375 C 136.818 46.302 136.89075 46.3125 137.09375 46.3125 L 139.375 46.3125 C 139.564 46.3125 139.95125 46.35 140.15625 46.625 C 140.23425 46.733 140.5625 47.1805 140.5625 47.5625 C 140.5625 47.7485 140.60725 48.05225 140.78125 48.03125 C 140.91425 48.01325 141.023 47.7095 141 47.5625 C 140.967 47.2905 141.066 45.878 140.875 45.75 C 140.837 45.72425 140.71534 45.688672 140.53125 45.6875 z M 178.9375 45.6875 C 178.2865 45.698125 177.64275 45.72525 177.65625 45.71875 C 177.29525 45.78675 177.71875 46.09375 177.71875 46.09375 C 177.90375 46.24475 178.25575 46.2065 178.46875 46.3125 C 178.63275 46.3945 179.0195 46.764 179.0625 47.25 L 179.15625 53.59375 C 179.15625 54.40175 179.035 54.637 178.875 54.875 C 178.619 55.26 177.9375 55.49075 177.9375 55.46875 C 177.6415 55.55275 177.71875 55.875 177.71875 55.875 L 181.59375 55.875 C 181.59375 55.875 181.6525 55.51225 181.3125 55.53125 C 180.7515 55.47725 180.49975 55.32025 180.34375 55.15625 C 180.09975 54.90425 179.8125 54.43275 179.8125 53.59375 C 179.8125 53.59375 179.78125 48.43025 179.78125 48.40625 C 179.76925 48.21525 179.79125 48.1455 179.90625 48.0625 C 180.09025 47.9315 180.21275 48.14625 180.21875 48.15625 C 180.97275 49.00425 187.3125 55.9375 187.3125 55.9375 C 187.3125 55.9375 187.63525 56.109 187.65625 55.75 L 187.6875 47.96875 C 187.6875 47.15875 187.77775 46.6645 187.96875 46.4375 C 188.16475 46.2115 188.5155 45.96875 188.8125 45.96875 C 189.0465 45.90575 189.0465 45.70575 188.8125 45.71875 C 188.8125 45.71875 185.48975 45.73075 185.46875 45.71875 C 185.04275 45.85775 185.46875 46 185.46875 46 C 185.97575 46.087 186.28275 46.24675 186.59375 46.46875 C 186.73975 46.57575 187.0625 46.822 187.0625 47.5 C 187.0625 47.5 187.0835 52.28125 187.0625 52.28125 C 187.0845 52.91625 186.8695 53.00175 186.3125 52.34375 C 184.6355 50.40375 180.57025 45.89875 180.28125 45.71875 C 180.26475 45.66975 179.5885 45.676875 178.9375 45.6875 z M 158.5 45.71875 C 157.756 45.90775 158.5625 46.125 158.5625 46.125 C 159.1345 46.169 159.475 46.20975 159.625 46.46875 C 159.748 46.67675 159.84375 46.98025 159.84375 47.53125 L 159.8125 53.875 C 159.8125 54.541 159.68125 54.7805 159.53125 54.9375 C 159.38125 55.1055 158.73 55.53325 158.75 55.53125 C 158.393 55.61525 158.626 55.875 158.625 55.875 L 163.15625 55.875 C 163.15625 55.875 163.52125 55.59425 163.03125 55.53125 C 162.46325 55.47925 162.164 55.3435 162 55.1875 C 161.83 55.0215 161.53125 54.58125 161.53125 54.03125 C 161.53125 54.03125 161.54325 51.33375 161.53125 51.34375 C 161.53125 50.89375 161.67225 50.76025 161.90625 50.78125 C 162.24825 50.81325 166.40625 50.8125 166.40625 50.8125 C 166.75025 50.7455 166.84375 51.09075 166.84375 51.34375 C 166.84375 51.70775 166.8125 54.0625 166.8125 54.0625 C 166.8125 54.4005 166.734 54.90775 166.625 55.09375 C 166.453 55.37075 166 55.55625 166 55.53125 C 165.422 55.72625 165.9375 55.9375 165.9375 55.9375 C 165.9375 55.9375 169.8325 55.916 169.8125 55.875 C 170.1505 55.855 170.01775 55.544 169.71875 55.5 C 169.15075 55.442 168.9765 55.17925 168.8125 55.03125 C 168.6445 54.86525 168.53125 54.679 168.53125 54.125 L 168.53125 47.375 C 168.53125 46.823 168.61325 46.4785 168.78125 46.3125 C 168.95125 46.1425 169.0915 45.98 169.4375 46 C 169.7755 45.956 169.5625 45.71875 169.5625 45.71875 L 165.3125 45.71875 C 165.3125 45.71875 165.0375 45.94 165.4375 46 C 166.0045 46.047 166.37125 46.1505 166.53125 46.3125 C 166.69525 46.4845 166.84375 46.8915 166.84375 47.4375 C 166.84375 47.4375 166.86675 48.89225 166.84375 49.53125 C 166.84375 49.78525 166.7385 50.11225 166.1875 50.15625 C 165.7105 50.19425 162.65275 50.092 161.96875 50.125 C 161.49975 50.144 161.53125 49.625 161.53125 49.625 L 161.53125 47.375 C 161.49825 46.814 161.63625 46.4975 161.78125 46.3125 C 161.94125 46.1175 162.21125 46.003 162.53125 46 C 162.53125 46 162.89475 45.73775 162.46875 45.71875 C 162.46875 45.71875 158.494 45.74875 158.5 45.71875 z M 171.46875 45.71875 C 171.20075 45.85775 171.46875 46 171.46875 46 C 172.09775 46.029 172.47025 46.16075 172.78125 46.46875 C 172.99025 46.68075 172.979 47.199 173 47.625 L 172.96875 54.1875 C 172.96275 54.7835 172.8655 55.07375 172.6875 55.21875 C 172.5005 55.36075 172.17925 55.55275 172.03125 55.59375 C 172.03125 55.59375 171.70925 55.774 172.03125 55.875 L 176.125 55.875 C 176.125 55.875 176.529 55.65575 176.125 55.59375 C 175.497 55.53975 175.27175 55.41225 175.09375 55.28125 C 174.90575 55.12925 174.71875 54.7775 174.71875 54.1875 L 174.71875 47.40625 C 174.74775 47.05225 174.71525 46.57575 174.90625 46.34375 C 175.04325 46.18175 175.31225 46.003 175.65625 46 C 175.65625 46 176.05675 45.77375 175.71875 45.71875 C 175.71875 45.71875 171.48075 45.74875 171.46875 45.71875 z M 76.4375 46.09375 C 76.9905 46.09375 77.46375 46.3525 77.71875 46.5625 C 78.16175 46.9285 78.5705 47.567 78.5625 48.25 C 78.5395 49.931 77.906 50.09475 76.625 50.09375 C 76.625 50.09375 75.09425 50.265 75.15625 49.625 L 75.15625 46.9375 C 75.15625 46.2125 75.6695 46.09375 76.4375 46.09375 z M 126.6875 46.125 C 127.5875 46.13 128.37075 46.32075 129.09375 47.21875 C 129.72275 47.98675 130.1875 49.11225 130.1875 50.78125 C 130.1875 52.44425 129.906 53.57675 129.375 54.21875 C 128.744 54.97375 127.934 55.4375 127.125 55.4375 C 125.957 55.4375 125.37525 55.23925 124.53125 54.28125 C 124.06125 53.74825 123.3125 52.19875 123.3125 50.59375 C 123.3205 48.97075 123.6 47.77425 124.25 47.03125 C 124.85 46.35125 125.7775 46.125 126.6875 46.125 z M 86.46875 48 C 86.62075 47.953 87.097 49.13 87.375 49.75 C 87.743 50.573 88.13425 51.362 88.03125 51.5 C 87.93425 51.628 87.21525 51.57375 86.53125 51.59375 C 85.93625 51.61475 85.217 51.56175 85.125 51.46875 C 84.969 51.31675 85.3635 50.38825 85.6875 49.65625 C 85.9845 48.97425 86.36075 48.031 86.46875 48 z M 194.03125 48.09375 C 194.18325 48.04475 194.62925 49.22875 194.90625 49.84375 C 195.27325 50.66575 195.6715 51.45175 195.5625 51.59375 C 195.4685 51.72175 194.77875 51.6625 194.09375 51.6875 C 193.49875 51.7095 192.7795 51.6545 192.6875 51.5625 C 192.5335 51.4105 192.93 50.487 193.25 49.75 C 193.553 49.07 193.92425 48.12575 194.03125 48.09375 z M 76.03125 50.65625 C 76.214438 50.648422 76.398 50.65625 76.625 50.65625 C 77.282 50.65625 78.10425 51.0635 78.40625 51.3125 C 79.04325 51.8465 79.2875 52.56725 79.0625 53.65625 C 78.8925 54.48725 78.279 55.28225 76.875 55.28125 C 76.875 55.28125 75.15625 55.4465 75.15625 54.0625 L 75.125 51.59375 C 75.125 50.8355 75.481688 50.679734 76.03125 50.65625 z "
     id="path3156" /></svg>