<?xml version="1.0" encoding="utf-8"?>
<!-- Generator: Adobe Illustrator 14.0.0, SVG Export Plug-In . SVG Version: 6.00 Build 43363)  -->
<!DOCTYPE svg PUBLIC "-//W3C//DTD SVG 1.1//EN" "http://www.w3.org/Graphics/SVG/1.1/DTD/svg11.dtd">
<svg version="1.1" id="Layer_1" xmlns="http://www.w3.org/2000/svg" xmlns:xlink="http://www.w3.org/1999/xlink" x="0px" y="0px"
	 width="200px" height="40px" viewBox="0 0 200 40" enable-background="new 0 0 200 40" xml:space="preserve">
<g>
	<path fill-rule="evenodd" clip-rule="evenodd" fill="#005287" d="M30.766,16.028L20.268,5.532
		c-2.172-2.178-4.794-2.042-5.718-1.889C6.297,5.002,0,12.185,0,20.839c0,9.628,7.789,17.435,17.392,17.435
		c9.378,0,17.023-7.501,17.377-16.815c0.005-0.107-0.032-0.43-0.259-0.574c-0.279-0.172-0.831-0.107-0.831-0.107h-6.729
		c0,0-0.638,0-0.838,0.092c-0.13,0.06-0.309,0.198-0.309,0.198l-8.2,8.216c-0.134,0.135-0.353,0.135-0.485,0l-8.245-8.264
		c-0.135-0.131-0.135-0.351,0-0.486l8.245-8.262c0.133-0.136,0.352-0.136,0.485,0l7.565,7.581c0,0,0.394,0.355,0.766,0.452
		c0.343,0.091,0.854-0.259,0.854-0.259L30.766,16.028"/>
	<path fill-rule="evenodd" clip-rule="evenodd" fill="#005287" d="M34.599,10.642l-5.633-5.62C22.677-1.055,15.41,3.132,15.41,3.132
		s3.089-1.665,7.035,2.502l9.305,9.364l2.744-2.722c0,0,0.331-0.416,0.409-0.792C34.975,11.134,34.599,10.642,34.599,10.642"/>
	<path fill-rule="evenodd" clip-rule="evenodd" d="M157.089,33.196h-3.229v-2.865h2.513c1.206,0,2.4,0.146,2.4,1.363
		C158.773,32.347,158.362,33.196,157.089,33.196 M153.86,26.743h2.183c1.977,0,2.264,0.915,2.264,1.396
		c0,0.539-0.332,1.24-1.796,1.24h-2.65V26.743z M158.319,29.722c0.825-0.309,1.29-0.998,1.29-1.774c0-1.641-1.812-2.155-2.659-2.155
		h-4.376v8.355h4.922c0.713,0,2.538-0.654,2.538-2.396C160.034,30.203,158.596,29.849,158.319,29.722 M165.125,32.194
		c0,0.195-0.753,1.215-2.315,1.182c-0.63-0.013-1.29-0.288-1.265-1.033c0.015-0.446,0.482-0.732,0.687-0.813
		c0.671-0.254,1.963-0.229,2.894-0.539V32.194z M166.321,33.02v-4.011c-0.028-0.596-0.768-0.986-1.676-1.16
		c-0.451-0.09-0.851-0.102-1.235-0.102c-0.658,0-1.112,0.115-1.479,0.264c-0.754,0.297-1.097,0.836-1.195,1.182l-0.039,0.526h1.083
		c0.027-0.275,0.109-1.112,1.468-1.112c0.768,0,1.768,0.195,1.867,0.619v0.711c0,0.32-0.429,0.434-0.577,0.458
		c-0.688,0.139-1.358,0.036-2.661,0.357c-0.742,0.183-1.432,0.573-1.512,1.567c-0.097,1.182,0.909,1.881,2.512,1.881
		c0.947,0,1.73-0.515,2.292-0.871c0.04,0.401,0.549,0.871,1.074,0.871c0.382,0,0.615-0.033,0.889-0.104v-0.756
		c-0.084,0.035-0.178,0.035-0.261,0.035C166.583,33.376,166.321,33.193,166.321,33.02 M172.113,28.046
		c-0.178-0.068-0.66-0.15-1.181-0.159c-0.52-0.013-1.083,0.056-1.429,0.274c-0.271,0.113-0.578,0.365-0.795,0.651l-0.027-0.755
		h-1.154v6.018h1.154v-3.197c-0.026-1.617,1.016-2.123,1.979-2.123c0.793,0,1.453,0.391,1.438,1.137v4.184h1.15v-4.678
		C173.099,28.505,172.47,28.208,172.113,28.046 M179.821,28.058h-1.48l-3.045,2.51V25.72h-1.153v8.355h1.153v-2.26l1.152-0.949
		l2.372,3.209h1.415l-2.924-3.934L179.821,28.058z M49.363,33.376c-0.798,0-1.605-0.265-2.155-0.803
		c-0.59-0.584-0.987-1.594-0.959-2.613c-0.028-1.02,0.369-2.029,0.959-2.611c0.55-0.541,1.357-0.805,2.155-0.805
		c1.387,0,2.233,0.7,2.676,1.754h1.329c-0.588-1.696-1.959-2.739-4.075-2.717c-1.247,0.014-2.348,0.516-2.771,0.86
		c-1.166,0.929-1.58,2.337-1.589,3.519c-0.018,1.182,0.423,2.591,1.589,3.519c0.424,0.344,1.524,0.849,2.771,0.859
		c2.278,0.022,3.844-1.408,4.271-3.323h-1.318C51.738,32.608,50.83,33.376,49.363,33.376 M58.82,28.09
		c-0.411-0.147-0.809-0.203-1.167-0.203c-0.359,0-0.687,0.068-0.976,0.159c-0.574,0.193-1.001,0.504-1.234,0.732V25.72h-1.151v8.355
		h1.151v-3.909c0-0.528,0.193-0.688,0.441-0.894c0.424-0.287,0.778-0.46,1.138-0.518c0.369-0.055,0.753-0.012,1.221,0.161
		c0.216,0.08,0.659,0.287,0.604,1.055v4.104h1.153v-4.572C60.028,29.318,59.876,28.4,58.82,28.09 M61.015,26.911h1.154V25.72h-1.154
		V26.911z M61.015,34.075h1.154v-6.018h-1.154V34.075z M67.851,28.046c-0.18-0.068-0.66-0.15-1.181-0.159
		c-0.523-0.013-1.085,0.056-1.429,0.274c-0.273,0.113-0.574,0.365-0.795,0.651l-0.027-0.755h-1.154v6.018h1.154v-3.197
		c-0.025-1.617,1.013-2.123,1.977-2.123c0.795,0,1.455,0.391,1.439,1.137v4.184h1.154v-4.678
		C68.835,28.505,68.204,28.208,67.851,28.046 M74.423,32.228c0,0.195-0.755,1.215-2.317,1.182c-0.633-0.013-1.292-0.287-1.267-1.034
		c0.018-0.447,0.484-0.731,0.688-0.813c0.676-0.251,1.966-0.227,2.896-0.538V32.228z M75.619,33.052v-4.01
		c-0.03-0.6-0.771-0.984-1.677-1.158c-0.45-0.094-0.852-0.102-1.236-0.102c-0.658,0-1.11,0.113-1.479,0.263
		c-0.755,0.298-1.1,0.835-1.196,1.179l-0.04,0.528h1.085c0.026-0.274,0.11-1.112,1.468-1.112c0.77,0,1.771,0.195,1.867,0.619v0.709
		c0,0.322-0.427,0.437-0.577,0.459c-0.684,0.139-1.358,0.036-2.659,0.354c-0.744,0.186-1.433,0.575-1.513,1.571
		c-0.094,1.182,0.907,1.881,2.514,1.881c0.945,0,1.728-0.518,2.293-0.873c0.039,0.402,0.547,0.873,1.068,0.873
		c0.381,0,0.616-0.035,0.892-0.105v-0.755c-0.082,0.036-0.18,0.036-0.26,0.036C75.879,33.409,75.619,33.226,75.619,33.052
		 M85.367,33.376c-0.797,0-1.606-0.265-2.154-0.803c-0.59-0.584-0.986-1.594-0.961-2.613c-0.025-1.02,0.371-2.029,0.961-2.611
		c0.548-0.541,1.357-0.805,2.154-0.805c1.388,0,2.238,0.7,2.677,1.754h1.333c-0.593-1.696-1.964-2.739-4.076-2.717
		c-1.25,0.014-2.348,0.516-2.776,0.86c-1.163,0.929-1.576,2.337-1.591,3.519c-0.013,1.182,0.428,2.591,1.591,3.519
		c0.429,0.344,1.526,0.849,2.776,0.859c2.276,0.022,3.841-1.408,4.266-3.323H88.25C87.744,32.608,86.837,33.376,85.367,33.376
		 M93.08,33.376c-1.509,0-2.068-1.285-2.068-2.271s0.56-2.255,2.068-2.255c1.524,0,2.075,1.27,2.075,2.255
		S94.604,33.376,93.08,33.376 M93.08,27.887c-1.313,0-3.25,0.539-3.25,3.219c0,2.682,1.937,3.232,3.25,3.232
		c1.318,0,3.252-0.551,3.252-3.232C96.332,28.426,94.398,27.887,93.08,27.887 M101.659,28.046c-0.179-0.068-0.66-0.15-1.18-0.159
		c-0.52-0.013-1.086,0.056-1.425,0.274c-0.276,0.113-0.577,0.365-0.802,0.651l-0.025-0.755h-1.149v6.018h1.149v-3.197
		c-0.025-1.617,1.018-2.123,1.978-2.123c0.794,0,1.454,0.391,1.441,1.137v4.184h1.15v-4.678
		C102.649,28.505,102.018,28.208,101.659,28.046 M108.396,31.151c-0.506-0.264-1.08-0.379-1.657-0.459
		c-0.717-0.148-1.289-0.262-1.688-0.445c-0.397-0.172-0.512-0.517-0.343-0.826c0.18-0.32,0.698-0.643,1.401-0.643
		c1.604,0,1.644,0.654,1.644,0.965h1.128c-0.015-0.677-0.305-1.856-2.68-1.856c-1.41,0-2.646,0.651-2.646,1.799
		c0,0.882,0.492,1.294,1.057,1.466c0.617,0.243,1.769,0.424,2.675,0.609c0.577,0.16,0.783,0.457,0.783,0.767
		c0,0.298-0.206,0.584-0.452,0.733c-0.193,0.115-0.548,0.195-0.908,0.276c-0.37,0-0.739,0-1.016-0.069
		c-0.806-0.207-1.205-0.586-1.248-1.17h-1.081c0,0.561,0.149,1.639,1.825,1.961c0.412,0.079,0.902,0.079,1.385,0.079
		c0.48-0.036,0.944-0.114,1.315-0.253c0.756-0.285,1.194-0.859,1.291-1.443C109.276,32.058,109.031,31.46,108.396,31.151
		 M111.255,26.43h-1.154v1.628h-1.003v0.883h1.003v4.549c0,0.23,0.247,0.779,1.045,0.849c0.452,0.035,0.769,0,1.246-0.069v-0.848
		c-0.643,0.094-1.137,0.068-1.137-0.31V28.94h1.137v-0.883h-1.137V26.43z M113.996,28.996l-0.025-0.938h-1.154v6.018h1.154v-3.129
		c0-1.045,0.397-1.604,1.206-1.914c0.317-0.092,0.674-0.14,1.1-0.14v-1.006h-0.646C115.11,27.92,114.423,28.311,113.996,28.996
		 M121.22,31.325c0,0.777-0.165,1.672-1.416,2.04c-0.285,0.067-0.56,0.091-0.806,0.067c-0.25-0.012-0.471-0.067-0.651-0.16
		c-0.354-0.185-0.559-0.516-0.545-0.963v-4.252h-1.152v4.791c0.138,0.654,0.604,1.111,1.139,1.352
		c0.179,0.068,0.646,0.138,1.151,0.138c0.522,0,1.087-0.069,1.456-0.253c0.276-0.114,0.576-0.365,0.796-0.652l0.028,0.643h1.151
		v-6.018h-1.151V31.325z M124.774,29.397c0.479-0.457,0.976-0.607,1.415-0.629c0.422-0.014,0.78,0.104,0.986,0.195
		c0.48,0.194,0.645,0.49,0.77,1.122h1.138c-0.079-0.7-0.327-1.364-0.89-1.66c-0.497-0.358-1.253-0.552-2.034-0.539
		c-0.78,0.021-1.59,0.261-2.169,0.813c-0.727,0.686-1.002,1.533-1.026,2.324c-0.028,0.805,0.205,1.549,0.491,2.043
		c0.453,0.788,1.47,1.225,2.528,1.271c1.055,0.035,2.152-0.335,2.714-1.124c0.195-0.274,0.357-0.71,0.386-1.215h-1.11
		c-0.043,0.23-0.18,0.528-0.343,0.78c-0.165,0.32-0.729,0.62-1.374,0.653c-0.634,0.023-1.346-0.207-1.784-0.929
		c-0.23-0.39-0.317-1.01-0.259-1.616C124.267,30.28,124.457,29.695,124.774,29.397 M131.372,26.43h-1.151v1.628h-1.006v0.883h1.006
		v4.549c0,0.23,0.245,0.779,1.042,0.849c0.451,0.035,0.766,0,1.247-0.069v-0.848c-0.646,0.094-1.138,0.068-1.138-0.31V28.94h1.138
		v-0.883h-1.138V26.43z M133.146,26.911h1.153V25.72h-1.153V26.911z M133.146,34.075h1.153v-6.018h-1.153V34.075z M138.179,33.376
		c-1.508,0-2.069-1.285-2.069-2.271s0.562-2.255,2.069-2.255c1.526,0,2.074,1.27,2.074,2.255S139.705,33.376,138.179,33.376
		 M138.179,27.887c-1.318,0-3.251,0.539-3.251,3.219c0,2.682,1.933,3.232,3.251,3.232s3.253-0.551,3.253-3.232
		C141.432,28.426,139.497,27.887,138.179,27.887 M146.757,28.046c-0.178-0.068-0.658-0.15-1.178-0.159
		c-0.521-0.013-1.086,0.056-1.426,0.274c-0.277,0.113-0.579,0.365-0.8,0.651l-0.026-0.755h-1.15v6.018h1.15v-3.197
		c-0.029-1.617,1.019-2.123,1.977-2.123c0.795,0,1.453,0.391,1.441,1.137v4.184h1.15v-4.678
		C147.748,28.505,147.117,28.208,146.757,28.046 M48.485,9.965h5.28v9.046h-5.28V9.965z M57.175,9.965h5.32v9.046h-5.32V9.965z
		 M57.198,22.587v-1.998h8.714V9.921c0-0.849-0.678-1.536-1.524-1.536h-7.213V6.707h-3.409v1.678h-7.184
		c-0.847,0-1.532,0.688-1.532,1.536v10.668h8.716v1.998H57.198z M88.215,18.311h-4.507v-3.726h4.246v-1.583h-4.246v-2.007h4.487
		v-1.56H75.812v1.56h4.388v2.007h-4.14v1.583h4.14v3.726h-4.388v1.536h12.403V18.311z M86.696,15.156h-2.374l0.882,1.585
		c0,0,0.252,0.604,0.763,0.884c0.433,0.236,1.111,0.184,1.111,0.184h1.073v-1.46l-0.78-0.006L86.696,15.156z M88.969,21.09H75.086
		V8.087h13.883V21.09z M92.373,8.092c0-0.844-0.676-1.529-1.519-1.529h-17.7c-0.843,0-1.519,0.686-1.519,1.529v14.474h20.737V8.092z
		 M112.392,11.702h2.498v1.106h-2.498V11.702z M112.392,8.911h2.498v1.163h-2.498V8.911z M105.357,22.761h13.903l0.014-1.657
		l-6.883,0.007v-1.144h5.867v-1.641h-5.867v-1.115h5.867v-1.627h-5.867v-1.169h5.924l-0.012-2.713h1.193v-1.628h-1.25V8.882
		c0-0.873-0.7-1.581-1.572-1.581l-4.283-0.004V6.376h-3.205v0.921h-4.271v1.614h4.271v1.163h-4.81v1.628h4.81v1.106h-4.271v1.606
		h4.271v1.169h-4.631v1.627h4.631v1.115h-5.055v1.641h5.049v1.144h-3.32c-1.293,0-2.496-0.381-3.51-1.033
		c0.654-0.946,1.039-2.089,1.039-3.323l0.018-4.321l-1.987-0.009c1.715-1.104,2.591-3.084,2.591-5.275
		c0-0.033-6.545-0.015-6.545-0.015l-0.019,1.641h3.792c-0.294,1.841-1.711,3.307-3.525,3.668v1.598h3.317v2.355
		c0,0.703-0.188,1.36-0.501,1.938c-0.521-0.741-0.896-1.592-1.073-2.515l-1.782,0.021c0.146,1.476,0.705,2.823,1.563,3.931
		c-0.528,0.361-1.138,0.611-1.805,0.687v2.2c1.349,0,2.598-0.455,3.602-1.215C102.269,22.272,103.753,22.761,105.357,22.761
		 M199.513,6.858h-13.234v1.645h13.234V6.858z M184.054,8.59c-1.318,2.61-4.096,5-7.014,6.395l1.338,2.1
		c0.646-0.279,1.298-0.598,1.896-0.958v6.652h3.216l0.011-9.119c0.968-0.977,1.823-2.156,2.522-3.354L184.054,8.59z M185.471,11.937
		v1.643h8.563v6.618c0,0.52-0.421,0.939-0.938,0.939H189.3v1.633l5.386-0.003c1.572,0,2.833-1.275,2.833-2.851l0.005-6.337H200
		v-1.643H185.471z M183.317,7.339l-1.868-1.665c-1.318,2.485-3,4.058-5.089,5.464l1.232,2.171
		C180.041,11.938,182.044,9.855,183.317,7.339 M125.386,20.447c-0.914,0.286-1.646,0.46-1.646,0.46l1.649,2.056
		c0,0,1.629-0.403,3.345-1.28c1.657-0.846,2.745-1.947,2.745-1.947v-3.097c0,0-1.352,1.31-2.8,2.302l-0.013-8.407l-5.882,0.036
		v1.604h2.603L125.386,20.447z M136.347,10.135l0.004-1.988l4.621-0.017v2.005c0.024,0.738-0.212,2.613,3.003,2.624h2.005v-1.51
		l-0.528-0.012c-1.275,0.082-1.163-0.457-1.161-0.829l-0.002-2.377c0-0.83-0.686-1.505-1.535-1.505h-1.442l-8.207-0.004l0.009,3.886
		c0,0.306,0.116,0.912-1.16,0.83l-0.56-0.02v1.54h1.951C136.674,12.943,136.317,10.873,136.347,10.135 M138.806,17.992
		c-1.17-0.597-2.287-1.294-3.322-2.11l-3.956-0.007c1.252,1.353,2.683,2.537,4.249,3.525c-1.493,0.511-3.082,0.819-4.732,0.884
		l0.003,2.401c2.794,0,5.434-0.605,7.814-1.682c2.446,1.028,5.121,1.615,7.924,1.648v-2.438c-1.694-0.135-3.318-0.457-4.867-0.946
		c1.496-1.044,2.843-2.293,3.995-3.715l0.006-2.045H131.2v1.841h11.004C141.198,16.373,140.05,17.255,138.806,17.992 M130.476,6.917
		h-6.534v1.737h6.534V6.917z M164.024,11.325h5.363v1.611h-5.363V11.325z M164.024,8.071h5.363v1.64h-5.363V8.071z M166.646,21.907
		l-0.007-2.413c-0.623,0.478-2.029,0.845-2.6,0.872l0.005-5.826h8.438l0.01-6.512c0-0.865-0.691-1.563-1.552-1.563l-9.929,0.005
		l-0.002,14.078h-0.641v2.213l1.582,0.005C163.514,22.766,165.2,22.462,166.646,21.907 M173.2,15.548l-2.399-0.012
		c-0.494,0.943-1.156,1.792-1.949,2.513l-0.399-0.512c-0.43-0.577-0.728-1.187-0.958-1.965l-2.466-0.002
		c0.26,0.829,0.766,2.038,1.156,2.698c1.755,2.821,4.405,4.454,7.11,4.503v-2.274c-0.931-0.031-1.931-0.436-2.827-1.023
		C171.628,18.371,172.561,17.034,173.2,15.548 M151.909,20.93l1.585,1.985c2.396-0.229,4.594-1.123,6.409-2.498l0.002-2.64
		c-1.076,0.948-2.313,1.717-3.665,2.256V16.24h3.729v-1.615h-3.729v-1.828h3.427v-1.627l-6.254,0.012
		c0.441-0.475,0.858-1.039,1.24-1.569l5.259-0.024V8.036h-4.273c0.267-0.495,0.541-1.011,0.752-1.538l-2.393-0.852
		c-0.864,2.416-2.64,4.545-4.568,5.714l1.583,1.882c0.233-0.16,0.482-0.296,0.709-0.472h1.783v1.855h-2.354v1.615h2.395
		l-0.008,4.537C153.003,20.861,152.468,20.913,151.909,20.93"/>
</g>
</svg>
