<?xml version="1.0" encoding="UTF-8" standalone="no"?>
<!-- Created with Inkscape (http://www.inkscape.org/) -->

<svg
   xmlns:dc="http://purl.org/dc/elements/1.1/"
   xmlns:cc="http://creativecommons.org/ns#"
   xmlns:rdf="http://www.w3.org/1999/02/22-rdf-syntax-ns#"
   xmlns:svg="http://www.w3.org/2000/svg"
   xmlns="http://www.w3.org/2000/svg"
   xmlns:sodipodi="http://sodipodi.sourceforge.net/DTD/sodipodi-0.dtd"
   xmlns:inkscape="http://www.inkscape.org/namespaces/inkscape"
   width="243.71439"
   height="59.977467"
   id="svg2"
   version="1.1"
   inkscape:version="0.48.1 "
   sodipodi:docname="China_Merchants_Bank_logo.svg">
  <defs
     id="defs4">
    <inkscape:perspective
       sodipodi:type="inkscape:persp3d"
       inkscape:vp_x="0 : 526.18109 : 1"
       inkscape:vp_y="0 : 1000 : 0"
       inkscape:vp_z="744.09448 : 526.18109 : 1"
       inkscape:persp3d-origin="372.04724 : 350.78739 : 1"
       id="perspective10" />
    <inkscape:perspective
       id="perspective2824"
       inkscape:persp3d-origin="0.5 : 0.33333333 : 1"
       inkscape:vp_z="1 : 0.5 : 1"
       inkscape:vp_y="0 : 1000 : 0"
       inkscape:vp_x="0 : 0.5 : 1"
       sodipodi:type="inkscape:persp3d" />
    <inkscape:perspective
       id="perspective3006"
       inkscape:persp3d-origin="0.5 : 0.33333333 : 1"
       inkscape:vp_z="1 : 0.5 : 1"
       inkscape:vp_y="0 : 1000 : 0"
       inkscape:vp_x="0 : 0.5 : 1"
       sodipodi:type="inkscape:persp3d" />
  </defs>
  <sodipodi:namedview
     id="base"
     pagecolor="#ffffff"
     bordercolor="#666666"
     borderopacity="1.0"
     inkscape:pageopacity="0.0"
     inkscape:pageshadow="2"
     inkscape:zoom="4.8417329"
     inkscape:cx="36.222555"
     inkscape:cy="29.988732"
     inkscape:document-units="px"
     inkscape:current-layer="layer1"
     showgrid="false"
     inkscape:window-width="1280"
     inkscape:window-height="749"
     inkscape:window-x="-8"
     inkscape:window-y="-8"
     inkscape:window-maximized="1" />
  <metadata
     id="metadata7">
    <rdf:RDF>
      <cc:Work
         rdf:about="">
        <dc:format>image/svg+xml</dc:format>
        <dc:type
           rdf:resource="http://purl.org/dc/dcmitype/StillImage" />
        <dc:title />
      </cc:Work>
    </rdf:RDF>
  </metadata>
  <g
     inkscape:label="Layer 1"
     inkscape:groupmode="layer"
     id="layer1"
     transform="translate(-322.26778,-190.8377)">
    <path
       style="fill:#c8152d;fill-opacity:1;fill-rule:evenodd;stroke:none"
       d="m 58.3125,38.84375 0.34375,-1.5 -6.723932,0 0.59375,1.5 5.786432,0 z m 0.625,-2.6875 0.3125,-1.5 -8.40625,0 0.59375,1.5 7.5,0 z M 28.875,0.0625 c -9.131149,0.23280313 -18.030196,4.599881 -23.71875,12.625 -9.5807263,13.515987 -6.390992,32.263025 7.125,41.84375 l 0.03125,0 c 13.515995,9.54911 32.211082,6.344841 41.78125,-7.15625 1.577847,-2.225945 2.791493,-4.586918 3.6875,-7.03125 l -4.683129,0 0.745879,1.812249 -6.00025,9.281501 -35.6875,0 -6.3125,-9 15.59375,-39 8.71875,20.71875 8.09375,-21 7.434909,18.59375 12.752591,0 C 56.625118,15.432145 52.747959,9.659055 46.96875,5.5625 41.47788,1.6703306 35.122628,-0.09678635 28.875,0.0625 z m 17.425356,23.1875 0.59375,1.5 12.230894,0 c -0.09027,-0.503727 -0.196694,-1.001354 -0.3125,-1.5 l -12.512144,0 z m 1.066871,2.6875 0.59375,1.5 11.539023,0 c -0.04391,-0.498574 -0.08764,-1.004484 -0.15625,-1.5 l -11.976523,0 z m 1.178758,3 0.625,1.5 10.391515,0 0,-1.5 -11.016515,0 z m 1.110265,2.71875 0.59375,1.5 9.1875,0 c 0.05201,-0.501998 0.09843,-0.997272 0.125,-1.5 l -9.90625,0 z"
       transform="translate(322.63881,190.78506)"
       id="path3978"
       sodipodi:nodetypes="cccccccccccsccscccccccccccsccccccccccccccccccccc" />
    <path
       style="fill:#c8152d;fill-opacity:1;fill-rule:evenodd;stroke:none"
       d="m 341.38881,212.22256 8.40625,20.71875 8.40625,-20.71875 8.6875,21 -33.90625,0 8.40625,-21 z"
       id="path3960" />
    <path
       d="m 544.78881,198.73506 0.3,0 0,0.3 0.6,0.3 0.3,0 0.3,0.3 0,0.3 0.3,0.6 0,0.3 0.3,0.3 0,0.3 -0.3,0.6 -0.3,0.6 0,1.2 0.3,0.3 -0.3,1.2 0.3,0.9 0,1.5 -0.3,0.6 0,0.9 -0.6,0.3 -0.6,0 -0.6,0.3 -0.3,0.3 0,1.2 0.3,0.3 0.3,0 0.6,0.3 0.3,0.3 0.6,0.6 0,0.3 0.3,0 0.3,0.3 0,0.3 0.3,0.3 0.3,-0.3 0.3,0 0,-0.3 0,-1.5 0.6,0 8.4,0 2.7,-0.3 3,-0.3 0.3,0 0.6,-0.3 0.6,0 0.3,-0.3 0.3,-0.3 0.3,0 0,-0.3 0.3,0 0,0.9 0,3.9 -0.3,1.5 0.3,0.6 0,0.3 -0.3,0 -0.3,-0.3 -0.3,0.3 -2.7,0 -0.9,-0.3 -1.2,0.3 -1.2,0 0,0.3 0,3 -0.3,1.2 0.3,0.6 0,2.7 0.3,3.9 0,4.8 -0.3,0.3 -0.6,0 0,0.3 -1.8,-0.3 -3.6,0 -1.5,-0.3 -0.6,-0.3 -0.3,0 -0.3,-0.6 -0.3,0 -0.3,-0.3 -0.3,-0.6 0,-0.9 0.3,-0.3 0,-0.6 0.3,0 0.3,0 0.6,0.3 0.9,0 0.9,-0.6 0.6,-0.9 0.3,-0.3 -0.3,-0.9 0.3,-1.2 0,-0.9 0.3,-0.9 -0.3,-0.9 0,-2.1 0.3,-1.2 0,-2.1 -0.3,-0.9 -3,0 -0.9,0.3 -1.2,-0.3 -0.9,0 0,-0.6 0,-0.3 0.3,-0.3 0,-0.3 -0.3,-0.3 -0.6,0 -0.3,0.3 -0.3,0.3 -0.6,0 0,0.3 0,0.3 -0.3,0 -0.3,0.6 0,1.8 0.3,0.3 0.3,0.6 -0.3,0.6 0,4.8 -0.3,0.6 0,4.5 -0.3,1.5 -0.3,0.3 -0.3,0.3 -0.6,0.3 -0.3,0.3 0,0.3 -0.3,0 -0.9,0.3 -0.6,-0.3 -0.9,-0.3 -0.9,-0.3 -0.3,-0.3 -0.3,0 -0.3,-0.3 -0.6,0 -0.3,-0.3 -0.6,0 0,-0.3 0,-0.3 0.6,-0.3 0.6,-0.3 0.3,-0.6 0.3,0 0,-0.3 0.3,0 0,-0.3 0,-1.5 0.3,-0.3 0,-5.4 0.3,-0.9 -0.3,-0.3 -0.3,-0.3 -0.3,-0.3 -0.6,0.6 -0.6,0.3 -0.9,1.2 -0.6,0.6 -0.9,-0.3 -0.9,0 -0.6,-0.6 -0.6,0 -0.3,-0.6 -0.3,-0.3 0,-0.3 -0.3,0 0,-0.3 -0.3,0 0.3,-0.3 -0.3,-0.3 0,-0.3 0.3,0 0.3,-0.3 0.3,-0.3 0.6,0 0.3,-0.3 0.6,-0.3 0.6,-0.3 0.6,0 0.3,-0.6 0.3,-0.3 0.6,-0.3 0.6,-0.3 0.6,-0.6 0.3,-0.3 0.3,-0.6 0.9,-0.9 0.3,-0.6 0,-0.3 0.3,-0.3 0,-0.6 -0.3,-0.3 -0.3,-0.3 -0.3,-0.3 -0.3,0 -0.3,0.3 -0.3,0.3 -0.6,0.6 0,0.3 -0.6,0 -0.3,0 0,0.3 -1.2,0 -0.3,-0.3 -0.3,0 -0.3,-0.3 -0.3,-0.3 -0.3,-0.3 0,-0.3 -0.3,-0.3 0,-2.7 1.2,-0.6 0.9,-0.3 0.3,-0.3 0.3,-0.3 0.9,0 0.6,-0.6 0.6,-0.3 0.6,-0.6 0.6,-0.6 0.3,-0.3 0.3,-0.6 0.6,-0.3 0.3,-0.6 0,-0.3 0.3,-0.6 0.3,-0.3 0,-0.9 0.3,-0.3 0.6,-0.6 0.3,-0.6 0.3,-0.6 0.6,-0.6 0.6,-0.3 0.6,-0.3 z"
       style="fill:#000000;fill-opacity:1;fill-rule:evenodd;stroke:#000000;stroke-width:0.29999998;stroke-linecap:butt;stroke-linejoin:miter;stroke-miterlimit:10;stroke-opacity:1;stroke-dasharray:none"
       id="path2830" />
    <path
       d="m 562.18881,201.43506 0.9,0 0,0.3 0.3,0.3 0,0.6 -0.3,1.5 0,3.6 -0.3,0.3 0,0.3 -0.3,0.6 0,0.3 -0.3,0 -0.6,0.3 -0.3,-0.3 -6.3,0 -2.1,0.3 -4.2,0 -0.3,0.3 -0.3,-0.6 0,-2.1 -0.3,-2.7 0,-0.6 -0.3,-0.3 0,-0.6 0.3,0 1.8,0 0.9,0.3 0.9,0 1.2,-0.3 1.2,0 1.5,0.3 2.7,0 1.2,-0.6 1.2,-0.3 1.2,-0.6 0.3,-0.3 0.3,0 z"
       style="fill:#000000;fill-opacity:1;fill-rule:evenodd;stroke:#000000;stroke-width:0.29999998;stroke-linecap:butt;stroke-linejoin:miter;stroke-miterlimit:10;stroke-opacity:1;stroke-dasharray:none"
       id="path2832" />
    <path
       d="m 459.28881,223.63506 0,0.3 -0.3,0 -1.5,0 0,1.5 0,1.2 0.3,0.3 0.3,0 0.6,0.3 0.3,0.3 0.3,0 0.3,-0.3 0.3,-0.3 0.3,-0.3 0.3,-0.3 0.3,-0.3 0,-0.6 -0.3,-0.6 0,-0.9 -0.3,0 0,0 -0.3,-0.3 -0.6,0 m 5.1,-3 -0.6,0.3 0,4.5 -0.3,0.6 0,3.3 0.3,0.3 0.6,0 0.3,-0.3 0.3,0 0,-0.3 0,-2.7 0.3,-0.3 0,-3.6 -0.3,-1.5 -0.6,-0.3 m -5.4,-4.5 -0.9,0 0,0.3 0,1.2 0.3,0.6 0.3,0.9 -0.3,0.6 -0.3,0.6 0,0.3 2.7,0 0,-0.6 -0.3,-0.3 0,-0.3 -0.3,-1.8 0,-1.2 -0.3,-0.3 -0.9,0 m -5.4,0 -0.3,0 -0.6,0.3 -0.6,0 0,0.3 0,0.9 -0.3,0.3 -0.3,0.6 0,0.3 0.3,0.3 0,0.3 0.3,0 0.9,-0.3 0.9,-0.3 0.3,-0.3 0.3,-0.6 0,-1.5 -0.3,-0.3 -0.6,0 m 9.9,-0.3 -0.9,0 0,0.3 -0.3,0.3 0,0.9 0.3,0.3 0,0.3 0.6,0 0.3,0.3 0.3,0.3 0.6,0 0,-0.3 0.3,0 0.3,-0.3 0,-0.3 0.3,-0.6 0.3,-0.3 0,-0.6 -0.6,0 -0.3,-0.3 -1.2,0 m -4.5,-7.8 -0.3,0 -0.6,0.3 -0.9,0.9 0,0.9 0.3,0.3 0.3,0.3 0.3,0.3 0.3,0.3 1.5,0 0.3,-0.3 0,-1.5 0.3,-0.3 0,-0.9 -0.3,0 -0.3,0 -0.3,-0.3 -0.6,0 m -0.3,-11.4 2.4,0 0.9,0.6 0.3,0.3 0.6,0 0.3,0.3 -0.3,0.3 0,0.3 -0.3,0.3 0,0.3 -0.6,0.6 -0.6,0.9 -0.3,0.6 -0.3,0.6 0,0.9 1.5,0 4.8,0 2.1,-0.3 0.9,0 0.9,-0.6 2.1,0 0.9,0.3 0.3,0.6 0.3,0.6 0,2.1 -0.3,0.9 -0.3,0.9 -0.3,0.3 0,0.9 -0.3,0.3 -1.5,0 -0.3,-0.3 -0.6,0 -0.9,0.3 -0.9,0 -1.8,-0.3 -1.8,0 -0.3,0.6 -0.3,0.6 0,1.2 0.3,0.3 0.3,0.3 0.3,-0.3 0.6,0 0.3,-0.3 0.9,0 0.9,0.3 0.9,0 0.9,0.6 0,1.8 0.3,1.5 0,1.8 -0.3,0 0,3.9 0.3,3.3 0,3.3 0.3,1.8 0,1.2 -0.3,1.2 -0.3,1.2 0,0.6 -0.3,0.6 0,0.3 -1.5,0 -1.5,0 -1.2,-0.3 -2.7,0 -1.2,-0.3 -0.9,-0.6 -0.6,0 -0.3,-0.3 -0.3,0 0.6,-0.6 0.3,-0.3 0.3,-0.6 0,-0.3 -0.3,-0.3 -0.3,-0.3 -5.4,0 -0.3,-0.3 -0.3,0 0,-0.3 -0.3,0 0,-0.3 0,-2.1 -0.3,-0.6 0,-0.6 0.3,-0.6 0,-0.6 -0.3,-0.3 0,-2.4 -0.6,-0.6 -0.9,0 0,0.6 0,1.8 0.3,2.4 0,4.5 -0.3,0.6 -0.3,0.6 -0.3,0.6 -0.6,0 -0.6,0.3 -0.3,0 -1.5,-0.3 -1.2,-0.3 0,-1.8 -0.3,-0.6 0,-14.7 -0.3,-2.1 0.3,-0.9 0,-0.9 0.3,-0.3 3,0 1.5,0.3 0.6,0 0.3,-0.3 0.3,0 0,-0.6 -0.3,-0.6 -0.3,-0.3 -0.3,-0.6 -0.3,0 0,-0.3 -0.6,0.3 -0.3,0.3 -2.1,0 -2.7,0.3 -1.2,0.3 -0.3,0 -0.3,-0.3 -0.3,-0.3 -0.3,-0.6 -0.3,-0.6 0,-0.9 -0.6,-0.9 -0.3,-0.9 0,-2.1 0.3,-1.2 0,-0.3 0.6,0.3 0.9,0.6 0.9,0 2.4,0.3 2.1,0 2.1,0.3 2.1,0 2.1,-0.3 0.6,0 0,-0.3 -0.3,-0.6 -0.9,-0.9 -0.3,-0.3 -0.6,-0.6 0,-0.9 -0.3,-0.9 -0.3,-0.6 0.3,-0.6 0.3,-0.3 0.9,-0.3 0.6,0 0.6,0.3 0.9,0 0.3,-0.3 0.6,0 z"
       style="fill:#000000;fill-opacity:1;fill-rule:evenodd;stroke:#000000;stroke-width:0.29999998;stroke-linecap:butt;stroke-linejoin:miter;stroke-miterlimit:10;stroke-opacity:1;stroke-dasharray:none"
       id="path2870" />
    <path
       d="m 417.28881,223.33506 -0.6,0.6 0,2.7 0.3,1.2 2.4,-0.3 0.9,0.3 1.8,0 0.6,-0.3 0.3,-3.6 0,-0.3 -0.3,0 -0.3,-0.3 -5.1,0 m 0.3,-9.3 -0.3,0.3 -0.6,0.6 -0.6,0.9 -0.3,0.9 -0.3,0.9 0.3,0.3 1.2,0 2.1,0 1.2,-0.3 0.3,0 0,-0.3 -0.3,-0.3 -0.3,-0.6 -0.6,0 -0.3,-0.3 -0.6,-0.3 -0.3,-0.6 -0.3,-0.6 0,-0.3 -0.3,0 0,-0.3 m 5.4,-7.5 -2.1,0 -0.6,0.3 0,0.3 -0.3,0.3 0,2.1 -0.3,0.6 -0.9,1.5 -0.3,0.6 0,0.6 0.3,0.3 0.3,0.3 0.9,0 0.3,-0.3 0.6,-0.3 0.3,-0.6 0.3,-0.3 0,-0.3 0.3,0 0.3,-1.2 0.6,-0.9 0.3,-0.6 0.6,-0.9 0,-1.2 -0.3,-0.3 -0.3,0 m -10.2,-0.3 0,0.6 -0.3,0.3 -0.6,2.1 -0.3,0.9 -0.6,0.6 -0.6,0.3 -0.9,0 -0.3,0.3 0,0.9 0.3,0 0.6,0.6 0.6,0.6 0.3,0.6 1.2,0 0.3,-0.6 0.3,-0.6 0,-0.6 1.2,-1.8 0.9,-2.1 0.3,-0.6 -0.3,-0.6 0,-0.3 -0.3,0 0,-0.3 -0.9,0 -0.9,-0.3 m -8.1,-9.9 0.6,0 0.9,0.6 1.2,0.3 1.8,0 0.3,0.3 0,7.2 0.3,0.6 1.8,0 0.3,-0.3 0.3,0 0.3,-0.6 -0.3,-0.6 0,-0.9 -0.3,-0.6 -0.3,-0.6 0,-2.4 2.1,0.6 2.1,0 1.8,0.3 2.1,0.3 0.6,0 0.3,0.3 1.8,0 1.2,-0.3 1.5,-0.6 1.2,-0.3 1.2,0 0.6,0.3 2.4,0 0.3,0.6 0.3,0.3 -0.3,0.6 0,0.6 -0.3,0.3 0,0.9 -0.6,1.8 -0.6,2.1 -0.6,1.8 -0.6,2.1 -0.3,0.6 -0.3,0.6 0,0.6 -0.3,0.9 -1.2,1.2 -0.9,1.2 -0.6,0 -0.3,0.3 -0.3,0 0,0.3 0,0.9 0.3,0 0.9,0.3 0.9,0 0.9,-0.3 0.6,0 0,-0.3 0.9,0 0,0.3 0.3,0.3 0,0.6 -0.3,1.8 -0.3,0.9 0,5.4 0.3,2.4 0.3,2.1 0,0.9 -0.3,0.3 0,1.5 -0.3,0 -0.6,0 0,0.3 -0.3,0 -0.3,-0.3 -0.9,-0.3 -2.4,0 -2.1,0.3 -0.9,-0.3 -7.5,0 -0.3,0.3 -0.3,0 -0.3,-0.3 0,-0.3 -0.3,-0.3 -0.3,-0.3 0,-11.4 -0.3,-0.9 -0.3,-0.6 -0.6,-0.6 -0.6,-0.3 -0.6,0 0,0.3 -0.3,0 0,0.3 0,0.3 -0.3,0.3 0,5.1 0.3,0.3 0,1.2 0.3,1.2 -0.3,1.2 0,3.3 -0.3,0.6 -0.3,0.3 -3,0 -0.6,0.3 -1.5,0 -0.9,-0.3 -0.6,-0.3 -0.6,-0.9 -0.3,-0.6 0.3,-0.9 0.9,-0.9 0.9,-0.6 0.9,0 0,-0.3 0.3,0 0,-1.8 0,-3 -0.3,-0.9 -0.3,-0.6 -0.3,-0.3 -0.6,0.6 -0.6,0.3 -0.6,0.6 -0.6,0 0,0.3 -1.2,0.6 -0.3,0.3 -0.3,0.3 -0.3,0.3 -0.3,-0.6 -0.3,-0.9 -0.6,-1.2 -0.6,-1.2 -0.3,-1.2 -0.3,-1.2 0,-1.5 0.3,0 1.2,0 0.6,-0.3 0.6,-0.3 2.4,0 0.9,-0.3 0.6,-0.3 0.6,-0.6 0.6,-0.3 0.3,-0.6 0.3,-0.9 0,-0.6 -0.3,-0.9 0,-0.3 -0.3,-0.3 -0.3,-0.3 -0.9,0 -0.3,0.3 -2.1,0 -0.3,-0.3 -0.3,0 -0.3,-0.3 0,-1.8 -0.6,-1.2 -0.6,-1.2 0,-1.8 0.3,0 0.6,0.3 0.6,0 2.7,-0.3 1.5,-0.3 0.6,-0.3 0.3,-0.3 0,-1.8 -0.3,-1.2 -0.3,-1.2 -0.3,-1.2 0,-1.5 0.3,-1.2 0.3,0 z"
       style="fill:#000000;fill-opacity:1;fill-rule:evenodd;stroke:#000000;stroke-width:0.29999998;stroke-linecap:butt;stroke-linejoin:miter;stroke-miterlimit:10;stroke-opacity:1;stroke-dasharray:none"
       id="path2872" />
    <path
       d="m 500.08881,223.03506 -0.6,0.3 -0.3,0.3 -0.3,0.3 0,0.3 0.3,0.3 0.3,0 0.3,0.3 0.3,0 0,0.3 0.3,0 0,-0.3 0.6,0 0,0.3 0.9,0 0.3,-0.3 0,-0.3 -0.3,-0.3 0,-0.3 -0.3,0 0,-0.3 -0.3,0 0,-0.3 -0.6,-0.3 -0.6,0 m 8.1,-1.5 -0.3,0 0,0.3 0,1.2 -0.3,0.3 0,1.5 0.3,1.2 0.9,0 0.3,-0.3 0.6,-0.6 0,-0.3 0.3,-0.3 0,-0.6 -0.3,-0.6 -0.3,-0.3 -0.3,-0.6 -0.3,-0.6 -0.3,-0.3 -0.3,0 m 5.1,-2.7 -1.5,0 -0.6,0.3 -1.5,0 0,0.3 0,0.6 0.6,0.9 0.6,0.9 0.3,0 0.6,-0.3 0.6,-0.6 0.6,-0.3 0.6,-0.3 0.9,-0.6 0.3,0 0,-0.3 0,-0.3 -0.6,0 -0.3,-0.3 -0.6,0 m -12.6,-0.6 -0.6,0 -0.3,0.3 -0.3,0.6 0,0.6 0.3,0.3 1.2,0 0,-0.3 0,-0.3 0.3,0 0,-0.3 0.3,0 0,-0.6 -0.3,-0.3 -0.6,0 m 10.8,-5.1 -0.6,0 -0.6,0.3 -1.2,0.3 -0.6,-0.3 -0.3,0.3 0,1.2 0.3,0.3 0,0.3 1.8,0 1.5,-0.3 0.3,-0.6 0.3,-0.3 0,-0.6 -0.6,-0.6 -0.3,0 m -15.9,-1.2 0,0.6 -0.3,0 0,0.6 0.3,0 0.3,-0.3 0.3,0 0.3,-0.3 0,-0.3 -0.3,-0.3 -0.6,0 m 7.8,-2.7 -0.3,0.6 -0.3,0.6 -0.3,0.3 -0.3,0.6 0,0.9 -0.6,0 -0.3,-0.3 -0.9,0 -0.3,0.3 -0.3,0 -0.3,0.3 0,0.3 0.3,0.3 0.3,0.3 2.4,0.3 0.3,0.3 0,0.3 0.3,0.3 0,3 -0.3,0 0,0.3 -0.3,0.6 0,2.1 0.3,0.6 0.3,0 0,0.3 -0.3,0 0,1.2 0,2.7 -0.3,0.6 -0.3,0.6 -0.6,0.3 0,0.6 0.3,0.6 0.3,0.6 0.6,0 0.3,-0.3 0.3,-0.3 0,-0.3 0.3,-0.6 0,-0.6 0.3,-0.3 0,-0.3 0.3,0 0,-0.6 0.3,-1.2 -0.3,-0.3 0,-1.8 0.3,-2.1 -0.3,-1.2 0,-4.2 -0.3,-1.2 0,-4.2 -0.3,0 -0.3,0 m 8.1,-1.8 -1.2,0 -0.3,0.3 -1.5,0 -0.3,0.3 0,1.2 1.5,0 0.6,0 0.3,0.3 0.3,0 0.6,-0.3 0.3,-0.3 0.3,-0.3 0.6,-0.6 0,-0.6 -0.6,0 -0.6,0 m -12,-1.8 -0.3,0.3 -0.3,0.3 0,0.3 -0.3,0.3 0,0.3 -0.3,0 0,0.6 0.3,0 0,0.3 1.5,0.6 0.3,-0.3 0.3,-0.6 0.3,-0.3 0,-0.9 -0.3,0 0,-0.3 -0.3,0 -0.3,-0.3 -0.3,0 -0.3,-0.3 m -2.7,-9 0.6,0 0.6,0.6 0.3,0.6 0.6,0.6 0.3,0.6 0.6,0.6 0.3,0.6 0.3,0.3 0.3,0.3 0.3,0.3 0.3,0.6 0.3,0.3 0,0.9 -0.3,0.3 0,0.6 0.3,0.3 0,0.3 0.3,0 1.2,0 0.6,-0.3 0,-3.6 0.3,-0.6 1.2,0.6 0.9,0.9 0.9,0.6 2.7,0 0.6,0.3 0.9,-0.3 0.9,0.3 1.2,0 0.6,-0.3 0.3,0 0.6,-0.3 0.6,-0.3 0.6,-0.3 1.2,0 0.3,0.3 0,5.1 -0.3,0.3 0,0.3 -0.3,0.6 0,1.2 -0.3,1.5 -0.3,1.5 0,2.7 0.3,0.9 -0.3,0.6 -0.6,1.5 0,0.3 0.3,0.3 -0.3,0.3 0.3,0.3 0.6,0 0.3,-0.3 0.6,-0.3 0,-0.3 0.3,-0.3 0.3,-0.6 0.3,0 0.3,0.3 0.3,0.3 0.3,0 0,0.3 0.3,0.3 -0.3,0.3 0,2.7 0.3,0.3 0.3,0.3 -0.3,0.3 -0.6,0 -0.6,0.6 -0.9,0.3 -3.3,-0.3 0,0.3 -0.3,0.3 0,0.6 0.9,0.6 0.9,0.3 0.9,0.3 0.9,0.3 0.9,0.3 0.6,0 0.6,0.3 0.6,0 0.9,-0.3 0,0.9 -0.3,0.6 -0.3,0.6 0,0.9 -0.3,0.3 -0.3,0.9 -1.2,1.5 -0.6,0.3 -0.3,0.3 -0.6,0.6 -0.3,0.3 -0.3,0 -0.3,-0.3 -0.6,0 0,-0.3 -0.6,-0.3 -0.3,-0.3 -0.3,-0.3 -0.3,0 -0.3,-0.3 -0.3,-0.3 -0.6,-0.9 -0.6,-0.9 -0.3,-0.6 -0.6,-0.6 -0.3,0 -0.3,0.6 -0.3,0.3 -0.3,0.3 -0.3,0 -0.6,0.6 -0.3,0.6 -0.6,0.6 -0.6,0.6 -0.6,0.6 -0.6,0 -0.6,0.3 -0.3,0 -0.3,0.3 -0.9,0.3 -0.6,0 -0.9,0.3 -0.9,0.3 -0.6,0 -0.3,-0.6 -0.3,-1.2 0,-0.9 -0.3,-0.6 -0.6,-0.3 -0.6,-0.3 -0.3,0.3 -0.3,0.3 -0.3,0.3 -0.6,0.3 -0.3,0.3 -0.6,0.3 -0.9,0.3 -0.6,0.3 -0.6,0.6 -0.6,0.3 -0.6,-0.6 -0.3,-0.3 -0.3,-0.6 -0.6,-0.6 -0.3,-0.3 -0.3,-0.3 -0.3,-0.3 -0.3,-0.3 0,-0.6 -0.3,0 0,-0.9 -0.3,-0.3 -0.3,-0.9 0,-0.6 0.9,0 0.9,0.3 0.6,-0.3 0.9,-0.3 0.9,-0.3 0.6,-0.3 0.3,-0.3 0.3,-0.3 0,-1.2 -0.3,-0.3 -0.9,0 0,0.3 0,0.3 -0.6,0.6 -0.9,0.3 -0.6,0.3 -0.3,-1.2 -0.3,-1.2 0,-1.5 -0.3,-0.6 0,-0.3 2.7,0 1.2,0 0.3,-0.3 0,-1.2 -0.3,-0.3 -0.3,0 -0.3,0.3 -1.8,0 -0.3,-0.3 -0.3,-0.6 -0.3,-0.3 0,-0.3 -0.3,0 -0.3,0.6 0,0.3 -0.3,0.3 0,0.6 -0.3,0 0,0.3 -0.3,0 0,0.6 -0.3,0.3 -0.3,0.6 -0.3,0.3 0,0.6 -0.3,0.3 -0.6,0 -0.3,-0.3 -0.3,-0.3 -0.3,-0.3 0,-0.3 -0.3,-0.3 -0.9,0 -0.6,-0.3 -0.6,-0.6 0,-1.8 0.3,-0.3 0.6,0 0,-0.3 2.1,-0.3 0.9,-0.6 0.6,-0.9 1.8,-3.3 1.2,-2.4 1.2,-2.7 0.3,-1.5 0.3,-1.5 0.6,-1.5 0.3,-1.2 0.3,-1.5 0.3,-1.5 0.3,-1.8 z"
       style="fill:#000000;fill-opacity:1;fill-rule:evenodd;stroke:#000000;stroke-width:0.29999998;stroke-linecap:butt;stroke-linejoin:miter;stroke-miterlimit:10;stroke-opacity:1;stroke-dasharray:none"
       id="path2874" />
    <text
       xml:space="preserve"
       style="font-size:40px;font-style:normal;font-weight:normal;fill:#000000;fill-opacity:1;stroke:none;font-family:Bitstream Vera Sans"
       x="73.763885"
       y="61.935158"
       id="text3980"
       transform="translate(322.63881,190.78506)"><tspan
         sodipodi:role="line"
         id="tspan3982"
         x="73.763885"
         y="61.935158" /></text>
    <text
       xml:space="preserve"
       style="font-size:11.95770741px;font-style:normal;font-weight:normal;fill:#000000;fill-opacity:1;stroke:none;font-family:Times New Roman;-inkscape-font-specification:Times New Roman"
       x="370.1134"
       y="267.20425"
       id="text3984"
       transform="scale(1.071051,0.9336624)"><tspan
         sodipodi:role="line"
         id="tspan3986"
         x="370.1134"
         y="267.20425"
         style="font-size:11.95770741px;font-style:normal;font-variant:normal;font-weight:bold;font-stretch:normal;text-align:start;line-height:125%;writing-mode:lr-tb;text-anchor:start;fill:#000000;font-family:Times New Roman;-inkscape-font-specification:Times New Roman Bold">CHINA MERCHANTS BANK</tspan></text>
  </g>
</svg>
