<?xml version="1.0" encoding="UTF-8" standalone="no"?>
<!-- Created with Inkscape (http://www.inkscape.org/) -->

<svg
   xmlns:dc="http://purl.org/dc/elements/1.1/"
   xmlns:cc="http://creativecommons.org/ns#"
   xmlns:rdf="http://www.w3.org/1999/02/22-rdf-syntax-ns#"
   xmlns:svg="http://www.w3.org/2000/svg"
   xmlns="http://www.w3.org/2000/svg"
   xmlns:sodipodi="http://sodipodi.sourceforge.net/DTD/sodipodi-0.dtd"
   xmlns:inkscape="http://www.inkscape.org/namespaces/inkscape"
   width="325.98386"
   height="55.93375"
   id="svg3144"
   version="1.1"
   inkscape:version="0.48.4 r9939"
   sodipodi:docname="New document 4">
  <defs
     id="defs3146" />
  <sodipodi:namedview
     id="base"
     pagecolor="#ffffff"
     bordercolor="#666666"
     borderopacity="1.0"
     inkscape:pageopacity="0.0"
     inkscape:pageshadow="2"
     inkscape:zoom="0.98994949"
     inkscape:cx="293.57281"
     inkscape:cy="-5.2747215"
     inkscape:document-units="px"
     inkscape:current-layer="layer1"
     showgrid="false"
     fit-margin-top="0"
     fit-margin-left="0"
     fit-margin-right="0"
     fit-margin-bottom="0"
     inkscape:window-width="1440"
     inkscape:window-height="844"
     inkscape:window-x="-4"
     inkscape:window-y="-4"
     inkscape:window-maximized="1" />
  <metadata
     id="metadata3149">
    <rdf:RDF>
      <cc:Work
         rdf:about="">
        <dc:format>image/svg+xml</dc:format>
        <dc:type
           rdf:resource="http://purl.org/dc/dcmitype/StillImage" />
        <dc:title></dc:title>
      </cc:Work>
    </rdf:RDF>
  </metadata>
  <g
     inkscape:label="Layer 1"
     inkscape:groupmode="layer"
     id="layer1"
     transform="translate(-157.00806,-424.39531)">
    <g
       id="g3021"
       transform="matrix(1.25,0,0,-1.25,172.26231,434.27494)">
      <path
         d="m 0,0 0,-34.393 c 0.681,-0.358 1.403,-0.686 2.127,-0.978 0.721,-0.25 1.436,-0.504 2.164,-0.716 l 0,29.23 c 0,2.059 -0.828,3.938 -2.164,5.305 C 1.512,-0.936 0.792,-0.394 0,0"
         style="fill:#d91920;fill-opacity:1;fill-rule:nonzero;stroke:none"
         id="path3023"
         inkscape:connector-curvature="0" />
    </g>
    <g
       id="g3025"
       transform="matrix(1.25,0,0,-1.25,157.00806,452.36006)">
      <path
         d="m 0,0 c 0,-7.257 3.464,-13.683 8.768,-17.793 l 0,15.772 C 8.448,-1.486 7.724,-1.228 7.076,-1.449 5.995,-1.844 5.235,-2.75 4.941,-3.794 l 0,-0.034 C 4.915,-4.008 4.763,-4.112 4.583,-4.112 4.512,-4.112 4.405,-4.046 4.331,-4.008 3.429,-2.927 2.888,-1.519 2.888,0 c 0,1.514 0.541,2.921 1.443,4.008 0.074,0.066 0.181,0.107 0.252,0.107 0.18,0 0.332,-0.145 0.358,-0.293 0,0.071 -0.026,0.11 -0.026,0.186 0.207,-1.124 1.002,-2.135 2.161,-2.57 0.648,-0.212 1.372,0.037 1.692,0.58 l 0,15.776 C 3.464,13.673 0,7.25 0,0"
         style="fill:#d91920;fill-opacity:1;fill-rule:nonzero;stroke:none"
         id="path3027"
         inkscape:connector-curvature="0" />
    </g>
    <g
       id="g3029"
       transform="matrix(1.25,0,0,-1.25,197.16331,427.14406)">
      <path
         d="m 0,0 c -0.545,0.253 -1.083,0.504 -1.663,0.721 -2.495,0.974 -5.233,1.478 -8.05,1.478 -2.853,0 -5.554,-0.504 -8.08,-1.478 -0.549,-0.217 -1.09,-0.468 -1.629,-0.721 -0.328,-0.145 -0.579,-0.508 -0.579,-0.863 0,-0.472 0.292,-0.836 0.727,-0.943 l 0,-0.037 c 0.504,-0.151 1.001,-0.358 1.481,-0.61 3.206,-1.634 5.373,-4.947 5.373,-8.772 l 0,-31.181 c 0.907,-0.106 1.801,-0.141 2.707,-0.141 0.903,0 1.799,0.035 2.671,0.141 l 0,31.181 c 0,3.825 2.203,7.138 5.379,8.772 0.466,0.252 0.971,0.459 1.513,0.647 0.398,0.107 0.685,0.471 0.685,0.943 C 0.535,-0.508 0.319,-0.145 0,0"
         style="fill:#d91920;fill-opacity:1;fill-rule:nonzero;stroke:none"
         id="path3031"
         inkscape:connector-curvature="0" />
    </g>
    <g
       id="g3033"
       transform="matrix(1.25,0,0,-1.25,210.41982,454.17194)">
      <path
         d="m 0,0 c -1.083,-0.394 -1.874,-1.299 -2.136,-2.379 -0.036,-0.142 -0.172,-0.284 -0.353,-0.284 -0.107,0 -0.217,0.066 -0.284,0.177 -0.902,1.073 -1.448,2.449 -1.448,3.935 0,1.475 0.546,2.851 1.448,3.934 0.067,0.105 0.177,0.182 0.284,0.182 0.181,0 0.317,-0.146 0.353,-0.293 C -1.874,4.227 -1.114,3.286 0,2.889 0.761,2.639 1.549,2.999 1.839,3.759 1.881,3.865 1.912,3.935 1.912,4.051 1.191,10.216 -2.024,15.63 -6.715,19.242 l 0,-35.584 c 4.691,3.608 7.906,9.019 8.627,15.187 0,0.111 -0.031,0.182 -0.073,0.296 C 1.549,-0.107 0.761,0.257 0,0"
         style="fill:#d91920;fill-opacity:1;fill-rule:nonzero;stroke:none"
         id="path3035"
         inkscape:connector-curvature="0" />
    </g>
    <g
       id="g3037"
       transform="matrix(1.25,0,0,-1.25,192.37619,442.84619)">
      <path
         d="m 0,0 0,-29.229 c 0.756,0.211 1.485,0.465 2.166,0.715 0.722,0.292 1.437,0.62 2.168,0.978 l 0,34.393 C 3.501,6.463 2.781,5.92 2.166,5.305 0.831,3.938 0,2.059 0,0"
         style="fill:#d91920;fill-opacity:1;fill-rule:nonzero;stroke:none"
         id="path3039"
         inkscape:connector-curvature="0" />
    </g>
    <g
       id="g3041"
       transform="matrix(1.25,0,0,-1.25,365.24818,471.28156)">
      <path
         d="m 0,0 2.99,0 0,-0.344 C 2.651,-0.373 2.385,-0.411 2.253,-0.542 2.122,-0.642 2.045,-0.845 2.045,-1.143 l 0,-4.786 c 0,-0.272 0.077,-0.477 0.208,-0.608 0.132,-0.103 0.368,-0.169 0.737,-0.169 l 0,-0.369 -2.99,0 0,0.369 c 0.34,0 0.609,0.066 0.742,0.169 0.132,0.131 0.206,0.336 0.206,0.608 l 0,4.786 c 0,0.298 -0.074,0.501 -0.206,0.601 C 0.569,-0.411 0.34,-0.373 0,-0.344 L 0,0 z m 58.96,-0.344 c 0.34,-0.029 0.566,-0.067 0.742,-0.198 0.131,-0.1 0.206,-0.303 0.206,-0.601 l 0,-4.786 c 0,-0.272 -0.075,-0.477 -0.206,-0.608 C 59.568,-6.64 59.3,-6.706 58.96,-6.706 l 0,-0.369 2.989,0 0,0.369 c -0.369,0 -0.604,0.066 -0.738,0.169 -0.13,0.131 -0.207,0.336 -0.207,0.608 l 0,4.786 c 0,0.298 0.077,0.501 0.207,0.601 0.134,0.131 0.399,0.169 0.738,0.198 l 0,0.344 -2.989,0 0,-0.344 z m -49.64,0 c 0.301,0 0.534,-0.067 0.698,-0.198 0.139,-0.128 0.209,-0.367 0.209,-0.671 l 0,-3.979 L 6.036,0 l -1.91,0 0,-0.344 c 0.202,-0.029 0.363,-0.067 0.537,-0.13 0.136,-0.068 0.268,-0.168 0.335,-0.267 l 0,-5.158 c 0,-0.27 -0.067,-0.507 -0.199,-0.638 -0.136,-0.131 -0.34,-0.169 -0.645,-0.169 l -0.028,0 0,-0.369 2.453,0 0,0.369 -0.07,0 c -0.306,0 -0.537,0.038 -0.676,0.169 -0.131,0.131 -0.201,0.368 -0.201,0.638 l 0,4.652 4.859,-5.955 0.377,0 0,5.989 c 0,0.304 0.061,0.502 0.23,0.638 0.13,0.142 0.34,0.202 0.632,0.231 l 0,0.344 -2.41,0 0,-0.344 z m 31.23,0 c 0.301,0 0.534,-0.067 0.698,-0.198 0.136,-0.128 0.21,-0.367 0.21,-0.671 l 0,-3.979 -4.192,5.192 -1.911,0 0,-0.344 c 0.201,-0.029 0.362,-0.067 0.538,-0.13 0.134,-0.068 0.267,-0.168 0.334,-0.267 l 0,-5.158 c 0,-0.27 -0.067,-0.507 -0.2,-0.638 -0.134,-0.131 -0.337,-0.169 -0.644,-0.169 l -0.028,0 0,-0.369 2.453,0 0,0.369 -0.071,0 c -0.304,0 -0.537,0.038 -0.674,0.169 -0.131,0.131 -0.202,0.368 -0.202,0.638 l 0,4.652 4.86,-5.955 0.376,0 0,5.989 c 0,0.304 0.064,0.502 0.231,0.638 0.129,0.142 0.337,0.202 0.631,0.231 l 0,0.344 -2.409,0 0,-0.344 z m 35.248,0 c 0.302,0 0.533,-0.067 0.7,-0.198 0.138,-0.128 0.206,-0.367 0.206,-0.671 l 0,-3.979 -4.19,5.192 -1.911,0 0,-0.344 c 0.202,-0.029 0.364,-0.067 0.538,-0.13 0.135,-0.068 0.268,-0.168 0.334,-0.267 l 0,-5.158 c 0,-0.27 -0.066,-0.507 -0.199,-0.638 -0.135,-0.131 -0.34,-0.169 -0.643,-0.169 l -0.03,0 0,-0.369 2.456,0 0,0.369 -0.072,0 c -0.308,0 -0.538,0.038 -0.676,0.169 -0.13,0.131 -0.2,0.368 -0.2,0.638 l 0,4.652 4.858,-5.955 0.377,0 0,5.989 c 0,0.304 0.062,0.502 0.231,0.638 0.129,0.142 0.337,0.202 0.63,0.231 l 0,0.344 -2.409,0 0,-0.344 z M 12.906,0 l -0.102,-1.747 0.372,0 c 0.095,0.469 0.226,0.804 0.467,0.972 0.236,0.165 0.568,0.271 1.067,0.271 l 0.75,0 0,-5.425 c 0,-0.272 -0.072,-0.477 -0.21,-0.608 -0.134,-0.131 -0.397,-0.169 -0.738,-0.203 l 0,-0.335 2.985,0 0,0.369 c -0.339,0 -0.573,0.066 -0.737,0.169 -0.136,0.131 -0.198,0.336 -0.198,0.608 l 0,5.425 0.732,0 c 0.504,0 0.872,-0.106 1.068,-0.271 0.241,-0.168 0.407,-0.503 0.509,-0.972 l 0.368,0 L 19.104,0 12.906,0 z m 38.628,0 -0.104,-1.747 0.372,0 c 0.097,0.469 0.229,0.804 0.471,0.972 0.236,0.165 0.566,0.271 1.065,0.271 l 0.751,0 0,-5.425 c 0,-0.272 -0.075,-0.477 -0.212,-0.608 C 53.745,-6.668 53.48,-6.706 53.14,-6.74 l 0,-0.335 2.987,0 0,0.369 c -0.342,0 -0.573,0.066 -0.739,0.169 -0.138,0.131 -0.199,0.336 -0.199,0.608 l 0,5.425 0.734,0 c 0.504,0 0.873,-0.106 1.069,-0.271 0.24,-0.168 0.406,-0.503 0.506,-0.972 l 0.369,0 L 57.732,0 51.534,0 z m -0.649,-6.504 c 0.201,-0.136 0.399,-0.202 0.673,-0.202 l 0,-0.369 -3.123,0 0,0.369 c 0.299,0 0.541,0.038 0.638,0.131 0.136,0.071 0.207,0.203 0.207,0.341 0,0.099 0,0.164 -0.043,0.265 0,0.098 -0.028,0.203 -0.102,0.269 l -0.401,0.935 -1.466,0 -1.478,0 -0.401,-0.903 c -0.033,-0.098 -0.067,-0.203 -0.067,-0.261 -0.038,-0.111 -0.038,-0.168 -0.038,-0.24 0,-0.167 0.038,-0.265 0.172,-0.368 0.103,-0.067 0.334,-0.131 0.633,-0.169 l 0,-0.369 -2.443,0 0,0.369 c 0.237,0 0.402,0.102 0.571,0.202 0.137,0.132 0.26,0.335 0.399,0.633 0,0 2.148,4.564 2.652,5.627 C 47.334,-0.07 47.367,0 47.367,0 l 0.434,0 2.615,-5.838 c 0.169,-0.297 0.297,-0.534 0.469,-0.666 m -2.412,2.347 -1.164,2.751 c 0,0 0,-0.071 -0.041,-0.142 -0.235,-0.5 -1.246,-2.609 -1.246,-2.609 l 1.246,0 1.205,0 z m 37.512,-2.347 c 0.2,-0.136 0.397,-0.202 0.67,-0.202 l 0,-0.369 -3.122,0 0,0.369 c 0.3,0 0.538,0.038 0.64,0.131 0.133,0.071 0.206,0.203 0.206,0.341 0,0.099 0,0.164 -0.042,0.265 0,0.098 -0.031,0.203 -0.104,0.269 l -0.4,0.935 -1.467,0 -1.478,0 -0.403,-0.903 c -0.031,-0.098 -0.065,-0.203 -0.065,-0.261 -0.036,-0.111 -0.036,-0.168 -0.036,-0.24 0,-0.167 0.036,-0.265 0.17,-0.368 0.102,-0.067 0.334,-0.131 0.632,-0.169 l 0,-0.369 -2.442,0 0,0.369 c 0.237,0 0.403,0.102 0.572,0.202 0.134,0.132 0.259,0.335 0.395,0.633 0,0 2.152,4.564 2.655,5.627 C 82.433,-0.07 82.465,0 82.465,0 l 0.435,0 2.614,-5.838 c 0.17,-0.297 0.298,-0.534 0.471,-0.666 m -2.413,2.347 -1.166,2.751 c 0,0 0,-0.071 -0.04,-0.142 -0.236,-0.5 -1.244,-2.609 -1.244,-2.609 l 1.244,0 1.206,0 z m -14.655,3.272 c 0.693,-0.697 1.036,-1.567 1.036,-2.61 0,-1.073 -0.345,-1.965 -1.042,-2.675 -0.701,-0.707 -1.547,-1.063 -2.537,-1.063 -1.001,0 -1.846,0.346 -2.526,1.037 -0.681,0.692 -1.025,1.588 -1.025,2.686 0,1.122 0.394,2.037 1.181,2.746 0.685,0.617 1.504,0.924 2.457,0.924 0.943,0 1.763,-0.347 2.456,-1.045 m -0.209,-2.749 c 0,1.17 -0.246,2.041 -0.731,2.616 -0.391,0.457 -0.93,0.685 -1.618,0.685 -0.647,0 -1.164,-0.228 -1.556,-0.68 -0.486,-0.565 -0.731,-1.391 -0.731,-2.48 0,-1.114 0.252,-1.971 0.757,-2.572 0.388,-0.455 0.898,-0.684 1.535,-0.684 0.676,0 1.237,0.25 1.68,0.75 0.44,0.501 0.664,1.288 0.664,2.365 M 25.377,-6.437 c -0.29,-0.197 -0.564,-0.269 -1.069,-0.269 l -0.893,0 c -0.369,0 -0.605,0.066 -0.737,0.169 -0.13,0.131 -0.206,0.336 -0.206,0.608 l 0,2.366 1.387,0 c 0.294,0 0.513,-0.035 0.658,-0.104 0.14,-0.07 0.245,-0.166 0.307,-0.287 0.048,-0.099 0.097,-0.32 0.147,-0.662 l 0.392,0 0,2.462 -0.392,0 C 24.947,-2.558 24.849,-2.839 24.665,-2.999 24.53,-3.121 24.263,-3.182 23.859,-3.182 l -1.387,0 0,0.47 0,1.569 0,0.799 1.591,0 c 0.504,0 0.873,-0.103 1.068,-0.27 0.239,-0.169 0.406,-0.664 0.507,-1.133 l 0.368,0 -0.135,1.747 -3.399,0 -0.287,0 -1.757,0 0,-0.344 c 0.341,-0.029 0.566,-0.067 0.74,-0.198 0.131,-0.1 0.208,-0.303 0.208,-0.601 l 0,-4.786 c 0,-0.272 -0.077,-0.477 -0.208,-0.608 -0.132,-0.103 -0.399,-0.169 -0.74,-0.169 l 0,-0.369 2.987,0 0,0.005 2.456,0 0.62,1.747 -0.367,0 c -0.331,-0.646 -0.458,-0.915 -0.747,-1.114 m 67.019,0 c -0.289,-0.197 -0.562,-0.269 -1.068,-0.269 l -0.891,0 c -0.369,0 -0.604,0.066 -0.738,0.169 -0.131,0.131 -0.205,0.336 -0.205,0.608 l 0,4.786 c 0,0.298 0.074,0.501 0.205,0.601 0.134,0.131 0.398,0.169 0.738,0.198 l 0,0.344 -2.987,0 0,-0.344 c 0.337,-0.029 0.565,-0.067 0.739,-0.198 0.133,-0.1 0.208,-0.303 0.208,-0.601 l 0,-4.786 c 0,-0.272 -0.075,-0.477 -0.208,-0.608 -0.133,-0.103 -0.402,-0.169 -0.739,-0.169 l 0,-0.369 2.987,0 0,0.005 2.454,0 0.619,1.747 -0.367,0 c -0.33,-0.646 -0.457,-0.915 -0.747,-1.114 M 33.61,-6.414 c 0.239,-0.154 0.595,-0.25 0.982,-0.292 l 0,-0.364 -1.888,0 -2.392,3.304 -0.708,0 0,-2.163 c 0,-0.272 0.074,-0.477 0.204,-0.608 0.135,-0.103 0.372,-0.169 0.738,-0.169 l 0,-0.369 -2.988,0 0,0.369 c 0.34,0 0.609,0.066 0.74,0.169 0.132,0.131 0.208,0.336 0.208,0.608 l 0,4.786 c 0,0.298 -0.076,0.501 -0.208,0.601 -0.172,0.131 -0.4,0.169 -0.74,0.198 l 0,0.344 2.046,0 0,-0.001 0.529,0 c 0.752,0 1.305,-0.055 1.662,-0.165 0.356,-0.109 0.659,-0.31 0.907,-0.604 0.248,-0.294 0.373,-0.644 0.373,-1.05 0,-0.436 -0.141,-0.813 -0.426,-1.133 -0.283,-0.32 -0.723,-0.545 -1.316,-0.677 l 1.416,-1.857 c 0.332,-0.464 0.619,-0.775 0.861,-0.927 m -2.221,3.409 c 0.341,0.293 0.512,0.664 0.512,1.116 0,0.443 -0.138,0.801 -0.414,1.077 -0.276,0.275 -0.642,0.468 -1.096,0.468 l -0.787,0 0,-0.799 0,-1.118 0,-1.176 c 0.081,-0.001 0.23,-0.006 0.259,-0.006 0.674,0 1.183,0.147 1.526,0.438 m -132.698,2.661 c 0.336,-0.028 0.567,-0.065 0.696,-0.198 0.177,-0.1 0.241,-0.303 0.241,-0.601 l 0,-1.945 -3.583,0 0,1.945 c 0,0.298 0.061,0.501 0.193,0.601 0.179,0.133 0.406,0.17 0.741,0.198 l 0,0.344 -2.914,0 0,-0.344 c 0.338,-0.028 0.53,-0.065 0.671,-0.198 0.133,-0.1 0.2,-0.303 0.2,-0.601 l 0,-4.786 c 0,-0.273 -0.067,-0.477 -0.2,-0.609 -0.141,-0.104 -0.333,-0.17 -0.671,-0.17 l 0,-0.369 2.914,0 0,0.337 c -0.335,0.032 -0.562,0.071 -0.741,0.202 -0.132,0.132 -0.193,0.336 -0.193,0.609 l 0,2.274 3.583,0 0,-2.274 c 0,-0.305 -0.064,-0.505 -0.204,-0.609 -0.166,-0.104 -0.397,-0.17 -0.733,-0.202 l 0,-0.337 2.916,0 0,0.369 c -0.336,0 -0.569,0.066 -0.705,0.17 -0.132,0.132 -0.202,0.336 -0.202,0.609 l 0,4.786 c 0,0.298 0.07,0.501 0.202,0.601 0.136,0.133 0.369,0.17 0.705,0.198 l 0,0.344 -2.916,0 0,-0.344 z m 4.049,0 c 0.34,-0.028 0.567,-0.065 0.743,-0.198 0.131,-0.1 0.206,-0.303 0.206,-0.601 l 0,-4.786 c 0,-0.273 -0.075,-0.477 -0.206,-0.609 -0.134,-0.104 -0.403,-0.17 -0.743,-0.17 l 0,-0.369 2.989,0 0,0.369 c -0.369,0 -0.606,0.066 -0.737,0.17 -0.132,0.132 -0.207,0.336 -0.207,0.609 l 0,4.786 c 0,0.298 0.075,0.501 0.207,0.601 0.131,0.133 0.399,0.17 0.737,0.198 l 0,0.344 -2.989,0 0,-0.344 z m -11.29,-5.958 c -0.37,-0.236 -0.768,-0.34 -1.247,-0.34 -0.762,0 -1.404,0.307 -1.868,0.876 -0.501,0.532 -0.737,1.303 -0.737,2.243 0,0.978 0.236,1.743 0.7,2.347 0.472,0.567 1.078,0.869 1.814,0.869 0.529,0 0.968,-0.164 1.338,-0.467 0.368,-0.298 0.638,-0.737 0.84,-1.307 l 0.369,0 -0.071,2.213 -0.334,0 c -0.064,-0.132 -0.137,-0.202 -0.234,-0.268 -0.065,-0.071 -0.136,-0.108 -0.24,-0.108 -0.029,0 -0.227,0.072 -0.662,0.206 -0.406,0.17 -0.803,0.238 -1.206,0.238 -0.504,0 -1.009,-0.133 -1.476,-0.372 -0.468,-0.237 -0.867,-0.569 -1.247,-1.004 -0.265,-0.372 -0.464,-0.733 -0.6,-1.175 -0.129,-0.399 -0.201,-0.84 -0.201,-1.304 0,-0.568 0.106,-1.078 0.304,-1.538 0.199,-0.439 0.497,-0.847 0.931,-1.213 0.307,-0.263 0.675,-0.501 1.077,-0.636 0.406,-0.135 0.841,-0.196 1.271,-0.196 0.67,0 1.247,0.129 1.748,0.393 0.504,0.307 0.901,0.747 1.204,1.312 l -0.401,0.27 c -0.332,-0.472 -0.672,-0.807 -1.072,-1.039 m 20.61,5.958 c 0.302,0 0.534,-0.065 0.7,-0.198 0.136,-0.128 0.207,-0.369 0.207,-0.671 l 0,-3.98 -4.19,5.193 -1.913,0 0,-0.344 c 0.204,-0.028 0.366,-0.065 0.539,-0.127 0.136,-0.071 0.269,-0.171 0.334,-0.27 l 0,-5.16 c 0,-0.268 -0.065,-0.505 -0.198,-0.637 -0.136,-0.131 -0.338,-0.17 -0.647,-0.17 l -0.028,0 0,-0.369 2.457,0 0,0.369 -0.07,0 c -0.309,0 -0.539,0.039 -0.676,0.17 -0.134,0.132 -0.205,0.369 -0.205,0.637 l 0,4.654 4.863,-5.957 0.377,0 0,5.991 c 0,0.302 0.062,0.502 0.232,0.638 0.128,0.141 0.334,0.203 0.629,0.231 l 0,0.344 -2.411,0 0,-0.344 z m 56.959,-3.578 c 0.371,-0.339 0.539,-0.741 0.539,-1.203 0,-0.576 -0.267,-1.044 -0.738,-1.413 -0.5,-0.369 -1.106,-0.539 -1.868,-0.539 l -0.278,0 -3.311,0 0,0.369 c 0.297,0 0.533,0.066 0.666,0.17 0.132,0.132 0.202,0.336 0.202,0.609 l 0,4.786 c 0,0.298 -0.07,0.473 -0.202,0.601 -0.133,0.108 -0.369,0.17 -0.666,0.198 l 0,0.344 3.311,0 0.07,0 c 0.801,0 1.408,-0.136 1.844,-0.434 0.401,-0.277 0.638,-0.709 0.638,-1.246 0,-0.401 -0.134,-0.771 -0.44,-1.035 -0.265,-0.269 -0.666,-0.476 -1.241,-0.601 0.674,-0.102 1.143,-0.306 1.474,-0.606 m -3.72,0.801 0.978,0 c 0.17,0 0.298,0 0.397,0.033 0.402,0.033 0.709,0.137 0.942,0.338 0.304,0.205 0.437,0.54 0.437,0.97 0,0.435 -0.133,0.741 -0.405,0.935 -0.232,0.203 -0.535,0.303 -0.974,0.341 l -0.265,0 -1.11,0 0,-2.617 z m 3.057,-2.004 c 0,0.462 -0.137,0.794 -0.477,1.068 -0.263,0.27 -0.665,0.402 -1.205,0.402 l -0.066,0 -1.309,0 0,-2.111 c 0,-0.332 0.072,-0.569 0.208,-0.64 0.091,-0.098 0.364,-0.132 0.8,-0.132 l 0.367,0 c 0.501,0.034 0.871,0.166 1.138,0.336 0.374,0.273 0.544,0.6 0.544,1.077 M -43.62,-6.04 c -0.091,-0.095 -0.225,-0.194 -0.359,-0.262 -0.374,-0.236 -0.804,-0.34 -1.238,-0.34 -0.811,0 -1.45,0.307 -1.913,0.876 -0.468,0.532 -0.699,1.303 -0.699,2.243 0,0.978 0.231,1.743 0.665,2.347 0.467,0.567 1.069,0.869 1.844,0.869 0.537,0 0.967,-0.164 1.341,-0.467 0.134,-0.099 0.268,-0.236 0.359,-0.402 0.208,-0.232 0.336,-0.539 0.44,-0.905 l 0.41,0 -0.104,2.213 -0.34,0 C -43.237,0 -43.308,-0.07 -43.412,-0.136 c -0.066,-0.036 -0.137,-0.071 -0.208,-0.108 l -0.023,0 c -0.032,0 -0.275,0.072 -0.672,0.206 -0.409,0.17 -0.806,0.238 -1.205,0.238 -0.538,0 -1.039,-0.133 -1.511,-0.372 -0.475,-0.237 -0.874,-0.569 -1.204,-1.004 -0.233,-0.302 -0.403,-0.604 -0.539,-0.936 -0.041,-0.07 -0.067,-0.136 -0.067,-0.239 -0.165,-0.399 -0.24,-0.84 -0.24,-1.304 0,-0.539 0.107,-1.039 0.307,-1.512 l 0.033,-0.026 c 0.204,-0.439 0.506,-0.847 0.912,-1.213 0.323,-0.263 0.699,-0.501 1.059,-0.636 0.41,-0.135 0.848,-0.196 1.309,-0.196 0.678,0 1.251,0.129 1.75,0.393 0.036,0.038 0.068,0.071 0.091,0.105 0.44,0.268 0.813,0.67 1.113,1.207 l -0.4,0.27 c -0.239,-0.302 -0.439,-0.575 -0.713,-0.777 m -9.709,5.696 c 0.369,-0.028 0.6,-0.065 0.73,-0.198 0.143,-0.1 0.203,-0.303 0.203,-0.601 l 0,-4.786 c 0,-0.273 -0.06,-0.477 -0.203,-0.609 -0.13,-0.104 -0.361,-0.17 -0.73,-0.17 l 0,-0.369 2.983,0 0,0.369 c -0.338,0 -0.577,0.066 -0.742,0.17 -0.13,0.132 -0.203,0.336 -0.203,0.609 l 0,4.786 c 0,0.298 0.073,0.501 0.234,0.601 0.134,0.133 0.373,0.17 0.711,0.198 l 0,0.344 -2.983,0 0,-0.344 z M -60.571,0 l -0.104,-1.747 0.373,0 c 0.096,0.467 0.228,0.804 0.469,0.973 0.235,0.165 0.567,0.27 1.069,0.27 l 0.746,0 0,-5.425 c 0,-0.273 -0.074,-0.477 -0.209,-0.609 -0.132,-0.131 -0.399,-0.17 -0.738,-0.202 l 0,-0.337 2.987,0 0,0.369 c -0.341,0 -0.572,0.066 -0.736,0.17 -0.139,0.132 -0.2,0.336 -0.2,0.609 l 0,5.425 0.733,0 c 0.505,0 0.874,-0.105 1.068,-0.27 0.239,-0.169 0.405,-0.506 0.509,-0.973 l 0.368,0 -0.136,1.747 -6.199,0 z m 37.975,-6.504 c 0.197,-0.138 0.395,-0.204 0.67,-0.204 l 0,-0.369 -3.122,0 0,0.369 c 0.298,0 0.537,0.039 0.638,0.133 0.136,0.071 0.207,0.203 0.207,0.341 0,0.099 0,0.164 -0.041,0.263 0,0.1 -0.03,0.205 -0.105,0.27 l -0.401,0.936 -1.465,0 -1.478,0 -0.403,-0.904 c -0.034,-0.097 -0.066,-0.202 -0.066,-0.26 -0.039,-0.111 -0.039,-0.169 -0.039,-0.24 0,-0.166 0.039,-0.265 0.172,-0.369 0.103,-0.066 0.336,-0.131 0.634,-0.17 l 0,-0.369 -2.444,0 0,0.369 c 0.236,0 0.402,0.104 0.571,0.204 0.138,0.132 0.262,0.335 0.397,0.633 0,0 2.149,4.563 2.656,5.627 0.064,0.174 0.097,0.244 0.097,0.244 l 0.436,0 2.612,-5.838 c 0.171,-0.297 0.299,-0.534 0.474,-0.666 m -2.414,2.347 -1.165,2.749 c 0,0 0,-0.07 -0.04,-0.14 -0.237,-0.501 -1.249,-2.609 -1.249,-2.609 l 1.249,0 1.205,0 z m -42.128,-2.145 c -0.377,-0.236 -0.804,-0.34 -1.241,-0.34 -0.772,0 -1.409,0.307 -1.907,0.876 -0.472,0.532 -0.707,1.303 -0.707,2.243 0,0.978 0.235,1.743 0.707,2.347 0.464,0.567 1.075,0.869 1.793,0.869 0.551,0 0.978,-0.164 1.355,-0.467 0.363,-0.298 0.637,-0.737 0.832,-1.307 l 0.368,0 -0.096,2.213 -0.299,0 C -66.402,0 -66.467,-0.07 -66.57,-0.136 c -0.064,-0.071 -0.133,-0.108 -0.238,-0.108 -0.032,0 -0.226,0.072 -0.669,0.206 -0.394,0.17 -0.799,0.238 -1.197,0.238 -0.537,0 -1.012,-0.133 -1.486,-0.372 -0.466,-0.237 -0.866,-0.569 -1.234,-1.004 -0.27,-0.372 -0.477,-0.733 -0.601,-1.175 -0.137,-0.399 -0.207,-0.84 -0.207,-1.304 0,-0.568 0.109,-1.078 0.301,-1.538 0.204,-0.439 0.507,-0.847 0.908,-1.213 0.335,-0.263 0.707,-0.501 1.11,-0.636 0.401,-0.135 0.796,-0.196 1.27,-0.196 0.671,0 1.235,0.129 1.741,0.393 0.47,0.307 0.902,0.747 1.204,1.312 l -0.394,0.27 c -0.34,-0.472 -0.67,-0.807 -1.076,-1.039 m 2.576,5.958 c 0.343,-0.028 0.575,-0.065 0.704,-0.198 0.139,-0.1 0.244,-0.303 0.244,-0.601 l 0,-4.786 c 0,-0.273 -0.105,-0.477 -0.244,-0.609 -0.129,-0.104 -0.361,-0.17 -0.704,-0.17 l -0.03,-0.369 2.983,0 0,0.369 c -0.337,0 -0.568,0.066 -0.71,0.17 -0.129,0.132 -0.223,0.336 -0.223,0.609 l 0,4.786 c 0,0.298 0.094,0.501 0.223,0.601 0.142,0.133 0.373,0.17 0.71,0.198 l 0,0.344 -2.983,0 0.03,-0.344 z m -13.157,-6.16 c 0.206,-0.138 0.405,-0.204 0.674,-0.204 l 0,-0.369 -3.123,0 0,0.369 c 0.307,0 0.511,0.039 0.634,0.133 0.141,0.071 0.204,0.203 0.204,0.341 0,0.099 0,0.164 -0.033,0.263 0,0.1 -0.03,0.205 -0.097,0.27 l -0.401,0.936 -1.473,0 -1.474,0 -0.403,-0.904 c -0.033,-0.097 -0.064,-0.202 -0.064,-0.26 -0.04,-0.111 -0.04,-0.169 -0.04,-0.24 0,-0.166 0.04,-0.265 0.176,-0.369 0.094,-0.066 0.293,-0.131 0.629,-0.17 l 0,-0.369 -1.036,0 -1.411,0 0,0.369 c 0.236,0 0.406,0.104 0.572,0.204 0.139,0.132 0.267,0.335 0.403,0.633 0,0 0.2,0.373 0.436,0.944 0.671,1.404 1.843,3.917 2.212,4.683 0.061,0.174 0.098,0.244 0.098,0.244 l 0.436,0 2.611,-5.838 c 0.167,-0.297 0.304,-0.534 0.47,-0.666 m -2.411,2.347 -1.174,2.749 c 0,0 0,-0.07 -0.03,-0.14 -0.241,-0.501 -1.248,-2.609 -1.248,-2.609 l 1.248,0 1.204,0 z m 73.483,-1.544 -1.941,2.951 1.941,1.74 c 0.202,0.202 0.438,0.34 0.633,0.435 0.244,0.104 0.444,0.203 0.671,0.231 l 0,0.344 -2.977,0 0,-0.344 c 0.331,-0.028 0.534,-0.09 0.666,-0.127 0.099,-0.071 0.171,-0.171 0.171,-0.303 0,-0.099 -0.029,-0.169 -0.104,-0.265 -0.067,-0.104 -0.199,-0.208 -0.331,-0.369 l -2.65,-2.347 0,2.612 c 0,0.298 0.066,0.473 0.198,0.601 0.14,0.108 0.373,0.17 0.672,0.198 l 0.04,0.344 -2.887,0 0,-0.344 c 0.327,-0.028 0.573,-0.065 0.705,-0.198 0.137,-0.1 0.199,-0.303 0.199,-0.601 l 0,-4.786 c 0,-0.273 -0.062,-0.477 -0.199,-0.609 -0.132,-0.104 -0.378,-0.17 -0.705,-0.17 l 0,-0.369 2.887,0 -0.04,0.369 c -0.299,0 -0.532,0.066 -0.672,0.17 -0.132,0.132 -0.198,0.336 -0.198,0.609 l 0,1.404 1.141,1.002 1.509,-2.28 c 0.097,-0.168 0.2,-0.295 0.231,-0.399 0.033,-0.071 0.066,-0.17 0.066,-0.232 0,-0.104 -0.066,-0.17 -0.2,-0.208 -0.133,-0.066 -0.335,-0.066 -0.566,-0.066 l 0,-0.369 3.15,0 0,0.369 c -0.272,0 -0.499,0.066 -0.702,0.204 -0.203,0.132 -0.434,0.406 -0.708,0.803 m -9.448,5.357 c 0.334,0 0.57,-0.065 0.736,-0.198 0.132,-0.128 0.194,-0.369 0.194,-0.671 l 0,-3.98 c 0,0 -0.396,0.499 -1.001,1.239 C -17.405,-2.417 -19.378,0 -19.378,0 l -1.882,0 0,-0.344 c 0.204,-0.028 0.368,-0.065 0.505,-0.127 0.167,-0.071 0.267,-0.171 0.369,-0.27 l 0,-5.16 c 0,-0.268 -0.066,-0.505 -0.202,-0.637 -0.137,-0.131 -0.337,-0.17 -0.639,-0.17 l -0.033,0 0,-0.369 2.447,0 0,0.369 -0.071,0 c -0.297,0 -0.533,0.039 -0.669,0.17 -0.133,0.132 -0.198,0.369 -0.198,0.637 l 0,4.654 c 0,0 2.176,-2.644 3.585,-4.422 0.741,-0.869 1.246,-1.535 1.246,-1.535 l 0.393,0 0,5.991 c 0,0.302 0.071,0.502 0.206,0.638 0.169,0.141 0.37,0.203 0.667,0.231 l 0,0.344 -2.441,0 0,-0.344 z m -47.974,31.651 c 0.395,-0.257 0.8,-0.48 1.267,-0.73 l 0.366,0 c 0.426,0.112 1.16,0.504 1.16,1.956 l 0,0.04 c -0.081,0.794 -0.475,1.524 -1.16,2.096 -0.366,0.291 -0.904,0.511 -1.633,0.658 -0.182,0 -0.4,0.032 -0.618,0.071 l -0.028,0 c -1.098,0 -1.782,-0.106 -2.469,-0.329 -0.658,-0.18 -0.328,-0.538 -0.328,-0.538 1.157,-1.416 2.133,-2.396 3.443,-3.224 m 30.483,-0.552 c -0.18,0.404 -0.756,1.38 -0.252,1.705 0.395,0.216 1.416,0.257 2.642,-0.215 1.238,0.472 2.107,0.835 2.716,1.09 1.136,0.469 1.424,0.649 1.495,0.685 l 0.143,0.149 c 0.331,0.219 0.439,0.469 0.685,0.545 l 0.29,0 c 1.81,-0.254 2.909,-0.91 3.838,-1.812 l 0.158,-0.257 c 0,-0.357 -0.297,-0.756 -0.583,-1.306 -0.291,-0.543 -0.694,-0.978 -0.831,-1.489 -0.045,-0.148 -0.114,-0.612 -0.296,-1.302 -0.287,-1.711 -0.614,-3.081 -0.909,-4.131 l 0,-0.039 c -0.252,-0.757 -0.726,-1.449 -0.94,-1.742 -0.248,-0.286 -0.69,-0.685 -1.049,-0.541 -0.113,0.076 -0.438,0.255 -0.577,0.367 -0.257,-0.045 -0.696,-0.147 -1.424,-0.327 -0.028,-0.04 -0.064,-0.04 -0.101,-0.04 0,0 -0.438,-0.104 -0.835,-0.211 0.25,-0.259 0.581,-0.515 0.872,-0.77 0.036,-0.031 0.064,-0.031 0.064,-0.072 0.728,-0.613 1.705,-1.45 2.254,-1.845 1.699,2.283 2.031,3.592 2.031,3.732 l 0.066,0.801 c 0,0.141 -0.101,0.141 0.22,0.396 0.364,0.217 1.269,0.109 2.218,-0.473 l 0,-0.032 c 0.505,-0.363 1.23,-1.093 1.191,-1.598 -0.031,-0.439 -0.472,-0.363 -0.835,-0.762 -0.425,-0.359 -0.797,-0.689 -1.086,-0.976 -0.574,-0.581 -1.381,-1.272 -2.429,-2.139 2.29,-1.595 4.711,-2.685 7.502,-3.41 0.399,-0.103 0.766,-0.184 1.161,-0.252 1.014,-0.218 1.744,-0.293 1.854,-0.586 0.175,-0.316 -0.729,-0.863 -1.64,-1.265 -0.461,-0.18 -0.939,-0.364 -1.375,-0.539 -3.113,-1.165 -4.563,-0.909 -5.982,0.614 -1.591,1.593 -3.073,3.116 -4.382,4.569 -0.222,0.259 -0.473,0.504 -0.768,0.795 -0.539,0.618 -1.158,1.267 -1.806,1.953 -0.036,-1.845 -0.068,-5.907 -0.068,-7.169 l 0.032,0 c 0.722,0.287 1.339,0.539 1.842,0.761 2.185,0.833 2.694,0.833 2.762,0.574 0.111,-0.328 -0.722,-1.121 -2.611,-3.226 -0.045,-0.072 -0.076,-0.107 -0.151,-0.183 -1.08,-1.192 -2.128,-2.168 -2.529,-2.673 -0.579,-0.624 -1.197,-1.31 -1.775,-1.164 -0.512,0.146 -1.018,1.164 -1.272,1.951 -0.073,0.188 -0.108,0.404 -0.145,0.553 -0.07,0.577 -0.106,0.723 0.145,1.078 0.112,0.116 0.254,0.299 0.47,0.515 0.694,0.834 0.694,1.123 0.867,3.076 0,0.073 -0.173,13.121 -0.173,13.162 -0.144,2.101 -0.474,2.902 -0.694,3.475 m 6.964,-3.516 c -0.153,-0.102 -0.153,-0.102 -0.363,-0.25 -0.108,-0.04 -0.727,-0.225 -1.495,-0.402 -0.609,-0.139 -1.299,-0.323 -1.806,-0.502 l 0,-2.25 c 0.793,0.291 1.415,0.473 1.806,0.543 l 0.075,0 c 0.434,0.107 0.869,0.107 1.267,0.072 0.221,1.017 0.363,1.96 0.516,2.789 m -3.732,1.094 0.068,0.03 -0.036,0 c 0.47,0.185 1.303,0.475 1.842,0.696 0.335,0.102 0.546,0.179 0.546,0.179 0.694,-0.037 1.055,-0.332 1.455,-0.69 l 0.039,-0.036 c 0.037,0.363 0.069,0.689 0.109,1.012 0.105,0.803 0.105,1.303 0.105,1.635 l 0,0.327 c -0.253,0 -0.912,-0.072 -2.254,-0.512 -0.503,-0.147 -1.12,-0.359 -1.874,-0.647 l 0,-1.994 z m 35.697,0.689 c 0.443,-0.295 1.489,-0.945 3.52,-0.474 1.41,0.29 6.701,1.45 7.211,1.92 0,0 0.26,0.147 0.321,0.359 0.078,0.439 -0.831,1.17 -1.118,1.379 -1.089,0.801 -2.503,0.582 -2.867,0.47 C 12.054,32.61 11.614,32.426 10.75,32.1 L 10.709,32.064 C 9.947,31.7 8.536,31.307 6.397,30.755 5.483,30.541 4.624,30.468 4.624,30.105 4.592,29.672 4.906,29.344 5.343,29.022 M -5.528,26.053 c 0.94,0.431 2.717,1.694 5.217,4.052 0.47,0.436 1.014,0.869 1.521,1.344 0.224,0.179 0.404,0.327 0.615,0.502 0.799,0.694 1.021,1.022 1.051,1.164 0.036,0.184 -0.063,0.475 -0.063,0.475 -0.474,0.761 -1.061,1.334 -1.603,1.702 -0.547,0.398 -1.051,0.617 -1.401,0.686 -0.367,0.071 -0.622,0 -0.807,-0.143 C -1.176,35.69 -1.326,35 -1.256,34.46 c 0.044,-0.404 -0.07,-0.7 -0.861,-1.927 -1.527,-2.095 -3.668,-4.277 -4.43,-4.957 -0.69,-0.658 -1.773,-1.676 -1.629,-1.929 0.18,-0.288 1.342,-0.221 2.648,0.406 m -89.314,-5.951 c -0.613,0 -1.738,-0.036 -3.224,-0.103 -0.984,-0.042 -2.14,-0.077 -3.34,-0.151 l 0,-2.678 -0.063,-3.272 c -0.108,-2.244 -0.295,-3.726 -0.404,-5.104 -0.397,-2.974 -0.795,-3.807 -1.231,-4.13 -0.398,-0.331 -0.659,0.359 -0.802,1.156 -0.079,0.578 -0.689,4.206 -0.551,13.74 -0.469,-0.069 -1.619,-0.144 -2.709,-0.255 -0.981,-0.071 -1.926,-0.144 -2.252,-0.181 -0.327,-1.089 -0.721,-1.481 -1.007,-1.633 -0.47,-0.251 -0.693,-0.032 -0.986,0.219 -0.179,0.148 -0.76,0.945 -1.159,3.23 -0.578,4.164 -1.842,6.636 -1.842,6.636 -0.219,0.538 -0.401,0.824 -0.335,1.151 0.153,0.617 1.706,0.762 4.031,-0.107 0.147,0.035 1.88,0.183 3.55,0.331 1.303,0.138 2.5,0.25 2.894,0.287 -0.036,0.76 -0.036,1.669 -0.068,2.789 -0.255,2.831 -0.545,3.3 -0.654,3.698 -0.219,0.728 -0.468,1.044 -0.468,1.309 0,0.215 -0.046,0.538 1.271,0.464 1.119,-0.03 2.614,-0.36 3.873,-1.884 0.071,-0.073 0.184,-0.287 0.148,-0.434 0,-0.111 -0.077,-0.322 -0.18,-0.511 -0.111,-0.138 -0.183,-0.281 -0.183,-0.362 -0.116,-0.251 -0.4,-0.833 -0.583,-4.605 1.197,0.184 2.218,0.333 3.05,0.441 2.611,0.398 3.588,0.582 3.731,0.653 0,0 0.618,0.323 0.802,0.323 l 0.249,-0.069 c 1.995,-0.832 3.405,-1.706 4.241,-2.717 0,0 0.292,-0.363 0.217,-0.541 -0.037,-0.216 -0.145,-0.365 -0.681,-0.874 l -0.372,-0.331 c -0.323,-0.431 -1.165,-1.12 -2.863,-3.911 0.399,-0.613 0.579,-0.98 0.726,-1.271 0.254,-0.503 0.44,-1.049 0.074,-1.339 -0.288,-0.256 -1.524,0.036 -2.9,0.036 m -9.466,6.994 c -0.464,-0.071 -1.657,-0.214 -2.858,-0.358 -1.234,-0.151 -2.435,-0.29 -2.861,-0.364 0.067,-0.8 0.354,-4.131 0.426,-5.005 0.402,0.036 1.419,0.111 2.435,0.215 1.201,0.112 2.423,0.223 2.826,0.26 0,0.792 0.032,4.276 0.032,5.252 m 9.316,-1.449 c 0.187,0.837 0.222,1.378 0.222,1.668 0,0.222 -0.035,0.364 -0.035,0.397 -0.215,0.08 -1.159,0.146 -3.261,0.035 -0.832,-0.035 -1.892,-0.104 -3.197,-0.251 0,-0.758 -0.067,-4.313 -0.067,-5.325 1.372,0.179 2.467,0.322 3.264,0.465 1.406,0.22 1.994,0.367 2.102,0.439 0.245,0.25 0.617,0.94 0.972,2.572 m 35.412,-5.545 c -0.469,0.367 -1.012,0.689 -2.277,0.51 -0.112,0 -0.359,0 -2.212,-0.397 -0.437,-0.113 -1.019,-0.216 -1.673,-0.405 -1.982,-0.434 -2.385,-0.505 -2.458,-0.536 -1.015,-0.113 -1.705,-0.04 -1.746,-0.547 0,-0.037 0.041,-0.22 0.113,-0.332 0.106,-0.249 0.332,-0.429 0.582,-0.614 l 0.075,-0.071 c 0.684,-0.399 1.121,-0.507 2.096,-0.47 l 0.04,0 c 1.088,0.111 2.066,0.219 2.971,0.324 1.558,0.181 2.834,0.402 3.803,0.616 l 0.473,0.109 c 0.581,0.106 1.016,0.069 1.016,0.546 0,0.47 -0.435,0.907 -0.766,1.231 l -0.037,0.036 z m 25.058,-5.366 c 0.215,0.22 0.358,0.367 0.466,0.471 0.147,0.184 0.218,0.291 0.178,0.434 0,0.077 -0.066,0.111 -0.178,0.111 -0.4,0 -1.555,-0.429 -4.604,-1.814 0.036,1.125 0.076,3.265 0.107,3.807 0.221,0.071 0.474,0.182 0.474,0.182 1.518,0.468 3.01,0.944 3.3,1.014 0.22,0.072 0.539,0.072 0.723,0.256 0.071,0.077 0.112,0.142 0.112,0.25 0.035,0.076 -0.041,0.219 -0.112,0.401 -0.145,0.254 -0.4,0.621 -0.758,0.907 -0.551,0.506 -1.271,0.583 -1.668,0.4 0,0 -0.36,-0.113 -0.508,-0.184 -0.185,-0.104 -0.107,-0.069 -0.839,-0.359 0,0 -0.433,-0.143 -0.724,-0.256 0,0.073 -0.031,0.179 0.075,0.435 0.113,0.292 0.186,0.654 0.257,0.834 0.183,0.653 -0.363,0.903 -0.439,0.974 1.052,0.219 2.831,0.947 2.831,0.947 0.327,0.184 1.015,0.325 1.127,0.728 0.1,0.324 -0.146,0.615 -0.582,1.045 -0.398,0.363 -0.985,0.837 -2.068,0.476 -0.686,-0.221 -1.702,-0.513 -1.702,-0.513 -1.533,-0.504 -2.36,-0.797 -3.122,-1.047 0.543,0.796 1.161,1.778 1.703,2.861 0.8,-0.214 1.75,-0.107 5.288,0.94 0.371,0.113 0.843,0.186 1.129,0.404 0.071,0.072 0.147,0.144 0.178,0.215 0.076,0.112 0,0.404 -0.178,0.726 -0.073,0.143 -0.215,0.291 -0.358,0.428 -0.434,0.409 -0.986,0.768 -1.532,0.696 -0.977,-0.108 -1.768,-0.362 -3.073,-0.833 -0.076,-0.037 -0.146,-0.077 -0.183,-0.077 0.107,0.214 0.218,0.479 0.323,0.766 0.944,1.993 1.271,2.494 1.455,2.682 0.287,0.394 0.54,0.547 0.54,0.871 0,0.29 -0.437,0.908 -1.121,1.378 -0.905,0.617 -1.99,0.941 -2.428,1.017 -0.257,0 -0.517,0 -0.619,-0.076 -0.291,-0.216 -0.18,-1.164 -0.251,-1.926 -0.075,-1.153 -0.183,-1.662 -0.479,-2.531 -1.334,-4.168 -3.439,-8.012 -6.268,-11.307 -0.543,-0.659 -1.444,-1.492 -0.721,-1.492 0.362,0.036 1.272,0.399 1.845,0.689 0.943,0.549 1.956,1.305 3.447,2.903 0.175,-0.179 0.394,-0.364 0.834,-0.474 0.254,-0.032 0.72,0.04 1.087,0.11 0.107,-0.286 0.144,-0.725 0.215,-1.091 0.077,-0.359 0.077,-0.899 0.111,-1.591 -1.235,-0.326 -2.649,-0.688 -4.281,-1.016 -0.545,-0.149 -1.226,-0.149 -1.301,-0.541 -0.067,-0.221 0.141,-0.655 0.723,-1.201 0.364,-0.36 0.978,-0.793 1.563,-0.725 0.395,0.036 1.483,0.365 1.845,0.475 0.328,0.11 1.05,0.29 1.417,0.433 0,-0.684 -0.037,-1.342 -0.077,-1.926 0,0 -0.035,-0.47 -0.035,-0.572 -0.255,-1.233 -0.578,-1.886 -1.089,-2.218 -0.438,-0.282 -0.684,-0.47 -0.802,-0.648 0,0 -0.104,-0.107 -0.062,-0.44 0.027,-0.362 0.358,-1.804 0.756,-2.498 0.22,-0.326 0.399,-0.47 0.399,-0.47 0.543,-0.214 1.09,0.249 1.743,0.945 0.438,0.469 0.864,0.863 1.231,1.194 0.618,0.543 1.7,1.561 2.795,2.541 1.078,1.042 1.628,1.594 1.885,1.88 M -61.025,7.921 C -61.751,7.887 -62.767,7.814 -64.069,7.67 -64.829,7.594 -65.702,7.522 -66.681,7.454 -66.972,6.836 -67.04,6.515 -67.224,6.331 -67.413,6.151 -67.622,6 -67.878,6.04 l -0.285,0.147 c -0.471,0.431 -0.802,1.012 -1.052,2.172 -1.014,4.164 -1.273,4.747 -1.34,5.075 l -0.26,0.54 c -0.036,0.042 -0.036,0.072 -0.068,0.113 -0.108,0.214 -0.223,0.434 0,0.725 0,0.035 0.032,0.072 0.068,0.104 l 0.041,0 c 0.183,0.217 0.756,0.249 2.025,0.076 0.475,-0.076 0.657,-0.108 0.765,-0.108 1.379,0.072 2.794,0.323 3.915,0.577 1.376,0.328 2.318,0.654 2.318,0.654 0.828,0.323 1.129,0.436 1.344,0.436 l 0.141,-0.036 c 2.649,-0.981 4.068,-2.397 3.991,-2.898 -0.074,-0.511 -0.728,-0.95 -1.163,-1.452 -0.433,-0.511 -0.359,-0.511 -1.339,-1.924 0.361,-0.616 0.689,-1.303 0.619,-1.56 -0.108,-0.462 -0.436,-0.572 -2.867,-0.76 m -0.067,5.543 c -0.332,0.072 -1.097,0.072 -2.977,-0.206 -0.542,-0.079 -1.228,-0.188 -1.994,-0.335 0,0 -0.502,-0.107 -0.977,-0.174 0.107,-0.69 0.327,-2.508 0.435,-3.195 0.939,0.109 1.813,0.252 2.536,0.323 0.943,0.149 1.735,0.256 2.286,0.364 0.387,0.841 0.426,1.96 0.691,3.223 m 82.714,9.861 c 0.471,0.73 -0.111,1.631 -1.194,2.393 -0.807,0.546 -2.115,0.908 -3.665,0.546 C 16.55,26.228 14.918,25.865 14.188,25.647 13.319,25.319 8.205,24.126 1.941,23.075 1.684,23.044 1.434,23.003 1.21,22.968 0.811,22.891 0.489,22.818 0.383,22.569 0.199,22.205 0.565,21.807 0.847,21.552 0.96,21.515 1.068,21.405 1.21,21.338 1.65,21.114 2.295,20.826 3.105,20.72 l 0.101,0 c 0.436,0 0.937,0.106 1.59,0.291 l 0.074,0.031 c 0.331,0.147 1.418,0.438 4.505,0.949 0.352,-1.312 0.572,-3.523 0.68,-6.638 l 0,-0.869 c 0,-2.9 -0.214,-3.881 -0.328,-4.204 -0.178,0 -0.535,0.073 -1.191,0.219 C 6.905,10.893 5.237,11.798 5.419,11.082 5.483,10.716 6.513,9.806 7.305,8.794 7.918,7.996 8.323,7.522 8.786,6.653 9.264,5.789 9.477,5.023 10.238,5.275 c 0.726,0.25 1.671,0.949 2.361,1.852 0.394,0.575 0.72,1.262 0.792,1.994 0.073,1.085 -0.398,2.755 -0.474,4.137 -0.143,1.658 -0.143,2.969 -0.143,3.578 l 0,1.671 c 0,0.579 0.108,0.984 0.254,1.595 0.109,0.254 0.225,0.51 0.225,0.765 0,0.175 -0.049,0.358 -0.116,0.502 -0.109,0.402 -0.4,0.766 -0.838,1.093 1.567,0.174 3.152,0.289 4.674,0.289 1.094,0.038 2.115,0.067 2.585,0.067 0.435,0 1.777,0 2.064,0.507 M 0.02,23.111 c 0.429,0.51 0.827,0.904 1.19,1.197 0.113,0.109 0.224,0.177 0.296,0.212 0.286,0.258 0.506,0.584 0.542,0.692 0.14,0.255 0,0.47 0,0.47 -0.223,0.509 -0.506,0.98 -0.838,1.343 -0.507,0.654 -1.089,1.052 -1.263,1.124 -0.218,0.107 -0.545,0.251 -0.912,0.036 -0.361,-0.215 -0.578,-0.721 -0.646,-1.124 0,0 -0.183,-1.379 -2.177,-3.986 -1.854,-2.173 -3.66,-4.098 -5.871,-5.798 -0.146,-0.107 -0.291,-0.217 -0.433,-0.329 -1.344,-0.976 -1.854,-1.45 -1.447,-1.741 0.206,-0.104 0.941,-0.042 1.88,0.254 0.439,0.115 0.941,0.291 1.412,0.547 1.232,0.543 2.933,1.635 4.894,3.624 0.036,-0.655 0.066,-1.305 0.066,-1.922 0,-2.104 0.185,-4.206 -0.432,-6.056 -0.144,-0.434 -0.255,-0.761 -0.283,-0.828 0,-0.183 -0.114,-0.363 -0.114,-0.585 0,-0.401 0.142,-0.979 0.364,-1.377 0.286,-0.544 0.798,-1.27 1.083,-1.625 0.332,-0.332 0.695,-0.693 1.089,-0.586 0.368,0.111 0.874,1.854 0.909,3.553 0.036,1.744 -0.035,4.678 0,6.38 0,0.286 0.036,0.725 0.113,1.195 0.026,0.47 0.137,0.946 0.137,1.232 0,0.944 -0.392,1.522 -1.159,2.432 0.404,0.362 0.909,0.945 1.6,1.666 m -74.382,5.87 c 0.358,0.543 0.721,1.054 1.09,1.596 0.146,0.178 0.289,0.397 0.438,0.582 0.506,0.693 0.542,0.73 0.604,0.976 0,0 0,0.153 -0.037,0.291 -0.179,0.654 -0.505,1.232 -1.005,1.671 -0.657,0.572 -1.527,1.012 -2.621,1.262 0,0 -0.605,0.182 -0.605,-0.359 0,-0.142 0.063,-0.398 0.112,-0.98 0,0 0.036,-0.362 -0.049,-0.762 -0.063,-0.47 -1.039,-3.449 -2.311,-5.65 -1.129,-1.961 -3.02,-4.819 -4.822,-6.888 -0.987,-1.088 -1.157,-1.273 -1.524,-1.596 -0.256,-0.289 -0.685,-0.58 -0.511,-0.797 0.113,-0.181 1.414,0.031 3.195,1.196 1.342,0.906 2.831,2.248 4.708,4.603 0.113,-0.907 0.182,-1.921 0.226,-3.084 0.026,-0.613 0.026,-1.194 0.026,-1.768 l 0,-0.547 c 0,-0.73 -0.026,-1.376 -0.101,-1.962 -0.114,-1.849 -0.401,-3.909 -0.91,-5.8 l -0.112,-0.438 0,-0.028 c 0.149,-2.032 1.409,-3.592 1.854,-3.7 0.367,-0.115 0.863,0.686 0.863,0.686 0.256,0.477 0.655,1.161 0.772,2.944 l 0,0.034 c 0.101,10.579 0.209,12.795 0.283,13.083 l -0.037,-0.037 0.037,0.112 0.035,0.543 0,0.071 c 0,0.721 -0.399,1.522 -1.232,2.391 0.036,0.036 0.077,0.112 0.077,0.112 0.72,0.974 1.195,1.739 1.557,2.243 m 3.046,-3.662 c 0.139,0.04 0.286,0.04 0.433,0.076 0.547,0.108 0.937,0.252 1.447,0.362 0.582,0.183 1.85,0.363 1.85,0.363 1.344,0.29 2.427,0.506 3.517,0.69 2.027,0.327 4.056,0.47 7.826,0.358 0,0 1.236,-0.107 1.703,-0.107 0.474,0 1.236,-0.072 1.558,0.515 0.26,0.46 -0.175,1.118 -0.579,1.483 -0.505,0.536 -2.169,1.588 -3.728,1.338 -1.054,-0.179 -0.937,-0.144 -2.106,-0.434 -0.501,-0.154 -2.284,-0.474 -4.674,-0.838 -1.95,-0.322 -4.353,-0.648 -6.814,-0.903 -0.585,-0.073 -1.163,-0.145 -1.735,-0.186 -0.257,-0.031 -0.445,-0.031 -0.654,-0.066 -0.369,-0.04 -0.618,-0.076 -0.691,-0.178 -0.219,-0.184 -0.582,-0.441 -0.067,-0.91 0,0 0.317,-0.295 0.758,-0.618 0.5,-0.364 1.154,-0.797 1.736,-0.945 l 0.22,0 z m 12.615,-1.193 c -0.511,0.508 -1.232,0.905 -2.324,0.905 l -0.039,0 c -0.615,-0.03 -1.629,-0.182 -3.005,-0.47 -0.222,-0.041 -0.4,-0.111 -0.618,-0.144 -1.774,-0.402 -3.119,-0.653 -4.062,-0.723 -0.396,-0.073 -1.156,-0.148 -1.371,-0.436 -0.109,-0.147 0.061,-0.622 0.502,-1.015 0,0 0.796,-0.798 2.467,-0.728 0,0 1.227,0.145 3.082,0.369 0.872,0.107 1.853,0.251 2.937,0.394 l 1.199,0.184 c 0.762,0.107 1.478,0.066 1.775,0.356 0.251,0.257 -0.108,0.912 -0.543,1.308 M 71.4,24.559 c -0.128,-0.257 0.128,-0.536 0.328,-0.716 0.078,-0.024 0.154,-0.104 0.254,-0.151 0.312,-0.158 0.763,-0.359 1.334,-0.435 l 0.071,0 c 0.306,0 0.658,0.076 1.12,0.205 l 0.05,0.021 c 0.232,0.106 0.419,0.067 2.589,0.425 0.248,-0.921 0.403,-2.477 0.479,-4.664 l 0,-2.184 c 0,-2.039 -0.152,-2.729 -0.231,-2.955 -0.126,0 -0.377,0.049 -0.836,0.153 -1.146,0.278 -2.323,0.915 -2.194,0.411 0.044,-0.259 0.77,-0.899 1.327,-1.607 0.43,-0.563 0.714,-0.898 1.042,-1.507 0.334,-0.607 0.487,-1.147 1.022,-0.971 0.507,0.177 1.172,0.668 1.658,1.303 0.278,0.405 0.507,0.89 0.558,1.402 0.05,0.762 -0.28,1.936 -0.334,2.91 -0.102,1.165 -0.102,3.657 -0.102,4.086 l 0,1.175 c 0,0.407 0.076,0.691 0.179,1.123 0.076,0.178 0.158,0.355 0.158,0.536 0,0.123 -0.034,0.251 -0.082,0.352 -0.076,0.284 -0.279,0.538 -0.589,0.769 1.104,0.122 2.433,0.448 3.504,0.448 0.77,0.024 1.487,0.047 1.817,0.047 0.307,0 1.251,0 1.454,0.356 0.329,0.512 -0.081,1.146 -0.843,1.679 -0.566,0.385 -1.486,0.64 -2.575,0.385 -0.152,-0.024 -0.937,-0.28 -1.45,-0.434 -0.61,-0.23 -4.206,-1.067 -8.61,-1.808 -0.179,-0.02 -0.358,-0.05 -0.516,-0.076 -0.277,-0.054 -0.505,-0.102 -0.582,-0.278 m 3.085,-2.929 c -0.45,-0.951 -1.345,-2.103 -2.544,-3.455 -1.575,-1.779 -1.108,-4.912 0.671,-3.453 1.664,1.367 2.407,4.751 1.873,6.908 m 0.054,7.263 c 0.28,-0.187 0.942,-0.598 2.229,-0.301 0.894,0.184 5.333,1.311 5.656,1.608 0,0 0.165,0.095 0.203,0.227 0.05,0.279 -0.526,0.741 -0.708,0.874 -0.689,0.509 -1.584,0.37 -1.814,0.299 -0.228,-0.045 -0.505,-0.16 -1.054,-0.367 l -0.025,-0.022 c -0.481,-0.231 -2.464,-0.872 -3.819,-1.22 -0.58,-0.136 -1.125,-0.184 -1.125,-0.412 -0.019,-0.275 0.18,-0.481 0.457,-0.686 m 10.122,-9.542 c -1.316,1.146 -2.846,1.963 -4.119,2.599 0,0 1.269,-3.496 2.543,-5.424 0.899,-1.361 2.144,-1.433 2.744,-0.702 0.68,0.83 0.186,2.353 -1.168,3.527 M 54.904,18.414 c -0.559,0.398 -0.9,0.694 -1.798,0.574 -0.394,-0.052 -1.729,-0.256 -3.36,-0.472 -0.047,0.945 -0.049,2.688 -0.046,3.659 0.261,0.04 0.488,0.073 0.66,0.095 0.193,0.025 0.404,0.051 0.622,0.081 -0.002,-0.022 -0.002,-0.038 -0.002,-0.038 -0.036,-0.566 0.085,-2.143 1.146,-2.511 0.98,-0.339 1.359,0.554 1.282,1.179 -0.095,0.741 -1.063,1.262 -1.818,1.458 0.091,0.013 0.177,0.024 0.267,0.04 0,0 1.376,0.125 1.513,0.283 0.137,0.161 -0.056,0.465 -0.279,0.666 -0.262,0.257 -0.637,0.512 -1.192,0.51 l -0.023,0 c -0.311,-0.017 -0.828,-0.099 -1.529,-0.249 -0.028,-0.007 -0.271,-0.062 -0.638,-0.145 10e-4,0.134 10e-4,0.26 0.002,0.358 0.002,0.369 0.071,0.631 0.169,1.018 0.071,0.161 0.146,0.325 0.147,0.488 10e-4,0.113 -0.031,0.228 -0.073,0.322 -0.032,0.123 -0.097,0.242 -0.184,0.355 0.274,0.04 0.512,0.074 0.694,0.096 0.475,0.058 1.034,0.123 1.601,0.214 0,0 1.474,0.125 1.621,0.297 0.15,0.17 -0.058,0.494 -0.295,0.712 -0.279,0.276 -0.677,0.551 -1.274,0.551 l -0.022,0 C 51.76,27.938 51.208,27.856 50.456,27.7 c -0.119,-0.022 -3.773,-0.872 -5.442,-1.001 -0.766,-0.058 -1.044,-0.066 -1.043,-0.27 0.002,-0.089 0.238,-0.453 0.615,-0.68 0.442,-0.266 0.841,-0.359 1.319,-0.283 0.337,0.056 1.002,0.165 1.736,0.285 0.125,-0.633 0.215,-1.498 0.272,-2.592 -0.951,-0.192 -1.973,-0.374 -2.649,-0.43 -0.717,-0.057 -0.975,-0.068 -0.971,-0.257 0.003,-0.086 0.222,-0.423 0.576,-0.632 0.415,-0.249 0.788,-0.333 1.235,-0.258 0.35,0.058 1.08,0.182 1.858,0.313 0,-0.183 -0.001,-0.364 -0.005,-0.547 -10e-4,-0.359 -0.017,-2.205 -0.033,-3.06 -1.624,-0.193 -3.311,-0.355 -4.557,-0.378 -0.906,-0.015 -1.174,-0.094 -1.178,-0.283 -10e-4,-0.134 0.218,-0.492 0.607,-0.754 0.389,-0.265 0.919,-0.488 1.577,-0.403 1.073,0.14 3.379,0.556 5.858,0.665 2.194,0.102 3.016,0.09 3.832,0.067 0.814,-0.022 1.308,0.049 1.423,0.283 0.13,0.266 -0.113,0.588 -0.582,0.929 m 15.207,2.882 C 69.635,21.27 68.49,22.369 67.209,23 c -0.001,-0.24 -0.002,-0.48 -0.002,-0.727 0,-4.321 0.278,-8.116 0.129,-9.513 -0.121,-1.13 -0.436,-2.423 -1.041,-2.423 -0.541,0 -0.911,1.057 -1.203,2.364 -0.297,1.331 0.39,2.092 0.39,3.568 0,2.822 0.168,7.806 -0.146,10.498 -0.108,0.913 -0.317,2.17 -0.656,2.956 -0.161,0.319 -0.113,0.567 0.062,0.715 0.579,0.495 1.542,-0.109 2.308,-0.077 1.423,0.062 2.258,1.069 2.59,1.069 0.494,0 2.342,-0.907 2.529,-1.602 0.068,-0.255 -0.257,-0.598 -0.786,-1.025 -0.98,-0.791 -1.546,-1.433 -1.562,-2.31 -0.027,-1.376 1.783,-2.702 1.545,-4.003 -0.114,-0.62 -0.572,-1.157 -1.255,-1.194 m -1.297,2.461 c -0.023,0.112 -0.389,1.639 -0.389,2.731 0,1.092 -0.092,1.424 0.186,2.472 L 67.33,28.738 c -0.052,-1.263 -0.098,-3.008 -0.115,-5.032 0.391,-0.058 1.174,-0.16 1.438,-0.201 0.088,-0.014 0.212,0.052 0.161,0.252 m -10.637,5.577 c -0.463,-0.681 -0.402,-0.855 -0.402,-1.997 0,-1.918 0.03,-3.7 0.095,-6.108 0.204,-3.692 0.31,-7.03 0.209,-8.274 -0.1,-1.248 -0.888,-2.872 -1.459,-2.872 -0.767,0 -1.673,1.787 -1.917,2.312 -0.199,0.428 -0.419,0.767 -0.541,0.862 -6.068,0 -9.883,0.018 -12.15,-0.08 -0.027,-1.319 -0.36,-2.157 -0.869,-2.157 -0.73,0 -1.482,1.769 -1.349,3.523 0.154,2.001 0.44,2.803 0.428,5.593 -0.01,1.842 0.059,6.483 -0.077,7.94 -0.137,1.458 -0.537,1.811 -0.77,2.177 -0.228,0.365 -0.247,0.627 -0.191,0.807 0.046,0.154 0.311,0.288 0.643,0.283 0.392,-0.003 1.015,-0.209 1.739,-0.561 5.92,0.423 10.861,0.809 12.985,1.368 0.372,0.097 1.35,0.536 1.469,0.552 0.828,0.106 1.19,-0.737 2.506,-1.749 0.288,-0.221 0.403,-0.501 -0.349,-1.619 m -2.314,-6.278 c -0.159,5.47 -0.401,6.578 -0.694,6.888 -0.291,0.31 -0.139,0.341 -1.025,0.341 -1.935,0 -6.935,-0.36 -12.174,-1.032 L 42,14.659 c 2.709,0.132 5.659,0.355 9.687,0.585 1.548,0.088 2.613,0.107 2.866,0.095 0.351,-0.016 0.536,-0.329 0.909,-0.588 0.327,1.145 0.463,3.933 0.401,8.305 M 37.146,7.625 c 0.685,-0.399 1.129,0.103 0.49,0.675 -0.005,0.007 -0.007,0.012 -0.01,0.016 -3.65,3.106 -5.99,7.88 -5.99,13.24 0,5.358 2.34,10.133 5.99,13.239 0.003,0.004 0.004,0.009 0.01,0.015 0.639,0.572 0.197,1.076 -0.489,0.676 -4.761,-3.06 -7.879,-8.156 -7.879,-13.93 0,-5.774 3.118,-10.869 7.878,-13.931 m 48.692,27.17 c 3.65,-3.106 5.989,-7.881 5.989,-13.239 0,-5.36 -2.34,-10.134 -5.989,-13.24 C 85.832,8.312 85.83,8.307 85.827,8.3 85.188,7.728 85.632,7.226 86.316,7.625 c 4.761,3.062 7.879,8.157 7.879,13.931 0,5.774 -3.12,10.87 -7.879,13.93 -0.684,0.4 -1.128,-0.104 -0.489,-0.676 0.003,-0.006 0.005,-0.011 0.011,-0.015"
         style="fill:#1d4e9e;fill-opacity:1;fill-rule:nonzero;stroke:none"
         id="path3043"
         inkscape:connector-curvature="0" />
    </g>
  </g>
</svg>
