<?xml version="1.0" encoding="UTF-8" standalone="no"?>
<!-- Created with Inkscape (http://www.inkscape.org/) -->

<svg
   xmlns:dc="http://purl.org/dc/elements/1.1/"
   xmlns:cc="http://creativecommons.org/ns#"
   xmlns:rdf="http://www.w3.org/1999/02/22-rdf-syntax-ns#"
   xmlns:svg="http://www.w3.org/2000/svg"
   xmlns="http://www.w3.org/2000/svg"
   xmlns:sodipodi="http://sodipodi.sourceforge.net/DTD/sodipodi-0.dtd"
   xmlns:inkscape="http://www.inkscape.org/namespaces/inkscape"
   width="209.40558"
   height="39.850967"
   id="svg2"
   version="1.1"
   inkscape:version="0.48.4 r9939"
   sodipodi:docname="icbc.svg">
  <defs
     id="defs4">
    <inkscape:perspective
       sodipodi:type="inkscape:persp3d"
       inkscape:vp_x="0 : 526.18109 : 1"
       inkscape:vp_y="0 : 1000 : 0"
       inkscape:vp_z="744.09448 : 526.18109 : 1"
       inkscape:persp3d-origin="372.04724 : 350.78739 : 1"
       id="perspective10" />
    <clipPath
       id="clipPath3048"
       clipPathUnits="userSpaceOnUse">
      <path
         id="path3050"
         d="m 1082.2,512.557 -5.79,0 0,1.881 3.1,-0.027 0,5.895 2.69,0.011 0,-1.856 -0.76,0 0,-4.05 0.76,0 0,-1.854 m -4.64,5.976 -1.57,1.278 c 2.27,2.025 3.69,4.743 4.62,8.298 l 1.59,-0.765 0,-0.153 c -0.11,-0.809 -0.34,-1.409 -0.46,-1.809 l 0.46,0 0,-1.854 -1.19,0 c -0.79,-1.62 -1.75,-3.42 -3.45,-4.995"
         inkscape:connector-curvature="0" />
    </clipPath>
    <clipPath
       id="clipPath3036"
       clipPathUnits="userSpaceOnUse">
      <path
         id="path3038"
         d="m 1082.2,495.493 -11.31,0 0,36.999 11.31,0 0,-5.148 -1.59,0.765 c -0.93,-3.555 -2.35,-6.273 -4.62,-8.298 l 1.57,-1.278 c 1.7,1.575 2.66,3.375 3.45,4.995 l 1.19,0 0,-3.211 -2.69,-0.011 0,-5.895 -3.1,0.027 0,-1.881 5.79,0 0,-17.064 m 0,18.918 -0.76,0 0,4.05 0.76,0 0,-4.05 m 0,10.971 -0.46,0 c 0.12,0.4 0.35,1 0.46,1.809 l 0,-1.809"
         inkscape:connector-curvature="0" />
    </clipPath>
    <clipPath
       id="clipPath3024"
       clipPathUnits="userSpaceOnUse">
      <path
         id="path3026"
         d="m 1082.2,475.081 -158.998,0 0,93.996 158.998,0 0,-36.585 -11.31,0 0,-36.999 11.31,0 0,-20.412"
         inkscape:connector-curvature="0" />
    </clipPath>
    <clipPath
       id="clipPath2996"
       clipPathUnits="userSpaceOnUse">
      <path
         id="path2998"
         d="m 1185.89,495.493 -103.69,0 0,17.064 3.97,0 0,-7.173 1.97,0 0,7.2 8.62,-0.027 0,1.854 -8.62,0 0,4.05 6.37,0 0,1.845 -6.37,0 -0.03,3.204 7.62,0.045 0,1.827 -13.53,0 0,1.809 c 0,0.047 0.01,0.095 0.01,0.144 l -0.01,0.009 0,5.148 103.69,0 0,-36.999 m -99.75,18.918 -3.94,0 0,4.05 3.97,0 -0.03,-4.05 m -3.94,5.906 0,3.211 3.97,0 0,-3.195 -3.97,-0.016"
         inkscape:connector-curvature="0" />
    </clipPath>
    <clipPath
       id="clipPath2852"
       clipPathUnits="userSpaceOnUse">
      <path
         id="path2854"
         d="m 0,807.874 1240.08,0 L 1240.08,0 0,0 0,807.874 z"
         inkscape:connector-curvature="0" />
    </clipPath>
    <clipPath
       id="clipPath2838"
       clipPathUnits="userSpaceOnUse">
      <path
         id="path2840"
         d="m 627.138,807.874 612.942,0 0,-807.874 -612.942,0 0,807.874 z"
         inkscape:connector-curvature="0" />
    </clipPath>
    <clipPath
       id="clipPath2832"
       clipPathUnits="userSpaceOnUse">
      <path
         id="path2834"
         d="m 1240.16,-0.001953 -613.022,0 0,807.875953 613.022,0 0,-807.875953 M 923.202,569.077 l 0,-93.996 158.998,0 0,20.412 103.69,0 0,36.999 -103.69,0 0,36.585 -158.998,0"
         inkscape:connector-curvature="0" />
    </clipPath>
    <inkscape:perspective
       id="perspective2824"
       inkscape:persp3d-origin="0.5 : 0.33333333 : 1"
       inkscape:vp_z="1 : 0.5 : 1"
       inkscape:vp_y="0 : 1000 : 0"
       inkscape:vp_x="0 : 0.5 : 1"
       sodipodi:type="inkscape:persp3d" />
    <inkscape:perspective
       id="perspective5220"
       inkscape:persp3d-origin="0.5 : 0.33333333 : 1"
       inkscape:vp_z="1 : 0.5 : 1"
       inkscape:vp_y="0 : 1000 : 0"
       inkscape:vp_x="0 : 0.5 : 1"
       sodipodi:type="inkscape:persp3d" />
    <inkscape:perspective
       id="perspective5253"
       inkscape:persp3d-origin="0.5 : 0.33333333 : 1"
       inkscape:vp_z="1 : 0.5 : 1"
       inkscape:vp_y="0 : 1000 : 0"
       inkscape:vp_x="0 : 0.5 : 1"
       sodipodi:type="inkscape:persp3d" />
    <inkscape:perspective
       id="perspective3683"
       inkscape:persp3d-origin="0.5 : 0.33333333 : 1"
       inkscape:vp_z="1 : 0.5 : 1"
       inkscape:vp_y="0 : 1000 : 0"
       inkscape:vp_x="0 : 0.5 : 1"
       sodipodi:type="inkscape:persp3d" />
    <inkscape:perspective
       id="perspective3792"
       inkscape:persp3d-origin="0.5 : 0.33333333 : 1"
       inkscape:vp_z="1 : 0.5 : 1"
       inkscape:vp_y="0 : 1000 : 0"
       inkscape:vp_x="0 : 0.5 : 1"
       sodipodi:type="inkscape:persp3d" />
    <inkscape:perspective
       id="perspective3076"
       inkscape:persp3d-origin="0.5 : 0.33333333 : 1"
       inkscape:vp_z="1 : 0.5 : 1"
       inkscape:vp_y="0 : 1000 : 0"
       inkscape:vp_x="0 : 0.5 : 1"
       sodipodi:type="inkscape:persp3d" />
    <inkscape:perspective
       id="perspective3097"
       inkscape:persp3d-origin="0.5 : 0.33333333 : 1"
       inkscape:vp_z="1 : 0.5 : 1"
       inkscape:vp_y="0 : 1000 : 0"
       inkscape:vp_x="0 : 0.5 : 1"
       sodipodi:type="inkscape:persp3d" />
  </defs>
  <sodipodi:namedview
     id="base"
     pagecolor="#ffffff"
     bordercolor="#666666"
     borderopacity="1.0"
     inkscape:pageopacity="0.0"
     inkscape:pageshadow="2"
     inkscape:zoom="2.7812872"
     inkscape:cx="83.320408"
     inkscape:cy="1.354534"
     inkscape:document-units="px"
     inkscape:current-layer="layer1"
     showgrid="false"
     inkscape:window-width="1280"
     inkscape:window-height="743"
     inkscape:window-x="0"
     inkscape:window-y="0"
     inkscape:window-maximized="1"
     fit-margin-top="0"
     fit-margin-left="0"
     fit-margin-right="0"
     fit-margin-bottom="0" />
  <metadata
     id="metadata7">
    <rdf:RDF>
      <cc:Work
         rdf:about="">
        <dc:format>image/svg+xml</dc:format>
        <dc:type
           rdf:resource="http://purl.org/dc/dcmitype/StillImage" />
        <dc:title />
      </cc:Work>
    </rdf:RDF>
  </metadata>
  <g
     inkscape:label="Layer 1"
     inkscape:groupmode="layer"
     id="layer1"
     transform="translate(1091.1062,-512.67029)">
    <path
       d="m -1040.1876,529.61637 4.5683,0 0,6.81066 3.7431,0 0,-6.81066 4.418,0 0,1.13699 3.7436,0 0,-12.71285 0,-0.18094 0,-0.17952 0,-0.18094 0,-0.17623 -0.1644,0 -0.1819,0 -0.2078,0 -0.196,0 -7.4115,0 0,-3.19093 0.075,-0.0745 0.074,-0.073 0.017,-0.0348 0.043,-0.0462 0.015,-0.0575 0.03,-0.0745 -0.03,-0.0458 -0.031,-0.0749 -0.027,-0.041 -0.032,-0.0188 -0.044,-0.0283 -0.076,-0.0311 -3.7573,-0.12063 0,3.91187 -7.4284,0 -0.2088,0 -0.196,0 -0.1786,0 -0.1639,0 0,0.20779 0,0.18142 0,0.17905 0,0.14936 0,12.71286 3.6074,0 0,-1.137 m 8.3114,-3.47318 0,-5.12377 4.0872,0 0.1644,0 0.1664,0 0,0.16633 0,0.11591 0,4.84153 -4.418,0 m -8.3114,0 0,-4.84153 0,-0.10178 0,-0.18046 0.1353,0 0.1644,0 4.2686,0 0,5.12377 -4.5683,0 m 38.5443,1.73024 0.9132,-0.55178 -0.3426,-0.44858 -0.3459,-0.44763 -0.2247,-0.24125 -0.1942,-0.23795 -0.2106,-0.22195 -0.2375,-0.22758 -1.9182,0 -1.0187,0.61491 0.3755,0.32796 0.4331,0.40616 0.2252,0.22147 0.2403,0.24078 0.2398,0.28507 0.2253,0.28037 -1.9645,0 0,-2.37672 3.8507,0 0,-2.59063 -3.8507,0 0,-1.67463 4.3426,0 0,-2.61042 -11.4552,0 0,2.61042 4.2685,0 0,1.67463 -3.6541,0 0,2.59063 3.6541,0 0,2.37672 -4.5673,0 0,3.14899 12.1757,0 0,-3.14899 -0.9598,0 m -12.0094,7.1777 13.5229,0 0,0.93109 3.29408,0 0,-20.65484 0,-0.17953 0,-0.19319 0,-0.14938 0,-0.16632 -0.16633,0 -0.17952,0 -0.16539,0 -0.20827,0 -18.46377,0 -0.238,0 -0.1955,0 -0.1668,0 -0.1183,0 0,0.18141 0,0.16539 0,0.18188 0,0.15974 0,20.65484 3.0849,0 0,-0.93109 m 0,-3.33747 0,-14.04822 0,0.0466 0,0.0278 0,-0.0278 0.09,0 0.1347,0 12.9824,0 0.1343,0 0.1814,0 0,0.14748 0,0.10791 0,13.74618 -13.5228,0 m 32.10391,-0.2455 -8.27985,0 0,3.68475 20.48474,0 0,-3.68475 -8.17524,0 0,-12.56018 7.14144,0 0,-3.66777 -18.88173,0 0,3.66777 7.71064,0 0,12.56018 m 31.76044,1.48332 -1.78112,0 0.0452,1.00648 0.0753,0.10366 0.0736,0.11874 0.0452,0.10837 0.0452,0.10179 0.0735,0.22712 0.0622,0.20544 0.0584,0.45235 0.032,0.45045 3.03921,0 0.25256,-0.0179 0.22523,-0.0283 0.2111,-0.048 0.19225,-0.0698 0.18187,-0.0603 0.17812,-0.10932 0.1357,-0.0999 0.11969,-0.13947 0.11967,-0.13571 0.10368,-0.15926 0.0753,-0.18189 0.0594,-0.19224 0.0754,-0.2111 0.0293,-0.2111 0,-0.23936 0.017,-0.25633 0,-13.02573 -0.94427,0.0726 -1.10825,0 -2.38049,0 0.10556,-0.32795 0.12063,-0.29827 0.11685,-0.30202 0.12251,-0.29498 0.0886,-0.27329 0.1046,-0.2667 0.0594,-0.28224 0.0904,-0.28696 4.77604,0 0,-2.77299 -8.74444,0 -0.0293,-1.32971 0.0585,-0.16633 0.0301,-0.16539 0,-0.0556 -0.0151,-0.0335 -0.015,-0.0311 -0.0433,-0.0433 -0.0613,-0.0457 -0.0735,-0.0269 -0.0904,-0.0316 -0.10554,-0.0306 -3.4124,-0.0458 -0.0462,2.0054 -8.52204,0 0,2.77299 4.40473,0 0.22429,0.42172 0.17906,0.35482 0.15078,0.29966 0.13382,0.25399 0.12062,0.24125 0.10461,0.23889 0.11968,0.25445 0.12062,0.26763 -4.74681,0 0.0293,0.75344 0,1.01684 0,13.38431 3.01,0 0,-12.47018 13.16331,0 0.0293,8.80287 -0.015,0.10601 0,0.10414 -0.0141,0.0881 -0.032,0.0811 -0.0293,0.0674 -0.0443,0.0801 -0.032,0.0584 -0.0584,0.0636 -0.0584,0.0255 -0.0764,0.0458 -0.0594,0.0466 -0.0754,0.0255 -0.10554,0.017 -0.0753,0.033 -0.10554,0.01 -0.0886,0 m -7.0551,-12.33885 -0.0584,-0.16256 -0.0584,-0.16539 -0.10554,-0.14749 -0.0753,-0.15078 -0.17906,-0.30204 -0.17905,-0.29497 -0.17905,-0.27329 -0.16586,-0.2667 -0.0753,-0.14748 -0.0594,-0.13476 -0.0613,-0.15409 -0.0433,-0.13287 4.80712,-0.0458 -0.0904,0.26765 -0.11968,0.27329 -0.12062,0.28131 -0.11875,0.28695 -0.14983,0.28649 -0.13477,0.32936 -0.14983,0.31241 -0.11969,0.34067 -2.5633,0 m 2.60853,13.22268 2.68016,0.017 -0.015,-6.31779 -1.97526,-1.40793 -0.53904,0 -2.95157,0 -3.45858,0 0.0151,2.33572 -0.0151,5.37304 2.47095,0 0.0301,-0.4467 3.74223,0 0.0161,0.4467 m -0.0161,-2.95959 -3.74223,0 0,-2.35456 3.74223,0 0,2.35456 m -0.8962,-5.76648 0.2224,0.11921 0.24031,0.13335 0.25161,0.16162 0.27235,0.16727 0.56827,0.37412 0.58616,0.46744 0.64271,0.44857 0.63046,0.47638 0.64177,0.46555 0.61444,0.44762 1.55777,-1.27033 0,-0.88349 -0.50983,-0.45283 -0.50889,-0.41841 -0.49476,-0.40241 -0.47968,-0.36234 -0.25256,-0.1932 -0.25632,-0.1602 -0.25256,-0.18141 -0.25539,-0.13854 -0.2554,-0.16255 -0.28365,-0.1654 -0.28555,-0.13287 -0.26763,-0.14937 -0.86983,0 -1.2562,1.81222 m -3.23618,-1.81222 -0.37319,0.25539 -0.36187,0.28225 -0.40335,0.27046 -0.43349,0.28224 -0.47874,0.26953 -0.50889,0.29874 -0.57014,0.30015 -0.6135,0.33361 0.0301,1.55776 0.77841,1.31512 0.22334,-0.10461 0.2865,-0.13476 0.13287,-0.0636 0.0904,-0.0415 0.0603,-0.0424 0.0452,-0.034 0,-1.91494 2.97984,0 0.0886,-0.015 0.0904,-0.0316 0.10555,-0.015 0.0886,-0.0613 0.19601,-0.14749 0.20733,-0.16538 0.39015,-0.36047 0.32984,-0.28225 -1.3316,-1.75096 -1.04888,0 m 24.4701,-4.42075 4.38589,0.0316 0,-2.63305 -4.08809,0 0.14889,-0.34632 0.15079,-0.28554 0.13383,-0.23655 0.10554,-0.17952 0.10555,-0.13948 0.0886,-0.10177 0.0904,-0.0603 0.0735,-0.0588 0.11967,-0.074 0.13665,-0.0924 0.0594,-0.0273 0.0594,-0.0933 0.0753,-0.10319 0.0904,-0.12063 -2.95156,-1.15254 -0.34303,0.70019 -0.2865,0.57298 -0.23747,0.44905 -0.19602,0.40193 -0.19319,0.34726 -0.21015,0.36048 -0.22618,0.38638 -0.28366,0.44763 -0.29873,0.43679 -0.29969,0.43398 -0.34491,0.4481 -0.37507,0.45282 -0.40334,0.47544 -0.41843,0.51407 -0.46554,0.52162 -0.47873,0.53904 2.03556,1.94557 0.24125,-0.31476 0.23937,-0.35859 0.26953,-0.34773 0.22429,-0.34256 -0.0151,1.67887 1.5851,0 0,1.79808 -2.6613,0 0,3.23335 2.6613,0 0,4.34347 -1.97336,0.8684 0.62763,2.77017 7.2762,-2.87995 -1.29956,-2.4243 -1.34761,0.64366 0.0433,-3.32145 2.35126,0 0,-3.23335 -2.35126,0 0,-1.79808 2.03556,0 0,-2.43938 -6.12365,0.0415 0.2111,-0.23654 0.16397,-0.22664 0.13382,-0.17906 0.12063,-0.19554 0.11874,-0.18 0.16586,-0.17953 0.17905,-0.2403 0.22523,-0.23985 0.16304,0 0.40523,0.0198 0.21014,0 0.17906,0 0.13477,0 0.0471,-0.0198 m 13.92382,11.08535 0.50984,-0.36141 0.38921,-0.30298 0.34396,-0.23654 0.26858,-0.22381 0.27236,-0.22665 0.25445,-0.22288 0.2846,-0.26952 0.34303,-0.3289 -1.54176,-1.96346 -0.27141,0.28601 -0.2092,0.22476 -0.19413,0.20826 -0.17906,0.22383 -0.22617,0.2125 -0.2846,0.23985 -0.35906,0.26763 -0.49287,0.36 -0.18093,-0.34633 -0.12063,-0.2078 -0.10366,-0.16586 -0.0753,-0.14749 -0.0904,-0.19601 -0.0876,-0.24032 -0.0764,-0.36045 -0.10461,-0.53388 3.29366,0 0,-0.97678 0,-2.2311 0,-7.90431 -1.42301,0 -1.00082,0 -7.9076,0 0,0.95558 0,0.98904 0,11.05189 0,1.76274 0,3.85155 -1.52856,0.77888 1.21475,2.5765 6.81254,-2.75366 -0.83779,-2.99727 -2.62173,1.82588 -0.0283,-6.92894 0.97254,-0.0608 0.11969,0.59465 0.12063,0.54139 0.13475,0.49524 0.11686,0.43349 0.15172,0.42126 0.11969,0.35339 0.13477,0.34491 0.12062,0.30299 0.14983,0.28225 0.13382,0.27329 0.13571,0.26998 0.13382,0.23514 0.29968,0.48108 0.32983,0.52162 0.19413,0.28648 0.2243,0.29874 0.22617,0.31617 0.22429,0.28507 0.49288,0.59513 0.50983,0.60077 0.5692,0.62764 0.5692,0.63233 0.58334,0.6267 0.61443,0.68983 2.45494,-2.73671 -0.64272,-0.45329 -0.5692,-0.40428 -0.2846,-0.20685 -0.26952,-0.21392 -0.24031,-0.19413 -0.24032,-0.19368 -0.22239,-0.21014 -0.22523,-0.19413 -0.2111,-0.19415 -0.20827,-0.22193 -0.19602,-0.21485 -0.19318,-0.22759 -0.19508,-0.23654 -0.18,-0.23513 m -1.06207,-8.58094 0,1.57097 -4.89666,0 0,-1.57097 4.89666,0 m -4.89666,-2.63916 0,-1.66332 4.89666,0 0,1.66332 -4.89666,0 m 21.57697,-4.46316 -0.28461,0.42172 -0.33077,0.46742 -0.35717,0.44575 -0.39015,0.43586 -0.38921,0.41795 -0.40428,0.39015 -0.37507,0.36046 -0.37414,0.32796 -0.29873,0.24031 -0.26952,0.2271 -0.29969,0.19368 -0.29779,0.20637 -0.31665,0.20781 -0.3449,0.18235 -0.37319,0.21157 -0.40523,0.22098 0.94239,3.04015 0.37695,-0.17811 0.37319,-0.22381 0.40334,-0.24079 0.42031,-0.25256 0.42031,-0.30062 0.41842,-0.3011 0.22523,-0.16632 0.20827,-0.17859 0.19601,-0.16209 0.20827,-0.19413 0.36,-0.33219 0.42124,-0.3435 0.44858,-0.37414 0.46271,-0.38732 0.47968,-0.43396 0.46366,-0.45235 0.23937,-0.22383 0.22617,-0.25256 0.22523,-0.24078 0.19319,-0.25256 0.0293,-0.0353 0.0443,-0.0117 0.0462,-0.0151 0.0443,0 0.12063,0 0.0886,0 0.0452,0 0.032,-0.0188 0.0301,-0.0269 0.0283,-0.0462 0,-0.041 -0.0283,-0.0783 -0.0301,-0.09 -0.0631,-0.09 -2.58874,-2.05299 m -2.51619,13.062 0,8.78402 3.27952,0 0,-11.97684 0.34303,-0.40287 0.39015,-0.44763 0.43538,-0.49288 0.46272,-0.54093 0.4514,-0.52209 0.4335,-0.5414 0.19603,-0.28554 0.22239,-0.25445 0.18095,-0.25538 0.16397,-0.25257 -2.06666,-1.96394 -0.17906,0.25491 -0.16397,0.28602 -0.19602,0.2667 -0.20827,0.27188 -0.38921,0.52208 -0.42125,0.49523 -0.41841,0.49428 -0.44859,0.46696 -0.40522,0.44905 -0.40335,0.43349 -0.37507,0.41701 -0.44857,0.45235 -0.50889,0.50748 -0.53905,0.50701 -0.57015,0.49569 -0.55412,0.48062 -0.28367,0.23984 -0.25538,0.19507 -0.26859,0.19367 -0.25444,0.19224 0.76334,3.13345 0.29874,-0.17717 0.25444,-0.18612 0.22524,-0.1635 0.19413,-0.16444 0.22523,-0.17624 0.2403,-0.21015 0.26953,-0.24267 0.32795,-0.28224 m 6.27538,-12.48857 0,3.20084 11.20031,0 0,-3.20084 -11.20031,0 m 2.75462,17.98082 0.31475,0.66062 0.23936,0.56825 0.0904,0.24125 0.0622,0.20639 0.0735,0.19225 0.0452,0.19413 0.0273,0.18565 0.0301,0.17717 0.017,0.16775 0,0.1602 -0.017,0.18094 -0.0123,0.19791 -0.032,0.19318 -0.0463,0.21204 2.20143,0 0.27235,0 0.26858,-0.0179 0.26763,-0.0424 0.27142,-0.05 0.27047,-0.0424 0.25444,-0.0933 0.25256,-0.0838 0.22807,-0.0924 0.2224,-0.13382 0.19601,-0.13476 0.0867,-0.0603 0.0914,-0.0876 0.0744,-0.0811 0.0773,-0.0829 0.0565,-0.0923 0.0631,-0.10178 0.0575,-0.10932 0.0293,-0.10178 0.0311,-0.10461 0.0301,-0.12157 0.0161,-0.11873 0.0123,-0.13383 0.0621,-9.81028 3.11555,0 0,-3.02508 -12.87872,0 0,3.02508 6.60051,0 0,7.32567 0,0.1602 -0.0113,0.15079 -0.018,0.10177 0,0.12205 -0.0293,0.0801 -0.015,0.0594 -0.0462,0.0533 -0.0443,0.0476 -0.0594,0.0123 -0.0433,0.0208 -0.0754,0.0127 -0.0914,0.0127 -0.17717,0 -0.22618,0 -2.18634,0"
       style="fill:#201e1d;fill-opacity:1;fill-rule:evenodd;stroke:none"
       id="path2828"
       inkscape:connector-curvature="0" />
    <path
       d="m -881.70059,542.14733 -164.30391,0 0,-0.92071 164.30391,0 0,0.92071 z"
       style="fill:#cb0202;fill-opacity:1;fill-rule:evenodd;stroke:none"
       id="path2836"
       inkscape:connector-curvature="0" />
    <path
       d="m -1043.1198,552.13101 0,-4.67425 0.9424,0 0,4.67425 -0.9424,0 z"
       style="fill:#231f20;fill-opacity:1;fill-rule:nonzero;stroke:none"
       id="path2838"
       inkscape:connector-curvature="0" />
    <path
       d="m -1041.269,552.13101 0,-4.67425 0.9123,0 1.9286,3.14382 0,-3.14382 0.8698,0 0,4.67425 -0.9405,0 -1.8999,-3.0835 0,3.0835 -0.8703,0 z"
       style="fill:#231f20;fill-opacity:1;fill-rule:nonzero;stroke:none"
       id="path2840-1"
       inkscape:connector-curvature="0" />
    <path
       d="m -1036.5584,547.45676 1.7246,0 c 0.3896,0 0.686,0.0301 0.89,0.0886 0.2743,0.0811 0.5089,0.22522 0.7049,0.43161 0.1956,0.20638 0.344,0.45799 0.4463,0.75768 0.1017,0.2978 0.1531,0.66721 0.1531,1.10448 0,0.3845 -0.048,0.71622 -0.1437,0.99422 -0.1169,0.34021 -0.2837,0.61539 -0.5009,0.82648 -0.1635,0.15926 -0.3845,0.28366 -0.663,0.37224 -0.2082,0.066 -0.4872,0.0989 -0.8354,0.0989 l -1.7759,0 0,-4.67426 m 0.9419,0.79162 0,3.09198 0.7068,0 c 0.2648,0 0.4556,-0.016 0.5725,-0.0452 0.1541,-0.0378 0.2818,-0.10271 0.3826,-0.19413 0.1018,-0.0914 0.1838,-0.2403 0.2483,-0.45046 0.064,-0.20921 0.096,-0.49475 0.096,-0.85474 0,-0.36188 -0.033,-0.63801 -0.096,-0.8312 -0.064,-0.19413 -0.1536,-0.34302 -0.269,-0.45234 -0.115,-0.10744 -0.2611,-0.18188 -0.4383,-0.21958 -0.1324,-0.0293 -0.391,-0.0443 -0.7774,-0.0443 l -0.4255,0 z"
       style="fill:#231f20;fill-opacity:1;fill-rule:nonzero;stroke:none"
       id="path2842"
       inkscape:connector-curvature="0" />
    <path
       d="m -1031.8488,547.45676 0.9419,0 0,2.53691 c 0,0.4024 0.012,0.66345 0.036,0.78219 0.041,0.19224 0.1371,0.34585 0.2898,0.46177 0.1522,0.11592 0.3614,0.17435 0.6262,0.17435 0.2686,0 0.4717,-0.0546 0.6083,-0.16492 0.1367,-0.10932 0.2191,-0.24408 0.2469,-0.4043 0.027,-0.15926 0.042,-0.42407 0.042,-0.79537 l 0,-2.59063 0.9419,0 0,2.45869 c 0,0.56168 -0.026,0.95842 -0.076,1.19024 -0.051,0.23277 -0.1451,0.42879 -0.2827,0.58806 -0.1371,0.1602 -0.3209,0.28743 -0.5508,0.38167 -0.23,0.0942 -0.5296,0.14229 -0.9,0.14229 -0.4472,0 -0.7864,-0.0509 -1.0173,-0.15455 -0.2309,-0.10366 -0.4132,-0.23748 -0.5475,-0.40334 -0.1343,-0.16398 -0.2224,-0.33738 -0.2649,-0.51832 -0.062,-0.26763 -0.093,-0.66437 -0.093,-1.18741 l 0,-2.49734 z"
       style="fill:#231f20;fill-opacity:1;fill-rule:nonzero;stroke:none"
       id="path2844"
       inkscape:connector-curvature="0" />
    <path
       d="m -1027.3687,550.59964 0.9202,-0.0868 c 0.056,0.31004 0.1678,0.53622 0.3374,0.68135 0.1692,0.14513 0.3972,0.2177 0.6851,0.2177 0.304,0 0.5334,-0.065 0.688,-0.1932 0.1541,-0.12816 0.2313,-0.27894 0.2313,-0.45235 0,-0.11026 -0.033,-0.20544 -0.097,-0.28272 -0.065,-0.0773 -0.1786,-0.14512 -0.3398,-0.20261 -0.1107,-0.0386 -0.3628,-0.10648 -0.7562,-0.2045 -0.5061,-0.12439 -0.8614,-0.278 -1.0659,-0.46177 -0.2869,-0.25632 -0.4307,-0.57109 -0.4307,-0.9405 0,-0.23748 0.067,-0.46083 0.2027,-0.66721 0.1347,-0.20733 0.3293,-0.36565 0.5828,-0.47403 0.254,-0.10837 0.5603,-0.16303 0.9189,-0.16303 0.5866,0 1.0276,0.13004 1.324,0.38826 0.2964,0.25822 0.4519,0.60503 0.4665,1.03663 l -0.9419,0.0358 c -0.041,-0.24031 -0.1272,-0.41276 -0.2601,-0.51831 -0.1329,-0.10555 -0.3327,-0.15832 -0.5989,-0.15832 -0.2742,0 -0.4891,0.0566 -0.6446,0.16962 -0.1004,0.0716 -0.1503,0.16869 -0.1503,0.29026 0,0.10931 0.047,0.2045 0.1409,0.28272 0.1187,0.0999 0.4085,0.20355 0.8679,0.31193 0.4594,0.10838 0.7996,0.22052 1.0202,0.33644 0.22,0.11685 0.3925,0.27517 0.5173,0.47684 0.1244,0.20168 0.1862,0.45046 0.1862,0.74637 0,0.26953 -0.074,0.52021 -0.2234,0.75581 -0.1484,0.2337 -0.3595,0.40899 -0.6319,0.52207 -0.2723,0.11498 -0.6116,0.17153 -1.0178,0.17153 -0.5913,0 -1.046,-0.1376 -1.3627,-0.41371 -0.3171,-0.27519 -0.5065,-0.67759 -0.5682,-1.20438 z"
       style="fill:#231f20;fill-opacity:1;fill-rule:nonzero;stroke:none"
       id="path2846"
       inkscape:connector-curvature="0" />
    <path
       d="m -1021.7101,552.13101 0,-3.88264 -1.3806,0 0,-0.79161 3.7036,0 0,0.79161 -1.3811,0 0,3.88264 -0.9419,0 z"
       style="fill:#231f20;fill-opacity:1;fill-rule:nonzero;stroke:none"
       id="path2848"
       inkscape:connector-curvature="0" />
    <path
       d="m -1018.7699,552.13101 0,-4.67425 1.9805,0 c 0.498,0 0.8594,0.0424 1.0851,0.12628 0.2257,0.0848 0.4067,0.23371 0.5424,0.44858 0.1357,0.21486 0.2035,0.45988 0.2035,0.73695 0,0.35057 -0.1032,0.64082 -0.3081,0.86982 -0.205,0.22901 -0.5113,0.37225 -0.9193,0.43162 0.2031,0.11967 0.3713,0.24974 0.5032,0.39203 0.1329,0.1423 0.311,0.39486 0.5358,0.75862 l 0.5696,0.91035 -1.1285,0 -0.6776,-1.01777 c -0.2417,-0.36188 -0.4071,-0.58994 -0.4966,-0.68418 -0.089,-0.0943 -0.1833,-0.16021 -0.2832,-0.19414 -0.1,-0.0358 -0.2573,-0.0528 -0.474,-0.0528 l -0.1908,0 0,1.94886 -0.942,0 m 0.942,-2.69712 0.6954,0 c 0.451,0 0.7323,-0.0188 0.8439,-0.0566 0.1127,-0.0377 0.2003,-0.1046 0.2639,-0.1979 0.064,-0.0943 0.095,-0.2111 0.095,-0.35057 0,-0.15738 -0.042,-0.2846 -0.1254,-0.38167 -0.083,-0.0971 -0.2016,-0.15738 -0.3538,-0.18376 -0.076,-0.0104 -0.3049,-0.0151 -0.6861,-0.0151 l -0.7332,0 0,1.18552 z"
       style="fill:#231f20;fill-opacity:1;fill-rule:nonzero;stroke:none"
       id="path2850"
       inkscape:connector-curvature="0" />
    <path
       d="m -1014.089,552.13101 0,-4.67425 0.9424,0 0,4.67425 -0.9424,0 z"
       style="fill:#231f20;fill-opacity:1;fill-rule:nonzero;stroke:none"
       id="path2852"
       inkscape:connector-curvature="0" />
    <path
       d="m -1008.0313,552.13101 -1.0263,0 -0.4033,-1.06396 -1.8636,0 -0.385,1.06396 -1.0102,0 1.8042,-4.67425 1.0131,0 1.8711,4.67425 m -1.7373,-1.85461 -0.6465,-1.72646 -0.6239,1.72646 1.2704,0 z"
       style="fill:#231f20;fill-opacity:1;fill-rule:nonzero;stroke:none"
       id="path2854-7"
       inkscape:connector-curvature="0" />
    <path
       d="m -1007.4989,552.13101 0,-4.63845 0.9419,0 0,3.84779 2.3518,0 0,0.79066 -3.2937,0 z"
       style="fill:#231f20;fill-opacity:1;fill-rule:nonzero;stroke:none"
       id="path2856"
       inkscape:connector-curvature="0" />
    <path
       d="m -997.86906,552.13101 -1.02673,0 -0.40334,-1.06396 -1.86407,0 -0.384,1.06396 -1.0107,0 1.8042,-4.67425 1.01258,0 1.87206,4.67425 m -1.73777,-1.85461 -0.64597,-1.72646 -0.6239,1.72646 1.26987,0 z"
       style="fill:#231f20;fill-opacity:1;fill-rule:nonzero;stroke:none"
       id="path2858"
       inkscape:connector-curvature="0" />
    <path
       d="m -997.35876,552.13101 0,-4.67425 0.91177,0 1.9286,3.14382 0,-3.14382 0.87031,0 0,4.67425 -0.94099,0 -1.89986,-3.0835 0,3.0835 -0.86983,0 z"
       style="fill:#231f20;fill-opacity:1;fill-rule:nonzero;stroke:none"
       id="path2860"
       inkscape:connector-curvature="0" />
    <path
       d="m -992.64868,547.45676 1.72552,0 c 0.38873,0 0.68558,0.0301 0.88913,0.0886 0.27424,0.0811 0.5089,0.22522 0.70491,0.43161 0.19602,0.20638 0.34492,0.45799 0.44669,0.75768 0.10178,0.2978 0.15268,0.66721 0.15268,1.10448 0,0.3845 -0.0471,0.71622 -0.14324,0.99422 -0.11686,0.34021 -0.2846,0.61539 -0.50042,0.82648 -0.16303,0.15926 -0.38544,0.28366 -0.66344,0.37224 -0.20827,0.066 -0.48675,0.0989 -0.83543,0.0989 l -1.7764,0 0,-4.67426 m 0.94192,0.79162 0,3.09198 0.70772,0 c 0.26435,0 0.45518,-0.016 0.57251,-0.0452 0.15314,-0.0378 0.28131,-0.10271 0.38308,-0.19413 0.0999,-0.0914 0.18283,-0.2403 0.24691,-0.45046 0.0641,-0.20921 0.0961,-0.49475 0.0961,-0.85474 0,-0.36188 -0.032,-0.63801 -0.0961,-0.8312 -0.0641,-0.19413 -0.15267,-0.34302 -0.26858,-0.45234 -0.11497,-0.10744 -0.26104,-0.18188 -0.43821,-0.21958 -0.13241,-0.0293 -0.39157,-0.0443 -0.77747,-0.0443 l -0.42596,0 z"
       style="fill:#231f20;fill-opacity:1;fill-rule:nonzero;stroke:none"
       id="path2862"
       inkscape:connector-curvature="0" />
    <path
       d="m -983.12442,550.41209 0.91223,0.28083 c -0.13947,0.51267 -0.37318,0.89434 -0.69925,1.14313 -0.32606,0.24974 -0.74071,0.37412 -1.24112,0.37412 -0.62103,0 -1.12993,-0.21203 -1.5295,-0.63705 -0.39958,-0.42408 -0.59936,-1.00459 -0.59936,-1.74154 0,-0.77841 0.19978,-1.38342 0.60124,-1.81504 0.40146,-0.42973 0.9292,-0.64648 1.58415,-0.64648 0.57109,0 1.0357,0.16963 1.39192,0.507 0.21298,0.19979 0.3713,0.48628 0.47873,0.85946 l -0.93484,0.22335 c -0.0565,-0.24219 -0.17152,-0.4335 -0.34681,-0.57392 -0.17528,-0.13947 -0.38826,-0.21014 -0.638,-0.21014 -0.34679,0 -0.62763,0.12533 -0.84344,0.37413 -0.21486,0.24972 -0.32229,0.65401 -0.32229,1.2119 0,0.59183 0.10555,1.01402 0.31853,1.26564 0.21298,0.25161 0.49004,0.3779 0.83023,0.3779 0.25069,0 0.46649,-0.0811 0.64743,-0.23938 0.18094,-0.1602 0.311,-0.41087 0.39015,-0.75391 z"
       style="fill:#231f20;fill-opacity:1;fill-rule:nonzero;stroke:none"
       id="path2864"
       inkscape:connector-curvature="0" />
    <path
       d="m -981.59397,549.82216 c 0,-0.47686 0.0716,-0.87831 0.21486,-1.20061 0.10555,-0.23936 0.25068,-0.45423 0.43539,-0.64271 0.18376,-0.19036 0.38543,-0.33172 0.60501,-0.42313 0.29026,-0.12345 0.62763,-0.18565 1.00836,-0.18565 0.68889,0 1.24018,0.21487 1.65389,0.64271 0.41372,0.42784 0.62104,1.02438 0.62104,1.78771 0,0.75674 -0.20544,1.34856 -0.61633,1.77641 -0.41087,0.42596 -0.95934,0.64082 -1.64635,0.64082 -0.69549,0 -1.24867,-0.21298 -1.65955,-0.63706 -0.41088,-0.42596 -0.61632,-1.01212 -0.61632,-1.75849 m 0.97066,-0.032 c 0,0.53245 0.12346,0.93579 0.36847,1.21002 0.24597,0.27424 0.55696,0.41183 0.93485,0.41183 0.3779,0 0.68795,-0.1357 0.93015,-0.40806 0.24219,-0.27235 0.36375,-0.68134 0.36375,-1.22604 0,-0.53811 -0.11873,-0.93957 -0.35433,-1.20438 -0.2356,-0.26481 -0.54847,-0.39769 -0.93957,-0.39769 -0.39014,0 -0.70491,0.13477 -0.94427,0.4024 -0.23843,0.26858 -0.35905,0.67192 -0.35905,1.21192 z"
       style="fill:#231f20;fill-opacity:1;fill-rule:nonzero;stroke:none"
       id="path2866"
       inkscape:connector-curvature="0" />
    <path
       d="m -976.32602,552.13101 0,-4.67425 1.40983,0 0.84438,3.18905 0.83401,-3.18905 1.41453,0 0,4.67425 -0.87077,0 -0.004,-3.67909 -0.92355,3.67909 -0.91035,0 -0.91977,-3.67909 -0.004,3.67909 -0.87078,0 z"
       style="fill:#231f20;fill-opacity:1;fill-rule:nonzero;stroke:none"
       id="path2868"
       inkscape:connector-curvature="0" />
    <path
       d="m -970.88465,552.13101 0,-4.67425 1.40982,0 0.84532,3.18905 0.83308,-3.18905 1.41453,0 0,4.67425 -0.87077,0 -0.004,-3.67909 -0.92355,3.67909 -0.91035,0 -0.91977,-3.67909 -0.004,3.67909 -0.87078,0 z"
       style="fill:#231f20;fill-opacity:1;fill-rule:nonzero;stroke:none"
       id="path2870"
       inkscape:connector-curvature="0" />
    <path
       d="m -965.4282,552.13101 0,-4.67425 3.46611,0 0,0.79161 -2.52467,0 0,1.03474 2.35126,0 0,0.79161 -2.35126,0 0,1.26563 2.61042,0 0,0.79066 -3.55186,0 z"
       style="fill:#231f20;fill-opacity:1;fill-rule:nonzero;stroke:none"
       id="path2872"
       inkscape:connector-curvature="0" />
    <path
       d="m -961.07153,552.13101 0,-4.67425 1.97996,0 c 0.49757,0 0.85945,0.0424 1.08563,0.12628 0.22617,0.0848 0.40711,0.23371 0.54188,0.44858 0.13571,0.21486 0.20355,0.45988 0.20355,0.73695 0,0.35057 -0.10272,0.64082 -0.30722,0.86982 -0.20544,0.22901 -0.51171,0.37225 -0.92071,0.43162 0.2045,0.11967 0.3713,0.24974 0.50512,0.39203 0.13193,0.1423 0.31098,0.39486 0.53527,0.75862 l 0.56921,0.91035 -1.12805,0 -0.67757,-1.01777 c -0.24219,-0.36188 -0.40711,-0.58994 -0.49665,-0.68418 -0.0896,-0.0943 -0.18376,-0.16021 -0.28365,-0.19414 -0.0999,-0.0358 -0.25822,-0.0528 -0.47402,-0.0528 l -0.1913,0 0,1.94886 -0.94145,0 m 0.94145,-2.69712 0.69548,0 c 0.45046,0 0.73224,-0.0188 0.84438,-0.0566 0.11214,-0.0377 0.19979,-0.1046 0.26387,-0.1979 0.0631,-0.0943 0.0952,-0.2111 0.0952,-0.35057 0,-0.15738 -0.0424,-0.2846 -0.12533,-0.38167 -0.0829,-0.0971 -0.20168,-0.15738 -0.35435,-0.18376 -0.0754,-0.0104 -0.30438,-0.0151 -0.68512,-0.0151 l -0.73411,0 0,1.18552 z"
       style="fill:#231f20;fill-opacity:1;fill-rule:nonzero;stroke:none"
       id="path2874"
       inkscape:connector-curvature="0" />
    <path
       d="m -953.36938,550.41209 0.91224,0.28083 c -0.13947,0.51267 -0.37319,0.89434 -0.69925,1.14313 -0.32607,0.24974 -0.73978,0.37412 -1.24208,0.37412 -0.62009,0 -1.12898,-0.21203 -1.52856,-0.63705 -0.39957,-0.42408 -0.59935,-1.00459 -0.59935,-1.74154 0,-0.77841 0.19978,-1.38342 0.60124,-1.81504 0.40145,-0.42973 0.9292,-0.64648 1.58416,-0.64648 0.57109,0 1.03568,0.16963 1.39191,0.507 0.21297,0.19979 0.3713,0.48628 0.47874,0.85946 l -0.93486,0.22335 c -0.0565,-0.24219 -0.17151,-0.4335 -0.3468,-0.57392 -0.17528,-0.13947 -0.38826,-0.21014 -0.63799,-0.21014 -0.34586,0 -0.6267,0.12533 -0.84345,0.37413 -0.21486,0.24972 -0.3223,0.65401 -0.3223,1.2119 0,0.59183 0.10555,1.01402 0.31853,1.26564 0.21299,0.25161 0.49005,0.3779 0.82931,0.3779 0.25256,0 0.46743,-0.0811 0.64837,-0.23938 0.18093,-0.1602 0.31098,-0.41087 0.39014,-0.75391 z"
       style="fill:#231f20;fill-opacity:1;fill-rule:nonzero;stroke:none"
       id="path2876"
       inkscape:connector-curvature="0" />
    <path
       d="m -951.67308,552.13101 0,-4.67425 0.94239,0 0,4.67425 -0.94239,0 z"
       style="fill:#231f20;fill-opacity:1;fill-rule:nonzero;stroke:none"
       id="path2878"
       inkscape:connector-curvature="0" />
    <path
       d="m -945.61539,552.13101 -1.02627,0 -0.40333,-1.06396 -1.86406,0 -0.38449,1.06396 -1.01024,0 1.80468,-4.67425 1.01213,0 1.87158,4.67425 m -1.73777,-1.85461 -0.64648,-1.72646 -0.62291,1.72646 1.26939,0 z"
       style="fill:#231f20;fill-opacity:1;fill-rule:nonzero;stroke:none"
       id="path2880"
       inkscape:connector-curvature="0" />
    <path
       d="m -945.08389,552.13101 0,-4.63845 0.94239,0 0,3.84779 2.35221,0 0,0.79066 -3.2946,0 z"
       style="fill:#231f20;fill-opacity:1;fill-rule:nonzero;stroke:none"
       id="path2882"
       inkscape:connector-curvature="0" />
    <path
       d="m -939.41823,547.45676 1.86688,0 c 0.36941,0 0.64553,0.015 0.82647,0.0461 0.18094,0.0311 0.34397,0.0951 0.48721,0.19225 0.14325,0.098 0.26294,0.22806 0.35812,0.39015 0.0951,0.16304 0.14325,0.34398 0.14325,0.54565 0,0.21863 -0.0584,0.42031 -0.17624,0.60218 -0.11686,0.18189 -0.27518,0.31948 -0.47497,0.40995 0.28273,0.0829 0.50136,0.22428 0.65308,0.42502 0.15173,0.19978 0.229,0.43443 0.229,0.70584 0,0.21298 -0.05,0.41936 -0.14889,0.62104 -0.098,0.20073 -0.23372,0.36282 -0.40429,0.48156 -0.17058,0.12062 -0.38167,0.19508 -0.63234,0.22335 -0.15644,0.0161 -0.53716,0.0273 -1.13747,0.0311 l -1.58981,0 0,-4.67425 m 0.94239,0.77653 0,1.07903 0.61633,0 c 0.36752,0 0.59558,-0.006 0.68416,-0.0161 0.16209,-0.0188 0.28838,-0.0753 0.38074,-0.1668 0.0924,-0.0924 0.13758,-0.21392 0.13758,-0.36471 0,-0.14324 -0.0396,-0.26198 -0.11873,-0.35151 -0.0791,-0.0896 -0.19791,-0.14418 -0.35435,-0.16303 -0.0943,-0.0113 -0.36188,-0.017 -0.80479,-0.017 l -0.54094,0 m 0,1.85557 0,1.2515 0.87454,0 c 0.34114,0 0.55789,-0.0103 0.64836,-0.0293 0.14136,-0.0245 0.25539,-0.0886 0.34303,-0.1866 0.0886,-0.0989 0.13288,-0.23182 0.13288,-0.39769 0,-0.13947 -0.034,-0.26009 -0.10178,-0.35622 -0.0688,-0.098 -0.1668,-0.17056 -0.29497,-0.21485 -0.13004,-0.0443 -0.40899,-0.0669 -0.83873,-0.0669 l -0.76333,0 z"
       style="fill:#231f20;fill-opacity:1;fill-rule:nonzero;stroke:none"
       id="path2884"
       inkscape:connector-curvature="0" />
    <path
       d="m -930.49379,552.13101 -1.02721,0 -0.4024,-1.06396 -1.86404,0 -0.3845,1.06396 -1.01118,0 1.80466,-4.67425 1.01308,0 1.87159,4.67425 m -1.73778,-1.85461 -0.64647,-1.72646 -0.62386,1.72646 1.27033,0 z"
       style="fill:#231f20;fill-opacity:1;fill-rule:nonzero;stroke:none"
       id="path2886"
       inkscape:connector-curvature="0" />
    <path
       d="m -929.98302,552.13101 0,-4.67425 0.91223,0 1.92813,3.14382 0,-3.14382 0.87077,0 0,4.67425 -0.94238,0 -1.89892,-3.0835 0,3.0835 -0.86983,0 z"
       style="fill:#231f20;fill-opacity:1;fill-rule:nonzero;stroke:none"
       id="path2888"
       inkscape:connector-curvature="0" />
    <path
       d="m -925.26636,552.13101 0,-4.67425 0.9424,0 0,2.07703 1.92342,-2.07703 1.27222,0 -1.77357,1.8207 1.86027,2.85355 -1.22134,0 -1.29295,-2.19387 -0.76805,0.78217 0,1.4117 -0.9424,0 z"
       style="fill:#231f20;fill-opacity:1;fill-rule:nonzero;stroke:none"
       id="path2890"
       inkscape:connector-curvature="0" />
    <path
       d="m -918.93538,549.82216 c 0,-0.47686 0.0716,-0.87831 0.21392,-1.20061 0.10556,-0.23936 0.25069,-0.45423 0.43539,-0.64271 0.18471,-0.19036 0.38638,-0.33172 0.60502,-0.42313 0.29214,-0.12345 0.62763,-0.18565 1.00836,-0.18565 0.68888,0 1.24112,0.21487 1.65483,0.64271 0.41371,0.42784 0.62009,1.02438 0.62009,1.78771 0,0.75674 -0.20543,1.34856 -0.61538,1.77641 -0.41088,0.42596 -0.96029,0.64082 -1.64635,0.64082 -0.69643,0 -1.24961,-0.21298 -1.66049,-0.63706 -0.40994,-0.42596 -0.61539,-1.01212 -0.61539,-1.75849 m 0.97161,-0.032 c 0,0.53245 0.12251,0.93579 0.36754,1.21002 0.24501,0.27424 0.55695,0.41183 0.93485,0.41183 0.37695,0 0.68794,-0.1357 0.92919,-0.40806 0.24314,-0.27235 0.36377,-0.68134 0.36377,-1.22604 0,-0.53811 -0.1178,-0.93957 -0.35435,-1.20438 -0.2356,-0.26481 -0.54847,-0.39769 -0.93861,-0.39769 -0.39016,0 -0.70586,0.13477 -0.94428,0.4024 -0.23938,0.26858 -0.35811,0.67192 -0.35811,1.21192 z"
       style="fill:#231f20;fill-opacity:1;fill-rule:nonzero;stroke:none"
       id="path2892"
       inkscape:connector-curvature="0" />
    <path
       d="m -913.65328,552.13101 0,-4.67425 3.2079,0 0,0.79161 -2.2655,0 0,1.10637 1.9564,0 0,0.7916 -1.9564,0 0,1.98467 -0.9424,0 z"
       style="fill:#231f20;fill-opacity:1;fill-rule:nonzero;stroke:none"
       id="path2894"
       inkscape:connector-curvature="0" />
    <path
       d="m -904.86454,550.41209 0.91411,0.28083 c -0.14041,0.51267 -0.37319,0.89434 -0.69925,1.14313 -0.32607,0.24974 -0.74072,0.37412 -1.24207,0.37412 -0.62009,0 -1.13086,-0.21203 -1.5295,-0.63705 -0.39957,-0.42408 -0.59936,-1.00459 -0.59936,-1.74154 0,-0.77841 0.20073,-1.38342 0.60219,-1.81504 0.40146,-0.42973 0.9292,-0.64648 1.58322,-0.64648 0.57108,0 1.03568,0.16963 1.39285,0.507 0.21203,0.19979 0.3713,0.48628 0.47685,0.85946 l -0.93485,0.22335 c -0.0546,-0.24219 -0.16963,-0.4335 -0.34491,-0.57392 -0.1753,-0.13947 -0.38827,-0.21014 -0.63894,-0.21014 -0.34586,0 -0.6267,0.12533 -0.8425,0.37413 -0.21487,0.24972 -0.32324,0.65401 -0.32324,1.2119 0,0.59183 0.10648,1.01402 0.31946,1.26564 0.21299,0.25161 0.48911,0.3779 0.82931,0.3779 0.25067,0 0.46743,-0.0811 0.64836,-0.23938 0.18094,-0.1602 0.31099,-0.41087 0.38827,-0.75391 z"
       style="fill:#231f20;fill-opacity:1;fill-rule:nonzero;stroke:none"
       id="path2896"
       inkscape:connector-curvature="0" />
    <path
       d="m -903.13054,552.13101 0,-4.67425 0.94239,0 0,1.84144 1.84708,0 0,-1.84144 0.94239,0 0,4.67425 -0.94239,0 0,-2.04216 -1.84708,0 0,2.04216 -0.94239,0 z"
       style="fill:#231f20;fill-opacity:1;fill-rule:nonzero;stroke:none"
       id="path2898"
       inkscape:connector-curvature="0" />
    <path
       d="m -898.44875,552.13101 0,-4.67425 0.94145,0 0,4.67425 -0.94145,0 z"
       style="fill:#231f20;fill-opacity:1;fill-rule:nonzero;stroke:none"
       id="path2900"
       inkscape:connector-curvature="0" />
    <path
       d="m -896.59789,552.13101 0,-4.67425 0.91129,0 1.92907,3.14382 0,-3.14382 0.86983,0 0,4.67425 -0.94145,0 -1.89986,-3.0835 0,3.0835 -0.86888,0 z"
       style="fill:#231f20;fill-opacity:1;fill-rule:nonzero;stroke:none"
       id="path2902"
       inkscape:connector-curvature="0" />
    <path
       d="m -887.67534,552.13101 -1.02532,0 -0.40334,-1.06396 -1.86405,0 -0.38449,1.06396 -1.01025,0 1.80374,-4.67425 1.01306,0 1.87065,4.67425 m -1.73588,-1.85461 -0.64743,-1.72646 -0.62385,1.72646 1.27128,0 z"
       style="fill:#231f20;fill-opacity:1;fill-rule:nonzero;stroke:none"
       id="path2904"
       inkscape:connector-curvature="0" />
    <path
       style="fill:#cb0202;fill-opacity:1;fill-rule:evenodd;stroke:none"
       d="M 19.9375 0 C 8.928 0 -9.2783073e-17 8.92961 0 19.9375 C 0 30.9454 8.928 39.84375 19.9375 39.84375 C 30.9442 39.84375 39.84375 30.9454 39.84375 19.9375 C 39.84375 8.92961 30.9442 1.4499892e-18 19.9375 0 z M 19.9375 3.09375 C 29.2349 3.09375 36.75 10.64127 36.75 19.9375 C 36.75 29.23719 29.2349 36.78125 19.9375 36.78125 C 10.638 36.78125 3.09375 29.23719 3.09375 19.9375 C 3.09375 10.64127 10.638 3.09375 19.9375 3.09375 z M 9.25 9.1875 L 9.25 18.375 L 15.34375 18.375 L 15.34375 21.4375 L 9.25 21.4375 L 9.25 30.625 L 19.1875 30.625 L 19.1875 27.5625 L 12.3125 27.5625 L 12.3125 24.5 L 18.4375 24.5 L 18.4375 15.3125 L 12.3125 15.3125 L 12.3125 12.25 L 19.1875 12.25 L 19.1875 9.1875 L 9.25 9.1875 z M 20.75 9.1875 L 20.75 12.25 L 27.59375 12.25 L 27.59375 15.3125 L 21.5 15.3125 L 21.5 24.5 L 27.59375 24.5 L 27.59375 27.5625 L 20.75 27.5625 L 20.75 30.625 L 30.65625 30.625 L 30.65625 21.4375 L 24.5625 21.4375 L 24.5625 18.375 L 30.65625 18.375 L 30.65625 9.1875 L 20.75 9.1875 z "
       transform="translate(-1091.1062,512.67029)"
       id="path3183" />
  </g>
</svg>
