<?xml version="1.0" encoding="UTF-8" standalone="no"?>
<svg
   xmlns:dc="http://purl.org/dc/elements/1.1/"
   xmlns:cc="http://creativecommons.org/ns#"
   xmlns:rdf="http://www.w3.org/1999/02/22-rdf-syntax-ns#"
   xmlns:svg="http://www.w3.org/2000/svg"
   xmlns="http://www.w3.org/2000/svg"
   xmlns:sodipodi="http://sodipodi.sourceforge.net/DTD/sodipodi-0.dtd"
   xmlns:inkscape="http://www.inkscape.org/namespaces/inkscape"
   viewBox="0 0 223.97929 46.384701"
   id="svg2"
   height="46.384701"
   width="223.97929"
   version="1.1"
   inkscape:version="0.48.4 r9939"
   sodipodi:docname="ping-an-bank.svg">
  <sodipodi:namedview
     pagecolor="#ffffff"
     bordercolor="#666666"
     borderopacity="1"
     objecttolerance="10"
     gridtolerance="10"
     guidetolerance="10"
     inkscape:pageopacity="0"
     inkscape:pageshadow="2"
     inkscape:window-width="1280"
     inkscape:window-height="743"
     id="namedview37"
     showgrid="false"
     fit-margin-top="0"
     fit-margin-left="0"
     fit-margin-right="0"
     fit-margin-bottom="0"
     inkscape:zoom="6.3429567"
     inkscape:cx="63.484597"
     inkscape:cy="10.700556"
     inkscape:window-x="0"
     inkscape:window-y="0"
     inkscape:window-maximized="1"
     inkscape:current-layer="svg2" />
  <metadata
     id="metadata72">
    <rdf:RDF>
      <cc:Work
         rdf:about="">
        <dc:format>image/svg+xml</dc:format>
        <dc:type
           rdf:resource="http://purl.org/dc/dcmitype/StillImage" />
      </cc:Work>
    </rdf:RDF>
  </metadata>
  <defs
     id="defs70" />
  <path
     id="path38"
     style="fill:#ec650a;fill-rule:evenodd"
     d="m 193.8747,8.9572 c -0.2996,0 -0.4333,-0.0984 -0.4333,-0.2636 0,0 0.0661,-0.1705 0.0661,-0.1705 0,0 4.907,-6.0703 4.907,-6.0703 0.3657,-0.4656 0.4671,-0.5325 0.8006,-0.5325 0,0 3.8045,0 3.8045,0 0.2006,0 0.3342,0.1037 0.3342,0.2636 0,0.1397 -0.042,0.2328 -0.1164,0.326 0,0 -4.9573,6.1837 -4.9573,6.1837 -0.166,0.1967 -0.3004,0.2636 -0.6677,0.2636 0,0 -3.7377,0 -3.7377,0 0,0 0,0 0,0 z m 0,7.7105 c -0.2658,0 -0.4333,-0.1036 -0.4333,-0.2696 0,-0.0466 0.0225,-0.1029 0.0999,-0.2013 0,0 4.8732,-6.0388 4.8732,-6.0388 0.3657,-0.4295 0.4671,-0.5332 0.8006,-0.5332 0,0 3.8045,0 3.8045,0 0.2006,0 0.3342,0.1037 0.3342,0.3004 0,0.0984 -0.0338,0.1652 -0.0999,0.2689 0,0 -3.9712,4.9731 -3.9712,4.9731 0,0 1.8016,0 1.8016,0 0,0 0,10.3383 0,10.3383 0,0.3004 -0.2996,0.6 -0.6015,0.6 0,0 -3.137,0 -3.137,0 -0.3334,0 -0.6338,-0.2636 -0.6338,-0.6 0,0 0,-8.8378 0,-8.8378 0,0 -2.8373,0 -2.8373,0 0,0 0,0 0,0 z m 11.4813,-3.1722 c -0.3335,0 -0.6016,-0.2689 -0.6016,-0.6001 0,0 0,-2.437 0,-2.437 0,-0.3004 0.2681,-0.6008 0.6016,-0.6008 0,0 18.0232,0 18.0232,0 0.3335,0 0.6001,0.3004 0.6001,0.6008 0,0 0,2.437 0,2.437 0,0.3312 -0.2666,0.6001 -0.6001,0.6001 0,0 -3.2045,0 -3.2045,0 0,0 0,10.3442 0,10.3442 0,1.2677 -1.0349,2.2658 -2.3025,2.2658 0,0 -8.7454,0 -8.7454,0 -0.3335,0 -0.6001,-0.2636 -0.6001,-0.6 0,0 0,-2.1321 0,-2.1321 0,-0.3357 0.2666,-0.6001 0.6001,-0.6001 0,0 6.6095,0 6.6095,0 0,0 0,-9.2778 0,-9.2778 0,0 -10.3803,0 -10.3803,0 0,0 0,0 0,0 z m 1.0011,-7.7045 c -0.3335,0 -0.6001,-0.2696 -0.6001,-0.6008 0,0 0,-2.437 0,-2.437 0,-0.3312 0.2666,-0.6001 0.6001,-0.6001 0,0 16.0864,0 16.0864,0 0.3342,0 0.6338,0.2997 0.6338,0.6001 0,0 0,2.437 0,2.437 0,0.3312 -0.2996,0.6008 -0.6338,0.6008 0,0 -16.0864,0 -16.0864,0 0,0 0,0 0,0 z"
     inkscape:connector-curvature="0" />
  <path
     id="path40"
     style="fill:#ec650a;fill-rule:evenodd"
     d="m 171.5843,3.9225 c 0.3342,0 0.6338,0.2643 0.6338,0.6 0,0 0,2.0337 0,2.0337 0,0.3004 -0.2996,0.6008 -0.6338,0.6008 0,0 -6.6749,0 -6.6749,0 0,0 -0.4671,0.8021 -0.4671,0.8021 -0.2666,0.4964 -0.3672,0.564 -0.8682,0.564 0,0 -3.0693,0 -3.0693,0 -0.401,0 -0.5009,-0.0676 -0.5009,-0.2328 0,-0.0676 0.0338,-0.166 0.1329,-0.3312 0,0 3.0378,-5.5063 3.0378,-5.5063 0.2328,-0.4341 0.3334,-0.5325 0.7014,-0.5325 0,0 3.336,0 3.336,0 0.3334,0 0.4686,0.0616 0.4686,0.1968 0,0.1029 -0.0338,0.2012 -0.1014,0.3357 0,0 -0.8343,1.4697 -0.8343,1.4697 0,0 4.8394,0 4.8394,0 0,0 0,0 0,0 z m -3.5703,11.5391 c 0,0 3.5703,0 3.5703,0 0.3342,0 0.6338,0.2696 0.6338,0.6053 0,0 0,2.0029 0,2.0029 0,0.3312 -0.2936,0.5948 -0.6338,0.5948 0,0 -3.5703,0 -3.5703,0 0,0 0,4.5743 0,4.5743 0,0 2.8358,0 2.8358,0 0.2997,0 0.6016,0.2697 0.6016,0.6008 0,0 0,1.6658 0,1.6658 0,0.3004 -0.3019,0.6 -0.6016,0.6 0,0 -4.4384,0 -4.4384,0 -1.2354,0 -2.2695,-1.0349 -2.2695,-2.2658 0,0 0,-5.1751 0,-5.1751 0,0 -2.9041,0 -2.9041,0 -0.3335,0 -0.6001,-0.2636 -0.6001,-0.5948 0,0 0,-2.0029 0,-2.0029 0,-0.3357 0.2666,-0.6053 0.6001,-0.6053 0,0 2.9041,0 2.9041,0 0,0 0,-2.6338 0,-2.6338 0,0 -2.9041,0 -2.9041,0 -0.3335,0 -0.6001,-0.2636 -0.6001,-0.6 0,0 0,-2.0337 0,-2.0337 0,-0.3365 0.2666,-0.6001 0.6001,-0.6001 0,0 10.3465,0 10.3465,0 0.3342,0 0.6338,0.2636 0.6338,0.6001 0,0 0,2.0337 0,2.0337 0,0.3364 -0.2996,0.6 -0.6338,0.6 0,0 -3.5703,0 -3.5703,0 0,0 0,2.6338 0,2.6338 0,0 0,0 0,0 z m 9.5445,7.7773 c 0,0 2.9702,0 2.9702,0 0.3349,0 0.6353,0.2697 0.6353,0.6008 0,0 0,1.6658 0,1.6658 0,0.3004 -0.3004,0.6 -0.6353,0.6 0,0 -4.4046,0 -4.4046,0 -1.2677,0 -2.3041,-1.0349 -2.3041,-2.2658 0,0 0,-19.4201 0,-19.4201 0,-1.2316 1.0364,-2.2665 2.3041,-2.2665 0,0 11.7471,0 11.7471,0 1.2692,0 2.2688,1.0349 2.2688,2.2665 0,0 0,8.5742 0,8.5742 0,1.2677 -0.9996,2.3026 -2.2688,2.3026 0,0 -10.3127,0 -10.3127,0 0,0 0,7.9425 0,7.9425 0,0 0,0 0,0 z m 8.8107,-18.0848 c 0,0 -8.8107,0 -8.8107,0 0,0 0,2.1374 0,2.1374 0,0 8.8107,0 8.8107,0 0,0 0,-2.1374 0,-2.1374 0,0 0,0 0,0 z m -8.8107,5.04 c 0,0 0,2.1321 0,2.1321 0,0 8.8107,0 8.8107,0 0,0 0,-2.1321 0,-2.1321 0,0 -8.8107,0 -8.8107,0 0,0 0,0 0,0 z m 8.6778,6.7732 c 0.3657,-0.4032 0.5002,-0.5016 0.8006,-0.5016 0,0 2.8703,0 2.8703,0 0.368,0 0.5362,0.0623 0.5332,0.2636 0,0.1036 -0.0999,0.238 -0.3004,0.4709 0,0 -3.7708,4.3362 -3.7708,4.3362 0,0 0.2681,0.4349 0.2681,0.4349 0.4334,0.7352 0.4994,0.8336 0.6677,0.9988 0.2335,0.2328 0.3657,0.2688 1.134,0.2688 0,0 1.5681,0 1.5681,0 0.3011,0 0.6015,0.3004 0.6015,0.6008 0,0 0,1.6658 0,1.6658 0,0.3004 -0.3004,0.6 -0.6015,0.6 0,0 -2.3364,0 -2.3364,0 -2.036,0 -3.1031,-0.4964 -3.9044,-1.8001 0,0 -4.2056,-7.2081 -4.2056,-7.2081 -0.0842,-0.145 -0.133,-0.2644 -0.133,-0.368 0,-0.1652 0.1007,-0.2636 0.3335,-0.2636 0,0 3.1039,0 3.1039,0 0.4385,0 0.5339,0.0984 0.8681,0.6316 0,0 1.0011,1.6709 1.0011,1.6709 0,0 1.502,-1.8009 1.502,-1.8009 0,0 0,0 0,0 z"
     inkscape:connector-curvature="0" />
  <path
     id="path42"
     style="fill:#ec650a;fill-rule:evenodd"
     d="m 127.7327,13.7028 c -0.3658,0 -0.6324,-0.2644 -0.6324,-0.5956 0,0 0,-2.1366 0,-2.1366 0,-0.3364 0.2666,-0.6008 0.6324,-0.6008 0,0 4.6404,0 4.6404,0 0,0 0,-2.0021 0,-2.0021 0,-0.3365 0.2666,-0.6001 0.6001,-0.6001 0,0 3.004,0 3.004,0 0.3672,0 0.6338,0.2636 0.6338,0.6001 0,0 0,2.0021 0,2.0021 0,0 11.0142,0 11.0142,0 0,0 0,-1.9714 0,-1.9714 0,-0.3672 0.2681,-0.6308 0.6353,-0.6308 0,0 3.0025,0 3.0025,0 0.3334,0 0.6,0.2636 0.6,0.6308 0,0 0,1.9714 0,1.9714 0,0 4.4738,0 4.4738,0 0.3319,0 0.6,0.2644 0.6,0.6008 0,0 0,2.1366 0,2.1366 0,0.3312 -0.2681,0.5956 -0.6,0.5956 0,0 -4.4738,0 -4.4738,0 0,0 0,1.2361 0,1.2361 0,2.7689 -0.7998,3.7362 -4.3377,5.3404 0,0 -1.4697,0.6676 -1.4697,0.6676 0,0 0.2681,0.0984 0.2681,0.0984 1.8024,0.802 3.2045,1.1332 4.7395,1.1017 0,0 4.705,0 4.705,0 0.3342,0 0.6008,0.3004 0.6008,0.6316 0,0 0,2.1005 0,2.1005 0,0.3365 -0.2666,0.6061 -0.6008,0.6061 0,0 -4.705,0 -4.705,0 -2.437,-0.0368 -3.6724,-0.3365 -6.4758,-1.6042 0,0 -2.4693,-1.1024 -2.4693,-1.1024 0,0 -2.4693,1.1024 -2.4693,1.1024 -2.9364,1.3038 -3.8722,1.5366 -6.4751,1.6042 0,0 -4.7058,0 -4.7058,0 -0.3342,0 -0.6008,-0.2696 -0.6008,-0.6061 0,0 0,-2.1005 0,-2.1005 0,-0.3312 0.2666,-0.6316 0.6008,-0.6316 0,0 4.7058,0 4.7058,0 1.502,0 3.2045,-0.398 4.7403,-1.1017 0,0 0.2666,-0.0984 0.2666,-0.0984 0,0 -1.4682,-0.6676 -1.4682,-0.6676 -3.6056,-1.6665 -4.2732,-2.5046 -4.3393,-5.3404 0,0 0,-1.2361 0,-1.2361 0,0 -4.6404,0 -4.6404,0 0,0 0,0 0,0 z m 12.049,-12.0724 c 0,-0.3672 0.2681,-0.6368 0.6016,-0.6368 0,0 3.4373,0 3.4373,0 0.3334,0 0.6015,0.2696 0.6015,0.6368 0,0 0,1.2001 0,1.2001 0,0 9.6113,0 9.6113,0 1.5343,0 2.8035,1.2677 2.8035,2.8358 0,0 0,1.6973 0,1.6973 0,0.3364 -0.2673,0.6053 -0.6015,0.6053 0,0 -2.2688,0 -2.2688,0 -0.3342,0 -0.6001,-0.2689 -0.6001,-0.6053 0,0 0,-1.5005 0,-1.5005 0,0 -22.5292,0 -22.5292,0 0,0 0,1.5005 0,1.5005 0,0.3364 -0.2658,0.6053 -0.6,0.6053 0,0 -2.2365,0 -2.2365,0 -0.3342,0 -0.6339,-0.2689 -0.6339,-0.6053 0,0 0,-1.6973 0,-1.6973 0,-1.5681 1.3015,-2.8358 2.8704,-2.8358 0,0 9.5444,0 9.5444,0 0,0 0,-1.2001 0,-1.2001 0,0 0,0 0,0 z m -3.1707,13.2417 c 0,1.6349 0.1014,1.7693 1.9691,2.6698 0,0 3.538,1.6041 3.538,1.6041 0,0 3.5379,-1.6041 3.5379,-1.6041 1.9016,-0.9313 1.9692,-1.0349 1.9692,-2.6698 0,0 0,-1.1693 0,-1.1693 0,0 -11.0142,0 -11.0142,0 0,0 0,1.1693 0,1.1693 0,0 0,0 0,0 z"
     inkscape:connector-curvature="0" />
  <path
     id="path44"
     style="fill:#ffffff;fill-rule:evenodd"
     d="m 86.140398,40.1545 c 0,3.441 -2.7877,6.2302 -6.2273,6.2302 0,0 -73.6842997,0 -73.6842997,0 -3.4411,0 -6.2287999857047,-2.7892 -6.2287999857047,-6.2302 0,0 0.0039999957,-33.9242 0.0039999957,-33.9242 C 0.00399831,2.7892 2.7924983,0 6.2320983,0 c 0,0 73.6849997,0 73.6849997,0 3.4389,0 6.2273,2.7892 6.2273,6.2303 0,0 -0.004,33.9242 -0.004,33.9242 0,0 0,0 0,0 z"
     inkscape:connector-curvature="0" />
  <path
     id="path46"
     style="fill:#ec650a;fill-rule:evenodd"
     d="m 95.564398,21.0656 c -0.3673,0 -0.6339,-0.2689 -0.6339,-0.6361 0,0 0,-2.1682 0,-2.1682 0,-0.3312 0.2666,-0.6368 0.6339,-0.6368 0,0 11.780902,0 11.780902,0 0,0 0,-11.9732 0,-11.9732 0,0 -10.879702,0 -10.879702,0 -0.335,0 -0.6016,-0.3004 -0.6016,-0.6369 0,0 0,-2.0697 0,-2.0697 0,-0.3312 0.2666,-0.6001 0.6016,-0.6001 0,0 26.399102,0 26.399102,0 0.3342,0 0.6008,0.2689 0.6008,0.6001 0,0 0,2.0697 0,2.0697 0,0.3365 -0.2666,0.6369 -0.6008,0.6369 0,0 -10.8467,0 -10.8467,0 0,0 0,11.9732 0,11.9732 0,0 11.8808,0 11.8808,0 0.3688,0 0.6346,0.3056 0.6346,0.6368 0,0 0,2.1682 0,2.1682 0,0.3672 -0.2658,0.6361 -0.6346,0.6361 0,0 -11.8808,0 -11.8808,0 0,0 0,4.533 0,4.533 0,0.3364 -0.3004,0.6 -0.6338,0.6 0,0 -3.4374,0 -3.4374,0 -0.3349,0 -0.6015,-0.2636 -0.6015,-0.6 0,0 0,-4.533 0,-4.533 0,0 -11.780902,0 -11.780902,0 0,0 0,0 0,0 z M 105.6443,14.9239 c 0.1329,0.2328 0.1667,0.3672 0.1667,0.4348 0,0.2013 -0.1329,0.2997 -0.401,0.2997 0,0 -3.4036,0 -3.4036,0 -0.7014,0 -0.8681,-0.0984 -1.1024,-0.5693 0,0 -3.470402,-6.7372 -3.470402,-6.7372 -0.0676,-0.1652 -0.1337,-0.3365 -0.1337,-0.4348 0,-0.2013 0.1337,-0.2997 0.4011,-0.2997 0,0 3.370402,0 3.370402,0 0.6669,0 0.8675,0.0984 1.1018,0.5693 0,0 3.4711,6.7372 3.4711,6.7372 0,0 0,0 0,0 z m 12.6829,-7.3065 c 0,0 3.3697,0 3.3697,0 0.2884,0 0.3973,0.1134 0.401,0.2997 0.001,0.0728 -0.054,0.2125 -0.1667,0.4348 0,0 -3.4388,6.7372 -3.4388,6.7372 -0.2328,0.4709 -0.4033,0.5693 -1.101,0.5693 0,0 -3.4043,0 -3.4043,0 -0.2666,0 -0.4002,-0.0984 -0.4002,-0.2997 0,-0.0676 0,-0.1352 0.1667,-0.4348 0,0 3.4711,-6.7372 3.4711,-6.7372 0.2005,-0.4349 0.4333,-0.5693 1.101,-0.5693 0,0 0.001,0 0.001,0 0,0 0,0 0,0 z"
     inkscape:connector-curvature="0" />
  <path
     id="path48"
     style="fill:#ec650a;fill-rule:evenodd"
     d="m 83.312898,29.3453 c 0,1.873 -1.5201,3.3998 -3.3976,3.3998 0,0 -73.6834997,0 -73.6834997,0 -1.8775,0 -3.3975,-1.5268 -3.3975,-3.3998 0,0 0,-23.115 0,-23.115 0,-1.8782 1.52,-3.3998 3.3975,-3.3998 0,0 73.6834997,0 73.6834997,0 1.8775,0 3.3976,1.5216 3.3976,3.3998 0,0 0,23.115 0,23.115 0,0 0,0 0,0 z m -3.3976,-28.212 c 0,0 -73.6834997,0 -73.6834997,0 -2.814,0 -5.0956,2.2823 -5.0956,5.097 0,0 0,33.9242 0,33.9242 0,2.8155 2.2816,5.0917 5.0956,5.0917 0,0 73.6834997,0 73.6834997,0 2.8155,0 5.0971,-2.2762 5.0971,-5.0917 0,0 0,-33.9242 0,-33.9242 0,-2.8147 -2.2816,-5.097 -5.0971,-5.097 0,0 0,0 0,0 z"
     inkscape:connector-curvature="0" />
  <path
     id="path50"
     style="fill:#ec650a;fill-rule:evenodd"
     d="m 210.8556,34.9545 c 0,-0.5489 0.437,-0.983 1.0033,-0.983 0.5497,0 0.9861,0.4341 0.9861,0.983 0,0 0,4.7914 0,4.7914 0,0 5.3726,-5.4072 5.3726,-5.4072 0.2261,-0.2381 0.4679,-0.3672 0.8254,-0.3672 0.5497,0 0.9207,0.4341 0.9207,0.9207 0,0.3057 -0.1292,0.5332 -0.356,0.745 0,0 -3.5259,3.3945 -3.5259,3.3945 0,0 3.8173,4.7403 3.8173,4.7403 0.1615,0.2118 0.2756,0.4033 0.2756,0.709 0,0.5535 -0.4371,0.9725 -1.0026,0.9725 -0.3897,0 -0.6316,-0.1915 -0.8426,-0.4656 0,0 -3.6401,-4.6472 -3.6401,-4.6472 0,0 -1.8444,1.7806 -1.8444,1.7806 0,0 0,2.3439 0,2.3439 0,0.5535 -0.4364,0.9883 -0.9861,0.9883 -0.5663,0 -1.0033,-0.4348 -1.0033,-0.9883 0,0 0,-9.5107 0,-9.5107 0,0 0,0 0,0 z m -12.7866,0.0308 c 0,-0.5482 0.4356,-0.9988 1.0026,-0.9988 0,0 0.2111,0 0.2111,0 0.4851,0 0.7607,0.2433 1.0348,0.5798 0,0 5.6633,7.3267 5.6633,7.3267 0,0 0,-6.9542 0,-6.9542 0,-0.5332 0.4364,-0.9673 0.9688,-0.9673 0.5512,0 0.9883,0.4341 0.9883,0.9673 0,0 0,9.5106 0,9.5106 0,0.5535 -0.4205,0.9883 -0.9703,0.9883 0,0 -0.0811,0 -0.0811,0 -0.4693,0 -0.7607,-0.2433 -1.0363,-0.6 0,0 -5.8241,-7.5393 -5.8241,-7.5393 0,0 0,7.1826 0,7.1826 0,0.5377 -0.4355,0.9725 -0.9702,0.9725 -0.5513,0 -0.9869,-0.4348 -0.9869,-0.9725 0,0 0,-9.4957 0,-9.4957 0,0 0,0 0,0 z m -5.7489,5.8886 c 0,0 -1.9894,-4.5743 -1.9894,-4.5743 0,0 -1.9909,4.5743 -1.9909,4.5743 0,0 3.9803,0 3.9803,0 0,0 0,0 0,0 z m -7.4101,3.203 c 0,0 4.2071,-9.3815 4.2071,-9.3815 0.2261,-0.5016 0.6301,-0.8073 1.1964,-0.8073 0,0 0.0969,0 0.0969,0 0.567,0 0.9552,0.3057 1.1813,0.8073 0,0 4.2071,9.3815 4.2071,9.3815 0.0811,0.145 0.1134,0.2952 0.1134,0.4243 0,0.5333 -0.4048,0.9523 -0.9388,0.9523 -0.4686,0 -0.793,-0.2741 -0.9703,-0.6932 0,0 -0.9222,-2.1215 -0.9222,-2.1215 0,0 -5.5003,0 -5.5003,0 0,0 -0.9553,2.1831 -0.9553,2.1831 -0.1615,0.4041 -0.5017,0.6316 -0.9222,0.6316 -0.5175,0 -0.9222,-0.404 -0.9222,-0.9215 0,-0.1449 0.0488,-0.2891 0.1291,-0.4551 0,0 0,0 0,0 z m -5.7812,-0.4656 c 1.3601,0 2.1854,-0.5385 2.1854,-1.5523 0,0 0,-0.0361 0,-0.0361 0,-0.9522 -0.7607,-1.5215 -2.3303,-1.5215 0,0 -3.155,0 -3.155,0 0,0 0,3.1099 0,3.1099 0,0 3.2999,0 3.2999,0 0,0 0,0 0,0 z m -0.582,-4.7914 c 1.2782,0 2.1359,-0.5024 2.1359,-1.5373 0,0 0,-0.0308 0,-0.0308 0,-0.8899 -0.7112,-1.4389 -1.9894,-1.4389 0,0 -2.8644,0 -2.8644,0 0,0 0,3.007 0,3.007 0,0 2.7179,0 2.7179,0 0,0 0,0 0,0 z m -4.675,-3.767 c 0,-0.564 0.4371,-1.0041 1.0034,-1.0041 0,0 4.0764,0 4.0764,0 1.2947,0 2.3146,0.3568 2.9612,1.0041 0.5009,0.5017 0.7608,1.1175 0.7608,1.8783 0,0 0,0.0308 0,0.0308 0,1.3555 -0.7773,2.0855 -1.6184,2.5203 1.3262,0.4551 2.2499,1.2159 2.2499,2.7524 0,0 0,0.0316 0,0.0316 0,2.0232 -1.6679,3.1046 -4.192,3.1046 0,0 -4.2379,0 -4.2379,0 -0.5663,0 -1.0034,-0.4348 -1.0034,-0.9988 0,0 0,-9.3192 0,-9.3192 0,0 0,0 0,0 z"
     inkscape:connector-curvature="0" />
  <path
     id="path52"
     style="fill:#ec650a;fill-rule:evenodd"
     d="m 112.2531,33.9197 c 0,0 -1.9106,0 -1.9106,0 -0.1502,0 -0.2703,0.1239 -0.2703,0.2688 0,0 0,10.7889 0,10.7889 0,0.1502 0.1201,0.2688 0.2703,0.2688 0,0 1.9106,0 1.9106,0 0.1487,0 0.2703,-0.1186 0.2703,-0.2688 0,0 0,-10.7889 0,-10.7889 0,-0.1449 -0.1216,-0.2688 -0.2703,-0.2688 0,0 0,0 0,0 z m -7.7113,0 c 0,0 -6.972302,0 -6.972302,0 -0.1479,0 -0.2696,0.1239 -0.2696,0.2688 0,0 0,10.7889 0,10.7889 0,0.1502 0.1217,0.2688 0.2696,0.2688 0,0 1.9309,0 1.9309,0 0.1502,0 0.2703,-0.1186 0.2703,-0.2688 0,0 0,-3.182 0,-3.182 0,0 4.771102,0 4.771102,0 2.1396,0 3.8722,-1.2632 3.8722,-3.167 0,0 0,-1.2632 0,-1.2632 0,-1.9037 -1.7326,-3.4455 -3.8722,-3.4455 0,0 0,0 0,0 z m 1.2887,5.6092 c 0,0.1494 -0.1201,0.2688 -0.2703,0.2688 0,0 -5.789502,0 -5.789502,0 0,0 0,-3.8811 0,-3.8811 0,0 5.789502,0 5.789502,0 0.1502,0 0.2703,0.1194 0.2703,0.2696 0,0 0,3.3427 0,3.3427 0,0 0,0 0,0 z m 44.9391,-5.3096 c -0.1074,-0.1915 -0.2794,-0.3154 -0.4897,-0.3154 0,0 -1.6927,0 -1.6927,0 -0.2118,0 -0.3838,0.1239 -0.4912,0.3154 0,0 -5.3231,10.484 -5.3231,10.484 -0.1787,0.3417 -0.0262,0.5429 0.2884,0.5429 0,0 1.6868,0 1.6868,0 0.2456,0 0.3379,-0.0668 0.4618,-0.2996 0,0 4.2222,-8.4345 4.2222,-8.4345 0,0 4.2236,8.4345 4.2236,8.4345 0.1246,0.2328 0.2163,0.2996 0.4618,0.2996 0,0 1.6875,0 1.6875,0 0.314,0 0.4664,-0.2012 0.2884,-0.5429 0,0 -5.3238,-10.484 -5.3238,-10.484 0,0 0,0 0,0 z m 17.9046,-0.2996 c 0,0 -1.7131,0 -1.7131,0 -0.1487,0 -0.2703,0.1239 -0.2703,0.2688 0,0 0,7.8082 0,7.8082 -0.893,-1.0086 -6.8101,-7.7151 -6.9588,-7.8758 -0.1614,-0.1705 -0.3747,-0.2012 -0.5137,-0.2012 0,0 0,0 0,0 0,0 -1.6927,0 -1.6927,0 -0.1502,0 -0.2719,0.1239 -0.2719,0.2688 0,0 0,10.7889 0,10.7889 0,0.1502 0.1217,0.2688 0.2719,0.2688 0,0 1.7123,0 1.7123,0 0.1487,0 0.2703,-0.1186 0.2703,-0.2688 0,0 0,-7.8758 0,-7.8758 0.6459,0.7353 6.8627,7.7827 7.0166,7.9434 0.1607,0.1704 0.3725,0.2012 0.5122,0.2012 0,0 0,0 0,0 0,0 1.6372,0 1.6372,0 0.1494,0 0.2703,-0.1186 0.2703,-0.2688 0,0 0,-10.7889 0,-10.7889 0,-0.1449 -0.1209,-0.2688 -0.2703,-0.2688 0,0 0,0 0,0 z m -32.6918,-0.1555 c 0,0 -3.9495,0 -3.9495,0 -2.1381,0 -3.8706,1.5418 -3.8706,3.4463 0,0 0,4.7449 0,4.7449 0,1.8992 1.7325,3.441 3.8706,3.441 0,0 3.9495,0 3.9495,0 2.1381,0 3.8722,-1.5418 3.8722,-3.441 0,0 0,-3.0423 0,-3.0423 0,0 -5.9885,0 -5.9885,0 0,0 0,1.5988 0,1.5988 0,0.145 0.1202,0.2689 0.2704,0.2689 0,0 3.2781,0 3.2781,0 0,0 0,2.1989 0,2.1989 0,0.1502 -0.1217,0.2696 -0.2704,0.2696 0,0 -6.2746,0 -6.2746,0 -0.1494,0 -0.2704,-0.1194 -0.2704,-0.2696 0,0 0,-6.7935 0,-6.7935 0,-0.1502 0.121,-0.2749 0.2704,-0.2749 0,0 6.2746,0 6.2746,0 0.1487,0 0.2704,0.1247 0.2704,0.2749 0,0 0,1.2985 0,1.2985 0,0.1502 0.1201,0.2741 0.2703,0.2741 0,0 1.8993,0 1.8993,0 0.1487,0 0.2704,-0.1239 0.2704,-0.2741 0,0 0,-0.2742 0,-0.2742 0,-1.9045 -1.7341,-3.4463 -3.8722,-3.4463 0,0 0,0 0,0 z m -9.9057,0.1555 c 0,0 -1.7138,0 -1.7138,0 -0.1487,0 -0.2703,0.1239 -0.2703,0.2688 0,0 0,7.8082 0,7.8082 -0.8915,-1.0086 -6.8093,-7.7151 -6.9588,-7.8758 -0.1599,-0.1705 -0.3732,-0.2012 -0.5122,-0.2012 0,0 0,0 0,0 0,0 -1.6942,0 -1.6942,0 -0.1487,0 -0.2704,0.1239 -0.2704,0.2688 0,0 0,10.7889 0,10.7889 0,0.1502 0.1217,0.2688 0.2704,0.2688 0,0 1.7123,0 1.7123,0 0.1494,0 0.2703,-0.1186 0.2703,-0.2688 0,0 0,-7.8758 0,-7.8758 0.6459,0.7353 6.8634,7.7827 7.0174,7.9434 0.1599,0.1704 0.3725,0.2012 0.5121,0.2012 0,0 8e-4,0 8e-4,0 0,0 1.6364,0 1.6364,0 0.1495,0 0.2704,-0.1186 0.2704,-0.2688 0,0 0,-10.7889 0,-10.7889 0,-0.1449 -0.1209,-0.2688 -0.2704,-0.2688 0,0 0,0 0,0 z"
     inkscape:connector-curvature="0" />
  <path
     id="path54"
     style="fill:#00592e;fill-rule:evenodd"
     d="m 150.886,41.8622 c 0,0 -2.9064,0 -2.9064,0 -0.1487,0 -0.2703,0.1194 -0.2703,0.2689 0,0 0,2.841 0,2.841 0,0.1502 0.1216,0.2689 0.2703,0.2689 0,0 2.9064,0 2.9064,0 0.1502,0 0.2704,-0.1187 0.2704,-0.2689 0,0 0,-2.841 0,-2.841 0,-0.1495 -0.1202,-0.2689 -0.2704,-0.2689 0,0 0,0 0,0 z"
     inkscape:connector-curvature="0" />
  <path
     id="path56"
     style="fill:#ec650a;fill-rule:evenodd"
     d="m 59.153998,19.493 c 0,0 -5.9314,0 -5.9314,0 0,0 0,-5.9149 0,-5.9149 0,0 5.4492,0 5.4492,0 0.1487,0 0.2704,-0.1239 0.2704,-0.2741 0,0 0,-1.1438 0,-1.1438 0,-0.1495 -0.1217,-0.2689 -0.2704,-0.2689 0,0 -13.2536,0 -13.2536,0 -0.1502,0 -0.2719,0.1194 -0.2719,0.2689 0,0 0,1.1438 0,1.1438 0,0.1502 0.1217,0.2741 0.2719,0.2741 0,0 5.4477,0 5.4477,0 0,0 0,5.9149 0,5.9149 0,0 -5.9299,0 -5.9299,0 -0.1502,0 -0.2703,0.1239 -0.2703,0.2688 0,0 0,1.2106 0,1.2106 0,0.1502 0.1201,0.2696 0.2703,0.2696 0,0 5.9299,0 5.9299,0 0,0 0,2.2816 0,2.2816 0,0.1502 0.1202,0.2741 0.2704,0.2741 0,0 1.8159,0 1.8159,0 0.1502,0 0.2704,-0.1239 0.2704,-0.2741 0,0 0,-2.2816 0,-2.2816 0,0 5.9314,0 5.9314,0 0.1487,0 0.2688,-0.1194 0.2688,-0.2696 0,0 0,-1.2106 0,-1.2106 0,-0.1449 -0.1201,-0.2688 -0.2688,-0.2688 0,0 0,0 0,0 z m -11.0255,-0.9365 c 0,0 1.8295,0 1.8295,0 0.1397,0 0.2275,-0.1142 0.1562,-0.2486 0,0 -1.8189,-3.5447 -1.8189,-3.5447 -0.0714,-0.1397 -0.2404,-0.2531 -0.4589,-0.2531 0,0 -1.8279,0 -1.8279,0 -0.1412,0 -0.2283,0.1134 -0.157,0.2531 0,0 1.8189,3.5447 1.8189,3.5447 0.0714,0.1344 0.2396,0.2486 0.4581,0.2486 0,0 0,0 0,0 z m 22.856,-0.4296 c 0,0.4814 -0.0894,0.8591 -0.6985,1.164 -0.4889,0.2434 -1.2962,0.6264 -2.0224,0.9681 -0.7255,-0.3417 -1.5313,-0.7247 -2.0202,-0.9681 -0.6083,-0.3049 -0.6984,-0.6826 -0.6984,-1.164 0,0 0,-0.5174 0,-0.5174 0,0 5.4395,0 5.4395,0 0,0 0,0.5174 0,0.5174 0,0 0,0 0,0 z m 4.4729,-2.2305 c 0,0 -2.3281,0 -2.3281,0 0,0 -0.001,-0.9988 -0.001,-0.9988 0,-0.1547 -0.1239,-0.2794 -0.2779,-0.2794 0,0 -1.5876,0 -1.5876,0 -0.1524,0 -0.2778,0.1247 -0.2778,0.2794 0,0 0,0.9988 0,0.9988 0,0 -5.4395,0 -5.4395,0 0,0 0,-0.9988 0,-0.9988 0,-0.1547 -0.1262,-0.2794 -0.2787,-0.2794 0,0 -1.5883,0 -1.5883,0 -0.1525,0 -0.2779,0.1247 -0.2779,0.2794 0,0 0,0.9988 0,0.9988 0,0 -2.3326,0 -2.3326,0 -0.1487,0 -0.2688,0.1194 -0.2688,0.2689 0,0 0,1.1745 0,1.1745 0,0.145 0.1201,0.2697 0.2688,0.2697 0,0 2.3326,0 2.3326,0 0,0 0,0.7292 0,0.7292 0,0.8486 0.3905,1.6559 1.4359,2.1629 0.3966,0.1967 0.887,0.4348 1.4097,0.6834 -0.929,0.3777 -1.7499,0.5534 -2.6173,0.5534 0,0 -2.2042,0 -2.2042,0 -0.1524,0 -0.2763,0.1195 -0.2763,0.2742 0,0 0,1.1595 0,1.1595 0,0.1547 0.1239,0.2794 0.2763,0.2794 0,0 2.1682,0 2.1682,0 0.8666,0 1.9263,-0.1863 2.8252,-0.5227 0.365,-0.1344 1.0544,-0.4348 1.846,-0.7968 0.793,0.362 1.4825,0.6624 1.8489,0.7968 0.8967,0.3364 1.9557,0.5227 2.8238,0.5227 0,0 2.1666,0 2.1666,0 0.154,0 0.2787,-0.1247 0.2787,-0.2794 0,0 0,-1.1595 0,-1.1595 0,-0.1547 -0.1247,-0.2742 -0.2787,-0.2742 0,0 -2.2026,0 -2.2026,0 -0.8682,0 -1.6883,-0.1757 -2.6173,-0.5534 0.5227,-0.2486 1.0131,-0.4867 1.4104,-0.6834 1.0439,-0.507 1.4359,-1.3143 1.4359,-2.1629 0,0 0,-0.7292 0,-0.7292 0,0 2.3281,0 2.3281,0 0.1517,0 0.2719,-0.1247 0.2719,-0.2697 0,0 0,-1.1745 0,-1.1745 0,-0.1495 -0.1202,-0.2689 -0.2719,-0.2689 0,0 0,0 0,0 z m -34.5903,5.8631 c 0,0 -10.6597,0 -10.6597,0 0,0 0,-8.5487 0,-8.5487 0,0 10.6597,0 10.6597,0 0,0 0,8.5487 0,8.5487 0,0 0,0 0,0 z m 0.5295,-10.1062 c 0,0 -11.7194,0 -11.7194,0 -0.8771,0 -1.5868,0.7089 -1.5868,1.5838 0,0 0,8.6208 0,8.6208 0,0.8741 0.7097,1.5831 1.5868,1.5831 0,0 11.7194,0 11.7194,0 0.8771,0 1.5868,-0.709 1.5868,-1.5831 0,0 0,-8.6208 0,-8.6208 0,-0.8749 -0.7097,-1.5838 -1.5868,-1.5838 0,0 0,0 0,0 z m 14.8563,2.8568 c -0.2193,0 -0.3883,0.1134 -0.4582,0.2531 0,0 -1.8204,3.5447 -1.8204,3.5447 -0.0713,0.1344 0.0165,0.2486 0.157,0.2486 0,0 1.8272,0 1.8272,0 0.2193,0 0.3882,-0.1142 0.4611,-0.2486 0,0 1.8174,-3.5447 1.8174,-3.5447 0.0713,-0.1397 -0.0158,-0.2531 -0.157,-0.2531 0,0 -1.8271,0 -1.8271,0 0,0 0,0 0,0 z m 4.9137,0.181 c 0,0 1.264,0 1.264,0 0.1487,0 0.2703,-0.1194 0.2703,-0.2696 0,0 0,-0.7863 0,-0.7863 0,0 11.1268,0 11.1268,0 0,0 0,0.7863 0,0.7863 0,0.1502 0.1195,0.2696 0.2689,0.2696 0,0 1.2632,0 1.2632,0 0.1494,0 0.2703,-0.1194 0.2703,-0.2696 0,0 0,-0.905 0,-0.905 0,-0.7713 -0.624,-1.3923 -1.3938,-1.3923 0,0 -4.7936,0 -4.7936,0 0,0 0,-0.6572 0,-0.6572 0,-0.1502 -0.121,-0.2688 -0.2704,-0.2688 0,0 -1.8182,0 -1.8182,0 -0.1487,0 -0.2703,0.1186 -0.2703,0.2688 0,0 0,0.6572 0,0.6572 0,0 -4.7937,0 -4.7937,0 -0.7697,0 -1.3938,0.621 -1.3938,1.3923 0,0 0,0.905 0,0.905 0,0.1502 0.1209,0.2696 0.2703,0.2696 0,0 0,0 0,0 z m -37.4823,4.8432 c 0,0 -4.1065,0 -4.1065,0 0,0 0,-4.8432 0,-4.8432 0,0 4.1065,0 4.1065,0 0,0 0,4.8432 0,4.8432 0,0 0,0 0,0 z m -6.5773,0 c 0,0 -4.1057,0 -4.1057,0 0,0 0,-4.8432 0,-4.8432 0,0 4.1057,0 4.1057,0 0,0 0,4.8432 0,4.8432 0,0 0,0 0,0 z m 7.2314,-6.5976 c 0,0 -4.7606,0 -4.7606,0 0,0 0,-1.4231 0,-1.4231 0,-0.1502 -0.1202,-0.2689 -0.2704,-0.2689 0,0 -1.93,0 -1.93,0 -0.1487,0 -0.2704,0.1187 -0.2704,0.2689 0,0 0,1.4231 0,1.4231 0,0 -4.7606,0 -4.7606,0 -0.8757,0 -1.5861,0.709 -1.5861,1.5831 0,0 0,5.1849 0,5.1849 0,0.875 0.7104,1.5839 1.5861,1.5839 0,0 4.7606,0 4.7606,0 0,0 0,2.235 0,2.235 0,0.1502 0.1217,0.2741 0.2704,0.2741 0,0 1.93,0 1.93,0 0.1502,0 0.2704,-0.1239 0.2704,-0.2741 0,0 0,-2.235 0,-2.235 0,0 4.7606,0 4.7606,0 0.8771,0 1.5891,-0.7089 1.5891,-1.5839 0,0 0,-5.1849 0,-5.1849 0,-0.8741 -0.712,-1.5831 -1.5891,-1.5831 0,0 0,0 0,0 z m 15.4398,5.7542 c 0,0 -1.6072,0 -1.6072,0 0,0 0,0.6263 0,0.6263 0,0 -1.5921,0 -1.5921,0 0,0 0,-1.4028 0,-1.4028 0,0 2.7412,0 2.7412,0 0,0 0,-1.3248 0,-1.3248 0,0 -2.7412,0 -2.7412,0 0,0 0,-0.9673 0,-0.9673 0,0 3.1993,0 3.1993,0 0,0 0,-1.4434 0,-1.4434 0,0 -8.4826,0 -8.4826,0 0,0 0,1.4434 0,1.4434 0,0 3.1993,0 3.1993,0 0,0 0,0.9673 0,0.9673 0,0 -2.7397,0 -2.7397,0 0,0 0,1.3248 0,1.3248 0,0 2.7397,0 2.7397,0 0,0 0,1.4028 0,1.4028 0,0 -3.1993,0 -3.1993,0 0,0 0,1.4382 0,1.4382 0,0 8.4826,0 8.4826,0 0,0 0,-2.0645 0,-2.0645 0,0 0,0 0,0 z"
     inkscape:connector-curvature="0" />
  <path
     id="path58"
     style="fill:#ffffff;fill-rule:evenodd"
     d="m 64.080498,40.9047 c 0,0.1397 0.1112,0.2538 0.2509,0.2538 0.1381,0 0.2508,-0.1141 0.2508,-0.2538 0,0 0,-1.3555 0,-1.3555 0,-0.1089 0.0879,-0.1916 0.1952,-0.1916 0,0 3.2331,0 3.2331,0 0.1074,0 0.1953,0.0827 0.1953,0.1916 0,0 0,1.2158 0,1.2158 0,0.1397 0.1126,0.2539 0.2508,0.2539 0.1382,0 0.2508,-0.1142 0.2508,-0.2539 0,0 0,-1.4592 0,-1.4592 0,-0.238 -0.1937,-0.4295 -0.4333,-0.4295 0,0 -3.7618,0 -3.7618,0 -0.238,0 -0.4318,0.1915 -0.4318,0.4295 0,0 0,1.5989 0,1.5989 0,0 0,0 0,0 z m 5.022,0.6526 c -0.8299,-0.4506 -1.5449,-0.751 -2.1464,-0.9004 -0.1577,-0.0368 -0.2651,0.01 -0.3244,0.1397 -0.0391,0.1502 0.0165,0.2478 0.1614,0.2996 0.7383,0.2073 1.4419,0.5077 2.1058,0.9005 0,0 0.2043,0.0465 0.2043,0.0465 0,0 0.1487,-0.1292 0.1487,-0.1292 0,0 0,-0.1967 0,-0.1967 0,0 -0.1494,-0.16 -0.1494,-0.16 0,0 0,0 0,0 z m 0.1254,-3.1361 c -0.9072,-0.2171 -1.5553,-0.6361 -1.9444,-1.2467 0.0293,-0.0729 0.0556,-0.1712 0.0751,-0.3057 0,0 1.1521,0 1.1521,0 0.1592,0 0.1104,0.166 -0.2171,0.5535 -0.0969,0.1344 -0.0893,0.2539 0.0218,0.3628 0.1202,0.0826 0.2396,0.0615 0.356,-0.0571 0.2328,-0.2741 0.3958,-0.5588 0.4926,-0.8592 0.0819,-0.3049 -0.0165,-0.4498 -0.4033,-0.4498 0,0 -2.5173,0 -2.5173,0 0,0 0.1021,-0.2073 0.1021,-0.2073 0,0 0.0128,-0.2073 0.0128,-0.2073 0,0 -0.1239,-0.1449 -0.1239,-0.1449 -0.145,-0.0511 -0.2523,0 -0.3199,0.1502 -0.1472,0.347 -0.383,0.6781 -0.706,0.9988 -0.1179,0.1239 -0.1322,0.2433 -0.0413,0.3522 0.1082,0.0984 0.2328,0.0932 0.3695,-0.0105 0.1217,-0.0984 0.2681,-0.2591 0.4416,-0.4814 0,0 0.8509,0 0.8509,0 -0.1269,0.7142 -0.6917,1.1641 -1.704,1.4389 -0.16,0.0564 -0.2238,0.1548 -0.1908,0.2944 0.0578,0.1345 0.172,0.1915 0.344,0.1608 0.8824,-0.2073 1.4794,-0.5483 1.7911,-1.1386 0.4296,0.6414 1.1167,1.0657 2.0562,1.2625 0,0 0.2103,-0.0151 0.2103,-0.0151 0,0 0.1157,-0.1449 0.1157,-0.1449 0.0165,-0.1607 -0.0571,-0.2591 -0.2238,-0.3056 0,0 0,0 0,0 z m -5.4658,0.3672 c 0.5572,-0.2381 1.0281,-0.5017 1.4141,-0.7811 0,0 0.1262,-0.1862 0.1262,-0.1862 0,0 -0.0526,-0.1968 -0.0526,-0.1968 0,0 -0.1862,-0.0878 -0.1862,-0.0878 0,0 -0.2133,0.0878 -0.2133,0.0878 -0.3935,0.2794 -0.8321,0.5227 -1.3135,0.7345 -0.1577,0.0729 -0.2148,0.1818 -0.1502,0.3214 0.0713,0.1495 0.2095,0.1653 0.3755,0.1082 0,0 0,0 0,0 z m -0.0871,-2.1313 c 0,0 0.051,0.015 0.051,0.015 0.3643,0.0984 0.709,0.2178 1.0334,0.3627 0.1517,0.0563 0.2651,0.015 0.3297,-0.1299 0,0 -0.007,-0.1863 -0.007,-0.1863 0,0 -0.1434,-0.1397 -0.1434,-0.1397 -0.326,-0.1239 -0.703,-0.253 -1.1363,-0.3927 -0.154,-0.0316 -0.2651,0.0255 -0.3117,0.1705 -0.0488,0.1502 0.0338,0.2433 0.1848,0.3004 0,0 0,0 0,0 z m 2.7441,2.7832 c -0.1644,0 -0.2681,0.0886 -0.3079,0.2696 -0.0736,1.1385 -0.8786,1.7228 -2.4114,1.7588 -0.1735,0.0263 -0.2584,0.1142 -0.2509,0.2644 0.0338,0.1449 0.1375,0.2117 0.3132,0.202 1.7656,-0.0368 2.7216,-0.7608 2.8643,-2.1787 0.0285,-0.181 -0.0405,-0.2846 -0.2073,-0.3161 0,0 0,0 0,0 z m -7.2741,-3.2541 c 0,0 1.4764,0 1.4764,0 0.2974,0 0.4431,0.1397 0.4424,0.419 0,0 0,1.0086 0,1.0086 -10e-4,0.0931 0.009,0.1555 0.033,0.1765 0,0 0.1675,0.0361 0.1675,0.0361 0,0 0.5677,0 0.5677,0 0.1743,0 0.2531,0.0878 0.2531,0.2275 0,0.1555 -0.0969,0.2328 -0.2531,0.2433 0,0 -0.6931,0 -0.6931,0 -0.2201,0 -0.3665,-0.0413 -0.4364,-0.1299 -0.0736,-0.0773 -0.1089,-0.2426 -0.1059,-0.5069 0,0 0,-0.8794 0,-0.8794 0.004,-0.0932 -0.0548,-0.1397 -0.1382,-0.1397 0,0 -1.1753,0 -1.1753,0 -0.1201,0 -0.178,0.0465 -0.1637,0.1502 0,0 0,0.383 0,0.383 0,0.5738 -0.2643,1.0086 -0.8388,1.3555 -0.1668,0.0879 -0.3035,0.0879 -0.3928,-0.0413 -0.0961,-0.1396 -0.0481,-0.2696 0.1036,-0.3627 0.4784,-0.2689 0.6827,-0.6106 0.6737,-1.0551 0,0 0,-0.4506 0,-0.4506 0,-0.305 0.1412,-0.4341 0.4799,-0.4341 0,0 0,0 0,0 z m 1.891,2.3852 c 0.2125,0.005 0.3537,0.072 0.4273,0.2072 0.0713,0.1345 0.0541,0.3102 -0.0466,0.5272 -0.2869,0.6158 -0.6609,1.1183 -1.1227,1.5005 0.5279,0.3057 1.0867,0.4972 1.6777,0.5745 0.1705,0.0368 0.2546,0.1397 0.2523,0.3057 -0.027,0.1555 -0.1269,0.217 -0.3019,0.202 -0.8779,-0.1554 -1.5725,-0.404 -2.084,-0.7555 -0.5234,0.3154 -1.137,0.5588 -1.8422,0.7292 -0.1847,0.0361 -0.3086,-0.0157 -0.3747,-0.1502 -0.0443,-0.1652 0.0165,-0.2741 0.1862,-0.3312 0.6466,-0.1599 1.1708,-0.3619 1.5771,-0.6 -0.3417,-0.3102 -0.6549,-0.6782 -0.9793,-1.149 -0.1036,-0.1653 -0.0856,-0.2997 0.0503,-0.4086 0,0 0.2186,-0.0308 0.2186,-0.0308 0,0 0.1847,0.1502 0.1847,0.1502 0.3019,0.4709 0.6241,0.8381 1.0056,1.1483 0.5009,-0.3725 0.8501,-0.781 1.0477,-1.2369 0.0443,-0.1186 0.021,-0.181 -0.0631,-0.1915 0,0 -2.3537,0 -2.3537,0 -0.1119,0 -0.199,-0.0826 -0.199,-0.2426 0,-0.1554 0.0804,-0.2485 0.199,-0.2485 0,0 2.5407,0 2.5407,0 0,0 0,0 0,0 z m -3.6551,-2.3702 c 0,0 0,1.149 0,1.149 0,0 0.5662,0 0.5662,0 0.1127,0 0.1787,0.0826 0.1787,0.2276 0,0.1449 -0.0713,0.2275 -0.1787,0.2275 0,0 -0.5662,0 -0.5662,0 0,0 0,1.2835 0,1.2835 0.1073,-0.0571 0.238,-0.1397 0.389,-0.2486 0,0 0.0375,-0.0255 0.0375,-0.0255 0.136,-0.0826 0.2058,-0.0781 0.3102,0.0518 0,0 0.048,0.2223 0.048,0.2223 0,0 -0.1321,0.1554 -0.1321,0.1554 -0.2974,0.1863 -0.5182,0.3155 -0.6526,0.3876 0,0 0,1.7393 0,1.7393 0.01,0.4964 -0.2982,0.6413 -0.9238,0.4393 -0.172,-0.0616 -0.2358,-0.1862 -0.223,-0.3417 0,0 0.1164,-0.1652 0.1164,-0.1652 0,0 0.2215,0 0.2215,0 0.2576,0.1089 0.353,0.0931 0.353,-0.0308 0,0 0,-1.4126 0,-1.4126 0,0 -0.024,0.015 -0.024,0.015 -0.2471,0.1344 -0.4131,0.2178 -0.4934,0.2486 -0.1179,0.036 -0.2058,-0.0158 -0.2704,-0.145 -0.0466,-0.1397 -0.0143,-0.238 0.0931,-0.2951 0.0714,-0.0361 0.1863,-0.0931 0.3455,-0.1758 0.1614,-0.0826 0.2771,-0.1449 0.3492,-0.1757 0,0 0,-1.5268 0,-1.5268 0,0 -0.5948,0 -0.5948,0 -0.1202,0 -0.1862,-0.0826 -0.1862,-0.2275 0,-0.1502 0.0683,-0.2276 0.1862,-0.2276 0,0 0.5948,0 0.5948,0 0,0 0,-1.149 0,-1.149 0,-0.1187 0.0819,-0.1915 0.2253,-0.1915 0.1464,0 0.2306,0.0728 0.2306,0.1915 0,0 0,0 0,0 z m -19.472,0.8336 c 0,0 1.098,0 1.098,0 0.1434,-0.005 0.2276,-0.0781 0.2276,-0.2336 0,-0.1547 -0.0887,-0.2373 -0.2276,-0.2478 0,0 -0.947,0 -0.947,0 0.0503,-0.1915 0.0751,-0.2951 0.0751,-0.3162 0.0285,-0.1547 -0.0361,-0.2583 -0.1915,-0.3049 -0.1652,-0.021 -0.2689,0.0413 -0.3117,0.1915 -0.1757,0.7661 -0.4618,1.4179 -0.8599,1.9714 -0.1066,0.1607 -0.0946,0.2952 0.0376,0.3988 0,0 0.2095,0.036 0.2095,0.036 0,0 0.2095,-0.1344 0.2095,-0.1344 0,0 0.1382,-0.1862 0.1382,-0.1862 0,0 0.2771,0 0.2771,0 0,0 0,0.8433 0,0.8433 0,0 -0.6496,0 -0.6496,0 -0.1269,0.005 -0.2027,0.0827 -0.2027,0.2381 0,0.1495 0.0788,0.2328 0.2027,0.2426 0,0 0.6496,0 0.6496,0 0,0 0,1.9616 0,1.9616 0,0.2381 0.0541,0.3935 0.163,0.4656 0.1081,0.0721 0.2523,0.0518 0.4296,-0.0623 0.2854,-0.1863 0.5843,-0.4499 0.8959,-0.7916 0.1022,-0.1239 0.0931,-0.2486 -0.024,-0.3672 0,0 -0.1893,-0.0571 -0.1893,-0.0571 0,0 -0.1772,0.0984 -0.1772,0.0984 -0.1825,0.2125 -0.3349,0.3672 -0.4551,0.4656 0,0 -0.1232,0.0413 -0.1232,0.0413 0,0 -0.0398,-0.1036 -0.0398,-0.1036 0,0 0,-1.6507 0,-1.6507 0,0 0.8456,0 0.8456,0 0.1202,-0.01 0.1968,-0.0931 0.1968,-0.2531 0,-0.1502 -0.0713,-0.2223 -0.1968,-0.2276 0,0 -0.8456,0 -0.8456,0 0,0 0,-0.8433 0,-0.8433 0,0 0.706,0 0.706,0 0.1464,-0.005 0.232,-0.0886 0.232,-0.2328 0,-0.1555 -0.0893,-0.2381 -0.232,-0.2486 0,0 -1.2264,0 -1.2264,0 0,0 0.0503,-0.0984 0.0503,-0.0984 0.1194,-0.2538 0.2035,-0.4506 0.2553,-0.5948 0,0 0,0 0,0 z m 1.9301,1.6973 c 0,0 0,-0.7661 0,-0.7661 0,0 2.0683,0 2.0683,0 0,0 0,0.5791 0,0.5791 0,0.1036 -0.0842,0.187 -0.1863,0.187 0,0 -1.882,0 -1.882,0 0,0 0,0 0,0 z m 0,-1.837 c 0,-0.1036 0.0826,-0.187 0.1863,-0.187 0,0 1.6957,0 1.6957,0 0.1021,0 0.1863,0.0834 0.1863,0.187 0,0 0,0.5948 0,0.5948 0,0 -2.0683,0 -2.0683,0 0,0 0,-0.5948 0,-0.5948 0,0 0,0 0,0 z m 3.022,4.6104 c 0,0 -0.1569,-0.1607 -0.1569,-0.1607 -0.4371,-0.2223 -0.7938,-0.4709 -1.0725,-0.7503 0,0 0.1089,-0.1036 0.1089,-0.1036 0.2772,-0.2486 0.5047,-0.4761 0.6842,-0.6827 0.0984,-0.1194 0.0856,-0.238 -0.0361,-0.3522 0,0 -0.1862,-0.0518 -0.1862,-0.0518 0,0 -0.1667,0.1036 -0.1667,0.1036 -0.2358,0.2689 -0.4671,0.507 -0.6939,0.7037 -0.2096,-0.3154 -0.3635,-0.6623 -0.4567,-1.0086 0,0 1.0882,0 1.0882,0 0.2276,0 0.4131,-0.187 0.4131,-0.4145 0,0 0,-2.1366 0,-2.1366 0,-0.2283 -0.1855,-0.4146 -0.4131,-0.4146 0,0 -2.2019,0 -2.2019,0 -0.2275,0 -0.4123,0.1863 -0.4123,0.4146 0,0 8e-4,4.8432 8e-4,4.8432 0.01,0.4814 0.2193,0.6413 0.6316,0.4656 0.2448,-0.1344 0.5437,-0.3777 0.8936,-0.7345 0.118,-0.1502 0.1142,-0.2846 -0.009,-0.4145 0,0 -0.2005,-0.0616 -0.2005,-0.0616 0,0 -0.1937,0.1187 -0.1937,0.1187 -0.175,0.2223 -0.3613,0.3935 -0.5535,0.5227 0,0 -0.0661,0.0157 -0.0661,0.0157 0,0 -0.0233,-0.0781 -0.0233,-0.0781 0,0 0,-2.1261 0,-2.1261 0,0 0.5287,0 0.5287,0 0.2734,1.1693 0.9643,2.033 2.0728,2.5662 0,0 0.2313,0.0518 0.2313,0.0518 0,0 0.1712,-0.1141 0.1712,-0.1141 0,0 0.018,-0.2013 0.018,-0.2013 0,0 0,0 0,0 z m 3.5778,-5.1902 c 0,0 3.0648,0 3.0648,0 0.1735,0 0.2869,0.0984 0.2869,0.2531 0,0.166 -0.1096,0.2539 -0.2869,0.2539 0,0 -3.0648,0 -3.0648,0 -0.163,-0.0105 -0.2636,-0.0826 -0.2636,-0.2539 0,-0.1599 0.1006,-0.2478 0.2636,-0.2531 0,0 0,0 0,0 z m -0.2576,1.475 c 0,0 3.6514,0 3.6514,0 0.1524,0.01 0.2478,0.0879 0.2478,0.2531 0,0.1757 -0.0954,0.2433 -0.2478,0.2538 0,0 -0.73,0 -0.73,0 0,0 0,2.6751 0,2.6751 0,0.5017 -0.142,0.7968 -0.4604,0.8899 -0.3207,0.1142 -0.8877,0.0624 -1.7078,-0.1652 0,0 -0.1787,-0.1247 -0.1787,-0.1247 0,0 -0.007,-0.2275 -0.007,-0.2275 0,0 0.1292,-0.1607 0.1292,-0.1607 0.0676,-0.0308 0.1337,-0.0256 0.232,0 0.5858,0.1607 0.9741,0.2283 1.1641,0.187 0.2028,-0.0368 0.2989,-0.1818 0.2989,-0.4664 0,0 0,-2.6075 0,-2.6075 0,0 -2.3912,0 -2.3912,0 -0.16,-0.0105 -0.2583,-0.0826 -0.2583,-0.2643 0,-0.1547 0.0946,-0.2381 0.2583,-0.2426 0,0 0,0 0,0 z m -1.116,-1.5891 c 0,0 0.154,-0.1547 0.154,-0.1547 0,0 0.1975,0.005 0.1975,0.005 0,0 0.1337,0.1712 0.1337,0.1712 0,0 -0.0308,0.2171 -0.0308,0.2171 -0.3079,0.5587 -0.6294,1.0348 -0.9718,1.4284 0,0 -0.1803,0.0931 -0.1803,0.0931 0,0 -0.1907,-0.0676 -0.1907,-0.0676 -0.1194,-0.1187 -0.1262,-0.2433 -0.0226,-0.3672 0.3718,-0.4191 0.6767,-0.8592 0.911,-1.3248 0,0 0,0 0,0 z m -0.5948,3.4463 c 0,0 -0.1907,0.0984 -0.1907,0.0984 0,0 -0.1863,-0.0721 -0.1863,-0.0721 0,0 -0.0758,-0.1915 -0.0758,-0.1915 0,0 0.0893,-0.202 0.0893,-0.202 0.3943,-0.4401 0.727,-0.9365 0.9959,-1.49 0,0 0.1509,-0.166 0.1509,-0.166 0,0 0.1998,-0.005 0.1998,-0.005 0,0 0.1434,0.1607 0.1434,0.1607 0,0 -0.0142,0.2275 -0.0142,0.2275 -0.0391,0.0984 -0.1112,0.2381 -0.2216,0.4139 0,0 -0.0698,0.1141 -0.0698,0.1141 0,0 0,3.203 0,3.203 -0.009,0.181 -0.0826,0.2846 -0.2531,0.2846 -0.1592,0 -0.2433,-0.1089 -0.2509,-0.2846 0,0 0,-2.458 0,-2.458 0,0 -0.3169,0.3672 -0.3169,0.3672 0,0 0,0 0,0 z m -17.8437,-0.7397 c -0.0503,-0.1292 -0.0992,-0.2433 -0.1405,-0.3312 0,0 -0.0818,-0.1757 -0.0818,-0.1757 0,0 -0.0248,-0.1555 -0.0248,-0.1555 0,0 0.012,-0.1397 0.012,-0.1397 0,0 0.2561,-1.1956 0.2561,-1.1956 0,0 0.004,-0.005 0.004,-0.005 0,0 0.004,-0.0361 0.004,-0.0361 0,0 0.004,-0.0157 0.004,-0.0157 0,0 0.005,-0.0564 0.005,-0.0564 0.021,-0.1915 0.009,-0.3214 -0.0323,-0.3882 -0.045,-0.0826 -0.1772,-0.1194 -0.3492,-0.1194 0,0 -0.9192,0 -0.9192,0 -0.3132,0 -0.4168,0.1607 -0.4168,0.404 0,0 0,5.0918 0,5.0918 0,0.1397 0.0931,0.2275 0.2531,0.2275 0.1622,0 0.2516,-0.0878 0.2516,-0.2275 0,0 0,-4.8124 0,-4.8124 0,-0.1345 0.0503,-0.1915 0.1772,-0.1915 0,0 0.3657,0 0.3657,0 0.0962,0 0.1517,0.0518 0.1592,0.1554 0,0 -0.2305,1.0815 -0.2305,1.0815 0,0 -8e-4,0 -8e-4,0 0,0 -0.0195,0.2275 -0.0195,0.2275 0,0.1089 0.0113,0.2276 0.0668,0.3515 0,0 0.0819,0.1765 0.0819,0.1765 0.0571,0.1239 0.1344,0.2996 0.1953,0.4806 0.0608,0.1818 0.0878,0.3733 0.0878,0.4919 0,0.1555 -0.0398,0.2486 -0.0841,0.2952 -0.0435,0.0465 -0.0856,0.0773 -0.2027,0.0826 0,0 -0.1998,-0.0361 -0.1998,-0.0361 -0.1262,-0.0315 -0.2584,0.0413 -0.2937,0.1705 -0.036,0.1247 0.0391,0.2591 0.166,0.2899 0.1127,0.0308 0.2223,0.0518 0.3275,0.0518 0,0 0.009,0 0.009,0 0.2185,0 0.4423,-0.0774 0.582,-0.2381 0.1412,-0.1607 0.1877,-0.383 0.1877,-0.6158 -0.003,-0.2846 -0.1013,-0.585 -0.1997,-0.8381 0,0 0,0 0,0 z m 0.4844,-0.202 c -0.136,0.0571 -0.1607,0.1757 -0.0947,0.3364 0.3012,0.6466 0.5107,1.2369 0.6316,1.7641 0.0451,0.166 0.1442,0.2539 0.2922,0.2178 0.1321,-0.0263 0.1967,-0.1502 0.1614,-0.3312 -0.1074,-0.5692 -0.3387,-1.1745 -0.6571,-1.8317 -0.0856,-0.1502 -0.2043,-0.2178 -0.3334,-0.1554 0,0 0,0 0,0 z m 3.5349,-1.1491 c 0,0 -0.1599,-0.1441 -0.1599,-0.1441 -0.6887,-0.2749 -1.246,-0.6835 -1.6778,-1.2264 -0.2057,-0.2749 -0.4168,-0.2644 -0.6316,0.0413 -0.4228,0.5324 -0.8448,0.9365 -1.4486,1.3292 -0.19,0.13 -0.1412,0.3162 -0.0984,0.3778 0.1044,0.1247 0.235,0.1449 0.401,0.0421 0.7112,-0.4506 1.0274,-0.8389 1.2392,-1.1386 0.1194,-0.1396 0.1892,-0.2072 0.2095,-0.2072 0.0285,0 0.1149,0.0728 0.2613,0.2125 0.2922,0.3462 0.7931,0.6984 1.5058,1.0604 0,0 0.2253,0.0105 0.2253,0.0105 0,0 0.1652,-0.1449 0.1652,-0.1449 0,0 0.009,-0.2126 0.009,-0.2126 0,0 0,0 0,0 z m -2.3551,0.8907 c -0.148,0.0361 -0.1998,0.1547 -0.1645,0.3155 0.1397,0.5227 0.2509,1.0972 0.3282,1.7175 0.0315,0.1712 0.1209,0.2749 0.2719,0.2591 0.1434,-0.021 0.2057,-0.1344 0.1945,-0.3109 -0.0676,-0.6572 -0.1803,-1.2519 -0.3395,-1.7799 -0.0525,-0.16 -0.1524,-0.2381 -0.2906,-0.2013 0,0 0,0 0,0 z m 1.3,0.2118 c -0.1322,0.8697 -0.3057,1.5831 -0.519,2.1471 -0.0578,0.166 -0.0248,0.3004 0.1202,0.347 0.2058,0.0676 0.2899,-0.1134 0.3222,-0.1968 0.2703,-0.7089 0.4851,-1.4487 0.555,-2.2199 0.018,-0.1863 -0.0451,-0.3049 -0.2006,-0.3312 -0.1524,-0.0256 -0.247,0.0781 -0.2778,0.2538 0,0 0,0 0,0 z m 0.7427,2.6443 c 0,0 -3.369,0 -3.369,0 -0.1449,0.005 -0.2238,0.0879 -0.2343,0.2381 0.005,0.1554 0.0804,0.2328 0.2231,0.2433 0,0 3.3802,0 3.3802,0 0.1307,-0.0105 0.1975,-0.0879 0.2095,-0.2381 -0.012,-0.1554 -0.0788,-0.2328 -0.2095,-0.2433 0,0 0,0 0,0 z m -0.7818,-3.5913 c 0,0 -1.9038,0 -1.9038,0 -0.1464,0.0105 -0.2268,0.0879 -0.238,0.2433 0.007,0.1607 0.0811,0.2434 0.226,0.2539 0,0 1.9158,0 1.9158,0 0.1292,-0.0105 0.1983,-0.0932 0.2095,-0.2486 -0.0112,-0.1555 -0.0803,-0.2381 -0.2095,-0.2486 0,0 0,0 0,0 z m -10.8106,-1.5681 c 0,0 -0.1855,-0.1239 -0.1855,-0.1239 -0.178,-0.0105 -0.2907,0.0931 -0.3357,0.3057 -0.1465,0.8531 -0.4619,1.5575 -0.9448,2.111 -0.0991,0.1397 -0.0946,0.2794 0.018,0.4138 0,0 0.184,0.0774 0.184,0.0774 0,0 0.1878,-0.1029 0.1878,-0.1029 0.1021,-0.1142 0.2403,-0.3522 0.2403,-0.3522 0,0 0,3.2548 0,3.2548 0.007,0.1705 0.0909,0.2741 0.2591,0.2741 0.1637,0 0.2493,-0.1036 0.2569,-0.2741 0,0 0,-4.1395 0,-4.1395 0.1824,-0.4348 0.2988,-0.8284 0.3544,-1.1851 0.0158,-0.1036 0.005,-0.1862 -0.0345,-0.2591 0,0 0,0 0,0 z m 0.9012,1.6928 c -0.1029,0 -0.1863,-0.0834 -0.1863,-0.1818 0,0 0,-0.8486 0,-0.8486 0,-0.1029 0.0834,-0.1862 0.1863,-0.1862 0,0 2.6946,0 2.6946,0 0.1028,0 0.187,0.0833 0.187,0.1862 0,0 0,0.8486 0,0.8486 0,0.0984 -0.0842,0.1818 -0.187,0.1818 0,0 -2.6946,0 -2.6946,0 0,0 0,0 0,0 z m 3.9435,3.3427 c 0,0 -0.1157,-0.145 -0.1157,-0.145 -1.0409,-0.4761 -1.7476,-1.0093 -2.1201,-1.6041 0,0 1.9121,0 1.9121,0 0.1217,0 0.1983,-0.0984 0.1983,-0.2231 0,-0.1186 -0.0766,-0.217 -0.1983,-0.217 0,0 -2.063,0 -2.063,0 0,0 0,-0.6827 0,-0.6827 0,0 1.3916,0 1.3916,0 0.2276,0 0.413,-0.1869 0.413,-0.4145 0,0 0,-1.3293 0,-1.3293 0,-0.2283 -0.1854,-0.4145 -0.413,-0.4145 0,0 -3.2015,0 -3.2015,0 -0.2276,0 -0.4131,0.1862 -0.4131,0.4145 0,0 0,1.3293 0,1.3293 0,0.2276 0.1855,0.4145 0.4131,0.4145 0,0 1.3285,0 1.3285,0 0,0 0,0.6827 0,0.6827 0,0 -1.8888,0 -1.8888,0 -0.1216,0 -0.1967,0.0984 -0.1967,0.217 0,0.1247 0.0751,0.2231 0.1967,0.2231 0,0 1.7762,0 1.7762,0 -0.3222,0.4911 -0.9718,1.0138 -1.9564,1.5628 -0.1134,0.0721 -0.1314,0.1908 -0.0526,0.3515 0.0894,0.1344 0.1938,0.1705 0.3185,0.1141 0.8531,-0.4558 1.4546,-0.947 1.8031,-1.4854 0,0 0,1.8219 0,1.8219 0.0105,0.1397 0.0916,0.2275 0.2456,0.2275 0.1434,0 0.229,-0.0833 0.2358,-0.2275 0,0 0,-1.8219 0,-1.8219 0.4784,0.5955 1.1475,1.1175 2.0052,1.5733 0,0 0.19,0.005 0.19,0.005 0,0 0.1554,-0.1502 0.1554,-0.1502 0,0 0.0361,-0.2223 0.0361,-0.2223 0,0 0,0 0,0 z m 29.889,-2.2102 c 0,0.2335 -0.1885,0.4198 -0.4206,0.4198 -0.2313,0 -0.419,-0.1863 -0.419,-0.4198 0,-0.2276 0.1877,-0.4191 0.419,-0.4191 0.2321,0 0.4206,0.1915 0.4206,0.4191 0,0 0,0 0,0 z m -19.3232,0 c 0,0.2335 -0.1885,0.4198 -0.4191,0.4198 -0.2328,0 -0.4198,-0.1863 -0.4198,-0.4198 0,-0.2276 0.187,-0.4191 0.4198,-0.4191 0.2306,0 0.4191,0.1915 0.4191,0.4191 0,0 0,0 0,0 z"
     inkscape:connector-curvature="0" />
</svg>
