<?xml version="1.0" encoding="UTF-8" standalone="no"?>
<svg
   xmlns:dc="http://purl.org/dc/elements/1.1/"
   xmlns:cc="http://creativecommons.org/ns#"
   xmlns:rdf="http://www.w3.org/1999/02/22-rdf-syntax-ns#"
   xmlns:svg="http://www.w3.org/2000/svg"
   xmlns="http://www.w3.org/2000/svg"
   xmlns:sodipodi="http://sodipodi.sourceforge.net/DTD/sodipodi-0.dtd"
   xmlns:inkscape="http://www.inkscape.org/namespaces/inkscape"
   viewBox="0 0 350.04831 57.2066"
   id="svg2"
   height="57.2066"
   width="350.04831"
   version="1.1"
   inkscape:version="0.48.4 r9939"
   sodipodi:docname="postal-saving-bank-of-china.svg">
  <sodipodi:namedview
     pagecolor="#ffffff"
     bordercolor="#666666"
     borderopacity="1"
     objecttolerance="10"
     gridtolerance="10"
     guidetolerance="10"
     inkscape:pageopacity="0"
     inkscape:pageshadow="2"
     inkscape:window-width="1280"
     inkscape:window-height="743"
     id="namedview21"
     showgrid="false"
     fit-margin-top="0"
     fit-margin-left="0"
     fit-margin-right="0"
     fit-margin-bottom="0"
     inkscape:zoom="6.3429568"
     inkscape:cx="44.279103"
     inkscape:cy="21.882673"
     inkscape:window-x="0"
     inkscape:window-y="0"
     inkscape:window-maximized="1"
     inkscape:current-layer="svg2" />
  <metadata
     id="metadata40">
    <rdf:RDF>
      <cc:Work
         rdf:about="">
        <dc:format>image/svg+xml</dc:format>
        <dc:type
           rdf:resource="http://purl.org/dc/dcmitype/StillImage" />
      </cc:Work>
    </rdf:RDF>
  </metadata>
  <defs
     id="defs38" />
  <path
     style="fill:#006828;fill-rule:evenodd"
     d="M 35.875 0 L 33.71875 9 L 19.875 9.03125 L 16.65625 25.84375 L 3.375 25.75 L 0 40.5 L 13.71875 40.5 L 9.875 57.09375 L 39.59375 57.09375 L 43.875 39.75 L 53.125 39.75 L 54.3125 34.0625 L 42.21875 34 L 37.65625 51.59375 L 15.0625 51.5625 L 15.625 48.4375 L 35.5625 48.5 L 39.65625 31.125 L 54.90625 31.1875 L 56.09375 25.71875 L 36.875 25.75 L 32.90625 43.21875 L 16.4375 43.25 L 16.96875 40.6875 L 30.59375 40.59375 L 33.59375 25.71875 L 20.5625 25.65625 L 21 23.40625 L 40.59375 23.4375 L 42.90625 13.78125 L 58.5625 13.875 L 59.71875 8.40625 L 40.625 8.4375 L 38.6875 16.84375 L 22.3125 16.90625 L 22.65625 14.4375 L 35.71875 14.4375 L 37.90625 5.21875 L 60.375 5.21875 L 61.46875 0 L 35.875 0 z M 5.15625 31.59375 L 15.59375 31.59375 L 15 34.0625 L 4.5625 34.0625 L 5.15625 31.59375 z M 19.4375 31.59375 L 29.28125 31.59375 L 28.875 34.0625 L 18.875 34.0625 L 19.4375 31.59375 z "
     id="path3447" />
  <path
     inkscape:connector-curvature="0"
     d="m 91.9795,17.3853 c 0,0.2838 -0.139,0.4789 -0.417,0.5854 -0.2779,0.1064 -0.6586,0.3902 -1.1421,0.8515 -0.4833,0.4612 -0.8338,0.8869 -1.0514,1.2772 -0.2175,0.3903 -0.3867,0.6682 -0.5076,0.8337 -0.1208,0.1656 -0.29,0.3075 -0.5075,0.4258 -0.4593,0.2601 -0.7252,0.9461 -0.7977,2.0577 -0.0241,0.4494 -0.0785,0.7392 -0.1631,0.8693 -0.0846,0.1301 -0.2357,0.1951 -0.4532,0.1951 -0.2176,0 -0.4532,-0.0118 -0.707,-0.0354 -0.2538,-0.0237 -0.6405,-0.0355 -1.1602,-0.0355 -0.5197,0 -1.3234,0.0473 -2.4111,0.1419 -1.0876,0.0946 -1.7886,0.1655 -2.1028,0.2129 -0.3142,0.0473 -0.4774,0.3606 -0.4894,0.9401 -0.0121,0.5795 -0.1028,1.839 -0.272,3.7785 -0.1692,1.9395 -0.2538,3.8258 -0.2538,5.6589 0,1.8331 0.1209,2.9388 0.3626,3.3172 0.1208,0.2129 0.1813,0.4021 0.1813,0.5677 0,0.544 -0.6043,0.816 -1.8128,0.816 -0.4351,0 -0.7433,-0.0591 -0.9246,-0.1774 -0.1813,-0.1183 -0.2719,-0.3134 -0.2719,-0.5854 0,-0.272 0.0484,-0.6209 0.145,-1.0466 0.2659,-1.2536 0.3989,-2.9211 0.3989,-5.0025 0,-0.6623 -0.0121,-1.2181 -0.0363,-1.6675 l -0.145,-3.1221 C 77.3924,26.5624 77.3622,25.6814 77.3501,25.5986 77.338,25.5158 77.2715,25.4448 77.1507,25.3857 77.0299,25.3266 76.8849,25.297 76.7156,25.297 c -0.1692,0 -0.7553,0.1006 -1.7584,0.3016 -1.0031,0.201 -1.6315,0.3725 -1.8853,0.5144 -0.2538,0.142 -0.4895,0.2129 -0.707,0.2129 -0.2175,0 -0.4592,-0.272 -0.7251,-0.816 -0.3384,-0.7096 -0.846,-1.4546 -1.5228,-2.2352 -0.6768,-0.7805 -1.2629,-1.8271 -1.7584,-3.1398 -0.4955,-1.3127 -0.7433,-2.1465 -0.7433,-2.5013 0,-0.3548 0.139,-0.6031 0.417,-0.7451 0.278,-0.1418 0.8762,-0.2128 1.7947,-0.2128 0.9185,0 2.2116,-0.2838 3.8794,-0.8515 0.4109,-0.1419 1.3052,-0.3903 2.6829,-0.7451 0.3868,-0.0945 0.5801,-0.4966 0.5801,-1.2062 L 76.8607,9.2251 c 0,-0.4257 0.0483,-0.7095 0.145,-0.8514 0.0967,-0.1419 0.3807,-0.2129 0.852,-0.2129 0.4713,0 1.1058,0.0946 1.9035,0.2838 0.7976,0.1892 1.275,0.3371 1.432,0.4435 0.1572,0.1064 0.2357,0.2306 0.2357,0.3725 0,0.142 -0.1208,0.2957 -0.3625,0.4613 -0.2417,0.1655 -0.4109,0.4967 -0.5076,0.9934 -0.0967,0.4967 -0.145,1.4664 -0.145,2.9092 0,0.1656 0.0422,0.3075 0.1269,0.4258 0.0846,0.1182 0.1752,0.1655 0.2719,0.1419 1.6194,-0.1893 2.9851,-0.2839 4.0969,-0.2839 1.1119,0 2.1996,0.2425 3.2631,0.7274 1.0635,0.4849 1.9639,0.952 2.7011,1.4014 0.7372,0.4494 1.1058,0.8988 1.1058,1.3482 z m -11.2032,4.5058 2.7918,-0.3193 c 0.8459,-0.0946 1.3958,-0.2366 1.6496,-0.4258 0.2538,-0.1892 0.5076,-0.6563 0.7614,-1.4014 0.2538,-0.7451 0.3807,-1.4014 0.3807,-1.9691 0,-0.5676 -0.1994,-0.9875 -0.5983,-1.2595 -0.3988,-0.2719 -1.0332,-0.408 -1.9034,-0.408 -0.7735,0 -1.6074,0.0473 -2.5017,0.1419 -0.3867,0.0474 -0.6224,0.1065 -0.707,0.1775 -0.0846,0.0709 -0.145,0.1419 -0.1813,0.2128 -0.0362,0.071 -0.0664,0.6268 -0.0906,1.6675 l -0.1088,2.9092 c 0,0.4495 0.1692,0.6742 0.5076,0.6742 z m -3.5531,-0.071 -0.0725,-1.9513 c -0.0483,-1.3482 -0.0725,-2.1287 -0.0725,-2.3416 0,-0.2129 -0.1027,-0.3193 -0.3082,-0.3193 -0.2054,0 -0.9668,0.2187 -2.2841,0.6563 -1.3173,0.4376 -2.1029,0.7806 -2.3566,1.0289 -0.2539,0.2484 -0.3808,0.5617 -0.3808,0.9402 0,0.3784 0.0846,0.9757 0.2539,1.7917 0.1691,0.816 0.3383,1.3127 0.5075,1.4901 0.1692,0.1774 0.4109,0.2661 0.7251,0.2661 0.3143,0 0.7735,-0.0887 1.3778,-0.2661 0.6043,-0.1774 1.3052,-0.3489 2.1028,-0.5144 0.1209,-0.0237 0.2357,-0.1065 0.3445,-0.2484 0.1087,-0.1419 0.1631,-0.3193 0.1631,-0.5322 z"
     style="fill:#1b1918;fill-rule:evenodd"
     id="path8" />
  <path
     inkscape:connector-curvature="0"
     d="m 126.3811,12.7024 c 0,0.2027 -0.0847,0.456 -0.2538,0.76 -0.3626,0.6333 -0.5439,1.5579 -0.5439,2.7738 0,0.456 0.0544,1.14 0.1632,2.0519 0.1087,0.912 0.1631,1.7732 0.1631,2.5838 l -0.1813,3.1918 c -0.0483,1.2666 -0.0725,3.4578 -0.0725,6.5737 0,3.1158 0.0665,5.0283 0.1994,5.7376 0.133,0.7093 0.1994,1.311 0.1994,1.8049 0,0.494 -0.2054,0.741 -0.6163,0.741 -0.4109,0 -1.2025,-0.3357 -2.3748,-1.007 -1.1723,-0.6713 -2.1512,-1.3552 -2.9367,-2.0518 -0.7856,-0.6967 -1.1784,-1.1336 -1.1784,-1.311 0,-0.0506 0.0544,-0.076 0.1632,-0.076 0.1088,0 0.3323,0.0634 0.6707,0.19 0.3384,0.1267 0.8339,0.19 1.4865,0.19 0.6527,0 1.0817,-0.0697 1.2871,-0.209 0.2055,-0.1393 0.3626,-0.3863 0.4714,-0.7409 0.1087,-0.3547 0.1631,-0.7853 0.1631,-1.292 0,-0.5066 -0.0483,-1.0765 -0.145,-1.7098 -0.1692,-1.064 -0.2538,-2.4319 -0.2538,-4.1038 0,-1.6719 -0.0604,-3.7871 -0.1813,-6.3457 -0.1208,-2.5584 -0.2236,-4.1227 -0.3082,-4.6926 -0.0846,-0.57 -0.2477,-1.14 -0.4894,-1.71 -0.2417,-0.5699 -0.5801,-1.0449 -1.0152,-1.4249 -0.4351,-0.3799 -0.9668,-0.57 -1.5953,-0.57 -1.8369,0 -3.686,0.2787 -5.5472,0.836 -1.8611,0.5573 -3.1784,1.1209 -3.9519,1.6909 -0.7735,0.57 -1.2569,1.1653 -1.4502,1.7859 -0.1934,0.6206 -0.6406,3.1348 -1.3415,7.5426 -0.3867,2.3558 -0.5801,3.9517 -0.5801,4.7877 0,0.5573 0.0785,1.0639 0.2357,1.5199 0.1571,0.456 0.3081,0.7663 0.4532,0.9309 0.145,0.1647 0.3625,0.247 0.6526,0.247 0.29,0 0.8882,-0.076 1.7946,-0.228 0.9064,-0.152 1.686,-0.3356 2.3386,-0.5509 0.6526,-0.2154 1.5832,-0.3863 2.7917,-0.513 1.2085,-0.1267 2.6829,-0.19 4.4232,-0.19 0.4109,0 0.7433,0.038 0.9971,0.114 0.2538,0.076 0.4109,0.171 0.4713,0.285 0.0605,0.114 0.1209,0.3483 0.1813,0.7029 0.0604,0.3547 0.0906,0.722 0.0906,1.102 0,0.3799 -0.2296,0.5699 -0.6888,0.5699 -0.1934,0 -0.4834,-0.0633 -0.8702,-0.19 -0.3867,-0.1266 -1.1481,-0.1899 -2.2841,-0.1899 -1.8853,0 -3.2993,0.152 -4.242,0.456 -0.9426,0.3039 -2.0545,0.4559 -3.3355,0.4559 -0.3626,0 -0.8823,0.1394 -1.5591,0.418 -0.6767,0.2786 -1.142,0.5383 -1.3958,0.779 -0.2538,0.2406 -0.4532,0.3609 -0.5982,0.3609 -0.701,0 -1.0515,-1.5706 -1.0515,-4.7117 0,-0.76 0.0302,-1.3996 0.0907,-1.9189 0.0604,-0.5193 0.0906,-1.2729 0.0906,-2.2609 l -0.0362,-2.4698 c 0,-0.8106 0.0543,-2.2609 0.1631,-4.3507 0.1088,-2.0899 0.2115,-3.3818 0.3082,-3.8758 0.0967,-0.494 0.2719,-0.9056 0.5257,-1.2349 0.2538,-0.3294 0.5982,-0.5573 1.0333,-0.684 1.281,-0.3546 2.4654,-0.7473 3.5531,-1.1779 2.5138,-0.9373 5.8372,-1.4059 9.9704,-1.4059 1.6436,0 3.0456,0.2216 4.2058,0.6649 1.1601,0.4433 1.7403,0.893 1.7403,1.3489 z m -4.7134,13.1472 c 0,1.0386 -0.3625,1.52 -1.0876,1.444 -0.7252,-0.1014 -1.3899,-0.152 -1.9941,-0.152 -0.6043,0 -1.1663,0.0443 -1.6859,0.1329 -0.5197,0.0887 -1.263,0.1521 -2.2298,0.1901 -0.9668,0.0379 -2.0726,0.171 -3.3174,0.3989 -1.2448,0.228 -2.0002,0.3926 -2.266,0.494 -0.2659,0.1013 -0.4593,0.152 -0.5801,0.152 -0.4351,0 -0.6527,-0.3293 -0.6527,-0.988 0,-0.5066 0.1814,-0.7599 0.5439,-0.7599 0.2417,0 0.8339,-0.114 1.7765,-0.342 0.9427,-0.228 1.5228,-0.4117 1.7403,-0.551 0.2176,-0.1393 0.4049,-0.4053 0.562,-0.7979 0.1571,-0.3926 0.2357,-0.855 0.2357,-1.3869 0,-0.3547 -0.2055,-0.532 -0.6164,-0.532 -0.4109,0 -0.846,0.0633 -1.3052,0.19 -0.4592,0.1266 -0.8158,0.19 -1.0695,0.19 -0.2539,0 -0.4109,-0.19 -0.4714,-0.57 -0.0604,-0.38 -0.0906,-0.6713 -0.0906,-0.8739 0,-0.6587 0.2659,-1.007 0.7976,-1.045 0.5318,-0.038 1.1119,-0.133 1.7403,-0.285 0.6285,-0.1519 0.991,-0.2596 1.0877,-0.3229 0.0967,-0.0634 0.145,-0.171 0.145,-0.323 0,-0.5826 -0.0906,-0.9816 -0.2719,-1.1969 -0.1813,-0.2154 -0.4351,-0.323 -0.7614,-0.323 -0.3263,0 -0.5438,0.0127 -0.6526,0.038 -0.1088,0.0253 -0.1994,0.038 -0.2719,0.038 -0.4834,0 -0.7251,-0.4687 -0.7251,-1.4059 0,-0.5827 0.2175,-0.912 0.6526,-0.988 0.7734,-0.152 1.5167,-0.3673 2.2297,-0.6459 0.7131,-0.2787 1.6255,-0.5383 2.7374,-0.779 1.1118,-0.2407 2.0122,-0.361 2.7011,-0.361 0.6888,0 1.0332,0.2154 1.0332,0.646 0,0.1013 -0.0241,0.247 -0.0725,0.4369 -0.0483,0.1901 -0.0725,0.4054 -0.0725,0.646 0,0.2407 -0.0785,0.456 -0.2356,0.646 -0.1572,0.19 -0.3807,0.3103 -0.6708,0.361 -0.2901,0.0506 -0.7312,0.2089 -1.3233,0.4749 -0.5922,0.266 -0.9427,0.5257 -1.0515,0.779 -0.1087,0.2533 -0.1631,0.4939 -0.1631,0.722 0,0.2279 0.1692,0.3039 0.5076,0.2279 0.7009,-0.2026 1.3294,-0.3039 1.8853,-0.3039 0.5559,0 0.9245,0.0443 1.1058,0.1329 0.1813,0.0887 0.2719,0.3103 0.2719,0.665 0,0.6333 -0.1148,1.0449 -0.3444,1.2349 -0.2296,0.19 -0.3747,0.3357 -0.4351,0.437 -0.0604,0.1013 -0.0906,0.2976 -0.0906,0.589 0,0.2913 0.1812,0.6523 0.5438,1.0829 0.3626,0.4307 0.5922,0.8486 0.6889,1.2539 0.0725,0.2787 0.2296,0.4306 0.4713,0.456 0.701,0.076 1.0514,0.3673 1.0514,0.8739 z m -3.7706,-1.0639 c 0,-0.1013 -0.1088,-0.323 -0.3263,-0.6649 -0.2176,-0.342 -0.3746,-0.7917 -0.4713,-1.349 -0.0484,-0.228 -0.1571,-0.3419 -0.3263,-0.3419 -0.1692,0 -0.3565,0.0506 -0.562,0.1519 -0.2055,0.1014 -0.3384,0.209 -0.3988,0.323 -0.0604,0.114 -0.0906,0.3863 -0.0906,0.817 0,0.4306 0.0241,0.7853 0.0725,1.0639 0.0483,0.2787 0.1208,0.418 0.2175,0.418 0.0967,0 0.3928,-0.0253 0.8883,-0.076 0.4955,-0.0507 0.7855,-0.095 0.8701,-0.133 0.0846,-0.038 0.1269,-0.1076 0.1269,-0.209 z"
     style="fill:#1b1918;fill-rule:evenodd"
     id="path10" />
  <path
     inkscape:connector-curvature="0"
     d="m 154.3356,17.8354 c 0,0.1252 -0.0366,0.288 -0.1098,0.4883 -0.2927,0.7011 -0.5489,2.0095 -0.7685,3.9251 -0.2196,1.9156 -0.5001,3.299 -0.8417,4.1505 -0.244,0.5007 -0.3965,1.0516 -0.4575,1.6526 -0.0609,0.601 -0.2134,0.9014 -0.4574,0.9014 -0.122,0 -0.3355,-0.1126 -0.6404,-0.338 -0.305,-0.2253 -0.6892,-0.4194 -1.1528,-0.5822 -0.4635,-0.1628 -0.8722,-0.3631 -1.226,-0.601 -0.3537,-0.2378 -0.6404,-0.3568 -0.86,-0.3568 -0.2196,0 -0.8722,0.169 -1.9578,0.5071 -1.0857,0.3381 -1.7383,0.5884 -1.9579,0.7512 -0.2196,0.1628 -0.3782,0.2441 -0.4758,0.2441 -0.3659,0 -0.9149,-0.7449 -1.6468,-2.2348 -0.7319,-1.4899 -1.232,-2.936 -1.5004,-4.3382 -0.1708,-0.7262 -0.3355,-1.2959 -0.4941,-1.709 -0.1586,-0.4132 -0.2378,-0.6699 -0.2378,-0.77 0,-0.3256 0.2927,-0.6198 0.8782,-0.8827 0.5856,-0.263 2.0128,-0.7074 4.2818,-1.3334 0.3416,-0.1002 0.5123,-0.3694 0.5123,-0.8076 0,-0.4382 0.0244,-0.9202 0.0732,-1.446 0.0488,-0.5259 0.0732,-1.2896 0.0732,-2.2912 l -0.0366,-2.0659 c 0,-0.7762 0.183,-1.1644 0.5489,-1.1644 0.0732,0 0.1464,0.0126 0.2196,0.0376 0.2196,0.0501 0.6161,0.1315 1.1894,0.2442 0.5733,0.1127 0.9576,0.2253 1.1528,0.338 0.1951,0.1127 0.2927,0.2442 0.2927,0.3944 0,0.1502 -0.0122,0.2755 -0.0366,0.3756 -0.2684,1.1268 -0.4025,2.4915 -0.4025,4.0941 0,0.626 0.0183,1.0016 0.0549,1.1268 0.0366,0.1252 0.2013,0.2003 0.494,0.2254 l 1.0247,0 c 1.0979,0 2.1165,0.1502 3.0558,0.4507 0.9393,0.3005 1.4089,0.6385 1.4089,1.0141 z m -4.9405,7.7751 c 0.1708,0 0.3172,-0.119 0.4392,-0.3569 0.122,-0.2379 0.2623,-0.939 0.4209,-2.1034 0.1585,-1.1643 0.2378,-2.2348 0.2378,-3.2114 0,-1.2269 -0.4879,-1.8404 -1.4638,-1.8404 -0.2684,0 -0.4453,0.0814 -0.5306,0.2441 -0.0855,0.1628 -0.1281,0.457 -0.1281,0.8827 0,0.4256 0.0305,0.6823 0.0915,0.7699 0.061,0.0877 0.2074,0.1441 0.4391,0.1691 0.2318,0.025 0.3843,0.1001 0.4574,0.2254 0.0732,0.1252 0.1099,0.4006 0.1099,0.8263 0,0.626 -0.1952,0.9954 -0.5856,1.108 -0.3903,0.1127 -0.6343,0.2442 -0.7319,0.3944 -0.0976,0.1502 -0.1464,0.5258 -0.1464,1.1268 0,0.3756 0.1098,0.5885 0.3294,0.6385 0.3903,0.1253 0.6587,0.4257 0.8051,0.9015 0.0488,0.1502 0.1342,0.2254 0.2561,0.2254 z m -3.8059,-5.5215 c 0,-0.7011 -0.1464,-1.0516 -0.4391,-1.0516 -0.1465,0 -0.4941,0.1189 -1.043,0.3568 -0.549,0.2379 -0.8844,0.4319 -1.0064,0.5822 -0.122,0.1502 -0.183,0.3381 -0.183,0.5634 0,0.5759 0.1525,0.8639 0.4574,0.8639 0.305,0 0.6831,-0.0814 1.1345,-0.2442 0.4514,-0.1627 0.7441,-0.3067 0.8783,-0.4319 0.1342,-0.1252 0.2013,-0.338 0.2013,-0.6386 z m -1.4638,5.7844 c 0.2195,0 0.5123,-0.0939 0.8782,-0.2817 0.366,-0.1878 0.5856,-0.3631 0.6588,-0.5258 0.0732,-0.1628 0.1098,-0.432 0.1098,-0.8076 0,-0.5008 -0.1159,-0.7512 -0.3477,-0.7512 -0.2318,0 -0.5733,0.0939 -1.0247,0.2817 -0.4514,0.1878 -0.7136,0.3255 -0.7868,0.4131 -0.0732,0.0877 -0.1098,0.2567 -0.1098,0.5071 0,0.7763 0.2074,1.1644 0.6222,1.1644 z m 21.6648,-0.1878 c 0,0.3756 -0.0489,0.8889 -0.1464,1.54 l -0.2928,1.7653 c -0.0976,0.5008 -0.1952,0.7888 -0.2928,0.8639 -0.0976,0.0751 -0.2989,0.1127 -0.6038,0.1127 -0.305,0 -0.8295,-0.1252 -1.5736,-0.3756 -0.7441,-0.2504 -1.2687,-0.457 -1.5736,-0.6198 -0.305,-0.1627 -0.7259,-0.3192 -1.2626,-0.4695 -0.5367,-0.1502 -0.8905,-0.2253 -1.0613,-0.2253 -0.1708,0 -0.2928,0.0814 -0.3659,0.2441 -0.0732,0.1628 -0.1708,1.1581 -0.2928,2.9861 -0.122,1.8279 -0.183,3.3867 -0.183,4.6763 0,1.2895 0.0793,2.2974 0.2379,3.0236 0.1585,0.7262 0.2379,1.227 0.2379,1.5024 0,0.7512 -0.2562,1.1268 -0.7686,1.1268 -0.122,0 -0.372,-0.05 -0.7502,-0.1502 -0.3782,-0.1002 -0.6221,-0.2066 -0.7319,-0.3193 -0.1098,-0.1127 -0.1647,-0.2504 -0.1647,-0.4132 0,-0.1627 0.0122,-0.3443 0.0366,-0.5446 0.0732,-0.5008 0.1098,-2.2724 0.1098,-5.3148 0,-3.0424 -0.061,-5.7217 -0.183,-8.038 -0.122,-2.3162 -0.183,-4.9767 -0.183,-7.9816 0,-1.878 -0.2073,-3.155 -0.6221,-3.8311 -0.1708,-0.2755 -0.2562,-0.4695 -0.2562,-0.5822 0,-0.1127 0.1098,-0.2192 0.3294,-0.3193 0.2196,-0.1001 0.738,-0.2817 1.5553,-0.5446 0.8174,-0.2629 1.4882,-0.4382 2.0128,-0.5259 0.5246,-0.0876 1.0796,-0.3318 1.6651,-0.7324 0.4148,-0.2754 0.982,-0.4132 1.7017,-0.4132 0.7197,0 1.4029,0.1064 2.0494,0.3193 0.6465,0.2128 0.9698,0.4945 0.9698,0.8451 0,0.1503 -0.1037,0.3693 -0.3111,0.6573 -0.2074,0.288 -0.4208,0.8139 -0.6404,1.5775 -0.2196,0.7638 -0.5367,1.5463 -0.9515,2.3476 -0.1464,0.3005 -0.2196,0.6197 -0.2196,0.9578 0,0.338 0.122,0.7074 0.366,1.108 0.7807,1.2771 1.3357,2.3538 1.6651,3.2302 0.3294,0.8764 0.4941,1.7153 0.4941,2.5166 z m -3.1107,-1.2771 c 0,-0.7011 -0.1464,-1.5337 -0.4392,-2.4977 -0.2927,-0.9641 -0.555,-1.6402 -0.7868,-2.0283 -0.2318,-0.3881 -0.3477,-0.745 -0.3477,-1.0705 0,-0.3255 0.0489,-0.6385 0.1465,-0.939 0.2927,-0.8514 0.4391,-1.59 0.4391,-2.2161 0,-0.626 -0.0915,-1.0392 -0.2745,-1.2395 -0.1829,-0.2003 -0.372,-0.3005 -0.5672,-0.3005 -0.1952,0 -0.5977,0.1816 -1.2077,0.5447 -0.6099,0.3631 -0.9576,1.0141 -1.0429,1.9531 -0.0855,0.939 -0.1281,2.1535 -0.1281,3.6434 0,1.4899 0.0183,2.5854 0.0549,3.2865 0.0366,0.7012 0.0732,1.1143 0.1097,1.2396 0.0366,0.1251 0.1769,0.2691 0.4209,0.4319 0.244,0.1627 0.5977,0.3067 1.0613,0.4319 0.4635,0.1253 0.9454,0.1878 1.4455,0.1878 0.5002,0 0.8112,-0.1127 0.9332,-0.338 0.122,-0.2254 0.183,-0.5885 0.183,-1.0893 z"
     style="fill:#1b1918;fill-rule:evenodd"
     id="path12" />
  <path
     inkscape:connector-curvature="0"
     d="m 195.6374,27.9224 c 0,0.7333 0.7613,1.7031 2.2841,2.9093 1.5227,1.2063 3.7465,2.3653 6.6711,3.4769 0.846,0.3075 1.5167,0.68 2.0122,1.1176 0.4955,0.4376 0.7433,0.7569 0.7433,0.958 0,0.201 -0.2538,0.3606 -0.7614,0.4789 -0.5076,0.1182 -1.1119,0.1774 -1.8128,0.1774 -1.9579,0 -3.7586,-0.3666 -5.4022,-1.0999 -0.6526,-0.2838 -1.136,-0.4375 -1.4502,-0.4611 -0.5318,-0.071 -0.8218,-0.3667 -0.8702,-0.887 -0.0483,-1.1354 -0.1873,-1.8981 -0.4169,-2.2884 -0.2296,-0.3903 -0.6707,-0.7747 -1.3233,-1.1531 -0.6527,-0.3784 -1.0696,-0.5676 -1.2509,-0.5676 -0.1813,0 -0.3565,0.0946 -0.5257,0.2838 -1.2327,1.5374 -2.1572,2.5899 -2.7736,3.1576 -0.6164,0.5677 -1.4442,0.8515 -2.4836,0.8515 -0.6042,0 -1.3777,-0.1419 -2.3203,-0.4258 -0.9427,-0.2838 -1.4141,-0.4966 -1.4141,-0.6386 0,-0.1419 0.1814,-0.2483 0.5439,-0.3193 2.2479,-0.4494 4.0123,-1.1471 5.2934,-2.0932 1.281,-0.9461 1.9216,-1.6202 1.9216,-2.0223 0,-0.2602 -0.2357,-0.6091 -0.707,-1.0466 -0.4714,-0.4376 -0.9427,-0.7332 -1.414,-0.887 -0.4713,-0.1538 -0.707,-0.4316 -0.707,-0.8337 0,-0.1656 0.0362,-0.3548 0.1088,-0.5677 0.0725,-0.2129 0.1087,-0.3903 0.1087,-0.5322 0,-0.2602 -0.0725,-0.3903 -0.2175,-0.3903 -0.145,0 -0.3384,0.0828 -0.5801,0.2484 -0.2417,0.1656 -0.4653,0.2483 -0.6707,0.2483 -0.2055,0 -0.3082,-0.0827 -0.3082,-0.2483 0,-0.1656 0.0604,-0.343 0.1813,-0.5322 0.9184,-1.3009 1.9336,-3.4946 3.0455,-6.5813 1.1118,-3.0866 1.8732,-5.7771 2.2841,-8.0714 0.0967,-0.5677 0.3747,-0.8515 0.8339,-0.8515 0.2659,0 0.6224,0.1123 1.0696,0.3371 0.4471,0.2246 0.6707,0.408 0.6707,0.5499 0,0.1419 -0.0786,0.3252 -0.2357,0.5499 -0.1571,0.2247 -0.3625,0.8396 -0.6163,1.8449 -0.2538,1.0052 -0.6466,2.2174 -1.1783,3.6365 -0.5318,1.4192 -0.7977,2.2589 -0.7977,2.519 0,0.4731 0.2176,0.7096 0.6527,0.7096 0.435,0 1.0151,-0.1537 1.7402,-0.4612 0.7251,-0.3075 1.7766,-0.816 3.1543,-1.5256 0.2417,-0.1183 0.4411,-0.1774 0.5982,-0.1774 0.1571,0 0.3807,0.2602 0.6708,0.7805 0.29,0.5204 0.4351,0.9461 0.4351,1.2773 0,0.3311 -0.2055,0.5676 -0.6164,0.7096 -1.5953,0.4966 -2.4654,1.0998 -2.6104,1.8094 -0.4109,1.9868 -0.8944,3.7725 -1.4503,5.3573 -0.0725,0.2365 -0.1087,0.4612 -0.1087,0.674 z m -1.0153,-3.6188 c 0,-0.5204 -0.0543,-0.9934 -0.1631,-1.4191 -0.1087,-0.4258 -0.2175,-0.6801 -0.3263,-0.7628 -0.1088,-0.0828 -0.3565,-0.1419 -0.7432,-0.1774 -0.3868,-0.0355 -0.6285,-0.0532 -0.7251,-0.0532 -0.3143,0 -0.5983,0.201 -0.8521,0.6031 -0.2538,0.4021 -0.3807,0.6623 -0.3807,0.7805 0,0.2366 0.133,0.5913 0.3989,1.0644 0.2658,0.4731 0.6405,0.952 1.1239,1.4369 0.4834,0.4849 0.7976,0.7273 0.9426,0.7273 0.1451,0 0.2478,-0.0473 0.3082,-0.1419 0.0605,-0.0946 0.1451,-0.3548 0.2538,-0.7805 0.1088,-0.4258 0.1631,-0.8515 0.1631,-1.2773 z m -6.9974,-8.4084 c 0.5318,0 0.7977,0.4139 0.7977,1.2417 0,0.2365 -0.0423,0.4257 -0.1269,0.5677 -0.0846,0.1419 -0.3626,0.3725 -0.8339,0.6918 -0.4714,0.3193 -0.8883,0.5736 -1.2509,0.7628 -0.2658,0.1419 -0.4713,0.5617 -0.6163,1.2595 -0.145,0.6977 -0.2176,1.1353 -0.2176,1.3127 0,0.1774 0.0665,0.3193 0.1995,0.4257 0.1329,0.1065 0.3202,0.1361 0.5619,0.0888 0.846,-0.1656 1.3959,-0.2484 1.6497,-0.2484 0.2538,0 0.4049,0.0355 0.4532,0.1064 0.0483,0.071 0.0725,0.2543 0.0725,0.55 0,0.2956 -0.0967,0.6149 -0.2901,0.9579 -0.1933,0.343 -0.4531,0.5854 -0.7794,0.7273 -0.3264,0.1419 -0.7856,0.408 -1.3778,0.7983 -0.5922,0.3902 -0.9245,0.6327 -0.9971,0.7273 -0.0724,0.0946 -0.1208,0.3488 -0.1449,0.7628 -0.0242,0.4139 -0.0363,0.7746 -0.0363,1.0821 0,0.3075 0.1571,0.4612 0.4713,0.4612 0.1209,0 0.2538,-0.0354 0.3988,-0.1064 0.9669,-0.4021 1.6557,-0.6032 2.0666,-0.6032 0.2659,0 0.3988,0.0946 0.3988,0.2839 0,0.1892 -0.2719,0.6326 -0.8157,1.3304 -0.5439,0.6978 -1.3475,1.3305 -2.411,1.8981 -2.4413,1.2536 -4.3991,2.3889 -5.8736,3.406 -0.2175,0.1419 -0.4471,0.2129 -0.6888,0.2129 -0.2417,0 -0.568,-0.2365 -0.9789,-0.7096 -0.4109,-0.4731 -0.6164,-0.7983 -0.6164,-0.9757 0,-0.1773 0.1571,-0.3371 0.4713,-0.4789 0.7493,-0.3312 1.2146,-0.5736 1.3959,-0.7274 0.1813,-0.1537 0.2719,-0.337 0.2719,-0.5499 0,-1.2062 -0.0241,-2.0991 -0.0725,-2.6786 -0.0483,-0.5795 -0.0725,-1.366 -0.0725,-2.3594 0,-0.9934 0.0363,-1.7089 0.1088,-2.1464 0.0725,-0.4376 0.2417,-0.6564 0.5076,-0.6564 0.2659,0 0.6828,0.1124 1.2508,0.3371 0.568,0.2247 0.852,0.5262 0.852,0.9047 0,0.0946 -0.0241,0.2247 -0.0725,0.3902 -0.2659,0.9698 -0.3988,2.0164 -0.3988,3.1399 0,1.1235 0.0302,1.7384 0.0906,1.8449 0.0604,0.1064 0.1632,0.1596 0.3082,0.1596 0.145,0 0.3807,-0.0945 0.707,-0.2838 0.3263,-0.1892 0.5257,-0.4021 0.5982,-0.6386 0.0725,-0.2365 0.1995,-1.088 0.3807,-2.5544 0.1813,-1.4665 0.2719,-2.6432 0.2719,-3.5302 0,-0.887 -0.0544,-1.5729 -0.1631,-2.0577 -0.1088,-0.4849 -0.3807,-0.7274 -0.8158,-0.7274 -0.2417,0 -0.5136,0.0592 -0.8157,0.1774 -0.3022,0.1183 -0.5197,0.1774 -0.6526,0.1774 -0.133,0 -0.2417,-0.0591 -0.3263,-0.1774 -0.0846,-0.1182 -0.3022,-0.5499 -0.6526,-1.2949 -0.3506,-0.7451 -0.5258,-1.2123 -0.5258,-1.4015 0,-0.1892 0.2055,-0.3074 0.6164,-0.3547 1.4986,-0.1656 2.6648,-0.3963 3.4987,-0.6919 0.8339,-0.2956 1.6919,-0.5085 2.5742,-0.6386 0.8822,-0.1301 1.4321,-0.1951 1.6496,-0.1951 z"
     style="fill:#1b1918;fill-rule:evenodd"
     id="path14" />
  <path
     inkscape:connector-curvature="0"
     d="m 232.1871,20.7558 c 0,0.1655 0.0725,0.2483 0.2175,0.2483 0.145,0 0.3203,-0.0828 0.5257,-0.2483 0.2055,-0.1656 0.7433,-0.7983 1.6134,-1.8982 0.8702,-1.0998 1.4382,-1.8744 1.704,-2.3238 0.266,-0.4494 0.4956,-0.6741 0.689,-0.6741 0.1933,0 0.4713,0.1183 0.8338,0.3548 0.3626,0.2365 0.5439,0.4257 0.5439,0.5676 0,0.1419 -0.1088,0.3194 -0.3263,0.5322 l -1.1965,1.4901 c -0.846,1.0407 -1.269,1.6498 -1.269,1.8272 0,0.1774 0.0484,0.2838 0.1451,0.3193 0.0967,0.0355 0.3505,0.0532 0.7614,0.0532 0.8943,0 1.5408,-0.0591 1.9396,-0.1774 0.3989,-0.1183 0.6466,-0.1774 0.7433,-0.1774 0.0967,0 0.1753,0.0296 0.2357,0.0887 0.0604,0.0591 0.2054,0.2779 0.4351,0.6564 0.2296,0.3784 0.3806,0.6859 0.4532,0.9224 0.0725,0.2365 0.1087,0.5381 0.1087,0.9047 0,0.3667 -0.1933,0.55 -0.5801,0.55 -0.2417,0 -0.5559,-0.1065 -0.9426,-0.3194 -0.7977,-0.4493 -1.7766,-0.6741 -2.9368,-0.6741 -1.4502,0 -2.3687,0.2129 -2.7554,0.6386 l -1.6316,1.8095 c -0.0483,0.0473 -0.0423,0.1064 0.0182,0.1774 0.0604,0.0709 0.151,0.0828 0.2719,0.0354 1.3052,-0.3311 2.2357,-0.4967 2.7917,-0.4967 0.5559,0 1.0635,0.0651 1.5228,0.1952 0.4592,0.1301 0.7372,0.2483 0.8339,0.3547 0.0966,0.1065 0.145,0.2307 0.145,0.3726 0,0.1419 -0.0423,0.2779 -0.1269,0.408 -0.0846,0.1301 -0.1572,0.4021 -0.2175,0.816 -0.0605,0.4139 -0.0907,0.8337 -0.0907,1.2595 l 0.0362,1.1708 c 0,0.3785 -0.0241,0.7155 -0.0725,1.0112 -0.0483,0.2956 -0.0725,0.6326 -0.0725,1.0111 l 0.1088,3.0157 c 0,0.6622 -0.0665,1.36 -0.1994,2.0932 -0.1329,0.7332 -0.3444,1.0999 -0.6345,1.0999 -0.2901,0 -0.84,-0.2957 -1.6496,-0.887 -0.8098,-0.5913 -1.5047,-1.159 -2.0848,-1.703 -0.2175,-0.2129 -0.4653,-0.266 -0.7432,-0.1596 -0.278,0.1064 -0.5439,0.1892 -0.7977,0.2483 -0.2538,0.0591 -0.4773,0.1419 -0.6707,0.2484 -0.1934,0.1064 -0.3565,0.1596 -0.4895,0.1596 -0.1329,0 -0.2598,-0.0768 -0.3806,-0.2306 -0.1209,-0.1537 -0.2478,-0.5913 -0.3808,-1.3127 -0.1329,-0.7214 -0.1994,-1.7799 -0.1994,-3.1753 l 0.0363,-2.0578 c 0,-0.1656 -0.1087,-0.2484 -0.3263,-0.2484 -0.145,0 -0.3747,0.2248 -0.6889,0.6741 -0.3142,0.4494 -0.4955,0.8811 -0.5438,1.295 -0.0483,0.4139 -0.1874,0.7392 -0.417,0.9757 -0.2296,0.2365 -0.7251,0.6149 -1.4865,1.1353 -0.7613,0.5204 -1.5167,0.9106 -2.2659,1.1708 -0.7493,0.2602 -1.2147,0.3903 -1.3959,0.3903 -0.1813,0 -0.2719,-0.071 -0.2719,-0.2129 0,-0.2129 0.435,-0.7687 1.3052,-1.6675 0.8701,-0.8988 1.6194,-1.6025 2.2479,-2.111 0.6284,-0.5085 1.3414,-1.1885 2.1391,-2.04 0.7976,-0.8515 1.6013,-1.768 2.411,-2.7497 0.8097,-0.9815 1.2206,-1.496 1.2327,-1.5433 0.0121,-0.0473 0.0181,-0.0828 0.0181,-0.1064 0,-0.2129 -0.1208,-0.3193 -0.3625,-0.3193 -0.6043,0 -1.3536,0.1301 -2.2479,0.3903 -0.8943,0.2601 -1.5409,0.4967 -1.9397,0.7095 -0.3988,0.2129 -0.6466,0.3193 -0.7433,0.3193 -0.2175,0 -0.3444,-0.0887 -0.3806,-0.266 -0.0363,-0.1774 -0.1209,-0.3548 -0.2539,-0.5322 -0.1329,-0.1774 -0.2598,-0.2661 -0.3806,-0.2661 -0.3142,0 -0.7312,0.5144 -1.2509,1.5433 -0.5196,1.0289 -0.7795,1.839 -0.7795,2.4303 0,0.3548 0.133,0.5322 0.3988,0.5322 0.4835,0 0.8762,-0.1538 1.1784,-0.4613 0.3021,-0.3074 0.6103,-0.7923 0.9245,-1.4546 0.0484,-0.1183 0.1148,-0.1774 0.1994,-0.1774 0.0846,0 0.1269,0.1183 0.1269,0.3548 0,0.2365 -0.1148,0.6978 -0.3444,1.3837 -0.2296,0.6859 -0.5076,1.2358 -0.8339,1.6498 -0.3263,0.4139 -0.7372,0.8219 -1.2327,1.224 -0.4955,0.4021 -0.8037,0.6031 -0.9245,0.6031 -0.2176,0 -0.4412,-0.2424 -0.6708,-0.7273 -0.2296,-0.4849 -0.3445,-0.8988 -0.3445,-1.2418 0,-0.3429 0.0303,-0.6622 0.0907,-0.9579 0.0605,-0.2956 0.0907,-0.6445 0.0907,-1.0466 0,-1.5138 -0.2659,-2.2707 -0.7977,-2.2707 -0.2417,0 -0.5197,0.071 -0.8339,0.2129 -0.3142,0.1419 -0.5136,0.2898 -0.5982,0.4435 -0.0846,0.1538 -0.1873,0.6859 -0.3082,1.5966 -0.1208,0.9106 -0.2054,1.6793 -0.2538,2.306 -0.0483,0.6269 -0.0725,1.4074 -0.0725,2.3417 0,0.9343 -0.0302,1.7325 -0.0906,2.3948 -0.0604,0.6622 -0.1753,1.0348 -0.3444,1.1175 -0.1693,0.0828 -0.4351,0.1243 -0.7977,0.1243 -0.3626,0 -0.6042,-0.0592 -0.7251,-0.1775 -0.1209,-0.1182 -0.1813,-0.2838 -0.1813,-0.4967 0,-0.2128 0.0665,-0.6563 0.1994,-1.3304 0.133,-0.6741 0.1994,-1.6025 0.1994,-2.7851 0,-1.1826 -0.0846,-2.2825 -0.2538,-3.2995 -0.1692,-1.017 -0.3082,-1.6025 -0.4169,-1.7562 -0.1088,-0.1538 -0.2115,-0.2306 -0.3082,-0.2306 -0.0967,0 -0.1813,0.0354 -0.2538,0.1064 -0.701,0.5677 -1.4261,1.0348 -2.1754,1.4014 -0.7493,0.3667 -1.2145,0.55 -1.3958,0.55 -0.1813,0 -0.2719,-0.0828 -0.2719,-0.2484 0,-0.1183 0.29,-0.6741 0.8701,-1.6675 0.5801,-0.9934 1.1964,-1.9809 1.8491,-2.9625 0.6526,-0.9816 1.0756,-1.7207 1.2689,-2.2174 l 1.1602,-3.0867 c 0.556,-1.5374 0.985,-2.5899 1.2871,-3.1576 0.3021,-0.5676 0.4895,-0.9697 0.562,-1.2063 0.0725,-0.2365 0.1934,-0.3547 0.3625,-0.3547 0.1693,0 0.562,0.2247 1.1784,0.674 0.6163,0.4494 0.9245,0.7747 0.9245,0.9757 0,0.2011 -0.0725,0.3607 -0.2175,0.479 -0.145,0.1182 -0.4351,0.5263 -0.8702,1.224 -0.435,0.6978 -0.9789,1.6498 -1.6315,2.856 -0.6526,1.2063 -1.0272,1.9159 -1.1239,2.1287 -0.0967,0.213 -0.1451,0.4495 -0.1451,0.7097 0,0.9224 0.3142,1.3836 0.9427,1.3836 1.1844,0 2.8401,-0.5558 4.9671,-1.6675 0.3384,-0.1892 0.5861,-0.2838 0.7432,-0.2838 0.1571,0 0.3082,0.0768 0.4532,0.2306 0.1451,0.1538 0.3747,0.479 0.6889,0.9757 0.145,0.2365 0.3867,0.3548 0.7251,0.3548 0.701,0 1.6074,-0.1479 2.7192,-0.4435 1.1119,-0.2957 1.7343,-0.5263 1.8672,-0.6919 0.133,-0.1656 0.1995,-0.4967 0.1995,-0.9934 0,-0.4967 -0.1813,-0.745 -0.5439,-0.745 l -1.4502,0.0355 c -0.3384,0 -0.5076,-0.1833 -0.5076,-0.5499 0,-0.3667 -0.0725,-0.6682 -0.2176,-0.9048 -0.145,-0.2365 -0.2175,-0.4257 -0.2175,-0.5676 0,-0.4494 0.2901,-0.6978 0.8701,-0.7451 1.2811,-0.071 1.9579,-0.207 2.0304,-0.408 0.0725,-0.2011 0.1511,-1.3068 0.2357,-3.3173 0.0845,-2.0104 0.1389,-3.1457 0.1631,-3.4059 0.0242,-0.2602 0.1027,-0.4553 0.2357,-0.5854 0.1329,-0.1301 0.284,-0.1951 0.4532,-0.1951 l 1.4502,0.3193 c 0.4593,0.0946 0.6889,0.2069 0.6889,0.337 0,0.1301 -0.0846,0.2897 -0.2538,0.479 -0.1692,0.1892 -0.3505,0.7036 -0.5439,1.5433 -0.1933,0.8397 -0.29,1.6616 -0.29,2.4658 0,0.8042 0.0242,1.2595 0.0725,1.3659 0.0484,0.1064 0.1269,0.1597 0.2357,0.1597 0.1087,0 0.2115,-0.0119 0.3081,-0.0355 0.7252,-0.2602 1.3415,-0.3903 1.8491,-0.3903 0.3143,0 0.5257,0.1656 0.6345,0.4967 0.1088,0.3311 0.1631,0.6623 0.1631,0.9934 0,0.3312 -0.1027,0.6386 -0.3081,0.9225 -0.2055,0.2838 -0.4472,0.4375 -0.7251,0.4612 -0.278,0.0236 -0.6043,0.1478 -0.979,0.3725 -0.3746,0.2247 -0.6345,0.3903 -0.7795,0.4967 -0.145,0.1065 -0.2175,0.2661 -0.2175,0.479 l 0,0.887 z m 1.3415,13.4464 c 0.1691,0 0.2719,-0.065 0.3081,-0.1951 0.0363,-0.1301 0.0544,-0.5618 0.0544,-1.295 0,-0.7332 -0.0665,-1.7858 -0.1994,-3.1576 -0.1329,-1.3719 -0.3203,-2.1287 -0.5619,-2.2707 -0.2418,-0.1419 -0.4895,-0.2129 -0.7433,-0.2129 -0.2538,0 -0.6043,0.1183 -1.0514,0.3549 -0.4472,0.2365 -0.6708,0.5913 -0.6708,1.0643 0,0.1892 0.133,0.2839 0.3988,0.2839 0.556,0 0.9306,0.0236 1.124,0.0709 0.1934,0.0473 0.2901,0.1656 0.2901,0.3548 0,0.1892 -0.0363,0.5203 -0.1088,0.9934 -0.0725,0.4731 -0.1873,0.7391 -0.3445,0.7983 -0.1571,0.0591 -0.4048,0.1537 -0.7432,0.2838 -0.3384,0.1301 -0.5861,0.2424 -0.7433,0.337 -0.1571,0.0947 -0.2356,0.343 -0.2356,0.7451 0,0.3075 0.1329,0.4612 0.3988,0.4612 l 1.559,-0.0709 c 0.1934,0 0.29,0.1892 0.29,0.5676 0,0.3784 0.139,0.6209 0.417,0.7273 0.278,0.1065 0.4653,0.1597 0.562,0.1597 z M 222.4704,15.4694 c 0.2418,0 0.4109,0.1597 0.5076,0.479 0.0967,0.3193 0.2357,0.5913 0.417,0.816 0.1813,0.2247 0.4653,0.5144 0.852,0.8692 0.5317,0.4967 0.7976,0.9698 0.7976,1.4191 0,0.3785 -0.1511,0.6269 -0.4532,0.7451 -0.3021,0.1183 -0.6828,0.1774 -1.142,0.1774 -0.3142,0 -0.695,-0.1241 -1.1421,-0.3725 -0.4472,-0.2484 -0.7251,-0.479 -0.8339,-0.6918 -0.1088,-0.2129 -0.1632,-0.615 -0.1632,-1.2063 0,-0.5913 0.1088,-1.1117 0.3264,-1.5611 0.2175,-0.4494 0.4954,-0.6741 0.8338,-0.6741 z"
     style="fill:#1b1918;fill-rule:evenodd"
     id="path16" />
  <path
     inkscape:connector-curvature="0"
     d="m 272.6751,11.528 c 0.2901,0 0.4351,0.2898 0.4351,0.8693 0,0.5795 -0.1027,0.9934 -0.3082,1.2417 -0.2054,0.2484 -0.6344,0.4494 -1.2871,0.6032 -0.6526,0.1537 -1.3716,0.2601 -2.1572,0.3193 -0.7855,0.0591 -1.2267,0.1182 -1.3233,0.1774 -0.0967,0.0591 -0.2659,0.2956 -0.5076,0.7095 -0.2417,0.414 -0.5741,0.6919 -0.9971,0.8338 -0.423,0.1419 -0.707,0.2128 -0.852,0.2128 -0.3384,0 -0.5076,-0.1182 -0.5076,-0.3547 0,-0.2366 0.0786,-0.5027 0.2357,-0.7983 0.1571,-0.2956 0.2356,-0.5026 0.2356,-0.6209 0,-0.1182 -0.0846,-0.1892 -0.2537,-0.2128 -0.6768,-0.0947 -1.1542,-0.1715 -1.4322,-0.2307 -0.2779,-0.0591 -0.5982,-0.0886 -0.9608,-0.0886 -0.3625,0 -0.7915,0.0532 -1.287,0.1596 -0.4956,0.1064 -0.7856,0.1892 -0.8702,0.2483 -0.0846,0.0592 -0.1269,0.1715 -0.1269,0.3371 l 0.0363,0.6386 c 0,0.4258 -0.145,0.7451 -0.4351,0.9579 -0.2901,0.2129 -0.5559,0.3193 -0.7976,0.3193 -0.2418,0 -0.5076,-0.4138 -0.7977,-1.2417 -0.0483,-0.1892 -0.1389,-0.2838 -0.2719,-0.2838 -0.1329,0 -0.4532,0.1123 -0.9608,0.337 -0.5076,0.2247 -0.9306,0.4553 -1.269,0.6919 -0.3142,0.2838 -0.5861,0.4257 -0.8157,0.4257 -0.2296,0 -0.5741,-0.3134 -1.0333,-0.9402 -0.4593,-0.6268 -0.6889,-1.0939 -0.6889,-1.4014 0,-0.3075 0.2901,-0.5086 0.8702,-0.6031 l 2.1391,-0.3193 c 0.6768,-0.0947 1.0514,-0.1597 1.1239,-0.1952 0.0725,-0.0355 0.1088,-0.1005 0.1088,-0.1951 0,-0.2839 -0.2417,-1.0171 -0.7251,-2.1997 -0.0967,-0.2602 -0.1451,-0.4849 -0.1451,-0.6741 0,-0.3784 0.2296,-0.5677 0.6889,-0.5677 0.1692,0 0.5257,0.0355 1.0696,0.1065 0.5438,0.071 0.9547,0.1833 1.2327,0.337 0.278,0.1538 0.4169,0.3666 0.4169,0.6387 0,0.272 -0.0241,0.5558 -0.0725,0.8514 -0.0483,0.2957 -0.0725,0.5677 -0.0725,0.816 0,0.2484 0.0362,0.414 0.1088,0.4968 0.0725,0.0827 0.2296,0.1005 0.4713,0.0532 1.4986,-0.1892 2.5923,-0.3016 3.2812,-0.3371 0.6889,-0.0354 1.2267,-0.0827 1.6134,-0.1419 0.3867,-0.0591 0.6526,-0.1183 0.7976,-0.1774 0.145,-0.0591 0.3324,-0.4258 0.562,-1.0998 0.2296,-0.6741 0.3928,-1.3009 0.4895,-1.8804 0.0966,-0.5795 0.2175,-0.9875 0.3625,-1.224 0.145,-0.2365 0.3384,-0.3548 0.5801,-0.3548 0.2417,0 0.707,0.1478 1.3959,0.4435 0.6888,0.2956 1.0333,0.5676 1.0333,0.816 0,0.2484 -0.1148,0.4612 -0.3445,0.6386 -0.2296,0.1774 -0.4834,0.5263 -0.7614,1.0466 -0.2779,0.5204 -0.4169,0.8456 -0.4169,0.9757 0,0.1301 0.1329,0.1715 0.3988,0.1242 0.6768,-0.0947 1.2388,-0.1479 1.6859,-0.1597 0.4472,-0.0118 0.7252,-0.0355 0.8339,-0.071 0.1088,-0.0354 0.1994,-0.0532 0.2719,-0.0532 z m 4.242,8.0182 c 0,0.7096 -0.1148,1.0644 -0.3444,1.0644 -0.2296,0 -0.5378,-0.1301 -0.9246,-0.3903 -0.6767,-0.473 -2.5137,-0.7096 -5.5109,-0.7096 -0.9426,0 -1.5227,0.0178 -1.7403,0.0533 -0.2175,0.0354 -0.3263,0.1123 -0.3263,0.2306 0,0.1182 0.0967,0.2897 0.2901,0.5144 0.1933,0.2247 0.29,0.4317 0.29,0.6209 0,0.1892 -0.2598,0.408 -0.7795,0.6564 -0.5197,0.2483 -1.4865,1.0643 -2.9005,2.448 -1.414,1.3837 -2.121,2.1228 -2.121,2.2174 0,0.0946 0.1995,0.1419 0.5982,0.1419 0.3989,0 0.7191,-0.0532 0.9608,-0.1596 0.2418,-0.1064 0.4714,-0.3016 0.6889,-0.5854 0.9185,-1.2063 1.7645,-1.8095 2.538,-1.8095 0.7734,0 1.5227,0.4672 2.2478,1.4015 0.7252,0.9342 1.0877,1.8153 1.0877,2.6431 0,0.2602 -0.0846,0.4731 -0.2538,0.6387 -0.1692,0.1655 -0.3867,0.2483 -0.6526,0.2483 -0.2659,0 -0.8339,-0.2247 -1.704,-0.6741 -0.8702,-0.4494 -1.3053,-0.816 -1.3053,-1.0998 0,-0.2839 0.1813,-0.4376 0.5439,-0.4612 1.0393,-0.071 1.559,-0.3194 1.559,-0.7451 0,-0.1892 -0.139,-0.4258 -0.417,-0.7096 -0.2779,-0.2838 -0.5921,-0.4257 -0.9426,-0.4257 -0.3505,0 -0.7009,0.1833 -1.0514,0.5499 -0.3505,0.3666 -0.5741,0.8633 -0.6708,1.4901 -0.0967,0.6268 -0.2055,1.0289 -0.3263,1.2063 -0.1208,0.1774 -0.4109,0.2661 -0.8701,0.2661 -1.1361,0 -2.3204,0.136 -3.5531,0.408 -1.2327,0.272 -2.1875,0.5736 -2.8643,0.9047 -0.3142,0.1419 -0.5801,0.2128 -0.7976,0.2128 -0.2175,0 -0.4049,-0.1714 -0.562,-0.5144 -0.1571,-0.343 -0.3021,-0.6268 -0.435,-0.8515 -0.133,-0.2247 -0.1994,-0.4139 -0.1994,-0.5676 0,-0.1538 0.2417,-0.2957 0.7251,-0.4258 0.4834,-0.13 0.8036,-0.272 0.9608,-0.4257 0.1571,-0.1538 0.574,-0.4376 1.2508,-0.8515 0.6768,-0.4139 1.136,-0.7687 1.3777,-1.0644 0.2417,-0.2956 0.3626,-0.4849 0.3626,-0.5676 0,-0.0828 -0.0967,-0.1242 -0.2901,-0.1242 -0.1933,0 -0.6949,0.1183 -1.5046,0.3548 -0.8097,0.2365 -1.3958,0.4671 -1.7584,0.6918 -0.3626,0.2247 -0.6466,0.337 -0.852,0.337 -0.2055,0 -0.4532,-0.3074 -0.7433,-0.9224 -0.29,-0.6149 -0.4351,-0.9993 -0.4351,-1.1531 0,-0.1537 0.133,-0.2542 0.3989,-0.3015 0.846,-0.1183 1.4139,-0.2602 1.704,-0.4258 0.2901,-0.1655 0.6405,-0.5203 1.0514,-1.0643 0.411,-0.5441 0.6164,-0.8692 0.6164,-0.9757 0,-0.1064 -0.0605,-0.1596 -0.1813,-0.1596 -0.1208,0 -0.278,0.0236 -0.4713,0.0709 -1.4744,0.3312 -2.7192,0.544 -3.7344,0.6386 -1.0152,0.0946 -1.9035,0.2306 -2.6649,0.408 -0.7613,0.1774 -1.3293,0.3607 -1.704,0.5499 -0.3746,0.1893 -0.6586,0.2839 -0.852,0.2839 -0.1934,0 -0.3807,-0.2129 -0.5619,-0.6386 -0.1813,-0.4258 -0.272,-0.7215 -0.272,-0.887 0,-0.1656 0.0363,-0.272 0.1088,-0.3193 0.0725,-0.0473 0.2598,-0.071 0.562,-0.071 0.3021,0 1.9336,-0.3725 4.8946,-1.1176 2.9609,-0.745 5.2994,-1.2949 7.0155,-1.6497 0.3384,-0.0709 0.5076,-0.1479 0.5076,-0.2306 0,-0.0828 -0.0484,-0.2306 -0.1451,-0.4435 -0.0966,-0.2129 -0.145,-0.5499 -0.145,-1.0111 0,-0.4613 0.0907,-0.8397 0.2719,-1.1354 0.1813,-0.2956 0.3989,-0.4435 0.6527,-0.4435 0.2538,0 0.5075,0.1893 0.7614,0.5677 0.2537,0.3785 0.5196,0.6682 0.7976,0.8692 0.278,0.2011 0.4532,0.4199 0.5257,0.6564 0.0725,0.2365 0.1511,0.3843 0.2357,0.4435 0.0845,0.0591 0.2235,0.0887 0.4169,0.0887 l 2.1754,-0.1065 c 0.846,-0.0472 1.9941,-0.0768 3.4443,-0.0887 1.4502,-0.0118 2.4836,-0.0532 3.0999,-0.1241 0.6163,-0.071 0.997,-0.1065 1.1421,-0.1065 0.4834,0 0.8097,0.1893 0.9789,0.5677 0.1692,0.3784 0.3324,0.68 0.4894,0.9047 0.1572,0.2247 0.2357,0.6209 0.2357,1.1885 z m -14.9012,2.8028 1.0151,-0.1064 c 0.3867,-0.0236 0.6949,-0.0769 0.9245,-0.1596 0.2297,-0.0828 0.5499,-0.3134 0.9608,-0.6919 0.4109,-0.3784 0.7131,-0.6918 0.9064,-0.9402 0.1934,-0.2483 0.2901,-0.4316 0.2901,-0.5499 0,-0.1183 -0.133,-0.1774 -0.3988,-0.1774 l -1.5591,0.1419 c -0.5317,0.0237 -0.9184,0.1242 -1.1602,0.3016 -0.2416,0.1774 -0.5136,0.479 -0.8157,0.9047 -0.3021,0.4258 -0.4532,0.7451 -0.4532,0.9579 0,0.2129 0.0967,0.3193 0.2901,0.3193 z m 10.5505,8.6924 c 0,0.1655 -0.0967,0.3488 -0.2901,0.5499 -0.1933,0.201 -0.3323,0.3961 -0.4169,0.5854 -0.0846,0.1892 -0.2236,0.745 -0.4169,1.6675 -0.1934,0.9224 -0.5016,1.969 -0.9246,3.1398 -0.423,1.1709 -0.707,1.8686 -0.852,2.0933 -0.145,0.2247 -0.284,0.337 -0.417,0.337 -0.1329,0 -0.3746,-0.1064 -0.7251,-0.3193 -0.3505,-0.2129 -0.6949,-0.3725 -1.0333,-0.479 -0.3384,-0.1064 -0.7009,-0.2897 -1.0877,-0.5499 -0.1208,-0.0946 -0.3927,-0.1419 -0.8157,-0.1419 -0.423,0 -1.275,0.0769 -2.5561,0.2307 -1.281,0.1537 -2.0787,0.3251 -2.3929,0.5144 -0.3142,0.1892 -0.5982,0.2838 -0.852,0.2838 -0.2538,0 -0.4713,-0.1538 -0.6526,-0.4612 -0.1813,-0.3075 -0.5559,-0.7391 -1.124,-1.295 -0.568,-0.5558 -1.136,-1.431 -1.704,-2.6254 -0.568,-1.1945 -0.852,-2.1346 -0.852,-2.8206 0,-0.3074 0.0665,-0.5262 0.1994,-0.6563 0.1329,-0.1301 0.4049,-0.2129 0.8158,-0.2484 0.4109,-0.0355 0.9608,-0.1419 1.6496,-0.3193 0.6889,-0.1774 2.2297,-0.4671 4.6227,-0.8692 2.3928,-0.4021 4.0123,-0.6032 4.8583,-0.6032 0.846,0 1.6798,0.1715 2.5016,0.5145 0.8219,0.3429 1.4382,0.615 1.8491,0.816 0.4109,0.201 0.6164,0.4198 0.6164,0.6564 z m -5.5472,5.854 c 0.3625,0 0.6284,-0.1301 0.7976,-0.3903 0.1692,-0.2602 0.3626,-0.8929 0.5801,-1.8982 0.2176,-1.0052 0.3263,-1.8271 0.3263,-2.4657 0,-0.6386 -0.1571,-1.0703 -0.4713,-1.295 -0.3142,-0.2247 -0.6949,-0.337 -1.1421,-0.337 -0.4471,0 -0.8943,0.0177 -1.3415,0.0532 -0.4471,0.0354 -0.719,0.1182 -0.8157,0.2483 -0.0967,0.1301 -0.1451,0.3489 -0.1451,0.6564 0,0.3075 0.0303,0.4967 0.0907,0.5677 0.0604,0.0709 0.1753,0.1064 0.3444,0.1064 l 1.3415,-0.1064 c 0.5076,0 0.7614,0.3902 0.7614,1.1708 0,0.5203 -0.3142,0.7923 -0.9427,0.816 -0.6284,0 -1.0575,0.0354 -1.2871,0.1064 -0.2296,0.071 -0.3988,0.2247 -0.5076,0.4612 -0.1087,0.2365 -0.1631,0.4672 -0.1631,0.6919 0,0.2247 0.0423,0.3725 0.1269,0.4435 0.0846,0.0709 0.2236,0.1005 0.417,0.0886 0.1933,-0.0118 0.3504,-0.0177 0.4713,-0.0177 0.5801,0 0.8701,0.1537 0.8701,0.4612 0,0.4258 0.2297,0.6387 0.6889,0.6387 z m -7.2875,-0.4258 c 0.1934,0 0.5499,-0.0591 1.0696,-0.1774 0.5196,-0.1182 0.8641,-0.2129 1.0332,-0.2838 0.1693,-0.071 0.2539,-0.3016 0.2539,-0.6919 0,-0.3902 -0.0363,-0.5853 -0.1088,-0.5853 -0.0725,0 -0.2599,0.0413 -0.562,0.1241 -0.3021,0.0828 -0.5257,0.1479 -0.6707,0.1952 -0.145,0.0473 -0.3082,0.0709 -0.4895,0.0709 -0.1813,0 -0.4048,-0.1892 -0.6707,-0.5677 -0.2659,-0.3784 -0.3989,-0.674 -0.3989,-0.8869 0,-0.2129 0.127,-0.3725 0.3808,-0.479 0.2537,-0.1064 0.9245,-0.2661 2.0122,-0.479 0.2658,-0.0473 0.3988,-0.1478 0.3988,-0.3015 0,-0.1538 -0.0423,-0.3548 -0.1269,-0.6032 -0.0846,-0.2483 -0.2659,-0.3725 -0.5439,-0.3725 -0.2779,0 -0.7734,0.1538 -1.4865,0.4612 -0.713,0.3075 -1.142,0.5263 -1.2871,0.6564 -0.1449,0.1301 -0.2175,0.4257 -0.2175,0.887 0,0.4612 0.1148,1.0821 0.3444,1.8626 0.2297,0.7805 0.5862,1.1708 1.0696,1.1708 z"
     style="fill:#1b1918;fill-rule:evenodd"
     id="path18" />
  <path
     inkscape:connector-curvature="0"
     d="m 297.1541,15.868 c 0,0.4433 -0.2501,0.9128 -0.7503,1.4083 -0.5002,0.4955 -0.919,0.7433 -1.2564,0.7433 -0.3373,0 -0.6456,-0.1695 -0.9248,-0.5086 -0.5817,-0.678 -1.0935,-1.0171 -1.5356,-1.0171 -0.442,0 -0.727,0.0522 -0.855,0.1565 -0.128,0.1043 -0.4421,0.4825 -0.9423,1.1344 -0.5002,0.6521 -0.8841,1.2193 -1.1517,1.7018 -0.2675,0.4824 -0.4013,0.841 -0.4013,1.0758 0,0.2347 0.0989,0.4042 0.2966,0.5085 0.1978,0.1043 0.3781,0.1565 0.541,0.1565 0.1629,0 0.4071,-0.0782 0.7329,-0.2347 1.4425,-0.7563 2.5476,-1.1345 3.3154,-1.1345 0.4188,0 0.6282,0.3521 0.6282,1.0562 0,0.2608 -0.0349,0.476 -0.1047,0.6455 -0.0698,0.1695 -0.2269,0.4368 -0.4712,0.802 -0.2442,0.3651 -0.4769,0.8019 -0.698,1.3105 -0.221,0.5085 -0.3315,0.8215 -0.3315,0.9389 0,0.1173 0.0582,0.176 0.1745,0.176 l 1.3611,-0.1956 c 0.3024,0 0.4537,0.2086 0.4537,0.6259 0,0.5477 -0.4014,1.1931 -1.204,1.9365 -0.8028,0.7432 -1.4833,1.2713 -2.0417,1.5843 -0.1395,0.0782 -0.2559,0.2608 -0.3489,0.5477 -0.0931,0.2868 -0.1397,0.5998 -0.1397,0.9388 0,0.3391 0.0757,0.6194 0.2269,0.8411 0.1512,0.2217 0.3723,0.3325 0.6631,0.3325 0.2908,0 0.8027,-0.339 1.5356,-1.0171 0.7328,-0.678 1.2796,-1.2714 1.6402,-1.78 0.3606,-0.5085 0.5817,-0.7628 0.6631,-0.7628 0.0814,0 0.1221,0.0913 0.1221,0.2739 0,0.1825 -0.1337,0.6194 -0.4013,1.3105 -0.2676,0.6911 -0.7212,1.5061 -1.3611,2.445 -0.6398,0.9388 -1.1226,1.5843 -1.4483,1.9364 -0.3257,0.3521 -0.6805,0.6128 -1.0644,0.7824 -0.3839,0.1695 -0.7096,0.3456 -0.9772,0.5281 -0.2676,0.1826 -0.4653,0.2738 -0.5933,0.2738 -0.128,0 -0.221,-0.0586 -0.2792,-0.176 -0.0581,-0.1174 -0.1396,-0.5672 -0.2443,-1.3496 -0.1047,-0.7824 -0.157,-1.5387 -0.157,-2.269 l 0.0698,-1.7603 c 0,-0.2869 -0.128,-0.4304 -0.3839,-0.4304 -0.6747,0 -1.3844,0.1304 -2.1289,0.3912 -0.0931,0.0261 -0.1919,0.0392 -0.2966,0.0392 -0.1047,0 -0.1978,-0.1044 -0.2792,-0.313 -0.0815,-0.2087 -0.157,-0.5608 -0.2269,-1.0563 -0.0698,-0.4955 -0.1047,-0.8736 -0.1047,-1.1344 0,-0.2608 0.1513,-0.3912 0.4537,-0.3912 0.0931,0 0.2211,0.0195 0.3839,0.0586 0.1629,0.0392 0.4013,0.0588 0.7154,0.0588 0.3141,0 0.7271,-0.1239 1.239,-0.3717 0.5118,-0.2477 0.8085,-0.4303 0.8899,-0.5477 0.0815,-0.1173 0.1222,-0.2934 0.1222,-0.5281 0,-0.5998 -0.1338,-1.0106 -0.4014,-1.2323 -0.2675,-0.2216 -0.5642,-0.7759 -0.8899,-1.6626 -0.0233,-0.1043 -0.0989,-0.1564 -0.2269,-0.1564 -0.1279,0 -0.2268,0.0391 -0.2966,0.1173 -0.698,0.7824 -1.4774,1.3562 -2.3382,1.7213 -0.8609,0.3651 -1.4542,0.5477 -1.7799,0.5477 -0.1861,0 -0.2792,-0.0978 -0.2792,-0.2934 0,-0.1956 0.3083,-0.7368 0.9248,-1.6235 0.6166,-0.8867 1.332,-1.7604 2.1463,-2.621 0.3258,-0.3651 1.3087,-1.7082 2.949,-4.0293 1.6403,-2.3211 2.7745,-4.4336 3.4027,-6.3374 0.1861,-0.5217 0.4013,-0.7825 0.6457,-0.7825 0.2442,0 0.6281,0.2804 1.1516,0.8411 0.5235,0.5608 0.7852,0.9976 0.7852,1.3105 0,0.313 -0.1337,0.5934 -0.4013,0.8411 -0.2676,0.2478 -0.6165,0.5999 -1.047,1.0563 -0.4304,0.4563 -0.6689,0.7237 -0.7154,0.8019 -0.0465,0.0783 -0.0698,0.1761 -0.0698,0.2934 0,0.1174 0.1163,0.2478 0.349,0.3912 0.2326,0.1434 0.4769,0.2152 0.7329,0.2152 0.2559,0 0.5235,-0.0392 0.8026,-0.1174 0.2793,-0.0782 0.5061,-0.1173 0.6806,-0.1173 0.1745,0 0.3432,0.1042 0.506,0.3129 0.1629,0.2086 0.2443,0.4694 0.2443,0.7824 z m 19.5437,18.2689 c 0,0.1826 -0.2153,0.4238 -0.6457,0.7237 -0.4304,0.2999 -0.9423,0.4499 -1.5355,0.4499 -0.5934,0 -1.3204,-0.0522 -2.1812,-0.1565 l -2.2336,-0.2738 c -0.6282,-0.1043 -0.9946,-0.2022 -1.0993,-0.2934 -0.1047,-0.0913 -0.2385,-0.4434 -0.4014,-1.0562 -0.1628,-0.6129 -0.413,-1.1671 -0.7503,-1.6626 -0.3374,-0.4956 -0.826,-0.9259 -1.4658,-1.291 -0.6398,-0.3651 -1.047,-0.5477 -1.2215,-0.5477 -0.1745,0 -0.3082,0.1174 -0.4013,0.3521 -0.7678,1.9821 -1.8322,3.6707 -3.1933,5.066 -1.3611,1.3953 -2.2627,2.0929 -2.7047,2.0929 -0.2094,0 -0.4013,-0.2282 -0.5758,-0.6846 -0.1746,-0.4563 -0.3548,-1.5061 -0.541,-3.1491 -0.1861,-1.643 -0.2792,-3.7424 -0.2792,-6.2983 0,-0.8606 0.0756,-1.6756 0.2268,-2.4449 0.1513,-0.7694 0.2967,-2.106 0.4363,-4.0098 0.1396,-1.9039 0.2094,-3.0905 0.2094,-3.5599 0,-0.4695 -0.0407,-0.8867 -0.1222,-1.2519 -0.0814,-0.3651 -0.1221,-0.6128 -0.1221,-0.7432 0,-0.313 0.128,-0.4955 0.3839,-0.5477 0.2559,-0.0522 0.7562,-0.3064 1.5007,-0.7629 0.7445,-0.4564 1.6693,-0.8867 2.7745,-1.2909 1.1051,-0.4042 2.0532,-0.6064 2.8442,-0.6064 0.7911,0 1.4658,0.1891 2.0242,0.5673 0.5584,0.3781 0.8376,0.7237 0.8376,1.0367 0,0.1564 -0.0872,0.3846 -0.2618,0.6845 -0.1744,0.3 -0.3664,0.9976 -0.5758,2.0929 -0.2326,1.304 -0.5932,2.5428 -1.0819,3.7164 -0.4885,1.1736 -1.1284,1.9951 -1.9194,2.4646 -1.5123,0.8867 -2.4023,1.4344 -2.6698,1.643 -0.2676,0.2087 -0.4014,0.3651 -0.4014,0.4694 0,0.1826 0.1513,0.2739 0.4537,0.2739 0.2327,0 1.0121,-0.3521 2.3383,-1.0563 1.3262,-0.7041 2.7221,-1.7212 4.1879,-3.0513 0.3257,-0.3129 0.5584,-0.4694 0.698,-0.4694 0.1396,0 0.3141,0.2021 0.5235,0.6063 0.2094,0.4043 0.3141,0.6977 0.3141,0.8802 0,0.1826 -0.1803,0.4303 -0.5409,0.7433 -0.3607,0.3129 -0.7388,0.6911 -1.1343,1.1345 -1.4192,1.5908 -2.792,2.6079 -4.1181,3.0513 -0.1629,0.0522 -0.2443,0.1369 -0.2443,0.2543 0,0.1173 0.0349,0.2282 0.1047,0.3325 0.0698,0.1043 0.5409,0.4499 1.4134,1.0366 0.8725,0.5868 1.8729,1.1737 3.0014,1.7605 1.1284,0.5868 1.9485,0.9454 2.4603,1.0758 1.5356,0.4433 2.8676,0.9323 3.996,1.4669 1.1285,0.5347 1.6927,0.9454 1.6927,1.2323 z M 300.3997,22.6748 c 0.0699,0 0.5119,-0.2477 1.3263,-0.7432 0.8143,-0.4956 1.3203,-0.8346 1.5181,-1.0172 0.1977,-0.1825 0.4013,-0.665 0.6107,-1.4474 0.2094,-0.7824 0.3606,-1.454 0.4537,-2.0146 0.093,-0.5608 0.1396,-1.1149 0.1396,-1.6626 0,-0.5477 -0.0873,-0.9324 -0.2618,-1.1541 -0.1744,-0.2216 -0.4129,-0.3325 -0.7154,-0.3325 -0.442,0 -1.047,0.4042 -1.8148,1.2127 -0.7677,0.8085 -1.1517,1.4735 -1.1517,1.9951 0,0.2869 0.1164,0.3782 0.3491,0.2738 0.9772,-0.4694 1.6519,-0.7041 2.0241,-0.7041 0.3723,0 0.5584,0.1695 0.5584,0.5086 0,0.339 -0.2036,0.8867 -0.6107,1.643 -0.4072,0.7563 -0.8783,1.2779 -1.4134,1.5648 -0.5352,0.2869 -0.8842,0.515 -1.047,0.6846 -0.1629,0.1695 -0.2443,0.4107 -0.2443,0.7237 0,0.3129 0.0931,0.4694 0.2791,0.4694 z m -0.8375,10.445 c 0.4421,0 0.9888,-0.15 1.6403,-0.4499 0.6514,-0.2999 1.2738,-0.7954 1.8671,-1.4865 0.5933,-0.6911 0.8899,-1.1606 0.8899,-1.4083 0,-0.2478 -0.1047,-0.4238 -0.3141,-0.5281 -0.698,-0.3391 -1.4774,-0.7825 -2.3382,-1.3301 -0.2793,-0.2087 -0.6399,-0.313 -1.0819,-0.313 -0.4421,0 -0.7271,0.0392 -0.8551,0.1174 -0.1279,0.0782 -0.2501,0.5477 -0.3664,1.4083 -0.1164,0.8606 -0.1745,1.6234 -0.1745,2.2885 0,0.665 0.0523,1.1149 0.157,1.3496 0.1047,0.2348 0.2967,0.3521 0.5759,0.3521 z"
     style="fill:#1b1918;fill-rule:evenodd"
     id="path20" />
  <path
     inkscape:connector-curvature="0"
     d="m 332.8629,13.8374 c 0,0.1419 -0.0302,0.2779 -0.0906,0.408 -0.0605,0.1301 -0.4472,0.5736 -1.1602,1.3305 -0.7131,0.7568 -1.4201,1.3896 -2.121,1.8981 -0.701,0.5085 -1.4382,1.1412 -2.2116,1.8981 -0.1209,0.1182 -0.2659,0.1774 -0.4351,0.1774 -0.1692,0 -0.3021,-0.0296 -0.3988,-0.0887 -0.0967,-0.0592 -0.145,-0.2011 -0.145,-0.4258 0,-0.2246 0.0362,-0.4316 0.1087,-0.6209 0.0725,-0.1892 0.4412,-0.8751 1.1058,-2.0577 0.6647,-1.1826 1.1784,-2.0637 1.5409,-2.6432 0.3626,-0.5795 0.6647,-1.0229 0.9064,-1.3304 0.2417,-0.3075 0.3928,-0.479 0.4532,-0.5145 0.0605,-0.0354 0.1148,-0.0532 0.1632,-0.0532 0.1692,0 0.4592,0.1656 0.8701,0.4967 0.4109,0.3311 0.7493,0.5972 1.0152,0.7983 0.2659,0.201 0.3988,0.4434 0.3988,0.7273 z m 11.2032,-1.4191 c 0.3867,0 0.7009,0.201 0.9426,0.6031 0.2417,0.4021 0.3626,0.7509 0.3626,1.0466 0,0.2957 -0.0604,0.5499 -0.1813,0.7628 -0.1209,0.2129 -0.7856,0.615 -1.9941,1.2063 -1.2085,0.5913 -2.0182,0.9342 -2.4291,1.0289 -0.411,0.0946 -0.7614,0.1419 -1.0515,0.1419 -0.9668,0 -1.6073,0.0414 -1.9215,0.1242 -0.3143,0.0827 -0.5077,0.1241 -0.5802,0.1241 -0.3384,0 -0.568,-0.272 -0.6888,-0.816 -0.1208,-0.544 -0.2417,-0.9638 -0.3626,-1.2595 -0.1208,-0.2956 -0.1812,-0.4789 -0.1812,-0.5499 0,-0.2602 0.2296,-0.4139 0.6888,-0.4612 0.7977,-0.0473 1.5167,-0.2011 2.1573,-0.4613 0.6405,-0.2601 1.5892,-0.5735 2.8461,-0.9401 1.2568,-0.3666 2.0545,-0.5499 2.3929,-0.5499 z m 5.9822,8.7986 c 0,0.6387 -0.2054,0.958 -0.6163,0.958 -0.1451,0 -0.423,-0.0591 -0.8339,-0.1774 -0.4109,-0.1182 -0.9729,-0.1774 -1.6859,-0.1774 -0.7131,0 -1.1844,0.0473 -1.414,0.1419 -0.2297,0.0946 -0.4351,0.3194 -0.6164,0.6741 -0.1813,0.3548 -0.29,0.6623 -0.3263,0.9225 -0.0363,0.2601 -0.0544,1.0052 -0.0544,2.2351 l -0.0725,5.4283 c 0,0.7095 0.0544,1.5847 0.1632,2.6254 0.1087,1.0407 0.2054,1.768 0.29,2.182 0.0846,0.4139 0.1269,0.7036 0.1269,0.8692 0,0.4494 -0.1813,0.6741 -0.5438,0.6741 -0.1451,0 -0.3142,-0.0355 -0.5076,-0.1065 -0.4592,-0.1892 -1.3838,-0.473 -2.7736,-0.8515 -1.3898,-0.3784 -2.3929,-0.745 -3.0093,-1.0998 -0.6163,-0.3548 -1.3233,-0.8751 -2.1209,-1.561 -0.7977,-0.686 -1.1965,-1.0585 -1.1965,-1.1176 0,-0.0592 0.0363,-0.0887 0.1087,-0.0887 0.0726,0 0.1572,0.0118 0.2539,0.0354 2.8038,0.8279 4.5622,1.2418 5.2752,1.2418 0.7131,0 1.1844,-0.1301 1.414,-0.3902 0.2297,-0.2603 0.3445,-0.6505 0.3445,-1.1709 0,-0.5203 -0.0605,-1.7975 -0.1813,-3.8317 -0.1209,-2.0341 -0.2478,-3.471 -0.3807,-4.3106 -0.133,-0.8397 -0.2296,-1.3305 -0.2901,-1.4724 -0.0604,-0.1419 -0.2235,-0.272 -0.4894,-0.3903 -0.2659,-0.1183 -0.4834,-0.1773 -0.6527,-0.1773 -0.6525,0 -1.5348,0.1005 -2.6467,0.3015 -1.1118,0.2011 -2.0182,0.4908 -2.7191,0.8692 -0.2418,0.1419 -0.4533,0.2129 -0.6345,0.2129 -0.1813,0 -0.4532,-0.3075 -0.8158,-0.9225 -0.3626,-0.6149 -0.5438,-1.0111 -0.5438,-1.1885 0,-0.1774 0.0241,-0.3016 0.0725,-0.3725 0.0483,-0.071 0.4593,-0.1833 1.2327,-0.3371 0.7734,-0.1537 1.3717,-0.2542 1.7947,-0.3015 0.423,-0.0474 1.13,-0.1892 2.121,-0.4258 0.9909,-0.2365 1.7946,-0.473 2.411,-0.7096 0.6163,-0.2365 1.1662,-0.402 1.6496,-0.4966 0.4835,-0.0947 0.9487,-0.142 1.3959,-0.142 0.4472,0 0.8762,-0.0532 1.2871,-0.1596 0.4109,-0.1065 0.7916,-0.1774 1.142,-0.2129 0.3505,-0.0355 1.0334,-0.0532 2.0485,-0.0532 0.4109,0 0.6889,0.0887 0.8339,0.2661 0.1451,0.1774 0.3747,0.5144 0.6889,1.0111 0.3142,0.4967 0.4713,1.0289 0.4713,1.5965 z m -17.838,-1.0998 c 0,0.2129 -0.1813,0.5204 -0.5439,0.9225 -0.3625,0.4021 -0.5921,0.6918 -0.6888,0.8692 -0.0967,0.1774 -0.145,0.3726 -0.145,0.5854 -0.0242,0.9224 -0.0967,2.0755 -0.2176,3.4592 -0.1208,1.3836 -0.1812,2.5604 -0.1812,3.5301 l 0.0362,2.5545 c 0,1.159 -0.0846,1.9099 -0.2538,2.2529 -0.1692,0.3429 -0.4532,0.5144 -0.852,0.5144 -0.3988,0 -0.6828,-0.0591 -0.852,-0.1774 -0.1692,-0.1182 -0.2538,-0.3193 -0.2538,-0.6031 0,-0.2838 0.0604,-1.2359 0.1813,-2.856 0.1208,-1.6202 0.1812,-2.7792 0.1812,-3.477 0,-0.6977 -0.0423,-1.2949 -0.1269,-1.7916 -0.0846,-0.4967 -0.157,-0.7747 -0.2175,-0.8338 -0.0604,-0.0591 -0.151,-0.0887 -0.2719,-0.0887 -0.2417,0 -0.568,0.3311 -0.9789,0.9934 -0.4109,0.6623 -0.6164,1.1117 -0.6164,1.3482 0,0.2365 -0.0302,0.414 -0.0906,0.5322 -0.0605,0.1183 -0.3082,0.3903 -0.7432,0.816 -0.4351,0.4258 -0.84,0.751 -1.2147,0.9757 -0.3746,0.2247 -0.7553,0.3843 -1.142,0.4789 -0.3867,0.0947 -0.7251,0.142 -1.0152,0.142 -0.2901,0 -0.4351,-0.0533 -0.4351,-0.1597 0,-0.1064 0.0605,-0.2424 0.1813,-0.408 0.1209,-0.1656 0.5257,-0.6327 1.2146,-1.4014 0.6889,-0.7687 1.2206,-1.3364 1.5953,-1.703 0.3746,-0.3666 0.9728,-1.1117 1.7946,-2.2352 0.8219,-1.1235 1.5047,-2.1464 2.0485,-3.0689 0.5439,-0.9224 0.9789,-1.5788 1.3052,-1.969 0.3264,-0.3903 0.5862,-0.5854 0.7796,-0.5854 0.1933,0 0.4955,0.1596 0.9063,0.4789 0.4109,0.3194 0.6164,0.6209 0.6164,0.9047 z"
     style="fill:#1b1918;fill-rule:evenodd"
     id="path22" />
  <path
     inkscape:connector-curvature="0"
     d="m 71.1639,53.0155 0,2.4854 c 0,0.5371 0.0646,0.8701 0.1915,1.0011 0.1707,0.1847 0.429,0.2771 0.775,0.2771 l 0.353,0 0,0.232 -3.9261,0 0,-0.232 0.3437,0 c 0.3875,0 0.6643,-0.1181 0.8304,-0.3523 0.09,-0.1311 0.1361,-0.4404 0.1361,-0.9259 l 0,-5.5144 c 0,-0.537 -0.06,-0.8699 -0.1822,-0.9988 C 69.51,48.8029 69.247,48.7105 68.901,48.7105 l -0.3437,0 0,-0.2341 3.3586,0 c 0.8189,0 1.4648,0.0795 1.9377,0.2363 0.4752,0.1568 0.8719,0.4232 1.1972,0.797 0.3252,0.3737 0.4867,0.8163 0.4867,1.3275 0,0.696 -0.2468,1.2631 -0.7404,1.6992 -0.4937,0.4361 -1.1904,0.6552 -2.0923,0.6552 -0.2191,0 -0.459,-0.015 -0.7151,-0.045 -0.256,-0.0301 -0.5328,-0.0731 -0.8258,-0.1311 z m 0,-0.3588 c 0.2399,0.0409 0.4521,0.0731 0.6367,0.0946 0.1845,0.0193 0.3414,0.03 0.4729,0.03 0.4682,0 0.8719,-0.1675 1.2133,-0.5069 0.3391,-0.3373 0.5098,-0.7734 0.5098,-1.3104 0,-0.3695 -0.0807,-0.7132 -0.2422,-1.029 -0.1638,-0.3179 -0.3922,-0.5542 -0.6897,-0.711 -0.2976,-0.159 -0.6367,-0.2363 -1.015,-0.2363 -0.2284,0 -0.5236,0.0386 -0.8858,0.1181 l 0,3.5509 z m 12.2662,-4.3736 c 1.1903,0 2.2214,0.4189 3.0933,1.2609 0.872,0.8421 1.308,1.8904 1.308,3.1493 0,1.2975 -0.4406,2.3737 -1.3195,3.2287 -0.8788,0.8571 -1.9423,1.2846 -3.1902,1.2846 -1.2595,0 -2.3206,-0.4189 -3.1787,-1.2524 -0.8581,-0.8356 -1.2871,-1.9162 -1.2871,-3.2416 0,-1.3555 0.4959,-2.4597 1.4855,-3.3168 0.8627,-0.7432 1.8915,-1.1127 3.0887,-1.1127 z m -0.1269,0.4575 c -0.8212,0 -1.4785,0.2836 -1.9745,0.8507 -0.6159,0.7046 -0.925,1.7357 -0.925,3.0955 0,1.3942 0.3206,2.4661 0.9596,3.2158 0.4913,0.5715 1.1395,0.8572 1.9469,0.8572 0.8604,0 1.5709,-0.3137 2.1314,-0.9388 0.5605,-0.6251 0.842,-1.6111 0.842,-2.958 0,-1.4587 -0.3091,-2.5478 -0.9273,-3.2653 -0.496,-0.5714 -1.1788,-0.8571 -2.0531,-0.8571 z m 13.7518,-0.4575 0,2.9516 -0.2491,0 C 96.7228,50.6675 96.5775,50.2164 96.3699,49.8813 96.16,49.544 95.8601,49.2777 95.4726,49.0822 95.0851,48.8845 94.686,48.7857 94.2708,48.7857 c -0.4683,0 -0.8558,0.1332 -1.1626,0.3996 -0.3068,0.2663 -0.4591,0.5693 -0.4591,0.9087 0,0.2599 0.0969,0.4983 0.2907,0.711 0.2791,0.3158 0.9434,0.7347 1.993,1.2589 0.8558,0.4274 1.4417,0.7561 1.7531,0.986 0.3138,0.2277 0.556,0.4984 0.7243,0.8077 0.1685,0.3115 0.2538,0.6358 0.2538,0.9753 0,0.6466 -0.2699,1.2029 -0.8074,1.6713 -0.5397,0.4682 -1.2318,0.7024 -2.0783,0.7024 -0.2676,0 -0.5167,-0.0193 -0.752,-0.058 -0.1384,-0.0194 -0.4291,-0.0967 -0.8674,-0.2277 -0.4382,-0.1332 -0.7174,-0.1998 -0.835,-0.1998 -0.113,0 -0.2007,0.0322 -0.2676,0.0945 -0.0646,0.0623 -0.113,0.1934 -0.1453,0.391 l -0.2492,0 0,-2.9258 0.2492,0 c 0.1176,0.6122 0.2768,1.0698 0.4752,1.3748 0.1983,0.3029 0.5005,0.5564 0.9088,0.7583 0.406,0.1998 0.8535,0.3007 1.3402,0.3007 0.5629,0 1.0081,-0.1374 1.3356,-0.4146 0.3253,-0.2771 0.4891,-0.6036 0.4891,-0.9817 0,-0.2104 -0.0623,-0.421 -0.1845,-0.6358 -0.1246,-0.2148 -0.3184,-0.4124 -0.579,-0.5972 -0.1754,-0.1267 -0.6551,-0.3931 -1.4394,-0.8034 -0.7843,-0.4082 -1.3403,-0.7347 -1.6725,-0.9774 -0.3321,-0.2449 -0.5812,-0.5135 -0.7542,-0.8056 -0.1707,-0.2943 -0.2561,-0.6187 -0.2561,-0.971 0,-0.6122 0.2515,-1.1385 0.7566,-1.581 0.5052,-0.4426 1.1465,-0.6638 1.9262,-0.6638 0.4867,0 1.0034,0.1095 1.5478,0.3329 0.2514,0.1053 0.4313,0.1568 0.5328,0.1568 0.1176,0 0.2145,-0.0322 0.2884,-0.0966 0.0738,-0.0666 0.1338,-0.1977 0.1799,-0.3931 l 0.2491,0 z m 11.7057,0.1933 0.1015,2.0021 -0.2584,0 c -0.0484,-0.3523 -0.1153,-0.6037 -0.2029,-0.7562 -0.1384,-0.2427 -0.3253,-0.421 -0.556,-0.537 -0.2329,-0.116 -0.5374,-0.174 -0.9158,-0.174 l -1.2917,0 0,6.5219 c 0,0.5241 0.0622,0.8507 0.1822,0.9817 0.1707,0.1761 0.436,0.2642 0.7912,0.2642 l 0.3183,0 0,0.232 -3.8868,0 0,-0.232 0.3253,0 c 0.3875,0 0.662,-0.1095 0.8234,-0.3287 0.0993,-0.1332 0.15,-0.4404 0.15,-0.9172 l 0,-6.5219 -1.1026,0 c -0.4268,0 -0.7313,0.0301 -0.9112,0.0881 -0.2353,0.0794 -0.4359,0.2341 -0.602,0.4597 -0.1661,0.2277 -0.2653,0.5327 -0.2976,0.9194 l -0.2561,0 0.1085,-2.0021 7.4807,0 z m 8.0149,5.6776 -3.5478,0 -0.6205,1.3469 c -0.1545,0.3309 -0.2306,0.5779 -0.2306,0.7433 0,0.1289 0.0668,0.2428 0.1983,0.3416 0.1338,0.0988 0.4198,0.1632 0.8627,0.1933 l 0,0.232 -2.8857,0 0,-0.232 c 0.3829,-0.0645 0.6297,-0.1461 0.7427,-0.247 0.2307,-0.1998 0.4845,-0.6101 0.7636,-1.2267 l 3.2248,-7.0223 0.2353,0 3.1902,7.0976 c 0.2561,0.5714 0.4891,0.9408 0.699,1.1106 0.2099,0.1697 0.5028,0.2663 0.8765,0.2878 l 0,0.232 -3.6169,0 0,-0.232 c 0.3644,-0.0172 0.6113,-0.0752 0.7404,-0.1718 0.1292,-0.0945 0.1938,-0.2127 0.1938,-0.3524 0,-0.1847 -0.0923,-0.4747 -0.2722,-0.8742 l -0.5536,-1.2267 z m -0.1892,-0.4661 -1.5547,-3.4478 -1.594,3.4478 3.1487,0 z m 14.1301,0.9624 0.2238,0.0451 -0.7843,2.3157 -7.0956,0 0,-0.232 0.346,0 c 0.3876,0 0.6644,-0.1181 0.8305,-0.3523 0.0946,-0.1354 0.1407,-0.4468 0.1407,-0.9323 l 0,-5.508 c 0,-0.5327 -0.0623,-0.8657 -0.1892,-0.9988 -0.1753,-0.1848 -0.4359,-0.2772 -0.782,-0.2772 l -0.346,0 0,-0.2341 4.1499,0 0,0.2341 c -0.4868,-0.004 -0.8281,0.0365 -1.0243,0.1246 -0.196,0.0881 -0.3298,0.1998 -0.4013,0.3351 -0.0715,0.1332 -0.1085,0.4555 -0.1085,0.9624 l 0,5.3619 c 0,0.348 0.037,0.5865 0.1085,0.7175 0.053,0.088 0.1361,0.1525 0.2491,0.1955 0.1131,0.0408 0.4636,0.0623 1.0542,0.0623 l 0.669,0 c 0.7035,0 1.1972,-0.0473 1.4809,-0.144 0.2837,-0.0966 0.5421,-0.2685 0.7774,-0.5134 0.2329,-0.2449 0.4682,-0.6337 0.7012,-1.1621 z"
     style="fill:#1b1918;fill-rule:evenodd"
     id="path24" />
  <path
     inkscape:connector-curvature="0"
     d="m 145.1282,48.2831 0,2.9516 -0.2492,0 c -0.083,-0.5672 -0.2283,-1.0183 -0.4359,-1.3534 -0.2099,-0.3373 -0.5098,-0.6036 -0.8973,-0.7991 -0.3876,-0.1977 -0.7867,-0.2965 -1.2019,-0.2965 -0.4682,0 -0.8558,0.1332 -1.1626,0.3996 -0.3068,0.2663 -0.459,0.5693 -0.459,0.9087 0,0.2599 0.0969,0.4983 0.2907,0.711 0.2791,0.3158 0.9434,0.7347 1.993,1.2589 0.8558,0.4274 1.4417,0.7561 1.7531,0.986 0.3137,0.2277 0.5559,0.4984 0.7243,0.8077 0.1684,0.3115 0.2537,0.6358 0.2537,0.9753 0,0.6466 -0.2698,1.2029 -0.8073,1.6713 -0.5398,0.4682 -1.2318,0.7024 -2.0784,0.7024 -0.2676,0 -0.5167,-0.0193 -0.752,-0.058 -0.1384,-0.0194 -0.4291,-0.0967 -0.8673,-0.2277 -0.4383,-0.1332 -0.7174,-0.1998 -0.8351,-0.1998 -0.113,0 -0.2006,0.0322 -0.2676,0.0945 -0.0645,0.0623 -0.113,0.1934 -0.1453,0.391 l -0.2491,0 0,-2.9258 0.2491,0 c 0.1177,0.6122 0.2769,1.0698 0.4752,1.3748 0.1984,0.3029 0.5006,0.5564 0.9089,0.7583 0.406,0.1998 0.8535,0.3007 1.3402,0.3007 0.5628,0 1.008,-0.1374 1.3356,-0.4146 0.3252,-0.2771 0.489,-0.6036 0.489,-0.9817 0,-0.2104 -0.0623,-0.421 -0.1845,-0.6358 -0.1246,-0.2148 -0.3183,-0.4124 -0.579,-0.5972 -0.1753,-0.1267 -0.6551,-0.3931 -1.4394,-0.8034 -0.7843,-0.4082 -1.3402,-0.7347 -1.6724,-0.9774 -0.3321,-0.2449 -0.5813,-0.5135 -0.7543,-0.8056 -0.1707,-0.2943 -0.2561,-0.6187 -0.2561,-0.971 0,-0.6122 0.2515,-1.1385 0.7567,-1.581 0.5051,-0.4426 1.1464,-0.6638 1.9261,-0.6638 0.4867,0 1.0034,0.1095 1.5478,0.3329 0.2514,0.1053 0.4314,0.1568 0.5329,0.1568 0.1176,0 0.2145,-0.0322 0.2883,-0.0966 0.0738,-0.0666 0.1338,-0.1977 0.1799,-0.3931 l 0.2492,0 z m 10.0272,5.8709 -3.5478,0 -0.6205,1.3469 c -0.1546,0.3309 -0.2307,0.5779 -0.2307,0.7433 0,0.1289 0.0669,0.2428 0.1984,0.3416 0.1338,0.0988 0.4198,0.1632 0.8627,0.1933 l 0,0.232 -2.8858,0 0,-0.232 c 0.383,-0.0645 0.6298,-0.1461 0.7428,-0.247 0.2307,-0.1998 0.4845,-0.6101 0.7636,-1.2267 l 3.2248,-7.0223 0.2353,0 3.1902,7.0976 c 0.2561,0.5714 0.489,0.9408 0.6989,1.1106 0.2099,0.1697 0.5029,0.2663 0.8766,0.2878 l 0,0.232 -3.617,0 0,-0.232 c 0.3645,-0.0172 0.6113,-0.0752 0.7405,-0.1718 0.1292,-0.0945 0.1938,-0.2127 0.1938,-0.3524 0,-0.1847 -0.0923,-0.4747 -0.2722,-0.8742 l -0.5536,-1.2267 z m -0.1892,-0.4661 -1.5547,-3.4478 -1.594,3.4478 3.1487,0 z m 14.2393,-5.2115 0,0.2341 c -0.3252,0.0537 -0.5698,0.1504 -0.7382,0.2879 -0.2375,0.2062 -0.4498,0.522 -0.6343,0.9452 l -3.1972,7.263 -0.2491,0 -3.4324,-7.3575 c -0.1776,-0.3781 -0.2999,-0.6079 -0.3737,-0.6918 -0.1107,-0.131 -0.2492,-0.2319 -0.4152,-0.305 -0.1638,-0.0752 -0.3852,-0.1203 -0.6644,-0.1418 l 0,-0.2341 3.7439,0 0,0.2341 c -0.4244,0.0365 -0.6989,0.1053 -0.8258,0.1998 -0.1246,0.0967 -0.1892,0.2213 -0.1892,0.3716 0,0.2106 0.1038,0.5371 0.3114,0.9818 l 2.3321,5.0031 2.1614,-4.9387 c 0.2123,-0.4876 0.3184,-0.8249 0.3184,-1.0139 0,-0.1225 -0.0646,-0.2385 -0.1961,-0.3502 -0.1315,-0.1095 -0.3506,-0.189 -0.662,-0.2341 -0.0231,-0.004 -0.06,-0.0108 -0.1154,-0.0194 l 0,-0.2341 2.8258,0 z m 6.7839,8.3027 0,0.232 -3.9284,0 0,-0.232 0.3253,0 c 0.3783,0 0.6528,-0.1031 0.8235,-0.3093 0.1084,-0.1332 0.1637,-0.4576 0.1637,-0.9689 l 0,-5.5144 c 0,-0.4317 -0.0299,-0.7174 -0.0876,-0.8549 -0.0461,-0.1053 -0.1384,-0.1955 -0.2768,-0.2707 -0.1984,-0.101 -0.406,-0.1504 -0.6228,-0.1504 l -0.3253,0 0,-0.2341 3.9284,0 0,0.2341 -0.3322,0 c -0.3737,0 -0.6459,0.1032 -0.8166,0.3072 -0.113,0.1354 -0.1707,0.4576 -0.1707,0.9688 l 0,5.5144 c 0,0.4318 0.03,0.7176 0.0877,0.855 0.0461,0.1053 0.1407,0.1955 0.2837,0.2707 0.1938,0.1009 0.3991,0.1525 0.6159,0.1525 l 0.3322,0 z m 2.498,-8.3027 2.4866,0 5.6031,6.4016 0,-4.9215 c 0,-0.5242 -0.0646,-0.8528 -0.1891,-0.9817 -0.1685,-0.1762 -0.4314,-0.2643 -0.7913,-0.2643 l -0.3183,0 0,-0.2341 3.1902,0 0,0.2341 -0.3252,0 c -0.3876,0 -0.6621,0.1096 -0.8235,0.3266 -0.0992,0.1353 -0.1476,0.4403 -0.1476,0.9194 l 0,7.1921 -0.2446,0 -6.0413,-6.8721 0,5.2567 c 0,0.5241 0.06,0.8507 0.1822,0.9817 0.1707,0.1761 0.436,0.2642 0.7912,0.2642 l 0.323,0 0,0.232 -3.188,0 0,-0.232 0.3161,0 c 0.3921,0 0.6689,-0.1095 0.8327,-0.3287 0.0992,-0.1332 0.1477,-0.4404 0.1477,-0.9172 l 0,-5.9355 c -0.2654,-0.29 -0.4683,-0.4811 -0.6044,-0.5735 -0.1385,-0.0924 -0.3391,-0.1783 -0.6044,-0.2578 -0.1315,-0.0365 -0.3299,-0.0559 -0.5951,-0.0559 l 0,-0.2341 z m 21.0164,-0.1933 0.2353,2.6916 -0.2353,0 c -0.2399,-0.6702 -0.5489,-1.175 -0.9273,-1.5166 -0.5444,-0.4898 -1.2456,-0.7347 -2.1014,-0.7347 -1.1672,0 -2.0553,0.4297 -2.662,1.2889 -0.5098,0.7261 -0.7635,1.5897 -0.7635,2.5929 0,0.8142 0.1684,1.5574 0.5052,2.2277 0.3391,0.6723 0.7819,1.1643 1.3286,1.4757 0.5467,0.3137 1.1096,0.4705 1.6863,0.4705 0.3391,0 0.6643,-0.0408 0.9803,-0.1203 0.3161,-0.0795 0.6182,-0.1976 0.9112,-0.3523 l 0,-2.4682 c 0,-0.4275 -0.0346,-0.7068 -0.1038,-0.84 -0.0692,-0.131 -0.1776,-0.232 -0.3253,-0.3007 -0.1453,-0.0709 -0.4036,-0.1053 -0.7727,-0.1053 l 0,-0.2385 3.5478,0 0,0.2385 -0.1684,0 c -0.3529,0 -0.5929,0.1096 -0.7243,0.3287 -0.09,0.1546 -0.1338,0.4618 -0.1338,0.9173 l 0,2.6121 c -0.5191,0.2599 -1.0312,0.4512 -1.534,0.5736 -0.5052,0.1224 -1.0658,0.1826 -1.684,0.1826 -1.7692,0 -3.114,-0.5285 -4.0344,-1.5854 -0.6897,-0.7948 -1.0334,-1.7078 -1.0334,-2.7453 0,-0.7498 0.1937,-1.4694 0.5812,-2.159 0.4591,-0.8184 1.0911,-1.4478 1.8916,-1.8882 0.6713,-0.3652 1.4648,-0.5456 2.3782,-0.5456 0.3345,0 0.6367,0.0236 0.9112,0.0751 0.2721,0.0495 0.6574,0.1612 1.1579,0.333 0.2515,0.0881 0.4222,0.1311 0.5076,0.1311 0.0853,0 0.1591,-0.0366 0.2191,-0.1096 0.06,-0.073 0.0969,-0.217 0.1107,-0.4296 l 0.2514,0 z m 10.1887,0 0,2.9516 -0.2491,0 c -0.0831,-0.5672 -0.2284,-1.0183 -0.436,-1.3534 -0.2099,-0.3373 -0.5098,-0.6036 -0.8973,-0.7991 -0.3876,-0.1977 -0.7866,-0.2965 -1.2018,-0.2965 -0.4683,0 -0.8559,0.1332 -1.1626,0.3996 -0.3068,0.2663 -0.4591,0.5693 -0.4591,0.9087 0,0.2599 0.0969,0.4983 0.2907,0.711 0.2791,0.3158 0.9434,0.7347 1.993,1.2589 0.8558,0.4274 1.4417,0.7561 1.7531,0.986 0.3137,0.2277 0.5559,0.4984 0.7243,0.8077 0.1684,0.3115 0.2538,0.6358 0.2538,0.9753 0,0.6466 -0.2699,1.2029 -0.8074,1.6713 -0.5397,0.4682 -1.2318,0.7024 -2.0784,0.7024 -0.2676,0 -0.5167,-0.0193 -0.752,-0.058 -0.1384,-0.0194 -0.429,-0.0967 -0.8673,-0.2277 -0.4382,-0.1332 -0.7174,-0.1998 -0.835,-0.1998 -0.113,0 -0.2007,0.0322 -0.2676,0.0945 -0.0646,0.0623 -0.113,0.1934 -0.1453,0.391 l -0.2492,0 0,-2.9258 0.2492,0 c 0.1176,0.6122 0.2768,1.0698 0.4751,1.3748 0.1984,0.3029 0.5006,0.5564 0.9089,0.7583 0.406,0.1998 0.8535,0.3007 1.3402,0.3007 0.5628,0 1.008,-0.1374 1.3356,-0.4146 0.3253,-0.2771 0.489,-0.6036 0.489,-0.9817 0,-0.2104 -0.0622,-0.421 -0.1845,-0.6358 -0.1245,-0.2148 -0.3183,-0.4124 -0.579,-0.5972 -0.1753,-0.1267 -0.6551,-0.3931 -1.4394,-0.8034 -0.7843,-0.4082 -1.3402,-0.7347 -1.6724,-0.9774 -0.3321,-0.2449 -0.5813,-0.5135 -0.7543,-0.8056 -0.1707,-0.2943 -0.256,-0.6187 -0.256,-0.971 0,-0.6122 0.2514,-1.1385 0.7566,-1.581 0.5051,-0.4426 1.1465,-0.6638 1.9261,-0.6638 0.4868,0 1.0034,0.1095 1.5478,0.3329 0.2515,0.1053 0.4314,0.1568 0.5329,0.1568 0.1176,0 0.2145,-0.0322 0.2883,-0.0966 0.0738,-0.0666 0.1338,-0.1977 0.18,-0.3931 l 0.2491,0 z"
     style="fill:#1b1918;fill-rule:evenodd"
     id="path26" />
  <path
     inkscape:connector-curvature="0"
     d="m 224.7353,52.6567 c 0.6366,0.1246 1.1118,0.3266 1.4278,0.6037 0.436,0.3866 0.6552,0.8571 0.6552,1.4157 0,0.4232 -0.1454,0.8291 -0.4337,1.2179 -0.2884,0.3889 -0.6828,0.6703 -1.1857,0.8486 -0.5029,0.1783 -1.2687,0.2685 -2.2998,0.2685 l -4.3251,0 0,-0.232 0.3437,0 c 0.3829,0 0.6574,-0.1138 0.8235,-0.3416 0.1038,-0.1461 0.1568,-0.4575 0.1568,-0.9366 l 0,-5.5144 c 0,-0.5284 -0.0646,-0.8614 -0.196,-0.9988 -0.1754,-0.1848 -0.4384,-0.2772 -0.7843,-0.2772 l -0.3437,0 0,-0.2341 3.9583,0 c 0.7405,0 1.3333,0.0516 1.7785,0.1525 0.6759,0.1504 1.1926,0.4168 1.5478,0.8013 0.3553,0.3845 0.5329,0.8249 0.5329,1.3254 0,0.4275 -0.1384,0.8099 -0.4175,1.1493 -0.2792,0.3372 -0.6921,0.5864 -1.2387,0.7518 z m -3.5409,-0.3415 c 0.1684,0.0301 0.3576,0.0515 0.5721,0.0666 0.2145,0.015 0.4498,0.0215 0.7058,0.0215 0.6575,0 1.1534,-0.0645 1.4833,-0.1977 0.3321,-0.131 0.5859,-0.3351 0.7612,-0.6079 0.1753,-0.2707 0.263,-0.5693 0.263,-0.8937 0,-0.4983 -0.2192,-0.9236 -0.6552,-1.276 -0.4382,-0.3523 -1.0749,-0.5284 -1.9122,-0.5284 -0.4521,0 -0.8558,0.0451 -1.218,0.1375 l 0,3.2781 z m 0,4.0794 c 0.5236,0.1139 1.0404,0.1697 1.5478,0.1697 0.8166,0 1.4371,-0.1719 1.8662,-0.5134 0.4267,-0.3416 0.6413,-0.7648 0.6413,-1.2675 0,-0.3308 -0.0969,-0.6508 -0.2907,-0.9559 -0.1938,-0.3072 -0.5098,-0.5478 -0.9458,-0.7239 -0.4359,-0.1762 -0.978,-0.2642 -1.6216,-0.2642 -0.2791,0 -0.519,0.004 -0.7174,0.0107 -0.1984,0.009 -0.3575,0.0236 -0.4798,0.0451 l 0,3.4994 z m 14.6465,-2.2406 -3.5477,0 -0.6206,1.3469 c -0.1545,0.3309 -0.2306,0.5779 -0.2306,0.7433 0,0.1289 0.0669,0.2428 0.1983,0.3416 0.1338,0.0988 0.4199,0.1632 0.8628,0.1933 l 0,0.232 -2.8858,0 0,-0.232 c 0.383,-0.0645 0.6298,-0.1461 0.7428,-0.247 0.2307,-0.1998 0.4844,-0.6101 0.7635,-1.2267 l 3.2249,-7.0223 0.2353,0 3.1902,7.0976 c 0.256,0.5714 0.489,0.9408 0.6989,1.1106 0.2099,0.1697 0.5029,0.2663 0.8766,0.2878 l 0,0.232 -3.617,0 0,-0.232 c 0.3645,-0.0172 0.6113,-0.0752 0.7405,-0.1718 0.1292,-0.0945 0.1938,-0.2127 0.1938,-0.3524 0,-0.1847 -0.0923,-0.4747 -0.2723,-0.8742 l -0.5536,-1.2267 z m -0.1891,-0.4661 -1.5548,-3.4478 -1.5939,3.4478 3.1487,0 z m 5.6041,-5.2115 2.4866,0 5.6031,6.4016 0,-4.9215 c 0,-0.5242 -0.0646,-0.8528 -0.1892,-0.9817 -0.1684,-0.1762 -0.4313,-0.2643 -0.7912,-0.2643 l -0.3183,0 0,-0.2341 3.1902,0 0,0.2341 -0.3252,0 c -0.3876,0 -0.6621,0.1096 -0.8236,0.3266 -0.0991,0.1353 -0.1476,0.4403 -0.1476,0.9194 l 0,7.1921 -0.2445,0 -6.0413,-6.8721 0,5.2567 c 0,0.5241 0.0599,0.8507 0.1822,0.9817 0.1707,0.1761 0.4359,0.2642 0.7912,0.2642 l 0.3229,0 0,0.232 -3.1879,0 0,-0.232 0.316,0 c 0.3922,0 0.669,-0.1095 0.8328,-0.3287 0.0992,-0.1332 0.1476,-0.4404 0.1476,-0.9172 l 0,-5.9355 c -0.2653,-0.29 -0.4682,-0.4811 -0.6044,-0.5735 -0.1384,-0.0924 -0.3391,-0.1783 -0.6043,-0.2578 -0.1315,-0.0365 -0.3299,-0.0559 -0.5951,-0.0559 l 0,-0.2341 z m 16.2473,3.8023 3.3794,3.1277 c 0.5536,0.5156 1.0265,0.8679 1.4186,1.0548 0.3922,0.1869 0.7843,0.2921 1.1765,0.3179 l 0,0.232 -4.3598,0 0,-0.232 c 0.2607,0 0.4498,-0.0408 0.5652,-0.1246 0.1153,-0.0816 0.173,-0.1718 0.173,-0.2728 0,-0.101 -0.0231,-0.1912 -0.0646,-0.2707 -0.0438,-0.0795 -0.1845,-0.2277 -0.4221,-0.4468 l -3.1649,-2.9129 0,2.7496 c 0,0.4318 0.03,0.7176 0.09,0.855 0.0438,0.1053 0.1384,0.1955 0.2837,0.2707 0.1938,0.1009 0.3968,0.1525 0.6136,0.1525 l 0.3114,0 0,0.232 -3.9053,0 0,-0.232 0.3229,0 c 0.3783,0 0.6528,-0.1031 0.8258,-0.3093 0.1085,-0.1332 0.1615,-0.4576 0.1615,-0.9689 l 0,-5.5144 c 0,-0.4317 -0.03,-0.7196 -0.0876,-0.8614 -0.0462,-0.1009 -0.1385,-0.189 -0.2768,-0.2642 -0.1984,-0.101 -0.406,-0.1504 -0.6229,-0.1504 l -0.3229,0 0,-0.2341 3.9053,0 0,0.2341 -0.3114,0 c -0.2122,0 -0.4152,0.0473 -0.6136,0.144 -0.1407,0.0666 -0.2376,0.1675 -0.2907,0.3028 -0.0553,0.1332 -0.083,0.4104 -0.083,0.8292 l 0,2.6123 c 0.0923,-0.0796 0.3991,-0.3459 0.9273,-0.7992 1.3379,-1.1406 2.1476,-1.9033 2.4267,-2.2835 0.1199,-0.1675 0.1823,-0.3158 0.1823,-0.4404 0,-0.0966 -0.0485,-0.1826 -0.1431,-0.2556 -0.0946,-0.0731 -0.2537,-0.1096 -0.4798,-0.1096 l -0.2099,0 0,-0.2341 3.3656,0 0,0.2341 c -0.1984,0.004 -0.3784,0.028 -0.5399,0.0752 -0.1614,0.0452 -0.3598,0.1354 -0.5951,0.2664 -0.2329,0.1332 -0.5213,0.3459 -0.865,0.6402 -0.0992,0.0838 -0.5559,0.5134 -1.3725,1.2888 l -1.3979,1.2976 z"
     style="fill:#1b1918;fill-rule:evenodd"
     id="path28" />
  <path
     inkscape:connector-curvature="0"
     d="m 276.0305,48.2831 c 1.1902,0 2.2214,0.4189 3.0933,1.2609 0.8719,0.8421 1.3079,1.8904 1.3079,3.1493 0,1.2975 -0.4406,2.3737 -1.3194,3.2287 -0.8789,0.8571 -1.9423,1.2846 -3.1903,1.2846 -1.2594,0 -2.3205,-0.4189 -3.1786,-1.2524 -0.8582,-0.8356 -1.2872,-1.9162 -1.2872,-3.2416 0,-1.3555 0.496,-2.4597 1.4855,-3.3168 0.8628,-0.7432 1.8916,-1.1127 3.0888,-1.1127 z m -0.1269,0.4575 c -0.8212,0 -1.4786,0.2836 -1.9746,0.8507 -0.6159,0.7046 -0.9249,1.7357 -0.9249,3.0955 0,1.3942 0.3206,2.4661 0.9595,3.2158 0.4914,0.5715 1.1396,0.8572 1.9469,0.8572 0.8604,0 1.5709,-0.3137 2.1314,-0.9388 0.5606,-0.6251 0.842,-1.6111 0.842,-2.958 0,-1.4587 -0.3091,-2.5478 -0.9273,-3.2653 -0.4959,-0.5714 -1.1787,-0.8571 -2.053,-0.8571 z m 9.8277,0.202 0,3.3554 1.6678,0 c 0.3829,0 0.6643,-0.0795 0.8419,-0.2363 0.1777,-0.1568 0.2953,-0.4683 0.3553,-0.9345 l 0.2491,0 0,2.8872 -0.2491,0 c -0.005,-0.3308 -0.0508,-0.5736 -0.1384,-0.7282 -0.0877,-0.1568 -0.2099,-0.2728 -0.3668,-0.3502 -0.1545,-0.0773 -0.3852,-0.116 -0.692,-0.116 l -1.6678,0 0,2.6809 c 0,0.4318 0.0277,0.7176 0.0876,0.855 0.0439,0.1053 0.1385,0.1955 0.2838,0.2707 0.1984,0.1009 0.4037,0.1525 0.6205,0.1525 l 0.3322,0 0,0.232 -3.933,0 0,-0.232 0.3229,0 c 0.3783,0 0.6551,-0.1031 0.8259,-0.3093 0.1084,-0.1332 0.1614,-0.4576 0.1614,-0.9689 l 0,-5.5144 c 0,-0.4317 -0.03,-0.7174 -0.0876,-0.8549 -0.0462,-0.1053 -0.1384,-0.1955 -0.2769,-0.2707 -0.1937,-0.101 -0.4013,-0.1504 -0.6228,-0.1504 l -0.3229,0 0,-0.2341 6.8187,0 0.0877,1.8754 -0.2376,0 c -0.1153,-0.3974 -0.2538,-0.6896 -0.4083,-0.8765 -0.1546,-0.1869 -0.346,-0.3222 -0.5744,-0.406 -0.2283,-0.0838 -0.579,-0.1267 -1.0565,-0.1267 l -2.0207,0 z"
     style="fill:#1b1918;fill-rule:evenodd"
     id="path30" />
  <path
     inkscape:connector-curvature="0"
     d="m 306.1773,48.2831 0.2099,2.9 -0.2099,0 c -0.2791,-0.8679 -0.6781,-1.493 -1.1949,-1.8754 -0.519,-0.3823 -1.1395,-0.5735 -1.8661,-0.5735 -0.609,0 -1.158,0.1439 -1.6493,0.4317 -0.4913,0.2879 -0.8766,0.7455 -1.158,1.3749 -0.2814,0.6294 -0.4221,1.4135 -0.4221,2.348 0,0.7711 0.1314,1.4414 0.399,2.0085 0.2653,0.565 0.6644,0.9989 1.1996,1.3018 0.5328,0.3029 1.1418,0.4533 1.8268,0.4533 0.5952,0 1.1188,-0.1182 1.5756,-0.3567 0.4544,-0.2362 0.955,-0.7067 1.4993,-1.4113 l 0.2099,0.1246 c -0.459,0.7605 -0.9965,1.3168 -1.6077,1.6691 -0.6137,0.3523 -1.3402,0.5285 -2.1845,0.5285 -1.5178,0 -2.6943,-0.5242 -3.527,-1.5746 -0.6205,-0.7798 -0.9319,-1.6992 -0.9319,-2.7561 0,-0.8507 0.2052,-1.6348 0.6135,-2.348 0.4107,-0.7132 0.9758,-1.2653 1.6932,-1.6584 0.7197,-0.391 1.504,-0.5864 2.3552,-0.5864 0.662,0 1.3171,0.1503 1.9607,0.4511 0.1892,0.0924 0.3252,0.1396 0.406,0.1396 0.12,0 0.226,-0.0408 0.316,-0.1203 0.1176,-0.1117 0.2007,-0.2707 0.2514,-0.4704 l 0.2353,0 z m 5.6779,4.1524 4.2583,0 0,-2.4425 c 0,-0.4361 -0.03,-0.7239 -0.0877,-0.8614 -0.0461,-0.1053 -0.1407,-0.1955 -0.2837,-0.2707 -0.1938,-0.101 -0.399,-0.1504 -0.6159,-0.1504 l -0.323,0 0,-0.2341 3.9192,0 0,0.2341 -0.3252,0 c -0.2146,0 -0.4199,0.0473 -0.6136,0.144 -0.1454,0.0666 -0.2422,0.1697 -0.2953,0.305 -0.0507,0.1375 -0.0761,0.4146 -0.0761,0.8335 l 0,5.5079 c 0,0.4318 0.0277,0.7176 0.0877,0.855 0.0438,0.1053 0.136,0.1955 0.2767,0.2707 0.1984,0.1009 0.406,0.1525 0.6206,0.1525 l 0.3252,0 0,0.232 -3.9192,0 0,-0.232 0.323,0 c 0.3737,0 0.6482,-0.1031 0.8189,-0.3093 0.113,-0.1332 0.1684,-0.4576 0.1684,-0.9689 l 0,-2.5993 -4.2583,0 0,2.5993 c 0,0.4318 0.03,0.7176 0.0877,0.855 0.0461,0.1053 0.1407,0.1955 0.2861,0.2707 0.1937,0.1009 0.3967,0.1525 0.6135,0.1525 l 0.3322,0 0,0.232 -3.9261,0 0,-0.232 0.323,0 c 0.3783,0 0.6528,-0.1031 0.8258,-0.3093 0.1061,-0.1332 0.1615,-0.4576 0.1615,-0.9689 l 0,-5.5079 c 0,-0.4361 -0.03,-0.7239 -0.0877,-0.8614 -0.0461,-0.1053 -0.1384,-0.1955 -0.2768,-0.2707 -0.1984,-0.101 -0.406,-0.1504 -0.6228,-0.1504 l -0.323,0 0,-0.2341 3.9261,0 0,0.2341 -0.3322,0 c -0.2168,0 -0.4198,0.0473 -0.6135,0.144 -0.1408,0.0666 -0.2377,0.1697 -0.2907,0.305 -0.0554,0.1375 -0.0831,0.4146 -0.0831,0.8335 l 0,2.4425 z m 13.3571,4.3436 0,0.232 -3.9284,0 0,-0.232 0.3252,0 c 0.3784,0 0.6529,-0.1031 0.8236,-0.3093 0.1084,-0.1332 0.1637,-0.4576 0.1637,-0.9689 l 0,-5.5144 c 0,-0.4317 -0.0299,-0.7174 -0.0876,-0.8549 -0.0462,-0.1053 -0.1385,-0.1955 -0.2769,-0.2707 -0.1983,-0.101 -0.4059,-0.1504 -0.6228,-0.1504 l -0.3252,0 0,-0.2341 3.9284,0 0,0.2341 -0.3322,0 c -0.3737,0 -0.6459,0.1032 -0.8166,0.3072 -0.113,0.1354 -0.1707,0.4576 -0.1707,0.9688 l 0,5.5144 c 0,0.4318 0.03,0.7176 0.0877,0.855 0.0461,0.1053 0.1407,0.1955 0.2837,0.2707 0.1938,0.1009 0.399,0.1525 0.6159,0.1525 l 0.3322,0 z m 2.0886,-8.3027 2.4866,0 5.6031,6.4016 0,-4.9215 c 0,-0.5242 -0.0646,-0.8528 -0.1891,-0.9817 -0.1685,-0.1762 -0.4314,-0.2643 -0.7913,-0.2643 l -0.3183,0 0,-0.2341 3.1902,0 0,0.2341 -0.3252,0 c -0.3876,0 -0.6621,0.1096 -0.8236,0.3266 -0.0991,0.1353 -0.1475,0.4403 -0.1475,0.9194 l 0,7.1921 -0.2446,0 -6.0413,-6.8721 0,5.2567 c 0,0.5241 0.06,0.8507 0.1822,0.9817 0.1707,0.1761 0.436,0.2642 0.7912,0.2642 l 0.3229,0 0,0.232 -3.1879,0 0,-0.232 0.316,0 c 0.3922,0 0.669,-0.1095 0.8328,-0.3287 0.0992,-0.1332 0.1476,-0.4404 0.1476,-0.9172 l 0,-5.9355 c -0.2653,-0.29 -0.4682,-0.4811 -0.6044,-0.5735 -0.1384,-0.0924 -0.339,-0.1783 -0.6043,-0.2578 -0.1315,-0.0365 -0.3299,-0.0559 -0.5951,-0.0559 l 0,-0.2341 z m 18.4433,5.6776 -3.5477,0 -0.6206,1.3469 c -0.1545,0.3309 -0.2306,0.5779 -0.2306,0.7433 0,0.1289 0.0669,0.2428 0.1983,0.3416 0.1338,0.0988 0.4199,0.1632 0.8628,0.1933 l 0,0.232 -2.8858,0 0,-0.232 c 0.383,-0.0645 0.6298,-0.1461 0.7428,-0.247 0.2307,-0.1998 0.4844,-0.6101 0.7636,-1.2267 l 3.2248,-7.0223 0.2353,0 3.1902,7.0976 c 0.256,0.5714 0.489,0.9408 0.6989,1.1106 0.2099,0.1697 0.5029,0.2663 0.8766,0.2878 l 0,0.232 -3.617,0 0,-0.232 c 0.3645,-0.0172 0.6113,-0.0752 0.7405,-0.1718 0.1292,-0.0945 0.1938,-0.2127 0.1938,-0.3524 0,-0.1847 -0.0923,-0.4747 -0.2723,-0.8742 l -0.5536,-1.2267 z m -0.1891,-0.4661 -1.5548,-3.4478 -1.5939,3.4478 3.1487,0 z"
     style="fill:#1b1918;fill-rule:evenodd"
     id="path32" />
  <path
     id="path34"
     style="fill:none"
     d="m -6.0171017,-8.9236 367.6607017,0 0,76.5749 -367.6607017,0 0,-76.5749 z"
     inkscape:connector-curvature="0" />
</svg>
