<?xml version="1.0" encoding="UTF-8" standalone="no"?>
<!-- Created with Inkscape (http://www.inkscape.org/) -->

<svg
   xmlns:dc="http://purl.org/dc/elements/1.1/"
   xmlns:cc="http://creativecommons.org/ns#"
   xmlns:rdf="http://www.w3.org/1999/02/22-rdf-syntax-ns#"
   xmlns:svg="http://www.w3.org/2000/svg"
   xmlns="http://www.w3.org/2000/svg"
   xmlns:sodipodi="http://sodipodi.sourceforge.net/DTD/sodipodi-0.dtd"
   xmlns:inkscape="http://www.inkscape.org/namespaces/inkscape"
   id="svg2"
   version="1.1"
   inkscape:version="0.48.4 r9939"
   width="562.5"
   height="187.5"
   xml:space="preserve"
   sodipodi:docname="spb.svg"><metadata
     id="metadata8"><rdf:RDF><cc:Work
         rdf:about=""><dc:format>image/svg+xml</dc:format><dc:type
           rdf:resource="http://purl.org/dc/dcmitype/StillImage" /><dc:title></dc:title></cc:Work></rdf:RDF></metadata><defs
     id="defs6"><clipPath
       clipPathUnits="userSpaceOnUse"
       id="clipPath18"><path
         d="M 0,150 450,150 450,0 0,0 0,150 z"
         id="path20" /></clipPath></defs><sodipodi:namedview
     pagecolor="#ffffff"
     bordercolor="#666666"
     borderopacity="1"
     objecttolerance="10"
     gridtolerance="10"
     guidetolerance="10"
     inkscape:pageopacity="0"
     inkscape:pageshadow="2"
     inkscape:window-width="1280"
     inkscape:window-height="743"
     id="namedview4"
     showgrid="false"
     inkscape:zoom="0.62577778"
     inkscape:cx="281.25"
     inkscape:cy="93.75"
     inkscape:window-x="0"
     inkscape:window-y="0"
     inkscape:window-maximized="1"
     inkscape:current-layer="g10" /><g
     id="g10"
     inkscape:groupmode="layer"
     inkscape:label="53282fae3673a"
     transform="matrix(1.25,0,0,-1.25,0,187.5)"><path
       inkscape:connector-curvature="0"
       id="path24"
       style="fill:#204775;fill-opacity:1;fill-rule:nonzero;stroke:none"
       d="m 304.4229,116.1421 0.346,-0.532 5.231,3.825 -0.354,0.502 c -4.964,6.939 -10.751,11.057 -10.99,11.233 l -0.379,0.262 -5.075,-3.594 0.634,-0.519 c 0.042,-0.045 7.201,-6.226 10.587,-11.177 m 142.484,5.002 0,6.111 -29.419,0 0.112,-6.111 29.307,0 z m -29.859,-7.723 -4.959,3.345 -0.371,-0.511 c -6.253,-8.955 -12.959,-15.525 -19.937,-19.473 l -0.683,-0.435 4.778,-4.97 c 0,0 5.247,3.751 6.735,4.806 l 0,-24.357 6.26,0 0,30.503 c 4.115,4.955 6.784,8.516 7.909,10.589 l 0.268,0.503 z m -1.062,-2.059 0,-6.023 16.74,0 0,-26.658 c 0,-0.578 -0.223,-0.676 -0.363,-0.726 -0.165,-0.09 -0.848,-0.255 -3.32,-0.255 -2.109,0 -4.136,0.058 -6.093,0.214 l -0.926,0.066 1.973,-6.295 4.073,-0.056 c 2.979,0 5.15,0.136 6.472,0.412 1.421,0.32 2.558,1.045 3.399,2.183 0.839,1.145 1.268,2.45 1.268,3.859 l 0,27.192 11.691,0 0,6.087 -34.914,0 z m -18.29,-1.08 c 5.232,3.691 10.685,9.765 16.18,18.046 l 0.321,0.493 -4.884,3.822 -0.347,-0.587 c -4.53,-7.124 -10.018,-12.949 -16.361,-17.319 l -0.708,-0.498 5.412,-4.235 0.387,0.278 z m -30.436,-18.773 c -0.96,2.175 -1.614,4.686 -1.956,7.52 l 9.037,0 c -0.066,-0.109 -0.156,-0.262 -0.156,-0.262 -2.283,-3.526 -4.589,-5.913 -6.925,-7.258 m -12.196,19.871 14.977,0 0,-6.302 -14.977,0 0,6.302 z m 0,11.649 14.977,0 0,-5.857 -14.977,0 0,5.857 z m 14.828,-36.527 c 3.584,2.134 6.653,4.997 9.124,8.575 l 0.317,0.478 c 0,0 -4.342,3.437 -4.399,3.474 l 1.227,0 0,30.008 -27.417,0 0,-49.417 c 0,-1.615 -0.379,-2.143 -0.576,-2.315 l -0.412,-0.338 3.023,-5.487 14.146,5.116 0,6.245 c 0,0 -8.47,-2.822 -9.861,-3.304 l 0,19.492 4.234,0 c 0.585,-5.872 2.479,-11.283 5.627,-15.999 3.311,-4.877 7.9,-8.205 13.65,-9.796 l 0.404,-0.093 4.325,5.416 -0.927,0.239 c -5.985,1.598 -10.153,4.179 -12.485,7.706 m -36.668,15.227 -7.975,0 c 0.099,0.101 0.247,0.21 0.247,0.21 2.233,1.903 3.93,3.699 5.133,5.324 l 2.595,0 0,-5.534 z m 6.351,5.534 7.061,0 0,6.045 -12.688,0 c 0.668,1.475 1.166,2.745 1.5,3.715 l 11.863,0 0,6.006 -10.117,0 c 0.783,3.763 0.799,6.69 0.799,6.797 l 0,0.517 -5.882,1.54 -0.065,-0.745 c -0.783,-10.875 -4.399,-19.058 -10.644,-24.33 l -0.478,-0.414 c 0,0 3.785,-4.531 3.905,-4.665 l -0.363,0 0,-6.002 8.758,0 0,-15.638 c 0,-1.367 -0.219,-2.34 -0.659,-2.809 l -0.314,-0.363 3.407,-5.507 11.909,6.302 0,6.416 c 0,0 -6.567,-3.252 -7.992,-3.952 l 0,15.551 8.181,0 0,6.002 -8.181,0 0,5.534 z m -48.713,-16.889 c -1.998,2.025 -4.131,5.073 -6.318,9.073 l 12.275,0 c -1.524,-3.252 -3.531,-6.29 -5.957,-9.073 m 4.244,-4.244 c 3.419,3.882 6.388,8.724 8.851,14.427 l 0.07,0.117 0,4.818 -22.127,0 c 0.329,1.038 1.095,3.264 1.293,3.855 l 29.431,0 0,6.01 -28.002,0 c 0.556,2.762 1.297,7.414 2.179,13.941 l 0.074,0.528 -5.989,1.581 -0.082,-0.727 c -0.696,-6.646 -1.491,-11.805 -2.422,-15.323 l -9.293,0 c 0.589,1.46 4.77,11.933 4.77,11.933 l -5.503,2.89 -6.303,-15.708 0,-5.125 14.747,0 c -3.32,-13.191 -10.545,-23.456 -21.515,-30.444 l -0.605,-0.387 4.399,-5.166 0.494,0.342 c 9.664,7.011 16.135,14.944 19.41,23.566 2.265,-4.274 4.869,-8.049 7.814,-11.274 -4.737,-4.202 -11.381,-7.303 -19.273,-9.001 l -0.931,-0.197 3.657,-5.22 0.371,0.087 c 8.14,1.573 15.043,5.021 20.587,10.248 4.614,-3.344 7.967,-5.569 10.249,-6.705 3.172,-1.606 6.319,-2.776 9.569,-3.543 l 0.371,-0.107 4.296,5.05 -0.989,0.252 c -7.662,1.89 -14.24,5.021 -19.598,9.282 m -58.118,17.797 -8.89,0 0,4.104 8.89,0 0,-4.104 z m 0,-10.727 -8.86,0 0,4.677 8.86,0 0,-4.677 z m -15.343,10.727 -8.659,0 0,4.158 8.659,0 0,-4.158 z m 0,-10.727 -8.659,0 0,4.677 8.659,0 0,-4.677 z m 21.411,30.846 -0.314,0.455 c -2.8,3.889 -7.2,7.112 -7.373,7.261 l -0.395,0.265 -4.968,-3.775 0.594,-0.515 c 0.041,-0.02 2.767,-2.366 4.374,-4.109 l -6.846,0 0,8.842 -6.483,0 0,-8.842 -17.706,0 c 0,0 -0.058,-0.78 -0.058,-0.83 -4.142,4.045 -8.175,6.465 -8.36,6.566 l -0.377,0.2 -4.988,-3.891 0.696,-0.484 c 0.074,-0.068 6.947,-4.943 11.05,-9.752 l 0.385,-0.455 c 0,0 3.256,2.429 3.551,2.653 l 15.807,0 0,-3.542 -14.963,0 0,-42.464 6.304,0 0,15.582 8.659,0 0,-13.899 6.483,0 0,13.899 8.86,0 0,-8.745 c -0.202,-0.132 -1.132,-0.601 -5.664,-0.601 l -0.906,0 2.208,-6.236 4.301,0 c 1.433,-0.033 2.842,0.552 4.127,1.655 1.252,1.121 1.977,2.463 2.191,4.004 l 0,0.017 0,36.788 -15.117,0 0,3.595 19.896,0 0,6.017 -5.323,0 c 0.058,0.051 0.355,0.341 0.355,0.341 m -44.411,-21.052 0.419,-0.565 4.817,4.231 -0.385,0.483 c -5.442,6.801 -11.548,9.969 -11.826,10.121 l -0.347,0.202 -4.672,-3.965 0.64,-0.473 c 0.089,-0.074 8.115,-5.728 11.354,-10.034 m 0.12,-2.645 c -0.056,-0.13 -3.506,-13.708 -9.686,-23.382 l -0.303,-0.511 5.606,-3.98 0.354,0.528 c 6.867,10.424 10.055,24.052 10.08,24.217 l 0.111,0.451 -5.961,3.509 -0.201,-0.832 z" /><path
       inkscape:connector-curvature="0"
       id="path28"
       style="fill:#204775;fill-opacity:1;fill-rule:nonzero;stroke:none"
       d="m 340.4648,34.8447 8.309,20.15 8.114,-20.15 -16.423,0 z m 6.476,24.821 c -0.149,-0.403 -16.362,-37.171 -16.761,-38.051 l 4.979,0 c 0.182,0.411 3.865,9.687 3.865,9.687 l 19.368,0 c 0,0 3.761,-9.284 3.909,-9.687 l 4.996,0 c -0.375,0.906 -16.105,37.648 -16.262,38.051 l -4.094,0 z m -31.698,-34.485 -8.324,0 0,14.669 8.37,0 c 5.693,0 8.963,-2.723 8.963,-7.493 0,-6.665 -6.883,-7.176 -9.009,-7.176 m -8.324,30.919 8.885,0 c 4.964,0 6.734,-3.234 6.734,-6.294 0,-4.07 -2.849,-6.394 -7.834,-6.394 l -7.785,0 0,12.688 z m 13.816,-14.071 c 4.069,1.351 6.343,4.539 6.343,8.386 0,5.787 -4.234,9.251 -11.307,9.251 l -13.062,0 0,-38.051 12.881,0 c 7.892,0 13.218,4.18 13.218,10.355 0,4.836 -3.707,9.754 -8.073,10.059 m -54.167,-16.501 -7.217,0 0,30.234 8.494,0 c 15.377,0 15.825,-13.577 15.825,-15.134 0,-10.426 -8.592,-15.1 -17.102,-15.1 m 1.648,34.138 -13.12,0 0,-38.051 12.229,0 c 6.385,0 11.765,2.054 15.563,5.881 3.443,3.46 5.313,8.136 5.313,13.132 0,1.961 -0.544,19.038 -19.985,19.038 m -30.614,-17.25 -7.522,0 0,13.684 7.522,0 c 2.204,0 8.934,0 8.934,-6.83 0,-6.854 -6.73,-6.854 -8.934,-6.854 m 1.491,17.25 -13.206,0 0,-38.051 4.193,0 0,17.242 9.013,0 c 10.809,0 11.982,7.295 11.982,10.413 0,3.114 -1.173,10.396 -11.982,10.396 m -29.602,-16.999 c -4.488,1.393 -8.736,2.673 -8.736,7.592 0,2.418 1.713,6.491 8.157,6.491 2.822,0 5.475,-1.211 7.024,-3.155 0.193,0.189 3.039,2.772 3.468,3.155 -2.373,2.637 -5.71,3.881 -10.492,3.881 -9.27,0 -12.709,-6.352 -12.709,-10.372 0,-8.23 5.919,-10.108 11.148,-11.781 4.185,-1.298 8.125,-2.578 8.125,-6.892 0,-4.864 -4.877,-7.043 -8.326,-7.043 -3.389,0 -6.488,1.454 -8.365,3.934 -0.414,-0.355 -3.126,-2.674 -3.526,-3.024 2.425,-3.056 6.682,-4.811 11.717,-4.811 7.689,0 13.029,4.754 13.029,11.55 0,7.296 -5.34,8.893 -10.514,10.475 m 210.885,-0.761 -0.234,0.242 0.259,0.218 c 0.165,0.182 15.497,14.219 18.808,17.3 l -5.816,0 c -1.351,-1.285 -17.218,-16.159 -17.918,-16.826 l -0.548,-0.518 0,17.344 -4.234,0 0,-38.051 4.234,0 0,20.043 0.572,-0.573 c 0.725,-0.77 17.457,-18.005 18.862,-19.47 l 6.208,0 c -3.263,3.319 -20.003,20.117 -20.193,20.291 m -20.262,-15.143 -0.588,0.882 c -0.882,1.281 -20.373,29.794 -21.89,32.021 l -6.146,0 0,-38.051 4.235,0 0,32.895 0.568,-0.865 c 0.873,-1.261 20.588,-29.786 22.137,-32.03 l 5.898,0 0,38.051 -4.214,0 0,-32.903 z" /><path
       inkscape:connector-curvature="0"
       id="path32"
       style="fill:#204775;fill-opacity:1;fill-rule:nonzero;stroke:none"
       d="m 32.4961,89.8701 c 11.651,9.933 24.101,9.048 28.488,8.323 -2.266,4.701 -11.021,19.654 -30.682,19.654 -18.128,0 -30.302,-15.982 -30.302,-30.908 l 0,-55.283 c 0,-3.501 2.648,-5.627 2.648,-5.627 l 16.106,-12.361 c 0,0 3.209,-2.698 3.209,1.43 l 0,50.286 c 0,0.098 -0.053,0.535 -0.053,1.285 0,3.744 0.901,14.853 10.586,23.201 m 116.546,30.286 c 0,3.474 -2.644,5.635 -2.644,5.635 l -16.052,12.337 c 0,0 -3.232,2.696 -3.232,-1.43 0,-14.009 -0.035,-49.44 -0.035,-49.44 0.035,-0.1 0.052,-0.543 0.052,-1.277 0,-3.75 -0.869,-14.86 -10.597,-23.192 -11.607,-9.94 -24.072,-9.038 -28.436,-8.333 2.273,-4.7 10.996,-19.652 30.677,-19.652 18.133,0 30.303,15.99 30.303,30.91 0,0 -0.036,28.66 -0.036,54.442 m -51.437,-29.207 0.484,0.443 c 9.655,7.855 21.226,7.146 25.11,6.627 -1.574,4.521 -8.529,19.579 -29.192,19.579 -11.688,0 -19.319,-6.199 -23.638,-11.427 -5.124,-6.17 -6.387,-13.424 -6.677,-17.207 -1.678,-17.953 -11.266,-26.554 -12.355,-27.497 -10.692,-8.836 -21.646,-7.674 -25.57,-6.855 1.87,-4.815 9.425,-20.18 29.936,-19.665 8.174,0.243 15.375,3.415 21.416,9.483 6.752,6.743 8.186,17.23 8.472,20.311 1.444,15.352 8.859,23.426 12.014,26.208" /></g></svg>