<?xml version="1.0" encoding="UTF-8" standalone="no"?>
<!-- Created with Inkscape (http://www.inkscape.org/) -->

<svg
   xmlns:dc="http://purl.org/dc/elements/1.1/"
   xmlns:cc="http://creativecommons.org/ns#"
   xmlns:rdf="http://www.w3.org/1999/02/22-rdf-syntax-ns#"
   xmlns:svg="http://www.w3.org/2000/svg"
   xmlns="http://www.w3.org/2000/svg"
   xmlns:sodipodi="http://sodipodi.sourceforge.net/DTD/sodipodi-0.dtd"
   xmlns:inkscape="http://www.inkscape.org/namespaces/inkscape"
   id="svg2"
   version="1.1"
   inkscape:version="0.48.4 r9939"
   width="158.0408"
   height="53.467506"
   xml:space="preserve"
   sodipodi:docname="tenpay.svg"><metadata
     id="metadata8"><rdf:RDF><cc:Work
         rdf:about=""><dc:format>image/svg+xml</dc:format><dc:type
           rdf:resource="http://purl.org/dc/dcmitype/StillImage" /><dc:title></dc:title></cc:Work></rdf:RDF></metadata><defs
     id="defs6"><clipPath
       clipPathUnits="userSpaceOnUse"
       id="clipPath16"><path
         d="m 0,841.89 595.276,0 L 595.276,0 0,0 0,841.89 z"
         id="path18"
         inkscape:connector-curvature="0" /></clipPath></defs><sodipodi:namedview
     pagecolor="#ffffff"
     bordercolor="#666666"
     borderopacity="1"
     objecttolerance="10"
     gridtolerance="10"
     guidetolerance="10"
     inkscape:pageopacity="0"
     inkscape:pageshadow="2"
     inkscape:window-width="1037"
     inkscape:window-height="660"
     id="namedview4"
     showgrid="false"
     fit-margin-top="0"
     fit-margin-left="0"
     fit-margin-right="0"
     fit-margin-bottom="0"
     inkscape:zoom="5.0743638"
     inkscape:cx="18.235732"
     inkscape:cy="21.872633"
     inkscape:window-x="290"
     inkscape:window-y="39"
     inkscape:window-maximized="0"
     inkscape:current-layer="g10" /><g
     id="g10"
     inkscape:groupmode="layer"
     inkscape:label="Aspjzy.8519051367"
     transform="matrix(1.25,0,0,-1.25,-238.05687,544.85688)"><g
       id="g20"
       transform="translate(216.9165,412.5693)"
       style="fill:#ff8500;fill-opacity:1"><path
         d="m 0,0 c 0,0 -3.583,-9.559 -4.608,-10.923 -1.024,-1.364 -1.708,-2.22 -2.39,-2.732 -0.682,-0.513 -0.682,-3.242 -0.682,-3.242 0,0 -0.854,-0.513 2.9,0.341 C -1.026,-15.701 4.267,0 4.267,0 L 0,0 z m 11.272,4.281 0,2.405 -4.713,0 0,-2.311 -9.433,0 -1.394,-2.84 c 0,0 8.535,0 9.559,-0.17 1.024,-0.17 2.218,-0.683 1.536,-5.633 -0.682,-4.947 -6.999,-12.629 -6.999,-12.629 l 6.829,0 c 2.22,1.196 3.969,18.59 3.969,18.59 l 2.497,0 0,2.588 -1.851,0 z m -26.114,-15.332 c -0.394,0.986 1.772,12.219 1.772,12.219 l -3.94,0 c 0,0 -0.394,-6.505 -1.775,-11.037 -1.774,-4.532 -7.686,-4.731 -7.686,-4.731 l 0.197,-3.154 c 3.941,-0.393 8.87,3.744 8.87,3.744 3.942,-4.139 7.686,-3.545 7.686,-3.545 l 0.394,3.152 c -3.35,0.59 -5.124,2.366 -5.518,3.352 m -4.082,18.092 c -1.923,0 -3.463,-2.115 -4.038,-3.27 -0.577,-1.154 -2.117,-14.615 -2.117,-14.615 l 4.23,-0.191 2.5,14.614 8.271,-0.192 -2.693,-14.422 4.807,0 3.006,18.076 -13.966,0 z"
         style="fill:#ff8500;fill-opacity:1;fill-rule:nonzero;stroke:none"
         id="path22"
         inkscape:connector-curvature="0" /></g><g
       id="g24"
       transform="translate(274.4326,422.9795)"
       style="fill:#ff8500;fill-opacity:1"><path
         d="m 0,0 0.512,3.242 -5.974,0 -0.512,-3.412 -18.945,0 c -0.342,-1.365 -2.218,-3.927 -2.218,-3.927 l 20.309,0 -1.536,-6.656 c 5.632,-12.971 -10.922,-19.115 -10.922,-19.115 8.192,0 12.97,4.097 14.678,8.02 1.709,3.924 3.242,18.094 3.242,18.094 L 0.512,-3.585 1.194,0 0,0 z m -31.575,3.414 c 0,0 -3.926,-5.463 -4.608,-6.144 -0.682,-0.682 -2.39,-1.195 -2.39,-1.195 l -0.512,-3.584 3.072,0 c -0.172,-0.512 -3.925,-20.141 -3.925,-20.141 l 6.145,0 3.754,24.408 4.608,6.656 -6.144,0 z"
         style="fill:#ff8500;fill-opacity:1;fill-rule:nonzero;stroke:none"
         id="path26"
         inkscape:connector-curvature="0" /></g><g
       id="g28"
       transform="translate(288.4414,396.8975)"
       style="fill:#ff8500;fill-opacity:1"><path
         d="m 0,0 c -3.803,0.183 -3.805,2.354 -3.805,2.354 l 3.261,16.299 -6.7,0 -0.362,-2.895 1.629,0 c 0,0 -1.812,-11.955 -2.173,-13.947 -0.362,-1.993 -2.354,-1.448 -2.354,-1.448 l 0,-2.717 3.621,0 c 0.545,0 1.813,1.448 1.813,1.448 C -3.803,-2.355 0,-2.535 0,-2.535 l 25.354,0 L 25.897,0 C 25.897,0 3.803,-0.182 0,0 m 11.047,13.039 -4.709,0 c 0,0 -0.724,0.908 0,1.088 l 5.252,0 c 0,0 0.543,-1.088 -0.543,-1.088 M 10.143,8.331 c -0.727,0 -4.891,0.182 -4.891,0.182 0,0 -0.361,1.45 0.362,1.63 0.724,0.179 5.071,-0.182 5.071,-0.182 0,0 0.183,-1.63 -0.542,-1.63 m 16.298,10.142 c 2.174,0.182 1.992,3.623 1.992,3.623 l -24.994,0 -1.447,-2.719 18.473,0 c 0,-0.906 -1.088,-2.172 -1.088,-2.172 l -5.615,0 0,0.725 -6.518,0 L 6.7,16.844 c 0,0 -3.261,0.541 -4.528,-0.906 C 0.904,14.488 -0.544,1.811 -0.544,1.811 l 4.708,0.181 0.906,3.623 4.891,0 -0.362,-3.804 5.252,0 0.362,4.166 4.346,0 c 0.906,0 1.086,2.173 1.086,2.173 l -4.708,0.181 0.182,1.63 c 0,0 2.896,0 4.164,0.182 1.268,0.181 1.086,2.716 1.086,2.716 l -4.526,0 0.179,1.268 5.435,0 C 25.355,9.601 18.652,1.811 18.652,1.811 l 5.977,0 c 0.361,0.542 3.26,14.67 3.26,14.67 l -1.63,0 c -0.724,1.268 0.182,1.992 0.182,1.992"
         style="fill:#ff8500;fill-opacity:1;fill-rule:nonzero;stroke:none"
         id="path30"
         inkscape:connector-curvature="0" /></g><path
       style="fill:#17499b;fill-opacity:1;fill-rule:nonzero;stroke:none"
       d="M 83.65625 25.75 C 80.047021 25.64696 76.189062 27.366406 73.46875 30.65625 C 69.115 35.9125 69.29125 43.235 73.84375 47 C 78.4 50.77 85.61625 49.53875 89.96875 44.28125 C 94.32125 39.01625 94.14875 31.705 89.59375 27.9375 C 87.886562 26.524687 85.821787 25.811824 83.65625 25.75 z M 77.75 32.78125 L 85.4375 32.78125 L 84.65625 40.875 L 76.59375 40.875 L 77.75 32.78125 z "
       transform="matrix(0.8,0,0,-0.8,190.4455,435.8855)"
       id="path34" /><g
       id="g40"
       transform="translate(281.5547,420.0791)"><path
         d="m 0,0 7.494,0 c 0,0 -4.086,28.271 -74.942,9.195 0,0 60.976,12.948 67.448,-9.195"
         style="fill:#17499b;fill-opacity:1;fill-rule:nonzero;stroke:none"
         id="path42"
         inkscape:connector-curvature="0" /></g><flowRoot
       xml:space="preserve"
       id="flowRoot3944"
       style="font-size:22px;font-style:normal;font-variant:normal;font-weight:normal;font-stretch:normal;line-height:125%;letter-spacing:0px;word-spacing:0px;fill:#000000;fill-opacity:1;stroke:none;font-family:Arial;-inkscape-font-specification:Arial"
       transform="matrix(0.8,0,0,-0.8,0,841.89)"><flowRegion
         id="flowRegion3946"><rect
           id="rect3948"
           width="2.2295816"
           height="24.525398"
           x="284.82907"
           y="426.4075" /></flowRegion><flowPara
         id="flowPara3950"></flowPara></flowRoot><path
       inkscape:connector-curvature="0"
       id="path3996"
       style="font-size:7.17085123px;font-style:italic;font-variant:normal;font-weight:bold;font-stretch:normal;line-height:125%;letter-spacing:0px;word-spacing:0px;fill:#969696;fill-opacity:1;stroke:none;font-family:Arial;-inkscape-font-specification:Arial Bold Italic"
       d="m 194.62824,421.65903 -1.05742,0 0.89636,4.2752 -1.5056,0 0.17857,0.85784 4.04411,0 -0.17857,-0.85784 -1.48459,0 -0.89286,-4.2752" /><path
       inkscape:connector-curvature="0"
       id="path3998"
       style="font-size:7.17085123px;font-style:italic;font-variant:normal;font-weight:bold;font-stretch:normal;line-height:125%;letter-spacing:0px;word-spacing:0px;fill:#969696;fill-opacity:1;stroke:none;font-family:Arial;-inkscape-font-specification:Arial Bold Italic"
       d="m 196.77809,421.65903 1.07143,5.13304 3.80601,0 -0.17857,-0.85784 -2.74859,0 -0.2451,-1.16597 2.65756,0 -0.17857,-0.85784 -2.65756,0 -0.32213,-1.39355 2.98669,0 -0.18207,-0.85784 -4.0091,0" /><path
       inkscape:connector-curvature="0"
       id="path4000"
       style="font-size:7.17085123px;font-style:italic;font-variant:normal;font-weight:bold;font-stretch:normal;line-height:125%;letter-spacing:0px;word-spacing:0px;fill:#969696;fill-opacity:1;stroke:none;font-family:Arial;-inkscape-font-specification:Arial Bold Italic"
       d="m 205.67163,421.65903 -0.98389,0 -1.38655,3.44887 -0.72129,-3.44887 -0.98389,0 1.07143,5.13304 0.98739,0 1.39005,-3.43487 0.71779,3.43487 0.98039,0 -1.07143,-5.13304" /><path
       inkscape:connector-curvature="0"
       id="path4002"
       style="font-size:7.17085123px;font-style:italic;font-variant:normal;font-weight:bold;font-stretch:normal;line-height:125%;letter-spacing:0px;word-spacing:0px;fill:#969696;fill-opacity:1;stroke:none;font-family:Arial;-inkscape-font-specification:Arial Bold Italic"
       d="m 207.80398,421.65903 -1.05742,0 1.07493,5.13304 2.08682,0 c 0.37115,-1e-5 0.6641,-0.0444 0.87885,-0.13305 0.21709,-0.0864 0.38865,-0.2311 0.51471,-0.43418 0.12604,-0.20075 0.18907,-0.44118 0.18907,-0.72128 0,-0.25911 -0.0502,-0.51121 -0.15056,-0.7563 -0.10037,-0.24511 -0.22409,-0.44118 -0.37114,-0.58824 -0.14473,-0.14706 -0.30113,-0.2591 -0.46919,-0.33613 -0.16807,-0.0747 -0.39449,-0.13189 -0.67927,-0.17157 -0.16574,-0.0233 -0.47619,-0.035 -0.93137,-0.035 l -0.67577,0 -0.40966,-1.95728 m 0.58473,2.80811 0.32563,0 c 0.55789,0 0.9302,0.035 1.11694,0.10505 0.18674,0.07 0.3338,0.18206 0.44118,0.33613 0.10737,0.15406 0.16106,0.32329 0.16106,0.5077 0,0.12371 -0.028,0.22525 -0.084,0.30462 -0.0537,0.0794 -0.13072,0.13655 -0.23109,0.17157 -0.098,0.0373 -0.31863,0.056 -0.66176,0.056 l -0.75631,0 -0.31162,-1.48109" /><path
       inkscape:connector-curvature="0"
       id="path4004"
       style="font-size:7.17085123px;font-style:italic;font-variant:normal;font-weight:bold;font-stretch:normal;line-height:125%;letter-spacing:0px;word-spacing:0px;fill:#969696;fill-opacity:1;stroke:none;font-family:Arial;-inkscape-font-specification:Arial Bold Italic"
       d="m 214.36909,422.79348 -2.03431,0 -0.61625,-1.13445 -1.08543,0 2.90266,5.13304 1.17296,0 0.83333,-5.13304 -1.00139,0 -0.17157,1.13445 m -0.12955,0.85434 -0.29762,2.06582 -1.23949,-2.06582 1.53711,0" /><path
       inkscape:connector-curvature="0"
       id="path4006"
       style="font-size:7.17085123px;font-style:italic;font-variant:normal;font-weight:bold;font-stretch:normal;line-height:125%;letter-spacing:0px;word-spacing:0px;fill:#969696;fill-opacity:1;stroke:none;font-family:Arial;-inkscape-font-specification:Arial Bold Italic"
       d="m 218.23813,421.65903 -1.05392,0 0.41666,1.99929 -1.41456,3.13375 1.12395,0 0.63725,-1.44958 c 0.15173,-0.34781 0.25327,-0.59874 0.30462,-0.7528 0.0864,0.15173 0.18674,0.31279 0.30112,0.48319 l 0.4867,0.67927 0.72478,1.03992 1.22549,0 -2.35293,-3.23179 -0.39916,-1.90125" /><path
       inkscape:connector-curvature="0"
       id="path4008"
       style="font-size:7.17085123px;font-style:italic;font-variant:normal;font-weight:bold;font-stretch:normal;line-height:125%;letter-spacing:0px;word-spacing:0px;fill:#969696;fill-opacity:1;stroke:none;font-family:Arial;-inkscape-font-specification:Arial Bold Italic"
       d="m 220.01333,422.62891 0.9944,0 -0.20308,-0.96988 -0.9944,0 0.20308,0.96988" /><path
       inkscape:connector-curvature="0"
       id="path4010"
       style="font-size:7.17085123px;font-style:italic;font-variant:normal;font-weight:bold;font-stretch:normal;line-height:125%;letter-spacing:0px;word-spacing:0px;fill:#969696;fill-opacity:1;stroke:none;font-family:Arial;-inkscape-font-specification:Arial Bold Italic"
       d="m 225.49651,423.50776 1.06443,-0.16106 c -0.20776,-0.57657 -0.51938,-1.01774 -0.93488,-1.32353 -0.4155,-0.30345 -0.90219,-0.45518 -1.46008,-0.45518 -0.62791,0 -1.11928,0.18908 -1.47408,0.56723 -0.35248,0.37815 -0.52871,0.9267 -0.52871,1.64565 0,0.58356 0.11788,1.11694 0.35364,1.60014 0.23809,0.48552 0.56722,0.85667 0.98739,1.11344 0.42017,0.25676 0.87768,0.38515 1.37255,0.38515 0.55555,0 1.00489,-0.14939 1.34803,-0.44818 0.34313,-0.29645 0.54505,-0.70144 0.60574,-1.21498 l -1.0119,-0.098 c -0.056,0.29878 -0.16457,0.5147 -0.32563,0.64776 -0.15873,0.13538 -0.37115,0.20308 -0.63725,0.20308 -0.29179,0 -0.5649,-0.0887 -0.81933,-0.2661 -0.2521,-0.17741 -0.45401,-0.45519 -0.60574,-0.83334 -0.15173,-0.37582 -0.22759,-0.75163 -0.22759,-1.12744 0,-0.41084 0.098,-0.7283 0.29412,-0.95238 0.19841,-0.22409 0.44467,-0.33614 0.73879,-0.33614 0.27311,0 0.52287,0.0887 0.7493,0.26611 0.22875,0.1774 0.39915,0.44001 0.5112,0.78781" /><path
       inkscape:connector-curvature="0"
       id="path4012"
       style="font-size:7.17085123px;font-style:italic;font-variant:normal;font-weight:bold;font-stretch:normal;line-height:125%;letter-spacing:0px;word-spacing:0px;fill:#969696;fill-opacity:1;stroke:none;font-family:Arial;-inkscape-font-specification:Arial Bold Italic"
       d="m 227.29273,423.67233 c 0,0.30345 0.0455,0.62324 0.13655,0.95938 0.11905,0.45051 0.29995,0.8415 0.54272,1.17297 0.24509,0.33146 0.55321,0.59289 0.92436,0.78431 0.37115,0.19374 0.79365,0.29061 1.26751,0.29061 0.63491,0 1.14728,-0.19725 1.53711,-0.59173 0.39215,-0.3945 0.58823,-0.91737 0.58823,-1.56863 0,-0.54155 -0.12722,-1.06559 -0.38165,-1.57212 -0.25444,-0.50654 -0.59991,-0.89636 -1.03641,-1.16947 -0.43651,-0.2731 -0.93021,-0.40966 -1.48109,-0.40966 -0.47853,0 -0.88002,0.10854 -1.20448,0.32563 -0.32446,0.21709 -0.55439,0.48553 -0.68977,0.80532 -0.13539,0.32213 -0.20308,0.64659 -0.20308,0.97339 m 1.04341,0.021 c 0,-0.35248 0.10738,-0.64776 0.32213,-0.88586 0.21475,-0.23809 0.49719,-0.35714 0.84734,-0.35714 0.28477,0 0.55788,0.0934 0.81932,0.28011 0.26377,0.18908 0.48086,0.47386 0.65126,0.85434 0.17273,0.38282 0.2591,0.75513 0.2591,1.11695 0,0.40382 -0.10854,0.72011 -0.32563,0.94887 -0.21709,0.23109 -0.4937,0.34664 -0.82983,0.34664 -0.51587,0 -0.93604,-0.24043 -1.2605,-0.72128 -0.32213,-0.48087 -0.48319,-1.00841 -0.48319,-1.58263" /><path
       inkscape:connector-curvature="0"
       id="path4014"
       style="font-size:7.17085123px;font-style:italic;font-variant:normal;font-weight:bold;font-stretch:normal;line-height:125%;letter-spacing:0px;word-spacing:0px;fill:#969696;fill-opacity:1;stroke:none;font-family:Arial;-inkscape-font-specification:Arial Bold Italic"
       d="m 235.48599,421.65903 -1.0014,0 -0.18558,4.2892 -0.81582,-4.2892 -0.95238,0 1.07143,5.13304 1.5056,0 0.15756,-3.59593 1.7507,3.59593 1.5231,0 -1.07493,-5.13304 -0.96288,0 1.0119,4.25769 -2.0273,-4.25769" /></g></svg>