<?xml version="1.0" encoding="utf-8"?>
<!DOCTYPE svg PUBLIC "-//W3C//DTD SVG 1.1//EN" "http://www.w3.org/Graphics/SVG/1.1/DTD/svg11.dtd">
<svg version="1.1" id="Layer_1" xmlns="http://www.w3.org/2000/svg" xmlns:xlink="http://www.w3.org/1999/xlink" x="0px" y="0px"
width="296.25px" height="190px" viewBox="0 0 296.25 190" enable-background="new 0 0 296.25 190" xml:space="preserve">
<g>
   <path fill="#01798a" fill-rule="nonzero" id="path22" d="m281.252502,0.47749l-72.764999,-0.018753c-0.008743,0 -0.018753,0 -0.018753,0c-0.056244,0 -0.111252,0.01001 -0.166245,0.01001c-9.996246,0.306244 -22.446259,8.323746 -24.71376,18.209992l-34.41124,152.262133c-2.267502,9.978561 3.901245,18.09819 13.824997,18.247604l76.442505,0c9.772491,-0.483398 19.268738,-8.408691 21.497498,-18.182602l34.412506,-152.263384c2.303741,-10.080003 -4.013763,-18.265 -14.102509,-18.265"/>
   <path fill="#024381" fill-rule="nonzero" id="path20" d="m149.177505,170.940872l34.411255,-152.262133c2.267502,-9.886247 14.717499,-17.903749 24.713745,-18.209992l-28.931244,-0.018753l-52.125008,-0.01001c-10.024124,0.205002 -22.636368,8.278763 -24.903,18.238755l-34.421379,152.262133c-2.275871,9.978561 3.901878,18.09819 13.819374,18.247604l81.261253,0c-9.923752,-0.149414 -16.092499,-8.269043 -13.824997,-18.247604"/>
   <path fill="#dd0228" fill-rule="nonzero" id="path16" d="m67.921875,170.940872l34.421371,-152.262117c2.266624,-9.960008 14.878876,-18.033753 24.903,-18.238755l-66.775497,-0.017502c-10.080124,0 -23.004002,8.16626 -25.307625,18.256257l-34.421425,152.262117c-0.209472,0.929245 -0.325684,1.839874 -0.395019,2.731003l0,2.824753c0.673827,7.27388 6.229007,12.570755 14.21432,12.691849l67.180249,0c-9.917496,-0.149414 -16.095245,-8.269043 -13.819374,-18.247604"/>
   <path fill="#ffffff" fill-rule="nonzero" id="path24" d="m128.653748,111.388123l1.263748,0c1.161255,0 1.942505,-0.389626 2.308746,-1.161125l3.283752,-4.914497l8.793747,0l-1.83374,3.232376l10.543747,0l-1.337494,4.952621l-12.546265,0c-1.444992,2.173874 -3.22374,3.195877 -5.362488,3.074753l-6.535004,0l1.421249,-5.184128m-1.443748,7.098251l23.099998,0l-1.472504,5.379875l-9.289993,0l-1.417496,5.192879l9.039993,0l-1.472504,5.379364l-9.039993,0l-2.100006,7.673386c-0.520004,1.282623 0.163757,1.859375 2.040009,1.7285l7.367493,0l-1.365005,4.998993l-14.144989,0c-2.681259,0 -3.601006,-1.533752 -2.760002,-4.608368l2.68499,-9.792511l-5.778496,0l1.46788,-5.379364l5.779366,0l1.41626,-5.192879l-5.52375,0l1.46875,-5.379875zm36.870003,-13.210503l-0.363754,3.149376c0,0 4.357498,-3.2715 8.315002,-3.2715l14.623749,0l-5.592499,20.244247c-0.46376,2.314377 -2.452499,3.465256 -5.965012,3.465256l-16.574997,0l-3.882492,14.215363c-0.223755,0.761749 0.092499,1.152374 0.928741,1.152374l3.261246,0l-1.198746,4.412506l-8.291245,0c-3.182495,0 -4.506256,-0.957001 -3.981247,-2.879379l10.971237,-40.488243l7.75,0l0.000015,0zm12.383743,5.722626l-13.052505,0l-1.561249,5.462502c0,0 2.173752,-1.569374 5.806259,-1.625504c3.622498,-0.056747 7.757492,0 7.757492,0l1.050003,-3.836998zm-4.728745,12.671875c0.964996,0.130875 1.50499,-0.250999 1.569992,-1.152252l0.798752,-2.879494l-13.072495,0l-1.096252,4.031746l11.800003,0zm-8.817505,6.540627l7.535004,0l-0.139999,3.26062l2.006241,0c1.013748,0 1.516251,-0.324615 1.516251,-0.96524l0.59375,-2.109375l6.262497,0l-0.836243,3.074615c-0.707504,2.564499 -2.582504,3.902374 -5.630005,4.033249l-4.013748,0l-0.018753,5.573746c-0.073746,0.892624 0.733749,1.347626 2.396255,1.347626l3.772507,0l-1.217514,4.413132l-9.048737,0c-2.536255,0.120621 -3.779999,-1.087875 -3.753754,-3.651382l0.576248,-14.97699"/>
   <path fill="#ffffff" fill-rule="nonzero" id="path28" d="m71.610374,78.304749c-1.022003,5.007751 -3.391121,8.854004 -7.066002,11.585373c-3.641499,2.685127 -8.338375,4.031754 -14.088749,4.031754c-5.411625,0 -9.378998,-1.375 -11.910751,-4.134254c-1.755875,-1.960495 -2.629372,-4.450249 -2.629372,-7.460495c0,-1.244629 0.148998,-2.582504 0.446373,-4.022377l6.126877,-29.543507l9.253498,0l-6.043499,29.209003c-0.186001,0.808502 -0.26025,1.561005 -0.2505,2.23925c-0.00975,1.496124 0.361748,2.72213 1.11425,3.678627c1.096249,1.421875 2.8755,2.127502 5.351498,2.127502c2.847252,0 5.193375,-0.696251 7.014252,-2.099625c1.821251,-1.393501 3.01025,-3.372002 3.544373,-5.945755l6.062504,-29.209003l9.206619,0l-6.131371,29.543507"/>
   <path fill="#ffffff" fill-rule="nonzero" id="path34" d="m110.472122,66.682121l7.247124,0l-5.67675,26.366753l-7.232872,0l5.662498,-26.366753m2.28125,-9.605877l7.311623,0l-1.365746,6.400005l-7.311127,0l1.36525,-6.400005"/>
   <path fill="#ffffff" fill-rule="nonzero" id="path36" d="m124.134247,91.042c-1.8955,-1.811501 -2.852501,-4.254875 -2.861748,-7.357872c0,-0.529877 0.032249,-1.133377 0.102501,-1.793503c0.06987,-0.668999 0.158249,-1.319374 0.283249,-1.922874c0.859375,-4.282753 2.689873,-7.683128 5.509247,-10.191879c2.815002,-2.517624 6.211258,-3.78125 10.1875,-3.78125c3.256256,0 5.838745,0.910629 7.729996,2.731506c1.889999,1.830498 2.837509,4.301247 2.837509,7.442375c0,0.537994 -0.04126,1.160622 -0.111252,1.829498c-0.083755,0.678246 -0.184998,1.328621 -0.302505,1.969749c-0.839996,4.217751 -2.664993,7.581123 -5.485001,10.043503c-2.819992,2.480499 -6.206253,3.715248 -10.154999,3.715248c-3.269989,0 -5.84375,-0.891502 -7.734497,-2.684502m13.810745,-5.221252c1.277512,-1.384247 2.192505,-3.484375 2.75,-6.280251c0.083755,-0.436501 0.157501,-0.891998 0.203751,-1.347122c0.046249,-0.446251 0.065002,-0.86425 0.065002,-1.245125c0,-1.625999 -0.413742,-2.88913 -1.244995,-3.78125c-0.826248,-0.901375 -2.001251,-1.346748 -3.520004,-1.346748c-2.007492,0 -3.642502,0.705124 -4.923752,2.117744c-1.292496,1.412628 -2.207489,3.549255 -2.783752,6.392128c-0.078751,0.436501 -0.143738,0.873497 -0.203751,1.300751c-0.046249,0.436501 -0.059998,0.845253 -0.051239,1.216751c0,1.616753 0.413742,2.861877 1.244995,3.744125c0.826248,0.882874 1.996246,1.319374 3.535004,1.319374c2.016251,0 3.651245,-0.696754 4.928741,-2.090378"/>
   <path fill="#e02f41" fill-rule="nonzero" id="path14" d="m208.46875,0.458753l-29.097504,-0.008743l28.931259,0.018738c0.054993,0 0.110001,-0.009994 0.166245,-0.009994"/>
   <path fill="#2e4f7d" fill-rule="nonzero" id="path18" d="m179.371246,0.449994l-51.724998,-0.027496c-0.129997,0 -0.264999,0.008743 -0.400002,0.017502l52.125,0.009995"/>
   <path fill="#ffffff" fill-rule="nonzero" id="path26" d="m194.942505,111.611374l1.747498,-6.150002l8.835007,0l-0.381256,2.256874c0,0 4.514999,-2.256874 7.766251,-2.256874c3.252502,0 10.925003,0 10.925003,0l-1.736252,6.150002l-1.71875,0l-8.241257,29.005371l1.71875,0l-1.634995,5.760254l-1.71875,0l-0.714996,2.498993l-8.556259,0l0.71376,-2.498993l-16.880005,0l1.645004,-5.760254l1.691254,0l8.248749,-29.005371l-1.708755,0m9.532501,0l-2.248749,7.849998c0,0 3.847504,-1.476501 7.163742,-1.894501c0.732513,-2.741249 1.690002,-5.955498 1.690002,-5.955498l-6.604996,0zm-3.289993,11.529747l-2.256256,8.22213c0,0 4.263748,-2.099625 7.190002,-2.276382c0.845001,-3.177742 1.691254,-5.945747 1.691254,-5.945747l-6.625,0zm1.653748,17.475624l1.691238,-5.964371l-6.594986,0l-1.700012,5.964371l6.60376,0zm21.368744,-35.536125l8.306244,0l0.352509,3.06488c-0.055008,0.780251 0.408752,1.15287 1.393753,1.15287l1.467499,0l-1.485001,5.192879l-6.104996,0c-2.331253,0.120621 -3.530014,-0.7705 -3.641251,-2.694374l-0.288757,-6.716255zm-2.433746,11.13913l26.904999,0l-1.578751,5.574623l-8.566254,0l-1.46875,5.183121l8.55751,0l-1.58876,5.565506l-9.53125,0l-2.15625,3.261749l4.665009,0l1.077499,6.530746c0.128738,0.650375 0.705002,0.966248 1.690002,0.966248l1.448746,0l-1.522507,5.378372l-5.128738,0c-2.657501,0.130875 -4.03125,-0.761124 -4.143753,-2.68399l-1.236252,-5.964386l-4.244995,6.345261c-1.003754,1.792877 -2.546265,2.629379 -4.626251,2.498993l-7.832504,0l1.523743,-5.379868l2.443756,0c1.003754,0 1.838745,-0.445877 2.591248,-1.346756l6.643753,-9.606369l-8.566254,0l1.587509,-5.565506l9.291245,0l1.477493,-5.183121l-9.299988,0l1.588745,-5.574623"/>
   <path fill="#ffffff" fill-rule="nonzero" id="path30" d="m80.134247,66.672874l6.535622,0l-0.747498,3.808998l0.938004,-1.086876c2.118622,-2.266624 4.691872,-3.391121 7.729996,-3.391121c2.75,0 4.733376,0.799377 5.9785,2.40625c1.225998,1.607498 1.560501,3.828125 0.980499,6.680252l-3.600624,17.967751l-6.716873,0l3.251495,-16.286125c0.335007,-1.681625 0.242256,-2.936005 -0.274368,-3.744629c-0.510254,-0.808121 -1.486382,-1.207123 -2.893631,-1.207123c-1.727997,0 -3.182121,0.538124 -4.366623,1.607002c-1.189499,1.077621 -1.974121,2.573746 -2.359871,4.477997l-2.996132,15.152878l-6.730873,0l5.272377,-26.385254"/>
   <path fill="#ffffff" fill-rule="nonzero" id="path32" d="m155.085007,66.672874l6.541245,0l-0.742493,3.808998l0.927505,-1.086876c2.119995,-2.266624 4.702499,-3.391121 7.731247,-3.391121c2.75,0 4.737503,0.799377 5.972488,2.40625c1.21875,1.607498 1.571259,3.828125 0.976257,6.680252l-3.586258,17.967751l-6.726242,0l3.252502,-16.286125c0.33374,-1.681625 0.241241,-2.936005 -0.270004,-3.744629c-0.529999,-0.808121 -1.487503,-1.207123 -2.888748,-1.207123c-1.728745,0 -3.177505,0.538124 -4.376251,1.607002c-1.190002,1.077621 -1.978745,2.573746 -2.350006,4.477997l-3.009995,15.152878l-6.722504,0l5.271255,-26.385254"/>
   <path fill="#ffffff" fill-rule="nonzero" id="path38" d="m187.417496,50.321239l18.990005,0c3.651245,0 6.474991,0.827499 8.416245,2.452499c1.932495,1.645004 2.899994,4.005005 2.899994,7.080006l0,0.092499c0,0.585003 -0.038742,1.244995 -0.09375,1.960007c-0.09375,0.706242 -0.214996,1.421242 -0.371246,2.164993c-0.836243,4.069374 -2.778748,7.339874 -5.778748,9.820374c-3.011246,2.47113 -6.577499,3.716255 -10.683746,3.716255l-10.183762,0l-3.148743,15.450249l-8.817505,0l8.771255,-42.736881m4.746246,19.854504l8.446259,0c2.201248,0 3.947495,-0.511749 5.221237,-1.523872c1.263763,-1.022003 2.100006,-2.582504 2.563751,-4.700623c0.073761,-0.391251 0.12001,-0.743752 0.176254,-1.068756c0.028748,-0.306248 0.065002,-0.613747 0.065002,-0.910004c0,-1.514999 -0.537506,-2.61124 -1.616257,-3.29874c-1.077499,-0.69751 -2.767487,-1.03125 -5.110001,-1.03125l-7.172501,0l-2.573746,12.533245"/>
   <path fill="#ffffff" fill-rule="nonzero" id="path40" d="m257.188751,98.159126c-2.787506,5.926872 -5.443756,9.382378 -7.003754,10.989754c-1.5625,1.589371 -4.654999,5.287125 -12.106247,5.007874l0.641251,-4.524002c6.270004,-1.932503 9.661255,-10.638626 11.59375,-14.493622l-2.303757,-28.392006l4.850006,-0.064995l4.068741,0l0.4375,17.81012l7.626251,-17.81012l7.721252,0l-15.524994,31.476997"/>
   <path fill="#ffffff" fill-rule="nonzero" id="path42" d="m235.598755,68.828125l-3.067505,2.109375c-3.205002,-2.508247 -6.131256,-4.059998 -11.778748,-1.440376c-7.693756,3.567375 -14.122498,30.928627 7.059998,21.916504l1.207504,1.430626l8.33374,0.213875l5.472504,-24.861877l-7.227493,0.631874m-4.738754,13.592247c-1.338745,3.948753 -4.328751,6.559128 -6.669998,5.816002c-2.341248,-0.724625 -3.177505,-4.534248 -1.821259,-8.491753c1.337509,-3.957993 4.347504,-6.55912 6.669998,-5.815872c2.341263,0.724625 3.186264,4.533623 1.821259,8.491623"/>
 </g>
</svg>