<?xml version="1.0" encoding="UTF-8" standalone="no"?>
<svg
   xmlns:dc="http://purl.org/dc/elements/1.1/"
   xmlns:cc="http://creativecommons.org/ns#"
   xmlns:rdf="http://www.w3.org/1999/02/22-rdf-syntax-ns#"
   xmlns:svg="http://www.w3.org/2000/svg"
   xmlns="http://www.w3.org/2000/svg"
   xmlns:sodipodi="http://sodipodi.sourceforge.net/DTD/sodipodi-0.dtd"
   xmlns:inkscape="http://www.inkscape.org/namespaces/inkscape"
   viewBox="0 0 223.97929 46.384701"
   id="svg2"
   height="46.384701"
   width="223.97929"
   version="1.1"
   inkscape:version="0.48.4 r9939"
   sodipodi:docname="pingan.svg">
  <sodipodi:namedview
     pagecolor="#ffffff"
     bordercolor="#666666"
     borderopacity="1"
     objecttolerance="10"
     gridtolerance="10"
     guidetolerance="10"
     inkscape:pageopacity="0"
     inkscape:pageshadow="2"
     inkscape:window-width="1280"
     inkscape:window-height="743"
     id="namedview37"
     showgrid="false"
     fit-margin-top="0"
     fit-margin-left="0"
     fit-margin-right="0"
     fit-margin-bottom="0"
     inkscape:zoom="6.3429567"
     inkscape:cx="57.938427"
     inkscape:cy="13.277758"
     inkscape:window-x="0"
     inkscape:window-y="0"
     inkscape:window-maximized="1"
     inkscape:current-layer="svg2" />
  <metadata
     id="metadata72">
    <rdf:RDF>
      <cc:Work
         rdf:about="">
        <dc:format>image/svg+xml</dc:format>
        <dc:type
           rdf:resource="http://purl.org/dc/dcmitype/StillImage" />
        <dc:title></dc:title>
      </cc:Work>
    </rdf:RDF>
  </metadata>
  <defs
     id="defs70" />
  <path
     id="path38"
     style="fill:#ec650a;fill-rule:evenodd"
     d="m 193.8747,8.9572 c -0.2996,0 -0.4333,-0.0984 -0.4333,-0.2636 0,0 0.0661,-0.1705 0.0661,-0.1705 0,0 4.907,-6.0703 4.907,-6.0703 0.3657,-0.4656 0.4671,-0.5325 0.8006,-0.5325 0,0 3.8045,0 3.8045,0 0.2006,0 0.3342,0.1037 0.3342,0.2636 0,0.1397 -0.042,0.2328 -0.1164,0.326 0,0 -4.9573,6.1837 -4.9573,6.1837 -0.166,0.1967 -0.3004,0.2636 -0.6677,0.2636 0,0 -3.7377,0 -3.7377,0 0,0 0,0 0,0 z m 0,7.7105 c -0.2658,0 -0.4333,-0.1036 -0.4333,-0.2696 0,-0.0466 0.0225,-0.1029 0.0999,-0.2013 0,0 4.8732,-6.0388 4.8732,-6.0388 0.3657,-0.4295 0.4671,-0.5332 0.8006,-0.5332 0,0 3.8045,0 3.8045,0 0.2006,0 0.3342,0.1037 0.3342,0.3004 0,0.0984 -0.0338,0.1652 -0.0999,0.2689 0,0 -3.9712,4.9731 -3.9712,4.9731 0,0 1.8016,0 1.8016,0 0,0 0,10.3383 0,10.3383 0,0.3004 -0.2996,0.6 -0.6015,0.6 0,0 -3.137,0 -3.137,0 -0.3334,0 -0.6338,-0.2636 -0.6338,-0.6 0,0 0,-8.8378 0,-8.8378 0,0 -2.8373,0 -2.8373,0 0,0 0,0 0,0 z m 11.4813,-3.1722 c -0.3335,0 -0.6016,-0.2689 -0.6016,-0.6001 0,0 0,-2.437 0,-2.437 0,-0.3004 0.2681,-0.6008 0.6016,-0.6008 0,0 18.0232,0 18.0232,0 0.3335,0 0.6001,0.3004 0.6001,0.6008 0,0 0,2.437 0,2.437 0,0.3312 -0.2666,0.6001 -0.6001,0.6001 0,0 -3.2045,0 -3.2045,0 0,0 0,10.3442 0,10.3442 0,1.2677 -1.0349,2.2658 -2.3025,2.2658 0,0 -8.7454,0 -8.7454,0 -0.3335,0 -0.6001,-0.2636 -0.6001,-0.6 0,0 0,-2.1321 0,-2.1321 0,-0.3357 0.2666,-0.6001 0.6001,-0.6001 0,0 6.6095,0 6.6095,0 0,0 0,-9.2778 0,-9.2778 0,0 -10.3803,0 -10.3803,0 0,0 0,0 0,0 z m 1.0011,-7.7045 c -0.3335,0 -0.6001,-0.2696 -0.6001,-0.6008 0,0 0,-2.437 0,-2.437 0,-0.3312 0.2666,-0.6001 0.6001,-0.6001 0,0 16.0864,0 16.0864,0 0.3342,0 0.6338,0.2997 0.6338,0.6001 0,0 0,2.437 0,2.437 0,0.3312 -0.2996,0.6008 -0.6338,0.6008 0,0 -16.0864,0 -16.0864,0 0,0 0,0 0,0 z"
     inkscape:connector-curvature="0" />
  <path
     id="path40"
     style="fill:#ec650a;fill-rule:evenodd"
     d="m 171.5843,3.9225 c 0.3342,0 0.6338,0.2643 0.6338,0.6 0,0 0,2.0337 0,2.0337 0,0.3004 -0.2996,0.6008 -0.6338,0.6008 0,0 -6.6749,0 -6.6749,0 0,0 -0.4671,0.8021 -0.4671,0.8021 -0.2666,0.4964 -0.3672,0.564 -0.8682,0.564 0,0 -3.0693,0 -3.0693,0 -0.401,0 -0.5009,-0.0676 -0.5009,-0.2328 0,-0.0676 0.0338,-0.166 0.1329,-0.3312 0,0 3.0378,-5.5063 3.0378,-5.5063 0.2328,-0.4341 0.3334,-0.5325 0.7014,-0.5325 0,0 3.336,0 3.336,0 0.3334,0 0.4686,0.0616 0.4686,0.1968 0,0.1029 -0.0338,0.2012 -0.1014,0.3357 0,0 -0.8343,1.4697 -0.8343,1.4697 0,0 4.8394,0 4.8394,0 0,0 0,0 0,0 z m -3.5703,11.5391 c 0,0 3.5703,0 3.5703,0 0.3342,0 0.6338,0.2696 0.6338,0.6053 0,0 0,2.0029 0,2.0029 0,0.3312 -0.2936,0.5948 -0.6338,0.5948 0,0 -3.5703,0 -3.5703,0 0,0 0,4.5743 0,4.5743 0,0 2.8358,0 2.8358,0 0.2997,0 0.6016,0.2697 0.6016,0.6008 0,0 0,1.6658 0,1.6658 0,0.3004 -0.3019,0.6 -0.6016,0.6 0,0 -4.4384,0 -4.4384,0 -1.2354,0 -2.2695,-1.0349 -2.2695,-2.2658 0,0 0,-5.1751 0,-5.1751 0,0 -2.9041,0 -2.9041,0 -0.3335,0 -0.6001,-0.2636 -0.6001,-0.5948 0,0 0,-2.0029 0,-2.0029 0,-0.3357 0.2666,-0.6053 0.6001,-0.6053 0,0 2.9041,0 2.9041,0 0,0 0,-2.6338 0,-2.6338 0,0 -2.9041,0 -2.9041,0 -0.3335,0 -0.6001,-0.2636 -0.6001,-0.6 0,0 0,-2.0337 0,-2.0337 0,-0.3365 0.2666,-0.6001 0.6001,-0.6001 0,0 10.3465,0 10.3465,0 0.3342,0 0.6338,0.2636 0.6338,0.6001 0,0 0,2.0337 0,2.0337 0,0.3364 -0.2996,0.6 -0.6338,0.6 0,0 -3.5703,0 -3.5703,0 0,0 0,2.6338 0,2.6338 0,0 0,0 0,0 z m 9.5445,7.7773 c 0,0 2.9702,0 2.9702,0 0.3349,0 0.6353,0.2697 0.6353,0.6008 0,0 0,1.6658 0,1.6658 0,0.3004 -0.3004,0.6 -0.6353,0.6 0,0 -4.4046,0 -4.4046,0 -1.2677,0 -2.3041,-1.0349 -2.3041,-2.2658 0,0 0,-19.4201 0,-19.4201 0,-1.2316 1.0364,-2.2665 2.3041,-2.2665 0,0 11.7471,0 11.7471,0 1.2692,0 2.2688,1.0349 2.2688,2.2665 0,0 0,8.5742 0,8.5742 0,1.2677 -0.9996,2.3026 -2.2688,2.3026 0,0 -10.3127,0 -10.3127,0 0,0 0,7.9425 0,7.9425 0,0 0,0 0,0 z m 8.8107,-18.0848 c 0,0 -8.8107,0 -8.8107,0 0,0 0,2.1374 0,2.1374 0,0 8.8107,0 8.8107,0 0,0 0,-2.1374 0,-2.1374 0,0 0,0 0,0 z m -8.8107,5.04 c 0,0 0,2.1321 0,2.1321 0,0 8.8107,0 8.8107,0 0,0 0,-2.1321 0,-2.1321 0,0 -8.8107,0 -8.8107,0 0,0 0,0 0,0 z m 8.6778,6.7732 c 0.3657,-0.4032 0.5002,-0.5016 0.8006,-0.5016 0,0 2.8703,0 2.8703,0 0.368,0 0.5362,0.0623 0.5332,0.2636 0,0.1036 -0.0999,0.238 -0.3004,0.4709 0,0 -3.7708,4.3362 -3.7708,4.3362 0,0 0.2681,0.4349 0.2681,0.4349 0.4334,0.7352 0.4994,0.8336 0.6677,0.9988 0.2335,0.2328 0.3657,0.2688 1.134,0.2688 0,0 1.5681,0 1.5681,0 0.3011,0 0.6015,0.3004 0.6015,0.6008 0,0 0,1.6658 0,1.6658 0,0.3004 -0.3004,0.6 -0.6015,0.6 0,0 -2.3364,0 -2.3364,0 -2.036,0 -3.1031,-0.4964 -3.9044,-1.8001 0,0 -4.2056,-7.2081 -4.2056,-7.2081 -0.0842,-0.145 -0.133,-0.2644 -0.133,-0.368 0,-0.1652 0.1007,-0.2636 0.3335,-0.2636 0,0 3.1039,0 3.1039,0 0.4385,0 0.5339,0.0984 0.8681,0.6316 0,0 1.0011,1.6709 1.0011,1.6709 0,0 1.502,-1.8009 1.502,-1.8009 0,0 0,0 0,0 z"
     inkscape:connector-curvature="0" />
  <path
     id="path42"
     style="fill:#ec650a;fill-rule:evenodd"
     d="m 127.7327,13.7028 c -0.3658,0 -0.6324,-0.2644 -0.6324,-0.5956 0,0 0,-2.1366 0,-2.1366 0,-0.3364 0.2666,-0.6008 0.6324,-0.6008 0,0 4.6404,0 4.6404,0 0,0 0,-2.0021 0,-2.0021 0,-0.3365 0.2666,-0.6001 0.6001,-0.6001 0,0 3.004,0 3.004,0 0.3672,0 0.6338,0.2636 0.6338,0.6001 0,0 0,2.0021 0,2.0021 0,0 11.0142,0 11.0142,0 0,0 0,-1.9714 0,-1.9714 0,-0.3672 0.2681,-0.6308 0.6353,-0.6308 0,0 3.0025,0 3.0025,0 0.3334,0 0.6,0.2636 0.6,0.6308 0,0 0,1.9714 0,1.9714 0,0 4.4738,0 4.4738,0 0.3319,0 0.6,0.2644 0.6,0.6008 0,0 0,2.1366 0,2.1366 0,0.3312 -0.2681,0.5956 -0.6,0.5956 0,0 -4.4738,0 -4.4738,0 0,0 0,1.2361 0,1.2361 0,2.7689 -0.7998,3.7362 -4.3377,5.3404 0,0 -1.4697,0.6676 -1.4697,0.6676 0,0 0.2681,0.0984 0.2681,0.0984 1.8024,0.802 3.2045,1.1332 4.7395,1.1017 0,0 4.705,0 4.705,0 0.3342,0 0.6008,0.3004 0.6008,0.6316 0,0 0,2.1005 0,2.1005 0,0.3365 -0.2666,0.6061 -0.6008,0.6061 0,0 -4.705,0 -4.705,0 -2.437,-0.0368 -3.6724,-0.3365 -6.4758,-1.6042 0,0 -2.4693,-1.1024 -2.4693,-1.1024 0,0 -2.4693,1.1024 -2.4693,1.1024 -2.9364,1.3038 -3.8722,1.5366 -6.4751,1.6042 0,0 -4.7058,0 -4.7058,0 -0.3342,0 -0.6008,-0.2696 -0.6008,-0.6061 0,0 0,-2.1005 0,-2.1005 0,-0.3312 0.2666,-0.6316 0.6008,-0.6316 0,0 4.7058,0 4.7058,0 1.502,0 3.2045,-0.398 4.7403,-1.1017 0,0 0.2666,-0.0984 0.2666,-0.0984 0,0 -1.4682,-0.6676 -1.4682,-0.6676 -3.6056,-1.6665 -4.2732,-2.5046 -4.3393,-5.3404 0,0 0,-1.2361 0,-1.2361 0,0 -4.6404,0 -4.6404,0 0,0 0,0 0,0 z m 12.049,-12.0724 c 0,-0.3672 0.2681,-0.6368 0.6016,-0.6368 0,0 3.4373,0 3.4373,0 0.3334,0 0.6015,0.2696 0.6015,0.6368 0,0 0,1.2001 0,1.2001 0,0 9.6113,0 9.6113,0 1.5343,0 2.8035,1.2677 2.8035,2.8358 0,0 0,1.6973 0,1.6973 0,0.3364 -0.2673,0.6053 -0.6015,0.6053 0,0 -2.2688,0 -2.2688,0 -0.3342,0 -0.6001,-0.2689 -0.6001,-0.6053 0,0 0,-1.5005 0,-1.5005 0,0 -22.5292,0 -22.5292,0 0,0 0,1.5005 0,1.5005 0,0.3364 -0.2658,0.6053 -0.6,0.6053 0,0 -2.2365,0 -2.2365,0 -0.3342,0 -0.6339,-0.2689 -0.6339,-0.6053 0,0 0,-1.6973 0,-1.6973 0,-1.5681 1.3015,-2.8358 2.8704,-2.8358 0,0 9.5444,0 9.5444,0 0,0 0,-1.2001 0,-1.2001 0,0 0,0 0,0 z m -3.1707,13.2417 c 0,1.6349 0.1014,1.7693 1.9691,2.6698 0,0 3.538,1.6041 3.538,1.6041 0,0 3.5379,-1.6041 3.5379,-1.6041 1.9016,-0.9313 1.9692,-1.0349 1.9692,-2.6698 0,0 0,-1.1693 0,-1.1693 0,0 -11.0142,0 -11.0142,0 0,0 0,1.1693 0,1.1693 0,0 0,0 0,0 z"
     inkscape:connector-curvature="0" />
  <path
     id="path46"
     style="fill:#ec650a;fill-rule:evenodd"
     d="m 95.564398,21.0656 c -0.3673,0 -0.6339,-0.2689 -0.6339,-0.6361 0,0 0,-2.1682 0,-2.1682 0,-0.3312 0.2666,-0.6368 0.6339,-0.6368 0,0 11.780902,0 11.780902,0 0,0 0,-11.9732 0,-11.9732 0,0 -10.879702,0 -10.879702,0 -0.335,0 -0.6016,-0.3004 -0.6016,-0.6369 0,0 0,-2.0697 0,-2.0697 0,-0.3312 0.2666,-0.6001 0.6016,-0.6001 0,0 26.399102,0 26.399102,0 0.3342,0 0.6008,0.2689 0.6008,0.6001 0,0 0,2.0697 0,2.0697 0,0.3365 -0.2666,0.6369 -0.6008,0.6369 0,0 -10.8467,0 -10.8467,0 0,0 0,11.9732 0,11.9732 0,0 11.8808,0 11.8808,0 0.3688,0 0.6346,0.3056 0.6346,0.6368 0,0 0,2.1682 0,2.1682 0,0.3672 -0.2658,0.6361 -0.6346,0.6361 0,0 -11.8808,0 -11.8808,0 0,0 0,4.533 0,4.533 0,0.3364 -0.3004,0.6 -0.6338,0.6 0,0 -3.4374,0 -3.4374,0 -0.3349,0 -0.6015,-0.2636 -0.6015,-0.6 0,0 0,-4.533 0,-4.533 0,0 -11.780902,0 -11.780902,0 0,0 0,0 0,0 z M 105.6443,14.9239 c 0.1329,0.2328 0.1667,0.3672 0.1667,0.4348 0,0.2013 -0.1329,0.2997 -0.401,0.2997 0,0 -3.4036,0 -3.4036,0 -0.7014,0 -0.8681,-0.0984 -1.1024,-0.5693 0,0 -3.470402,-6.7372 -3.470402,-6.7372 -0.0676,-0.1652 -0.1337,-0.3365 -0.1337,-0.4348 0,-0.2013 0.1337,-0.2997 0.4011,-0.2997 0,0 3.370402,0 3.370402,0 0.6669,0 0.8675,0.0984 1.1018,0.5693 0,0 3.4711,6.7372 3.4711,6.7372 0,0 0,0 0,0 z m 12.6829,-7.3065 c 0,0 3.3697,0 3.3697,0 0.2884,0 0.3973,0.1134 0.401,0.2997 0.001,0.0728 -0.054,0.2125 -0.1667,0.4348 0,0 -3.4388,6.7372 -3.4388,6.7372 -0.2328,0.4709 -0.4033,0.5693 -1.101,0.5693 0,0 -3.4043,0 -3.4043,0 -0.2666,0 -0.4002,-0.0984 -0.4002,-0.2997 0,-0.0676 0,-0.1352 0.1667,-0.4348 0,0 3.4711,-6.7372 3.4711,-6.7372 0.2005,-0.4349 0.4333,-0.5693 1.101,-0.5693 0,0 0.001,0 0.001,0 0,0 0,0 0,0 z"
     inkscape:connector-curvature="0" />
  <path
     style="fill:#ec650a;fill-rule:evenodd"
     d="M 6.21875 1.125 C 3.40475 1.125 1.125 3.40405 1.125 6.21875 L 1.125 40.15625 C 1.125 42.97175 3.40475 45.25 6.21875 45.25 L 79.90625 45.25 C 82.72175 45.25 85 42.97175 85 40.15625 L 85 6.21875 C 85 3.40405 82.72175 1.125 79.90625 1.125 L 6.21875 1.125 z M 6.21875 2.84375 L 79.90625 2.84375 C 81.78375 2.84375 83.3125 4.34055 83.3125 6.21875 L 83.3125 29.34375 C 83.3125 31.21675 81.78375 32.75 79.90625 32.75 L 6.21875 32.75 C 4.34125 32.75 2.84375 31.21675 2.84375 29.34375 L 2.84375 6.21875 C 2.84375 4.34055 4.34125 2.84375 6.21875 2.84375 z M 66.03125 35.84375 C 66.08465 35.818588 66.1775 35.84945 66.25 35.875 L 66.34375 36 L 66.34375 36.21875 L 66.25 36.40625 L 68.75 36.40625 C 69.1368 36.40625 69.23815 36.5701 69.15625 36.875 C 69.05945 37.1754 68.88905 37.44465 68.65625 37.71875 C 68.53985 37.83735 68.4327 37.86385 68.3125 37.78125 C 68.2014 37.67235 68.18435 37.5719 68.28125 37.4375 C 68.60875 37.05 68.6592 36.875 68.5 36.875 L 67.34375 36.875 C 67.32425 37.0095 67.31055 37.1146 67.28125 37.1875 C 67.67035 37.7981 68.31155 38.18915 69.21875 38.40625 C 69.38545 38.45275 69.454 38.55805 69.4375 38.71875 L 69.34375 38.875 L 69.125 38.875 C 68.1855 38.6782 67.4921 38.2664 67.0625 37.625 C 66.7508 38.2153 66.16365 38.5427 65.28125 38.75 C 65.10925 38.7807 64.9953 38.72825 64.9375 38.59375 C 64.9045 38.45415 64.965 38.3689 65.125 38.3125 C 66.1373 38.0377 66.71685 37.5892 66.84375 36.875 L 65.96875 36.875 C 65.79525 37.0973 65.65295 37.24535 65.53125 37.34375 C 65.39455 37.44745 65.26445 37.4734 65.15625 37.375 C 65.06535 37.2661 65.10085 37.1239 65.21875 37 C 65.54175 36.6793 65.75905 36.347 65.90625 36 C 65.94005 35.9249 65.97785 35.868912 66.03125 35.84375 z M 37.9375 35.9375 C 38.0929 35.9841 38.1535 36.0953 38.125 36.25 C 38.125 36.2711 38.1128 36.371 38.0625 36.5625 L 39 36.5625 C 39.1389 36.573 39.25 36.6578 39.25 36.8125 C 39.25 36.968 39.1434 37.02625 39 37.03125 L 37.90625 37.03125 C 37.85445 37.17545 37.77565 37.3712 37.65625 37.625 L 37.59375 37.71875 L 38.84375 37.71875 C 38.98645 37.72925 39.0625 37.81325 39.0625 37.96875 C 39.0625 38.11295 38.99015 38.21375 38.84375 38.21875 L 38.125 38.21875 L 38.125 39.0625 L 38.96875 39.0625 C 39.09425 39.0678 39.15625 39.13105 39.15625 39.28125 C 39.15625 39.44125 39.08895 39.52125 38.96875 39.53125 L 38.125 39.53125 L 38.125 41.1875 L 38.15625 41.28125 L 38.28125 41.25 C 38.40145 41.1516 38.5675 40.99375 38.75 40.78125 L 38.90625 40.6875 L 39.09375 40.75 C 39.21085 40.8686 39.2272 40.96985 39.125 41.09375 C 38.8134 41.43545 38.5354 41.71995 38.25 41.90625 C 38.0727 42.02035 37.9206 42.04085 37.8125 41.96875 C 37.7036 41.89665 37.65625 41.7381 37.65625 41.5 L 37.65625 39.53125 L 37 39.53125 C 36.8761 39.52145 36.78125 39.43075 36.78125 39.28125 C 36.78125 39.12585 36.8731 39.0675 37 39.0625 L 37.65625 39.0625 L 37.65625 38.21875 L 37.375 38.21875 L 37.21875 38.40625 L 37.03125 38.53125 L 36.8125 38.5 C 36.6803 38.3964 36.67465 38.25445 36.78125 38.09375 C 37.17935 37.54025 37.4493 36.8911 37.625 36.125 C 37.6678 35.9748 37.7723 35.9165 37.9375 35.9375 z M 28.5 36 C 28.605337 35.993525 28.70965 36.05005 28.8125 36.1875 C 29.2443 36.7304 29.8113 37.13135 30.5 37.40625 L 30.65625 37.5625 L 30.625 37.78125 L 30.46875 37.90625 L 30.25 37.90625 C 29.5373 37.54425 29.0422 37.18995 28.75 36.84375 C 28.6036 36.70405 28.49725 36.625 28.46875 36.625 C 28.44845 36.625 28.40065 36.70415 28.28125 36.84375 C 28.06945 37.14345 27.74245 37.51815 27.03125 37.96875 C 26.86525 38.07155 26.7294 38.0622 26.625 37.9375 C 26.5822 37.8759 26.52875 37.6925 26.71875 37.5625 C 27.32255 37.1698 27.7647 36.75115 28.1875 36.21875 C 28.2949 36.0659 28.394663 36.006475 28.5 36 z M 57.15625 36 C 57.30265 36 57.375 36.0688 57.375 36.1875 L 57.375 37.34375 L 57.9375 37.34375 C 58.0502 37.34375 58.125 37.4175 58.125 37.5625 C 58.125 37.7074 58.0449 37.8125 57.9375 37.8125 L 57.375 37.8125 L 57.375 39.09375 C 57.4823 39.03665 57.63025 38.95265 57.78125 38.84375 L 57.8125 38.8125 C 57.9485 38.7299 58.0206 38.7451 58.125 38.875 L 58.15625 39.09375 L 58.03125 39.25 C 57.73385 39.4363 57.5094 39.5529 57.375 39.625 L 57.375 41.375 C 57.385 41.8714 57.09435 42.0145 56.46875 41.8125 C 56.29675 41.7509 56.20595 41.62425 56.21875 41.46875 L 56.34375 41.3125 L 56.5625 41.3125 C 56.8201 41.4214 56.9375 41.40515 56.9375 41.28125 L 56.9375 39.875 L 56.90625 39.875 C 56.65915 40.0094 56.48655 40.0942 56.40625 40.125 C 56.28835 40.161 56.1896 40.09795 56.125 39.96875 C 56.0784 39.82905 56.11135 39.7446 56.21875 39.6875 C 56.29015 39.6514 56.4033 39.5827 56.5625 39.5 C 56.7239 39.4174 56.8654 39.37455 56.9375 39.34375 L 56.9375 37.8125 L 56.34375 37.8125 C 56.22355 37.8125 56.15625 37.7074 56.15625 37.5625 C 56.15625 37.4123 56.22585 37.34375 56.34375 37.34375 L 56.9375 37.34375 L 56.9375 36.1875 C 56.9375 36.0688 57.01285 36 57.15625 36 z M 18.5625 36.03125 L 18.75 36.15625 C 18.7895 36.22915 18.79705 36.30265 18.78125 36.40625 C 18.72565 36.76295 18.58865 37.15895 18.40625 37.59375 L 18.40625 41.71875 C 18.39865 41.88925 18.31995 42 18.15625 42 C 17.98805 42 17.91325 41.88925 17.90625 41.71875 L 17.90625 38.46875 C 17.90625 38.46875 17.75835 38.6983 17.65625 38.8125 L 17.46875 38.9375 L 17.28125 38.84375 C 17.16865 38.70935 17.18215 38.5772 17.28125 38.4375 C 17.76415 37.884 18.07225 37.1656 18.21875 36.3125 C 18.26375 36.0999 18.3845 36.02075 18.5625 36.03125 z M 45.21875 36.03125 L 45.40625 36.0625 L 45.5625 36.21875 L 45.53125 36.4375 C 45.22335 36.9962 44.9049 37.4814 44.5625 37.875 L 44.375 37.96875 L 44.1875 37.90625 C 44.0681 37.78755 44.05265 37.65515 44.15625 37.53125 C 44.52805 37.11215 44.8282 36.6531 45.0625 36.1875 L 45.21875 36.03125 z M 19.375 36.15625 L 22.59375 36.15625 C 22.82135 36.15625 23 36.3342 23 36.5625 L 23 37.90625 C 23 38.13385 22.82135 38.3125 22.59375 38.3125 L 21.1875 38.3125 L 21.1875 39 L 23.25 39 C 23.3717 39 23.46875 39.10015 23.46875 39.21875 C 23.46875 39.34345 23.3717 39.4375 23.25 39.4375 L 21.34375 39.4375 C 21.71625 40.0323 22.42785 40.55515 23.46875 41.03125 L 23.59375 41.1875 L 23.5625 41.40625 L 23.40625 41.5625 L 23.21875 41.53125 C 22.36105 41.07545 21.6659 40.56425 21.1875 39.96875 L 21.1875 41.78125 C 21.1807 41.92545 21.11215 42.03125 20.96875 42.03125 C 20.81475 42.03125 20.72925 41.92095 20.71875 41.78125 L 20.71875 39.96875 C 20.37025 40.50715 19.75935 41.01295 18.90625 41.46875 C 18.78155 41.52515 18.68315 41.47815 18.59375 41.34375 C 18.51495 41.18305 18.54285 41.0721 18.65625 41 C 19.64085 40.451 20.27155 39.9286 20.59375 39.4375 L 18.84375 39.4375 C 18.72215 39.4375 18.625 39.34345 18.625 39.21875 C 18.625 39.10015 18.72215 39 18.84375 39 L 20.71875 39 L 20.71875 38.3125 L 19.375 38.3125 C 19.1474 38.3125 18.96875 38.13385 18.96875 37.90625 L 18.96875 36.5625 C 18.96875 36.3342 19.1474 36.15625 19.375 36.15625 z M 59.15625 36.1875 L 60.625 36.1875 C 60.9224 36.1875 61.0632 36.31445 61.0625 36.59375 L 61.0625 37.625 C 61.0615 37.7181 61.06975 37.76025 61.09375 37.78125 L 61.25 37.8125 L 61.84375 37.8125 C 62.01805 37.8125 62.09375 37.9228 62.09375 38.0625 C 62.09375 38.218 61.99995 38.302 61.84375 38.3125 L 61.125 38.3125 C 60.9049 38.3125 60.7574 38.24485 60.6875 38.15625 C 60.6139 38.07895 60.59075 37.92055 60.59375 37.65625 L 60.59375 36.78125 C 60.59775 36.68805 60.55215 36.65625 60.46875 36.65625 L 59.28125 36.65625 C 59.16115 36.65625 59.1107 36.67755 59.125 36.78125 L 59.125 37.1875 C 59.125 37.7613 58.85575 38.18435 58.28125 38.53125 C 58.11445 38.61915 57.9643 38.6292 57.875 38.5 C 57.7789 38.3604 57.8483 38.2181 58 38.125 C 58.4784 37.8561 58.66525 37.507 58.65625 37.0625 L 58.65625 36.625 C 58.65625 36.32 58.81755 36.1875 59.15625 36.1875 z M 63.8125 36.1875 C 64.2458 36.3272 64.6115 36.46985 64.9375 36.59375 L 65.09375 36.71875 L 65.09375 36.90625 C 65.02915 37.05115 64.9017 37.08755 64.75 37.03125 C 64.4256 36.88635 64.08305 36.7859 63.71875 36.6875 L 63.6875 36.65625 C 63.5365 36.59915 63.4512 36.49395 63.5 36.34375 C 63.5466 36.19875 63.6585 36.1559 63.8125 36.1875 z M 39.78125 36.25 L 41.96875 36.25 C 42.19635 36.25 42.375 36.42795 42.375 36.65625 L 42.375 38.78125 C 42.375 39.00875 42.19635 39.1875 41.96875 39.1875 L 40.875 39.1875 C 40.9682 39.5338 41.13415 39.90335 41.34375 40.21875 C 41.57055 40.02205 41.79545 39.7689 42.03125 39.5 L 42.1875 39.40625 L 42.375 39.46875 C 42.4967 39.58295 42.5359 39.6931 42.4375 39.8125 C 42.258 40.0191 42.0272 40.2514 41.75 40.5 L 41.625 40.59375 C 41.9037 40.87315 42.28165 41.12145 42.71875 41.34375 L 42.875 41.5 L 42.84375 41.71875 L 42.65625 41.8125 L 42.4375 41.78125 C 41.329 41.24805 40.6484 40.3568 40.375 39.1875 L 39.84375 39.1875 L 39.84375 41.34375 L 39.875 41.40625 L 39.9375 41.40625 C 40.1297 41.27705 40.29375 41.0973 40.46875 40.875 L 40.6875 40.75 L 40.875 40.8125 C 40.9982 40.9424 40.993 41.06855 40.875 41.21875 C 40.5251 41.57555 40.2448 41.83435 40 41.96875 C 39.5877 42.14445 39.385 41.9814 39.375 41.5 L 39.34375 36.65625 C 39.34375 36.42795 39.55375 36.25 39.78125 36.25 z M 25.375 36.28125 L 26.28125 36.28125 C 26.45325 36.28125 26.58 36.32365 26.625 36.40625 C 26.6663 36.47305 26.67725 36.621 26.65625 36.8125 L 26.65625 36.84375 L 26.65625 36.875 L 26.65625 36.90625 L 26.40625 38.09375 L 26.375 38.25 L 26.40625 38.40625 L 26.5 38.5625 C 26.5413 38.6504 26.5747 38.77705 26.625 38.90625 C 26.7234 39.15935 26.8095 39.4654 26.8125 39.75 C 26.8125 39.9828 26.7662 40.2143 26.625 40.375 C 26.4853 40.5357 26.281 40.59375 26.0625 40.59375 C 25.9573 40.59375 25.83145 40.5933 25.71875 40.5625 C 25.59185 40.5317 25.5265 40.3747 25.5625 40.25 C 25.5978 40.1208 25.71755 40.06225 25.84375 40.09375 L 26.0625 40.125 C 26.1796 40.1197 26.2065 40.07775 26.25 40.03125 C 26.2943 39.98465 26.34375 39.9055 26.34375 39.75 C 26.34375 39.6314 26.3108 39.4318 26.25 39.25 C 26.1891 39.069 26.1196 38.90515 26.0625 38.78125 L 25.96875 38.59375 C 25.91325 38.46985 25.90625 38.3589 25.90625 38.25 L 25.9375 38.03125 L 26.15625 36.9375 C 26.14875 36.8339 26.0962 36.78125 26 36.78125 L 25.625 36.78125 C 25.4981 36.78125 25.4375 36.83425 25.4375 36.96875 L 25.4375 41.78125 C 25.4375 41.92095 25.3497 42 25.1875 42 C 25.0275 42 24.9375 41.92095 24.9375 41.78125 L 24.9375 36.6875 C 24.9375 36.4442 25.0618 36.28125 25.375 36.28125 z M 46.4375 36.3125 L 49.5 36.3125 C 49.6735 36.3125 49.78125 36.4078 49.78125 36.5625 C 49.78125 36.7285 49.6773 36.8125 49.5 36.8125 L 46.4375 36.8125 C 46.2745 36.802 46.1875 36.7338 46.1875 36.5625 C 46.1875 36.4026 46.2745 36.3178 46.4375 36.3125 z M 19.65625 36.625 C 19.55335 36.625 19.46875 36.7096 19.46875 36.8125 L 19.46875 37.65625 C 19.46875 37.75465 19.55335 37.84375 19.65625 37.84375 L 22.34375 37.84375 C 22.44655 37.84375 22.53125 37.75465 22.53125 37.65625 L 22.53125 36.8125 C 22.53125 36.7096 22.44655 36.625 22.34375 36.625 L 19.65625 36.625 z M 40.03125 36.71875 C 39.92755 36.71875 39.84375 36.80265 39.84375 36.90625 L 39.84375 37.5 L 41.90625 37.5 L 41.90625 36.90625 C 41.90625 36.80265 41.82085 36.71875 41.71875 36.71875 L 40.03125 36.71875 z M 65.0625 37.53125 L 65.25 37.625 L 65.3125 37.8125 L 65.1875 38 C 64.8015 38.2794 64.3072 38.54315 63.75 38.78125 C 63.584 38.83835 63.4463 38.837 63.375 38.6875 C 63.3104 38.5479 63.37355 38.41665 63.53125 38.34375 C 64.01265 38.13195 64.45025 37.9044 64.84375 37.625 L 65.0625 37.53125 z M 45.25 37.625 L 45.46875 37.625 L 45.59375 37.78125 L 45.59375 38 C 45.55465 38.0984 45.4854 38.23045 45.375 38.40625 L 45.28125 38.53125 L 45.28125 41.75 C 45.27225 41.931 45.20175 42.03125 45.03125 42.03125 C 44.87205 42.03125 44.78885 41.9257 44.78125 41.75 L 44.78125 39.28125 L 44.46875 39.65625 L 44.28125 39.75 L 44.09375 39.6875 L 44.03125 39.46875 L 44.09375 39.28125 C 44.48805 38.84115 44.82485 38.33475 45.09375 37.78125 L 45.25 37.625 z M 27.65625 37.71875 L 29.5625 37.71875 C 29.6917 37.72925 29.7388 37.81325 29.75 37.96875 C 29.7388 38.12415 29.6917 38.20825 29.5625 38.21875 L 27.625 38.21875 C 27.4801 38.20825 27.41325 38.12945 27.40625 37.96875 C 27.41745 37.81335 27.50985 37.72925 27.65625 37.71875 z M 46.1875 37.78125 L 49.84375 37.78125 C 49.99615 37.79125 50.09375 37.86605 50.09375 38.03125 C 50.09375 38.20695 49.99615 38.302 49.84375 38.3125 L 49.09375 38.3125 L 49.09375 40.96875 C 49.09375 41.47045 48.97465 41.7819 48.65625 41.875 C 48.33555 41.9892 47.7576 41.9151 46.9375 41.6875 L 46.75 41.5625 L 46.75 41.34375 L 46.875 41.1875 C 46.9426 41.1567 47.0267 41.1619 47.125 41.1875 C 47.7108 41.3482 48.09125 41.4163 48.28125 41.375 C 48.48405 41.3382 48.5625 41.19085 48.5625 40.90625 L 48.5625 38.3125 L 46.1875 38.3125 C 46.0275 38.302 45.9375 38.21295 45.9375 38.03125 C 45.9375 37.87655 46.0238 37.78575 46.1875 37.78125 z M 39.84375 37.96875 L 39.84375 38.71875 L 41.71875 38.71875 C 41.82085 38.71875 41.90625 38.63485 41.90625 38.53125 L 41.90625 37.96875 L 39.84375 37.96875 z M 29.875 38.40625 C 30.0305 38.43255 30.0805 38.5637 30.0625 38.75 C 29.9926 39.5212 29.7703 40.25985 29.5 40.96875 C 29.4677 41.05215 29.3933 41.22385 29.1875 41.15625 C 29.0425 41.10965 29.0047 40.9785 29.0625 40.8125 C 29.2758 40.2485 29.46155 39.52595 29.59375 38.65625 C 29.62455 38.48055 29.7226 38.38065 29.875 38.40625 z M 28.28125 38.4375 C 28.41945 38.4007 28.54125 38.49625 28.59375 38.65625 C 28.75295 39.18425 28.83865 39.7803 28.90625 40.4375 C 28.91745 40.614 28.86215 40.729 28.71875 40.75 C 28.56775 40.7658 28.50025 40.63995 28.46875 40.46875 C 28.39145 39.84845 28.2647 39.2727 28.125 38.75 C 28.0897 38.5892 28.13325 38.4736 28.28125 38.4375 z M 33.71875 38.5625 C 33.94935 38.5625 34.15625 38.74115 34.15625 38.96875 C 34.15625 39.20225 33.94935 39.375 33.71875 39.375 C 33.48595 39.375 33.3125 39.20225 33.3125 38.96875 C 33.3125 38.74115 33.48595 38.5625 33.71875 38.5625 z M 53.0625 38.5625 C 53.2946 38.5625 53.46875 38.74115 53.46875 38.96875 C 53.46875 39.20225 53.2946 39.375 53.0625 39.375 C 52.8312 39.375 52.625 39.20225 52.625 38.96875 C 52.625 38.74115 52.8312 38.5625 53.0625 38.5625 z M 58.5 38.5625 L 61.03125 38.5625 C 61.24375 38.5675 61.39515 38.64605 61.46875 38.78125 C 61.54005 38.91575 61.50695 39.0955 61.40625 39.3125 C 61.11935 39.9283 60.74305 40.4303 60.28125 40.8125 C 60.80915 41.1182 61.37775 41.2977 61.96875 41.375 C 62.13925 41.4118 62.22105 41.5215 62.21875 41.6875 C 62.19175 41.843 62.1125 41.89 61.9375 41.875 C 61.0596 41.7196 60.35525 41.4765 59.84375 41.125 C 59.32035 41.4404 58.7052 41.7046 58 41.875 C 57.8153 41.9111 57.6911 41.85325 57.625 41.71875 C 57.5807 41.55355 57.6428 41.4321 57.8125 41.375 C 58.4591 41.2151 58.9687 41.01935 59.375 40.78125 C 59.0333 40.47105 58.73065 40.0958 58.40625 39.625 C 58.30265 39.4597 58.33285 39.32765 58.46875 39.21875 L 58.6875 39.1875 L 58.84375 39.34375 C 59.14565 39.81465 59.4935 40.1898 59.875 40.5 C 60.3759 40.1275 60.70865 39.7059 60.90625 39.25 C 60.95055 39.1314 60.92785 39.073 60.84375 39.0625 L 58.5 39.0625 C 58.3881 39.0625 58.28125 38.9725 58.28125 38.8125 C 58.28125 38.6571 58.3814 38.5625 58.5 38.5625 z M 27.125 38.71875 C 27.2541 38.65635 27.3519 38.7248 27.4375 38.875 C 27.7559 39.5322 27.98635 40.1183 28.09375 40.6875 C 28.12905 40.8685 28.0696 41.00495 27.9375 41.03125 C 27.7895 41.06735 27.70135 40.9785 27.65625 40.8125 C 27.53535 40.2853 27.33245 39.67785 27.03125 39.03125 C 26.96525 38.87055 26.989 38.77585 27.125 38.71875 z M 64.5 38.875 L 68.28125 38.875 C 68.52085 38.875 68.71875 39.0745 68.71875 39.3125 L 68.71875 40.75 C 68.71875 40.8897 68.60695 41.03125 68.46875 41.03125 C 68.33055 41.03125 68.21875 40.8897 68.21875 40.75 L 68.21875 39.5625 C 68.21875 39.4536 68.1074 39.34375 68 39.34375 L 64.78125 39.34375 C 64.67395 39.34375 64.59375 39.4536 64.59375 39.5625 L 64.59375 40.90625 C 64.59375 41.04595 64.48185 41.15625 64.34375 41.15625 C 64.20405 41.15625 64.09375 41.04595 64.09375 40.90625 L 64.09375 39.3125 C 64.09375 39.0745 64.262 38.875 64.5 38.875 z M 66.40625 39.4375 C 66.57305 39.469 66.6535 39.569 66.625 39.75 C 66.4823 41.1679 65.5156 41.9007 63.75 41.9375 C 63.5743 41.9472 63.4713 41.86365 63.4375 41.71875 C 63.43 41.56855 63.514 41.49505 63.6875 41.46875 C 65.2203 41.43275 66.0514 40.85725 66.125 39.71875 C 66.1648 39.53775 66.24185 39.4375 66.40625 39.4375 z M 66.75 40.65625 C 66.803975 40.632938 66.8899 40.63785 66.96875 40.65625 C 67.57025 40.80565 68.26385 41.1119 69.09375 41.5625 L 69.25 41.71875 L 69.25 41.90625 L 69.09375 42.03125 L 68.90625 42 C 68.24235 41.6072 67.51955 41.30105 66.78125 41.09375 C 66.63635 41.04195 66.5859 40.93145 66.625 40.78125 C 66.65465 40.7164 66.696025 40.679562 66.75 40.65625 z M 26.96875 41.3125 L 30.34375 41.3125 C 30.47445 41.323 30.51925 41.37585 30.53125 41.53125 C 30.51925 41.68145 30.47445 41.77075 30.34375 41.78125 L 26.96875 41.78125 C 26.82605 41.77075 26.72375 41.68665 26.71875 41.53125 C 26.72925 41.38105 26.82385 41.3175 26.96875 41.3125 z "
     transform="translate(-2.4544998e-6,0)"
     id="path48" />
  <path
     id="path50"
     style="fill:#ec650a;fill-rule:evenodd"
     d="m 210.8556,34.9545 c 0,-0.5489 0.437,-0.983 1.0033,-0.983 0.5497,0 0.9861,0.4341 0.9861,0.983 0,0 0,4.7914 0,4.7914 0,0 5.3726,-5.4072 5.3726,-5.4072 0.2261,-0.2381 0.4679,-0.3672 0.8254,-0.3672 0.5497,0 0.9207,0.4341 0.9207,0.9207 0,0.3057 -0.1292,0.5332 -0.356,0.745 0,0 -3.5259,3.3945 -3.5259,3.3945 0,0 3.8173,4.7403 3.8173,4.7403 0.1615,0.2118 0.2756,0.4033 0.2756,0.709 0,0.5535 -0.4371,0.9725 -1.0026,0.9725 -0.3897,0 -0.6316,-0.1915 -0.8426,-0.4656 0,0 -3.6401,-4.6472 -3.6401,-4.6472 0,0 -1.8444,1.7806 -1.8444,1.7806 0,0 0,2.3439 0,2.3439 0,0.5535 -0.4364,0.9883 -0.9861,0.9883 -0.5663,0 -1.0033,-0.4348 -1.0033,-0.9883 0,0 0,-9.5107 0,-9.5107 0,0 0,0 0,0 z m -12.7866,0.0308 c 0,-0.5482 0.4356,-0.9988 1.0026,-0.9988 0,0 0.2111,0 0.2111,0 0.4851,0 0.7607,0.2433 1.0348,0.5798 0,0 5.6633,7.3267 5.6633,7.3267 0,0 0,-6.9542 0,-6.9542 0,-0.5332 0.4364,-0.9673 0.9688,-0.9673 0.5512,0 0.9883,0.4341 0.9883,0.9673 0,0 0,9.5106 0,9.5106 0,0.5535 -0.4205,0.9883 -0.9703,0.9883 0,0 -0.0811,0 -0.0811,0 -0.4693,0 -0.7607,-0.2433 -1.0363,-0.6 0,0 -5.8241,-7.5393 -5.8241,-7.5393 0,0 0,7.1826 0,7.1826 0,0.5377 -0.4355,0.9725 -0.9702,0.9725 -0.5513,0 -0.9869,-0.4348 -0.9869,-0.9725 0,0 0,-9.4957 0,-9.4957 0,0 0,0 0,0 z m -5.7489,5.8886 c 0,0 -1.9894,-4.5743 -1.9894,-4.5743 0,0 -1.9909,4.5743 -1.9909,4.5743 0,0 3.9803,0 3.9803,0 0,0 0,0 0,0 z m -7.4101,3.203 c 0,0 4.2071,-9.3815 4.2071,-9.3815 0.2261,-0.5016 0.6301,-0.8073 1.1964,-0.8073 0,0 0.0969,0 0.0969,0 0.567,0 0.9552,0.3057 1.1813,0.8073 0,0 4.2071,9.3815 4.2071,9.3815 0.0811,0.145 0.1134,0.2952 0.1134,0.4243 0,0.5333 -0.4048,0.9523 -0.9388,0.9523 -0.4686,0 -0.793,-0.2741 -0.9703,-0.6932 0,0 -0.9222,-2.1215 -0.9222,-2.1215 0,0 -5.5003,0 -5.5003,0 0,0 -0.9553,2.1831 -0.9553,2.1831 -0.1615,0.4041 -0.5017,0.6316 -0.9222,0.6316 -0.5175,0 -0.9222,-0.404 -0.9222,-0.9215 0,-0.1449 0.0488,-0.2891 0.1291,-0.4551 0,0 0,0 0,0 z m -5.7812,-0.4656 c 1.3601,0 2.1854,-0.5385 2.1854,-1.5523 0,0 0,-0.0361 0,-0.0361 0,-0.9522 -0.7607,-1.5215 -2.3303,-1.5215 0,0 -3.155,0 -3.155,0 0,0 0,3.1099 0,3.1099 0,0 3.2999,0 3.2999,0 0,0 0,0 0,0 z m -0.582,-4.7914 c 1.2782,0 2.1359,-0.5024 2.1359,-1.5373 0,0 0,-0.0308 0,-0.0308 0,-0.8899 -0.7112,-1.4389 -1.9894,-1.4389 0,0 -2.8644,0 -2.8644,0 0,0 0,3.007 0,3.007 0,0 2.7179,0 2.7179,0 0,0 0,0 0,0 z m -4.675,-3.767 c 0,-0.564 0.4371,-1.0041 1.0034,-1.0041 0,0 4.0764,0 4.0764,0 1.2947,0 2.3146,0.3568 2.9612,1.0041 0.5009,0.5017 0.7608,1.1175 0.7608,1.8783 0,0 0,0.0308 0,0.0308 0,1.3555 -0.7773,2.0855 -1.6184,2.5203 1.3262,0.4551 2.2499,1.2159 2.2499,2.7524 0,0 0,0.0316 0,0.0316 0,2.0232 -1.6679,3.1046 -4.192,3.1046 0,0 -4.2379,0 -4.2379,0 -0.5663,0 -1.0034,-0.4348 -1.0034,-0.9988 0,0 0,-9.3192 0,-9.3192 0,0 0,0 0,0 z"
     inkscape:connector-curvature="0" />
  <path
     id="path52"
     style="fill:#ec650a;fill-rule:evenodd"
     d="m 112.2531,33.9197 c 0,0 -1.9106,0 -1.9106,0 -0.1502,0 -0.2703,0.1239 -0.2703,0.2688 0,0 0,10.7889 0,10.7889 0,0.1502 0.1201,0.2688 0.2703,0.2688 0,0 1.9106,0 1.9106,0 0.1487,0 0.2703,-0.1186 0.2703,-0.2688 0,0 0,-10.7889 0,-10.7889 0,-0.1449 -0.1216,-0.2688 -0.2703,-0.2688 0,0 0,0 0,0 z m -7.7113,0 c 0,0 -6.972302,0 -6.972302,0 -0.1479,0 -0.2696,0.1239 -0.2696,0.2688 0,0 0,10.7889 0,10.7889 0,0.1502 0.1217,0.2688 0.2696,0.2688 0,0 1.9309,0 1.9309,0 0.1502,0 0.2703,-0.1186 0.2703,-0.2688 0,0 0,-3.182 0,-3.182 0,0 4.771102,0 4.771102,0 2.1396,0 3.8722,-1.2632 3.8722,-3.167 0,0 0,-1.2632 0,-1.2632 0,-1.9037 -1.7326,-3.4455 -3.8722,-3.4455 0,0 0,0 0,0 z m 1.2887,5.6092 c 0,0.1494 -0.1201,0.2688 -0.2703,0.2688 0,0 -5.789502,0 -5.789502,0 0,0 0,-3.8811 0,-3.8811 0,0 5.789502,0 5.789502,0 0.1502,0 0.2703,0.1194 0.2703,0.2696 0,0 0,3.3427 0,3.3427 0,0 0,0 0,0 z m 44.9391,-5.3096 c -0.1074,-0.1915 -0.2794,-0.3154 -0.4897,-0.3154 0,0 -1.6927,0 -1.6927,0 -0.2118,0 -0.3838,0.1239 -0.4912,0.3154 0,0 -5.3231,10.484 -5.3231,10.484 -0.1787,0.3417 -0.0262,0.5429 0.2884,0.5429 0,0 1.6868,0 1.6868,0 0.2456,0 0.3379,-0.0668 0.4618,-0.2996 0,0 4.2222,-8.4345 4.2222,-8.4345 0,0 4.2236,8.4345 4.2236,8.4345 0.1246,0.2328 0.2163,0.2996 0.4618,0.2996 0,0 1.6875,0 1.6875,0 0.314,0 0.4664,-0.2012 0.2884,-0.5429 0,0 -5.3238,-10.484 -5.3238,-10.484 0,0 0,0 0,0 z m 17.9046,-0.2996 c 0,0 -1.7131,0 -1.7131,0 -0.1487,0 -0.2703,0.1239 -0.2703,0.2688 0,0 0,7.8082 0,7.8082 -0.893,-1.0086 -6.8101,-7.7151 -6.9588,-7.8758 -0.1614,-0.1705 -0.3747,-0.2012 -0.5137,-0.2012 0,0 0,0 0,0 0,0 -1.6927,0 -1.6927,0 -0.1502,0 -0.2719,0.1239 -0.2719,0.2688 0,0 0,10.7889 0,10.7889 0,0.1502 0.1217,0.2688 0.2719,0.2688 0,0 1.7123,0 1.7123,0 0.1487,0 0.2703,-0.1186 0.2703,-0.2688 0,0 0,-7.8758 0,-7.8758 0.6459,0.7353 6.8627,7.7827 7.0166,7.9434 0.1607,0.1704 0.3725,0.2012 0.5122,0.2012 0,0 0,0 0,0 0,0 1.6372,0 1.6372,0 0.1494,0 0.2703,-0.1186 0.2703,-0.2688 0,0 0,-10.7889 0,-10.7889 0,-0.1449 -0.1209,-0.2688 -0.2703,-0.2688 0,0 0,0 0,0 z m -32.6918,-0.1555 c 0,0 -3.9495,0 -3.9495,0 -2.1381,0 -3.8706,1.5418 -3.8706,3.4463 0,0 0,4.7449 0,4.7449 0,1.8992 1.7325,3.441 3.8706,3.441 0,0 3.9495,0 3.9495,0 2.1381,0 3.8722,-1.5418 3.8722,-3.441 0,0 0,-3.0423 0,-3.0423 0,0 -5.9885,0 -5.9885,0 0,0 0,1.5988 0,1.5988 0,0.145 0.1202,0.2689 0.2704,0.2689 0,0 3.2781,0 3.2781,0 0,0 0,2.1989 0,2.1989 0,0.1502 -0.1217,0.2696 -0.2704,0.2696 0,0 -6.2746,0 -6.2746,0 -0.1494,0 -0.2704,-0.1194 -0.2704,-0.2696 0,0 0,-6.7935 0,-6.7935 0,-0.1502 0.121,-0.2749 0.2704,-0.2749 0,0 6.2746,0 6.2746,0 0.1487,0 0.2704,0.1247 0.2704,0.2749 0,0 0,1.2985 0,1.2985 0,0.1502 0.1201,0.2741 0.2703,0.2741 0,0 1.8993,0 1.8993,0 0.1487,0 0.2704,-0.1239 0.2704,-0.2741 0,0 0,-0.2742 0,-0.2742 0,-1.9045 -1.7341,-3.4463 -3.8722,-3.4463 0,0 0,0 0,0 z m -9.9057,0.1555 c 0,0 -1.7138,0 -1.7138,0 -0.1487,0 -0.2703,0.1239 -0.2703,0.2688 0,0 0,7.8082 0,7.8082 -0.8915,-1.0086 -6.8093,-7.7151 -6.9588,-7.8758 -0.1599,-0.1705 -0.3732,-0.2012 -0.5122,-0.2012 0,0 0,0 0,0 0,0 -1.6942,0 -1.6942,0 -0.1487,0 -0.2704,0.1239 -0.2704,0.2688 0,0 0,10.7889 0,10.7889 0,0.1502 0.1217,0.2688 0.2704,0.2688 0,0 1.7123,0 1.7123,0 0.1494,0 0.2703,-0.1186 0.2703,-0.2688 0,0 0,-7.8758 0,-7.8758 0.6459,0.7353 6.8634,7.7827 7.0174,7.9434 0.1599,0.1704 0.3725,0.2012 0.5121,0.2012 0,0 8e-4,0 8e-4,0 0,0 1.6364,0 1.6364,0 0.1495,0 0.2704,-0.1186 0.2704,-0.2688 0,0 0,-10.7889 0,-10.7889 0,-0.1449 -0.1209,-0.2688 -0.2704,-0.2688 0,0 0,0 0,0 z"
     inkscape:connector-curvature="0" />
  <path
     id="path54"
     style="fill:#00592e;fill-rule:evenodd"
     d="m 150.886,41.8622 c 0,0 -2.9064,0 -2.9064,0 -0.1487,0 -0.2703,0.1194 -0.2703,0.2689 0,0 0,2.841 0,2.841 0,0.1502 0.1216,0.2689 0.2703,0.2689 0,0 2.9064,0 2.9064,0 0.1502,0 0.2704,-0.1187 0.2704,-0.2689 0,0 0,-2.841 0,-2.841 0,-0.1495 -0.1202,-0.2689 -0.2704,-0.2689 0,0 0,0 0,0 z"
     inkscape:connector-curvature="0" />
  <path
     id="path56"
     style="fill:#ec650a;fill-rule:evenodd"
     d="m 59.153998,19.493 c 0,0 -5.9314,0 -5.9314,0 0,0 0,-5.9149 0,-5.9149 0,0 5.4492,0 5.4492,0 0.1487,0 0.2704,-0.1239 0.2704,-0.2741 0,0 0,-1.1438 0,-1.1438 0,-0.1495 -0.1217,-0.2689 -0.2704,-0.2689 0,0 -13.2536,0 -13.2536,0 -0.1502,0 -0.2719,0.1194 -0.2719,0.2689 0,0 0,1.1438 0,1.1438 0,0.1502 0.1217,0.2741 0.2719,0.2741 0,0 5.4477,0 5.4477,0 0,0 0,5.9149 0,5.9149 0,0 -5.9299,0 -5.9299,0 -0.1502,0 -0.2703,0.1239 -0.2703,0.2688 0,0 0,1.2106 0,1.2106 0,0.1502 0.1201,0.2696 0.2703,0.2696 0,0 5.9299,0 5.9299,0 0,0 0,2.2816 0,2.2816 0,0.1502 0.1202,0.2741 0.2704,0.2741 0,0 1.8159,0 1.8159,0 0.1502,0 0.2704,-0.1239 0.2704,-0.2741 0,0 0,-2.2816 0,-2.2816 0,0 5.9314,0 5.9314,0 0.1487,0 0.2688,-0.1194 0.2688,-0.2696 0,0 0,-1.2106 0,-1.2106 0,-0.1449 -0.1201,-0.2688 -0.2688,-0.2688 0,0 0,0 0,0 z m -11.0255,-0.9365 c 0,0 1.8295,0 1.8295,0 0.1397,0 0.2275,-0.1142 0.1562,-0.2486 0,0 -1.8189,-3.5447 -1.8189,-3.5447 -0.0714,-0.1397 -0.2404,-0.2531 -0.4589,-0.2531 0,0 -1.8279,0 -1.8279,0 -0.1412,0 -0.2283,0.1134 -0.157,0.2531 0,0 1.8189,3.5447 1.8189,3.5447 0.0714,0.1344 0.2396,0.2486 0.4581,0.2486 0,0 0,0 0,0 z m 22.856,-0.4296 c 0,0.4814 -0.0894,0.8591 -0.6985,1.164 -0.4889,0.2434 -1.2962,0.6264 -2.0224,0.9681 -0.7255,-0.3417 -1.5313,-0.7247 -2.0202,-0.9681 -0.6083,-0.3049 -0.6984,-0.6826 -0.6984,-1.164 0,0 0,-0.5174 0,-0.5174 0,0 5.4395,0 5.4395,0 0,0 0,0.5174 0,0.5174 0,0 0,0 0,0 z m 4.4729,-2.2305 c 0,0 -2.3281,0 -2.3281,0 0,0 -0.001,-0.9988 -0.001,-0.9988 0,-0.1547 -0.1239,-0.2794 -0.2779,-0.2794 0,0 -1.5876,0 -1.5876,0 -0.1524,0 -0.2778,0.1247 -0.2778,0.2794 0,0 0,0.9988 0,0.9988 0,0 -5.4395,0 -5.4395,0 0,0 0,-0.9988 0,-0.9988 0,-0.1547 -0.1262,-0.2794 -0.2787,-0.2794 0,0 -1.5883,0 -1.5883,0 -0.1525,0 -0.2779,0.1247 -0.2779,0.2794 0,0 0,0.9988 0,0.9988 0,0 -2.3326,0 -2.3326,0 -0.1487,0 -0.2688,0.1194 -0.2688,0.2689 0,0 0,1.1745 0,1.1745 0,0.145 0.1201,0.2697 0.2688,0.2697 0,0 2.3326,0 2.3326,0 0,0 0,0.7292 0,0.7292 0,0.8486 0.3905,1.6559 1.4359,2.1629 0.3966,0.1967 0.887,0.4348 1.4097,0.6834 -0.929,0.3777 -1.7499,0.5534 -2.6173,0.5534 0,0 -2.2042,0 -2.2042,0 -0.1524,0 -0.2763,0.1195 -0.2763,0.2742 0,0 0,1.1595 0,1.1595 0,0.1547 0.1239,0.2794 0.2763,0.2794 0,0 2.1682,0 2.1682,0 0.8666,0 1.9263,-0.1863 2.8252,-0.5227 0.365,-0.1344 1.0544,-0.4348 1.846,-0.7968 0.793,0.362 1.4825,0.6624 1.8489,0.7968 0.8967,0.3364 1.9557,0.5227 2.8238,0.5227 0,0 2.1666,0 2.1666,0 0.154,0 0.2787,-0.1247 0.2787,-0.2794 0,0 0,-1.1595 0,-1.1595 0,-0.1547 -0.1247,-0.2742 -0.2787,-0.2742 0,0 -2.2026,0 -2.2026,0 -0.8682,0 -1.6883,-0.1757 -2.6173,-0.5534 0.5227,-0.2486 1.0131,-0.4867 1.4104,-0.6834 1.0439,-0.507 1.4359,-1.3143 1.4359,-2.1629 0,0 0,-0.7292 0,-0.7292 0,0 2.3281,0 2.3281,0 0.1517,0 0.2719,-0.1247 0.2719,-0.2697 0,0 0,-1.1745 0,-1.1745 0,-0.1495 -0.1202,-0.2689 -0.2719,-0.2689 0,0 0,0 0,0 z m -34.5903,5.8631 c 0,0 -10.6597,0 -10.6597,0 0,0 0,-8.5487 0,-8.5487 0,0 10.6597,0 10.6597,0 0,0 0,8.5487 0,8.5487 0,0 0,0 0,0 z m 0.5295,-10.1062 c 0,0 -11.7194,0 -11.7194,0 -0.8771,0 -1.5868,0.7089 -1.5868,1.5838 0,0 0,8.6208 0,8.6208 0,0.8741 0.7097,1.5831 1.5868,1.5831 0,0 11.7194,0 11.7194,0 0.8771,0 1.5868,-0.709 1.5868,-1.5831 0,0 0,-8.6208 0,-8.6208 0,-0.8749 -0.7097,-1.5838 -1.5868,-1.5838 0,0 0,0 0,0 z m 14.8563,2.8568 c -0.2193,0 -0.3883,0.1134 -0.4582,0.2531 0,0 -1.8204,3.5447 -1.8204,3.5447 -0.0713,0.1344 0.0165,0.2486 0.157,0.2486 0,0 1.8272,0 1.8272,0 0.2193,0 0.3882,-0.1142 0.4611,-0.2486 0,0 1.8174,-3.5447 1.8174,-3.5447 0.0713,-0.1397 -0.0158,-0.2531 -0.157,-0.2531 0,0 -1.8271,0 -1.8271,0 0,0 0,0 0,0 z m 4.9137,0.181 c 0,0 1.264,0 1.264,0 0.1487,0 0.2703,-0.1194 0.2703,-0.2696 0,0 0,-0.7863 0,-0.7863 0,0 11.1268,0 11.1268,0 0,0 0,0.7863 0,0.7863 0,0.1502 0.1195,0.2696 0.2689,0.2696 0,0 1.2632,0 1.2632,0 0.1494,0 0.2703,-0.1194 0.2703,-0.2696 0,0 0,-0.905 0,-0.905 0,-0.7713 -0.624,-1.3923 -1.3938,-1.3923 0,0 -4.7936,0 -4.7936,0 0,0 0,-0.6572 0,-0.6572 0,-0.1502 -0.121,-0.2688 -0.2704,-0.2688 0,0 -1.8182,0 -1.8182,0 -0.1487,0 -0.2703,0.1186 -0.2703,0.2688 0,0 0,0.6572 0,0.6572 0,0 -4.7937,0 -4.7937,0 -0.7697,0 -1.3938,0.621 -1.3938,1.3923 0,0 0,0.905 0,0.905 0,0.1502 0.1209,0.2696 0.2703,0.2696 0,0 0,0 0,0 z m -37.4823,4.8432 c 0,0 -4.1065,0 -4.1065,0 0,0 0,-4.8432 0,-4.8432 0,0 4.1065,0 4.1065,0 0,0 0,4.8432 0,4.8432 0,0 0,0 0,0 z m -6.5773,0 c 0,0 -4.1057,0 -4.1057,0 0,0 0,-4.8432 0,-4.8432 0,0 4.1057,0 4.1057,0 0,0 0,4.8432 0,4.8432 0,0 0,0 0,0 z m 7.2314,-6.5976 c 0,0 -4.7606,0 -4.7606,0 0,0 0,-1.4231 0,-1.4231 0,-0.1502 -0.1202,-0.2689 -0.2704,-0.2689 0,0 -1.93,0 -1.93,0 -0.1487,0 -0.2704,0.1187 -0.2704,0.2689 0,0 0,1.4231 0,1.4231 0,0 -4.7606,0 -4.7606,0 -0.8757,0 -1.5861,0.709 -1.5861,1.5831 0,0 0,5.1849 0,5.1849 0,0.875 0.7104,1.5839 1.5861,1.5839 0,0 4.7606,0 4.7606,0 0,0 0,2.235 0,2.235 0,0.1502 0.1217,0.2741 0.2704,0.2741 0,0 1.93,0 1.93,0 0.1502,0 0.2704,-0.1239 0.2704,-0.2741 0,0 0,-2.235 0,-2.235 0,0 4.7606,0 4.7606,0 0.8771,0 1.5891,-0.7089 1.5891,-1.5839 0,0 0,-5.1849 0,-5.1849 0,-0.8741 -0.712,-1.5831 -1.5891,-1.5831 0,0 0,0 0,0 z m 15.4398,5.7542 c 0,0 -1.6072,0 -1.6072,0 0,0 0,0.6263 0,0.6263 0,0 -1.5921,0 -1.5921,0 0,0 0,-1.4028 0,-1.4028 0,0 2.7412,0 2.7412,0 0,0 0,-1.3248 0,-1.3248 0,0 -2.7412,0 -2.7412,0 0,0 0,-0.9673 0,-0.9673 0,0 3.1993,0 3.1993,0 0,0 0,-1.4434 0,-1.4434 0,0 -8.4826,0 -8.4826,0 0,0 0,1.4434 0,1.4434 0,0 3.1993,0 3.1993,0 0,0 0,0.9673 0,0.9673 0,0 -2.7397,0 -2.7397,0 0,0 0,1.3248 0,1.3248 0,0 2.7397,0 2.7397,0 0,0 0,1.4028 0,1.4028 0,0 -3.1993,0 -3.1993,0 0,0 0,1.4382 0,1.4382 0,0 8.4826,0 8.4826,0 0,0 0,-2.0645 0,-2.0645 0,0 0,0 0,0 z"
     inkscape:connector-curvature="0" />
</svg>
