<?xml version="1.0" encoding="UTF-8" standalone="no"?>
<svg
   xmlns:dc="http://purl.org/dc/elements/1.1/"
   xmlns:cc="http://creativecommons.org/ns#"
   xmlns:rdf="http://www.w3.org/1999/02/22-rdf-syntax-ns#"
   xmlns:svg="http://www.w3.org/2000/svg"
   xmlns="http://www.w3.org/2000/svg"
   xmlns:sodipodi="http://sodipodi.sourceforge.net/DTD/sodipodi-0.dtd"
   xmlns:inkscape="http://www.inkscape.org/namespaces/inkscape"
   version="1.1"
   id="Layer_1"
   x="0px"
   y="0px"
   width="296.25px"
   height="190px"
   viewBox="0 0 296.25 190"
   enable-background="new 0 0 296.25 190"
   xml:space="preserve"
   inkscape:version="0.48.4 r9939"
   sodipodi:docname="unionpay.svg"><metadata
     id="metadata3227"><rdf:RDF><cc:Work
         rdf:about=""><dc:format>image/svg+xml</dc:format><dc:type
           rdf:resource="http://purl.org/dc/dcmitype/StillImage" /><dc:title></dc:title></cc:Work></rdf:RDF></metadata><defs
     id="defs3225" /><sodipodi:namedview
     pagecolor="#ffffff"
     bordercolor="#666666"
     borderopacity="1"
     objecttolerance="10"
     gridtolerance="10"
     guidetolerance="10"
     inkscape:pageopacity="0"
     inkscape:pageshadow="2"
     inkscape:window-width="1280"
     inkscape:window-height="743"
     id="namedview3223"
     showgrid="false"
     inkscape:zoom="2.1198312"
     inkscape:cx="77.139639"
     inkscape:cy="79.790884"
     inkscape:window-x="0"
     inkscape:window-y="0"
     inkscape:window-maximized="1"
     inkscape:current-layer="g3206" /><g
     id="g3206"><path
       d="M 60.46875 0.4375 C 50.388626 0.4375 37.459873 8.597503 35.15625 18.6875 L 0.75 170.9375 C 0.540528 171.86675 0.413085 172.79637 0.34375 173.6875 L 0.34375 176.5 C 1.017577 183.77388 6.577187 189.06641 14.5625 189.1875 L 81.75 189.1875 L 163 189.1875 L 239.4375 189.1875 C 249.20999 188.7041 258.70874 180.77391 260.9375 171 L 295.34375 18.75 C 297.64749 8.669997 291.33875 0.46875 281.25 0.46875 L 208.5 0.46875 L 208.46875 0.46875 L 208.3125 0.46875 L 179.375 0.4375 L 127.25 0.4375 L 60.46875 0.4375 z M 42.5 48.75 L 51.75 48.75 L 45.6875 77.96875 C 45.501499 78.777252 45.42775 79.540505 45.4375 80.21875 C 45.42775 81.714874 45.809998 82.918503 46.5625 83.875 C 47.658749 85.296875 49.430252 86 51.90625 86 C 54.753502 86 57.116623 85.309624 58.9375 83.90625 C 60.758751 82.512749 61.934627 80.542503 62.46875 77.96875 L 68.53125 48.75 L 77.75 48.75 L 71.625 78.3125 C 70.602997 83.320251 68.206131 87.143631 64.53125 89.875 C 60.889751 92.560127 56.219124 93.9375 50.46875 93.9375 C 45.057125 93.9375 41.063003 92.540504 38.53125 89.78125 C 36.775375 87.820755 35.90625 85.322746 35.90625 82.3125 C 35.90625 81.067871 36.077625 79.752373 36.375 78.3125 L 42.5 48.75 z M 187.40625 50.3125 L 206.40625 50.3125 C 210.05749 50.3125 212.87125 51.15625 214.8125 52.78125 C 216.74499 54.426254 217.71875 56.768749 217.71875 59.84375 L 217.71875 59.9375 C 217.71875 60.522503 217.68001 61.191238 217.625 61.90625 C 217.53125 62.612492 217.40625 63.318749 217.25 64.0625 C 216.41376 68.131874 214.46875 71.42575 211.46875 73.90625 C 208.4575 76.37738 204.8875 77.59375 200.78125 77.59375 L 190.625 77.59375 L 187.46875 93.0625 L 178.65625 93.0625 L 187.40625 50.3125 z M 112.75 57.0625 L 120.0625 57.0625 L 118.6875 63.46875 L 111.375 63.46875 L 112.75 57.0625 z M 194.75 57.65625 L 192.15625 70.1875 L 200.625 70.1875 C 202.82625 70.1875 204.57001 69.668373 205.84375 68.65625 C 207.10751 67.634247 207.94251 66.055619 208.40625 63.9375 C 208.48001 63.546249 208.50626 63.200004 208.5625 62.875 C 208.59125 62.568752 208.625 62.265007 208.625 61.96875 C 208.625 60.453751 208.11 59.375 207.03125 58.6875 C 205.95375 57.98999 204.24876 57.65625 201.90625 57.65625 L 194.75 57.65625 z M 94.59375 66 C 97.34375 66 99.317376 66.799377 100.5625 68.40625 C 101.7885 70.013748 102.1425 72.241623 101.5625 75.09375 L 97.9375 93.0625 L 91.21875 93.0625 L 94.46875 76.78125 C 94.803757 75.099625 94.735374 73.839874 94.21875 73.03125 C 93.708496 72.223129 92.719749 71.8125 91.3125 71.8125 C 89.584503 71.8125 88.122002 72.368622 86.9375 73.4375 C 85.748001 74.515121 84.9795 76.001999 84.59375 77.90625 L 81.59375 93.0625 L 74.875 93.0625 L 80.125 66.6875 L 86.65625 66.6875 L 85.9375 70.46875 L 86.875 69.40625 C 88.993622 67.139626 91.555626 66 94.59375 66 z M 137.34375 66 C 140.60001 66 143.2025 66.897873 145.09375 68.71875 C 146.98375 70.549248 147.9375 73.015122 147.9375 76.15625 C 147.9375 76.694244 147.88249 77.331124 147.8125 78 C 147.72875 78.678246 147.61751 79.327622 147.5 79.96875 C 146.66 84.186501 144.85126 87.53762 142.03125 90 C 139.21126 92.480499 135.82375 93.71875 131.875 93.71875 C 128.60501 93.71875 126.01575 92.82425 124.125 91.03125 C 122.2295 89.219749 121.2905 86.790497 121.28125 83.6875 C 121.28125 83.157623 121.30475 82.535126 121.375 81.875 C 121.44487 81.206001 121.53125 80.57225 121.65625 79.96875 C 122.51562 75.685997 124.33688 72.290001 127.15625 69.78125 C 129.97125 67.263626 133.36751 66 137.34375 66 z M 169.53125 66 C 172.28125 66 174.26502 66.799377 175.5 68.40625 C 176.71875 70.013748 177.095 72.241623 176.5 75.09375 L 172.90625 93.0625 L 166.1875 93.0625 L 169.4375 76.78125 C 169.77124 75.099625 169.6675 73.839874 169.15625 73.03125 C 168.62625 72.223129 167.68249 71.8125 166.28125 71.8125 C 164.5525 71.8125 163.105 72.368622 161.90625 73.4375 C 160.71625 74.515121 159.90251 76.001999 159.53125 77.90625 L 156.53125 93.0625 L 149.8125 93.0625 L 155.09375 66.6875 L 161.625 66.6875 L 160.875 70.46875 L 161.8125 69.40625 C 163.93249 67.139626 166.5025 66 169.53125 66 z M 110.46875 66.6875 L 117.71875 66.6875 L 112.03125 93.0625 L 104.8125 93.0625 L 110.46875 66.6875 z M 252.875 66.6875 L 256.9375 66.6875 L 257.375 84.5 L 265 66.6875 L 272.71875 66.6875 L 257.1875 98.15625 C 254.39999 104.08312 251.7475 107.54887 250.1875 109.15625 C 248.625 110.74562 245.545 114.4355 238.09375 114.15625 L 238.71875 109.625 C 244.98875 107.6925 248.38001 98.979996 250.3125 95.125 L 248 66.75 L 252.875 66.6875 z M 226.125 68.125 C 228.64277 68.16051 230.52812 69.369846 232.53125 70.9375 L 235.59375 68.8125 L 242.8125 68.1875 L 237.34375 93.0625 L 229.03125 92.84375 L 227.8125 91.40625 C 206.63 100.41837 213.05624 73.067375 220.75 69.5 C 222.86781 68.517642 224.61434 68.103694 226.125 68.125 z M 136.1875 71.8125 C 134.18001 71.8125 132.5625 72.52488 131.28125 73.9375 C 129.98875 75.350128 129.07626 77.500877 128.5 80.34375 C 128.42125 80.780251 128.34126 81.197746 128.28125 81.625 C 128.235 82.061501 128.24124 82.472252 128.25 82.84375 C 128.25 84.460503 128.6375 85.711502 129.46875 86.59375 C 130.295 87.476624 131.49249 87.90625 133.03125 87.90625 C 135.0475 87.90625 136.66 87.206124 137.9375 85.8125 C 139.21501 84.428253 140.13001 82.327126 140.6875 79.53125 C 140.77125 79.094749 140.86 78.642624 140.90625 78.1875 C 140.9525 77.741249 140.96875 77.318375 140.96875 76.9375 C 140.96875 75.311501 140.55 74.04837 139.71875 73.15625 C 138.8925 72.254875 137.70625 71.8125 136.1875 71.8125 z M 228.125 73.8125 C 225.97469 73.866567 223.54532 76.286756 222.375 79.75 C 221.01875 83.707505 221.84625 87.525375 224.1875 88.25 C 226.52875 88.993126 229.53626 86.355003 230.875 82.40625 C 232.24 78.44825 231.37251 74.662125 229.03125 73.9375 C 228.74094 73.844594 228.43219 73.804776 228.125 73.8125 z M 224.21875 105.09375 L 232.5 105.09375 L 232.875 108.15625 C 232.81999 108.9365 233.265 109.3125 234.25 109.3125 L 235.71875 109.3125 L 234.25 114.5 L 228.125 114.5 C 225.79375 114.62062 224.61124 113.73637 224.5 111.8125 L 224.21875 105.09375 z M 172.03125 105.15625 L 186.65625 105.15625 L 181.0625 125.40625 C 180.59874 127.72063 178.60626 128.875 175.09375 128.875 L 158.53125 128.875 L 154.625 143.09375 C 154.40124 143.8555 154.72626 144.21875 155.5625 144.21875 L 158.84375 144.21875 L 157.625 148.65625 L 149.34375 148.65625 C 146.16126 148.65625 144.81874 147.67238 145.34375 145.75 L 156.34375 105.28125 L 164.09375 105.28125 L 163.71875 108.4375 C 163.71875 108.4375 168.07375 105.15625 172.03125 105.15625 z M 135.5 105.3125 L 144.3125 105.3125 L 142.46875 108.53125 L 153 108.53125 L 151.6875 113.5 L 139.125 113.5 C 137.68001 115.67387 135.92 116.68362 133.78125 116.5625 L 127.21875 116.5625 L 128.65625 111.375 L 129.90625 111.375 C 131.06751 111.375 131.85251 110.99025 132.21875 110.21875 L 135.5 105.3125 z M 196.6875 105.46875 L 205.53125 105.46875 L 205.15625 107.71875 C 205.15625 107.71875 209.655 105.46875 212.90625 105.46875 L 223.84375 105.46875 L 222.09375 111.625 L 220.375 111.625 L 212.125 140.625 L 213.84375 140.625 L 212.21875 146.375 L 210.5 146.375 L 209.78125 148.875 L 201.21875 148.875 L 201.9375 146.375 L 185.0625 146.375 L 186.71875 140.625 L 188.40625 140.625 L 196.65625 111.625 L 194.9375 111.625 L 196.6875 105.46875 z M 163.40625 111 L 161.84375 116.46875 C 161.84375 116.46875 164.02374 114.89988 167.65625 114.84375 C 171.27875 114.787 175.40625 114.84375 175.40625 114.84375 L 176.46875 111 L 163.40625 111 z M 204.46875 111.625 L 202.21875 119.46875 C 202.21875 119.46875 206.05876 117.9805 209.375 117.5625 C 210.10751 114.82125 211.09375 111.625 211.09375 111.625 L 204.46875 111.625 z M 221.78125 116.21875 L 248.6875 116.21875 L 247.09375 121.78125 L 238.53125 121.78125 L 237.0625 126.96875 L 245.625 126.96875 L 244.03125 132.53125 L 234.5 132.53125 L 232.34375 135.8125 L 237 135.8125 L 238.09375 142.34375 C 238.22249 142.99412 238.79625 143.3125 239.78125 143.3125 L 241.21875 143.3125 L 239.71875 148.6875 L 234.5625 148.6875 C 231.905 148.81838 230.55 147.92287 230.4375 146 L 229.1875 140.03125 L 224.9375 146.375 C 223.93375 148.16788 222.39249 149.00539 220.3125 148.875 L 212.5 148.875 L 214.03125 143.5 L 216.46875 143.5 C 217.4725 143.5 218.31 143.05713 219.0625 142.15625 L 225.6875 132.53125 L 217.125 132.53125 L 218.71875 126.96875 L 228 126.96875 L 229.5 121.78125 L 220.1875 121.78125 L 221.78125 116.21875 z M 127.21875 118.5 L 150.3125 118.5 L 148.84375 123.875 L 139.5625 123.875 L 138.125 129.0625 L 147.15625 129.0625 L 145.6875 134.4375 L 136.65625 134.4375 L 134.5625 142.125 C 134.0425 143.40762 134.7175 143.97463 136.59375 143.84375 L 143.96875 143.84375 L 142.59375 148.84375 L 128.46875 148.84375 C 125.78749 148.84375 124.8465 147.29337 125.6875 144.21875 L 128.375 134.4375 L 122.59375 134.4375 L 124.0625 129.0625 L 129.84375 129.0625 L 131.25 123.875 L 125.75 123.875 L 127.21875 118.5 z M 161.03125 119.625 L 159.9375 123.65625 L 171.75 123.65625 C 172.715 123.78713 173.2475 123.4325 173.3125 122.53125 L 174.09375 119.625 L 161.03125 119.625 z M 201.1875 123.15625 L 198.9375 131.375 C 198.9375 131.375 203.19875 129.27051 206.125 129.09375 C 206.97 125.91601 207.8125 123.15625 207.8125 123.15625 L 201.1875 123.15625 z M 162.90625 130.21875 L 170.4375 130.21875 L 170.3125 133.46875 L 172.3125 133.46875 C 173.32625 133.46875 173.84375 133.14062 173.84375 132.5 L 174.4375 130.40625 L 180.6875 130.40625 L 179.84375 133.46875 C 179.13625 136.03325 177.26625 137.36912 174.21875 137.5 L 170.21875 137.5 L 170.1875 143.09375 C 170.11375 143.98637 170.93124 144.4375 172.59375 144.4375 L 176.375 144.4375 L 175.15625 148.84375 L 166.09375 148.84375 C 163.55749 148.96437 162.3175 147.75101 162.34375 145.1875 L 162.90625 130.21875 z M 197.9375 134.65625 L 196.25 140.625 L 202.84375 140.625 L 204.53125 134.65625 L 197.9375 134.65625 z "
       id="path22" /><path
       id="path14"
       d="m208.46875,0.458753l-29.097504,-0.008743l28.931259,0.018738c0.054993,0 0.110001,-0.009994 0.166245,-0.009994"
       fill-rule="nonzero"
       fill="#e02f41" /><path
       id="path18"
       d="m179.371246,0.449994l-51.724998,-0.027496c-0.129997,0 -0.264999,0.008743 -0.400002,0.017502l52.125,0.009995"
       fill-rule="nonzero"
       fill="#2e4f7d" /></g></svg>